M48
; DRILL file KiCad 10.0.5 date 2026-08-11T12:07:33
; FORMAT={-:-/ absolute / metric / decimal}
; #@! TF.CreationDate,2026-08-11T12:07:33+02:00
; #@! TF.GenerationSoftware,Kicad,Pcbnew,10.0.5
; #@! TF.FileFunction,Plated,1,6,PTH
FMAT,2
METRIC
; #@! TA.AperFunction,Plated,PTH,ViaDrill
T1C0.200
; #@! TA.AperFunction,Plated,PTH,ComponentDrill
T2C0.400
; #@! TA.AperFunction,Plated,PTH,ComponentDrill
T3C1.000
%
G90
G05
T1
X100.425Y-110.716
X100.425Y-109.3
X100.65Y-111.75
X100.676Y-112.544
X100.951Y-114.503
X101.61Y-113.45
X101.635Y-109.465
X101.939Y-107.844
X101.985Y-103.903
X102.142Y-103.002
X102.168Y-112.99
X102.253Y-114.225
X102.287Y-104.404
X102.41Y-108.108
X102.58Y-105.13
X102.6Y-103.65
X102.723Y-115.265
X102.872Y-111.928
X102.9Y-102.835
X102.9Y-114.235
X102.92Y-112.53
X102.935Y-109.65
X103.03Y-109.047
X103.15Y-106.4
X103.254Y-104.455
X103.56Y-101.69
X103.6Y-109.75
X103.634Y-103.062
X103.65Y-102.56
X103.912Y-114.0
X103.95Y-111.05
X103.95Y-111.55
X104.232Y-103.79
X104.25Y-101.75
X104.4Y-105.65
X104.63Y-104.58
X104.65Y-102.6
X104.75Y-109.135
X104.8Y-111.88
X104.8Y-112.535
X105.012Y-101.721
X105.15Y-106.4
X105.2Y-110.55
X105.29Y-109.135
X105.39Y-107.635
X105.41Y-113.467
X105.538Y-103.147
X105.55Y-101.721
X105.55Y-104.15
X105.744Y-103.646
X105.785Y-112.383
X105.8Y-105.643
X106.15Y-102.65
X106.265Y-111.382
X106.35Y-105.15
X106.36Y-110.85
X106.378Y-109.79
X106.38Y-112.293
X106.55Y-103.6
X106.79Y-108.153
X106.79Y-112.995
X106.84Y-106.77
X106.85Y-102.65
X107.15Y-105.35
X107.175Y-113.374
X107.188Y-111.057
X107.207Y-109.991
X107.285Y-110.525
X107.285Y-111.61
X107.3Y-103.45
X107.35Y-101.721
X107.4Y-108.1
X107.45Y-104.45
X107.55Y-102.6
X107.6Y-105.05
X107.6Y-109.435
X107.65Y-106.04
X107.7Y-108.5
X107.765Y-112.1
X107.9Y-104.1
X107.972Y-114.454
X108.08Y-110.35
X108.13Y-101.88
X108.15Y-104.55
X108.15Y-109.435
X108.15Y-110.9
X108.15Y-111.4
X108.205Y-106.24
X108.35Y-111.9
X108.42Y-107.65
X108.6Y-102.65
X108.7Y-111.35
X108.736Y-113.856
X108.8Y-104.7
X108.9Y-103.65
X108.9Y-109.4
X108.95Y-107.9
X109.0Y-111.85
X109.175Y-112.825
X109.269Y-113.968
X109.276Y-109.989
X109.35Y-104.1
X109.661Y-106.105
X109.7Y-111.8
X109.9Y-102.8
X110.1Y-115.3
X110.145Y-109.365
X110.164Y-106.98
X110.401Y-103.662
X110.45Y-104.2
X110.522Y-105.585
X110.6Y-116.5
X110.685Y-109.365
X110.698Y-111.188
X110.95Y-107.7
X110.972Y-104.485
X110.975Y-105.025
X110.985Y-103.95
X110.994Y-105.636
X111.095Y-103.427
X111.389Y-115.065
X111.461Y-113.301
X111.464Y-112.5
X111.481Y-102.97
X111.5Y-115.65
X111.55Y-104.677
X111.6Y-105.4
X111.815Y-104.0
X111.9Y-105.95
X112.016Y-114.493
X112.12Y-102.822
X112.15Y-113.5
X112.169Y-103.578
X112.25Y-106.95
X112.3Y-102.3
X112.48Y-110.785
X112.648Y-114.27
X112.65Y-102.822
X112.82Y-104.4
X112.9Y-115.2
X112.906Y-104.958
X112.909Y-105.498
X112.95Y-113.55
X113.05Y-107.7
X113.07Y-113.0
X113.075Y-112.4
X113.138Y-102.693
X113.185Y-111.3
X113.215Y-108.3
X113.25Y-103.715
X113.3Y-110.8
X113.55Y-106.3
X113.85Y-108.3
X113.85Y-110.75
X113.9Y-103.715
X113.95Y-114.9
X113.98Y-108.89
X114.05Y-113.55
X114.164Y-102.685
X114.37Y-105.6
X114.4Y-111.35
X114.45Y-112.25
X114.498Y-103.578
X114.7Y-105.0
X114.7Y-108.2
X114.702Y-102.827
X114.75Y-104.1
X114.89Y-107.52
X114.957Y-115.615
X115.015Y-109.605
X115.017Y-112.225
X115.05Y-106.1
X115.116Y-111.694
X115.27Y-105.25
X115.274Y-103.073
X115.4Y-108.55
X115.401Y-111.235
X115.421Y-115.338
X115.45Y-114.8
X115.555Y-109.605
X115.559Y-103.477
X115.56Y-105.93
X115.75Y-104.05
X115.855Y-108.87
X115.924Y-107.643
X116.05Y-104.8
X116.05Y-105.35
X116.15Y-116.45
X116.35Y-115.15
X116.45Y-105.8
X116.575Y-102.98
X116.575Y-103.62
X116.575Y-108.985
T2
X100.8Y-116.0
X100.8Y-118.0
X101.8Y-116.0
X101.8Y-118.0
X103.34Y-116.0
X103.34Y-118.0
X104.34Y-116.0
X104.34Y-118.0
X105.88Y-116.0
X105.88Y-118.0
X106.88Y-116.0
X106.88Y-118.0
X108.42Y-116.0
X108.42Y-118.0
X109.42Y-116.0
X109.42Y-118.0
T3
X101.3Y-117.0
X103.84Y-117.0
X106.38Y-117.0
X108.92Y-117.0
M30
