%TF.GenerationSoftware,KiCad,Pcbnew,10.0.5*%
%TF.CreationDate,2026-08-11T12:07:31+02:00*%
%TF.ProjectId,OpenRX-Gemini,4f70656e-5258-42d4-9765-6d696e692e6b,rev?*%
%TF.SameCoordinates,Original*%
%TF.FileFunction,Soldermask,Top*%
%TF.FilePolarity,Negative*%
%FSLAX46Y46*%
G04 Gerber Fmt 4.6, Leading zero omitted, Abs format (unit mm)*
G04 Created by KiCad (PCBNEW 10.0.5) date 2026-08-11 12:07:31*
%MOMM*%
%LPD*%
G01*
G04 APERTURE LIST*
G04 Aperture macros list*
%AMRoundRect*
0 Rectangle with rounded corners*
0 $1 Rounding radius*
0 $2 $3 $4 $5 $6 $7 $8 $9 X,Y pos of 4 corners*
0 Add a 4 corners polygon primitive as box body*
4,1,4,$2,$3,$4,$5,$6,$7,$8,$9,$2,$3,0*
0 Add four circle primitives for the rounded corners*
1,1,$1+$1,$2,$3*
1,1,$1+$1,$4,$5*
1,1,$1+$1,$6,$7*
1,1,$1+$1,$8,$9*
0 Add four rect primitives between the rounded corners*
20,1,$1+$1,$2,$3,$4,$5,0*
20,1,$1+$1,$4,$5,$6,$7,0*
20,1,$1+$1,$6,$7,$8,$9,0*
20,1,$1+$1,$8,$9,$2,$3,0*%
%AMRotRect*
0 Rectangle, with rotation*
0 The origin of the aperture is its center*
0 $1 length*
0 $2 width*
0 $3 Rotation angle, in degrees counterclockwise*
0 Add horizontal line*
21,1,$1,$2,0,0,$3*%
G04 Aperture macros list end*
%ADD10C,0.600000*%
%ADD11RoundRect,0.475000X-0.475000X-1.275000X0.475000X-1.275000X0.475000X1.275000X-0.475000X1.275000X0*%
%ADD12RoundRect,0.100000X0.130000X0.100000X-0.130000X0.100000X-0.130000X-0.100000X0.130000X-0.100000X0*%
%ADD13R,0.280000X0.660000*%
%ADD14R,0.660000X0.280000*%
%ADD15R,1.700000X1.700000*%
%ADD16R,0.900000X0.700000*%
%ADD17RoundRect,0.100000X-0.130000X-0.100000X0.130000X-0.100000X0.130000X0.100000X-0.130000X0.100000X0*%
%ADD18R,0.200000X0.440000*%
%ADD19R,0.440000X0.200000*%
%ADD20R,0.760000X0.760000*%
%ADD21RoundRect,0.140000X-0.170000X0.140000X-0.170000X-0.140000X0.170000X-0.140000X0.170000X0.140000X0*%
%ADD22RoundRect,0.062500X-0.337500X-0.062500X0.337500X-0.062500X0.337500X0.062500X-0.337500X0.062500X0*%
%ADD23RoundRect,0.062500X-0.062500X-0.337500X0.062500X-0.337500X0.062500X0.337500X-0.062500X0.337500X0*%
%ADD24R,2.700000X2.700000*%
%ADD25R,0.450000X0.500000*%
%ADD26R,0.300000X0.300000*%
%ADD27C,1.500000*%
%ADD28RotRect,0.450000X0.500000X60.000000*%
%ADD29RotRect,0.300000X0.300000X60.000000*%
%ADD30RoundRect,0.100000X0.100000X-0.130000X0.100000X0.130000X-0.100000X0.130000X-0.100000X-0.130000X0*%
%ADD31R,0.300000X0.600000*%
%ADD32R,0.600000X0.300000*%
%ADD33RoundRect,0.100000X-0.100000X0.130000X-0.100000X-0.130000X0.100000X-0.130000X0.100000X0.130000X0*%
%ADD34RoundRect,0.147500X-0.147500X-0.172500X0.147500X-0.172500X0.147500X0.172500X-0.147500X0.172500X0*%
G04 APERTURE END LIST*
D10*
%TO.C,TP3*%
X105880000Y-116000000D03*
X105880000Y-118000000D03*
D11*
X106380000Y-117000000D03*
D10*
X106880000Y-116000000D03*
X106880000Y-118000000D03*
%TD*%
D12*
%TO.C,C24*%
X103150000Y-103650000D03*
X102510000Y-103650000D03*
%TD*%
D13*
%TO.C,U7*%
X114250000Y-107000000D03*
X114750000Y-107000000D03*
X115250000Y-107000000D03*
X115750000Y-107000000D03*
D14*
X116450000Y-106300000D03*
X116450000Y-105800000D03*
X116450000Y-105300000D03*
X116450000Y-104800000D03*
D13*
X115750000Y-104100000D03*
X115250000Y-104100000D03*
X114750000Y-104100000D03*
X114250000Y-104100000D03*
D14*
X113550000Y-104800000D03*
X113550000Y-105300000D03*
X113550000Y-105800000D03*
X113550000Y-106300000D03*
D15*
X115000000Y-105550000D03*
%TD*%
D16*
%TO.C,OSC1*%
X108250000Y-110750000D03*
X108250000Y-112550000D03*
X109450000Y-112550000D03*
X109450000Y-110750000D03*
%TD*%
D17*
%TO.C,R10*%
X109530000Y-107650000D03*
X110170000Y-107650000D03*
%TD*%
D12*
%TO.C,C33*%
X110070000Y-109950000D03*
X109430000Y-109950000D03*
%TD*%
%TO.C,C20*%
X105370000Y-114250000D03*
X104730000Y-114250000D03*
%TD*%
D18*
%TO.C,U8*%
X111400000Y-105930000D03*
X111900000Y-105930000D03*
X112400000Y-105930000D03*
D19*
X112830000Y-105500000D03*
X112830000Y-105000000D03*
X112830000Y-104500000D03*
D18*
X112400000Y-104070000D03*
X111900000Y-104070000D03*
X111400000Y-104070000D03*
D19*
X110970000Y-104500000D03*
X110970000Y-105000000D03*
X110970000Y-105500000D03*
D20*
X111900000Y-105000000D03*
%TD*%
D18*
%TO.C,U5*%
X104130000Y-104580000D03*
X104630000Y-104580000D03*
X105130000Y-104580000D03*
D19*
X105560000Y-104150000D03*
X105560000Y-103650000D03*
X105560000Y-103150000D03*
D18*
X105130000Y-102720000D03*
X104630000Y-102720000D03*
X104130000Y-102720000D03*
D19*
X103700000Y-103150000D03*
X103700000Y-103650000D03*
X103700000Y-104150000D03*
D20*
X104630000Y-103650000D03*
%TD*%
D21*
%TO.C,C11*%
X107600000Y-114070000D03*
X107600000Y-115030000D03*
%TD*%
D22*
%TO.C,U6*%
X110750000Y-110700000D03*
X110750000Y-111200000D03*
X110750000Y-111700000D03*
X110750000Y-112200000D03*
X110750000Y-112700000D03*
X110750000Y-113200000D03*
X110750000Y-113700000D03*
X110750000Y-114200000D03*
D23*
X111450000Y-114900000D03*
X111950000Y-114900000D03*
X112450000Y-114900000D03*
X112950000Y-114900000D03*
X113450000Y-114900000D03*
X113950000Y-114900000D03*
X114450000Y-114900000D03*
X114950000Y-114900000D03*
D22*
X115650000Y-114200000D03*
X115650000Y-113700000D03*
X115650000Y-113200000D03*
X115650000Y-112700000D03*
X115650000Y-112200000D03*
X115650000Y-111700000D03*
X115650000Y-111200000D03*
X115650000Y-110700000D03*
D23*
X114950000Y-110000000D03*
X114450000Y-110000000D03*
X113950000Y-110000000D03*
X113450000Y-110000000D03*
X112950000Y-110000000D03*
X112450000Y-110000000D03*
X111950000Y-110000000D03*
X111450000Y-110000000D03*
D24*
X113200000Y-112450000D03*
%TD*%
D17*
%TO.C,R9*%
X109080000Y-113400000D03*
X109720000Y-113400000D03*
%TD*%
D12*
%TO.C,C42*%
X114020000Y-103200000D03*
X113380000Y-103200000D03*
%TD*%
D22*
%TO.C,U3*%
X102150000Y-109050000D03*
X102150000Y-109550000D03*
X102150000Y-110050000D03*
X102150000Y-110550000D03*
X102150000Y-111050000D03*
X102150000Y-111550000D03*
X102150000Y-112050000D03*
X102150000Y-112550000D03*
D23*
X102850000Y-113250000D03*
X103350000Y-113250000D03*
X103850000Y-113250000D03*
X104350000Y-113250000D03*
X104850000Y-113250000D03*
X105350000Y-113250000D03*
X105850000Y-113250000D03*
X106350000Y-113250000D03*
D22*
X107050000Y-112550000D03*
X107050000Y-112050000D03*
X107050000Y-111550000D03*
X107050000Y-111050000D03*
X107050000Y-110550000D03*
X107050000Y-110050000D03*
X107050000Y-109550000D03*
X107050000Y-109050000D03*
D23*
X106350000Y-108350000D03*
X105850000Y-108350000D03*
X105350000Y-108350000D03*
X104850000Y-108350000D03*
X104350000Y-108350000D03*
X103850000Y-108350000D03*
X103350000Y-108350000D03*
X102850000Y-108350000D03*
D24*
X104600000Y-110800000D03*
%TD*%
D12*
%TO.C,C38*%
X113420000Y-115900000D03*
X112780000Y-115900000D03*
%TD*%
%TO.C,C14*%
X101120000Y-109000000D03*
X100480000Y-109000000D03*
%TD*%
%TO.C,C15*%
X101120000Y-109700000D03*
X100480000Y-109700000D03*
%TD*%
D25*
%TO.C,FL1*%
X106370000Y-107250000D03*
D26*
X106950000Y-107550000D03*
D25*
X107530000Y-107250000D03*
D26*
X106950000Y-106950000D03*
%TD*%
D17*
%TO.C,C37*%
X114930000Y-115900000D03*
X115570000Y-115900000D03*
%TD*%
D10*
%TO.C,TP1*%
X100800000Y-116000000D03*
X100800000Y-118000000D03*
D11*
X101300000Y-117000000D03*
D10*
X101800000Y-116000000D03*
X101800000Y-118000000D03*
%TD*%
D27*
%TO.C,TP5*%
X101065000Y-102315000D03*
%TD*%
D12*
%TO.C,C23*%
X106770000Y-102100000D03*
X106130000Y-102100000D03*
%TD*%
D28*
%TO.C,FL2*%
X114760000Y-108902295D03*
D29*
X115309808Y-108550000D03*
D28*
X115340000Y-107897705D03*
D29*
X114790192Y-108250000D03*
%TD*%
D30*
%TO.C,R11*%
X116600000Y-108120000D03*
X116600000Y-107480000D03*
%TD*%
D31*
%TO.C,T2*%
X111250000Y-108450000D03*
X111750000Y-108450000D03*
X112250000Y-108450000D03*
X112750000Y-108450000D03*
D32*
X113000000Y-107700000D03*
D31*
X112750000Y-106950000D03*
X112250000Y-106950000D03*
X111750000Y-106950000D03*
X111250000Y-106950000D03*
D32*
X111000000Y-107700000D03*
%TD*%
D10*
%TO.C,TP2*%
X103340000Y-116000000D03*
X103340000Y-118000000D03*
D11*
X103840000Y-117000000D03*
D10*
X104340000Y-116000000D03*
X104340000Y-118000000D03*
%TD*%
D33*
%TO.C,C2*%
X100850000Y-106930000D03*
X100850000Y-107570000D03*
%TD*%
D10*
%TO.C,TP4*%
X108420000Y-116000000D03*
X108420000Y-118000000D03*
D11*
X108920000Y-117000000D03*
D10*
X109420000Y-116000000D03*
X109420000Y-118000000D03*
%TD*%
D12*
%TO.C,C19*%
X101470000Y-108300000D03*
X100830000Y-108300000D03*
%TD*%
D13*
%TO.C,U4*%
X107200000Y-106350000D03*
X107700000Y-106350000D03*
X108200000Y-106350000D03*
X108700000Y-106350000D03*
D14*
X109400000Y-105650000D03*
X109400000Y-105150000D03*
X109400000Y-104650000D03*
X109400000Y-104150000D03*
D13*
X108700000Y-103450000D03*
X108200000Y-103450000D03*
X107700000Y-103450000D03*
X107200000Y-103450000D03*
D14*
X106500000Y-104150000D03*
X106500000Y-104650000D03*
X106500000Y-105150000D03*
X106500000Y-105650000D03*
D15*
X107950000Y-104900000D03*
%TD*%
D12*
%TO.C,C34*%
X108365000Y-113400000D03*
X107725000Y-113400000D03*
%TD*%
D17*
%TO.C,C13*%
X108080000Y-109950000D03*
X108720000Y-109950000D03*
%TD*%
D33*
%TO.C,R12*%
X116600000Y-102980000D03*
X116600000Y-103620000D03*
%TD*%
%TO.C,C39*%
X108700000Y-108530000D03*
X108700000Y-109170000D03*
%TD*%
D34*
%TO.C,L7*%
X109515000Y-108500000D03*
X110485000Y-108500000D03*
%TD*%
D33*
%TO.C,R7*%
X110600000Y-102330000D03*
X110600000Y-102970000D03*
%TD*%
D17*
%TO.C,R1*%
X101680000Y-106350000D03*
X102320000Y-106350000D03*
%TD*%
D33*
%TO.C,C7*%
X101150000Y-112230000D03*
X101150000Y-112870000D03*
%TD*%
D30*
%TO.C,R6*%
X101150000Y-111470000D03*
X101150000Y-110830000D03*
%TD*%
D34*
%TO.C,L5*%
X101665000Y-107200000D03*
X102635000Y-107200000D03*
%TD*%
D33*
%TO.C,R8*%
X109900000Y-102780000D03*
X109900000Y-103420000D03*
%TD*%
D31*
%TO.C,T1*%
X103400000Y-107150000D03*
X103900000Y-107150000D03*
X104400000Y-107150000D03*
X104900000Y-107150000D03*
D32*
X105150000Y-106400000D03*
D31*
X104900000Y-105650000D03*
X104400000Y-105650000D03*
X103900000Y-105650000D03*
X103400000Y-105650000D03*
D32*
X103150000Y-106400000D03*
%TD*%
M02*
