%TF.GenerationSoftware,KiCad,Pcbnew,10.0.5*%
%TF.CreationDate,2026-08-11T12:07:31+02:00*%
%TF.ProjectId,OpenRX-Gemini,4f70656e-5258-42d4-9765-6d696e692e6b,rev?*%
%TF.SameCoordinates,Original*%
%TF.FileFunction,Copper,L3,Inr*%
%TF.FilePolarity,Positive*%
%FSLAX46Y46*%
G04 Gerber Fmt 4.6, Leading zero omitted, Abs format (unit mm)*
G04 Created by KiCad (PCBNEW 10.0.5) date 2026-08-11 12:07:31*
%MOMM*%
%LPD*%
G01*
G04 APERTURE LIST*
G04 Aperture macros list*
%AMRoundRect*
0 Rectangle with rounded corners*
0 $1 Rounding radius*
0 $2 $3 $4 $5 $6 $7 $8 $9 X,Y pos of 4 corners*
0 Add a 4 corners polygon primitive as box body*
4,1,4,$2,$3,$4,$5,$6,$7,$8,$9,$2,$3,0*
0 Add four circle primitives for the rounded corners*
1,1,$1+$1,$2,$3*
1,1,$1+$1,$4,$5*
1,1,$1+$1,$6,$7*
1,1,$1+$1,$8,$9*
0 Add four rect primitives between the rounded corners*
20,1,$1+$1,$2,$3,$4,$5,0*
20,1,$1+$1,$4,$5,$6,$7,0*
20,1,$1+$1,$6,$7,$8,$9,0*
20,1,$1+$1,$8,$9,$2,$3,0*%
G04 Aperture macros list end*
%TA.AperFunction,ComponentPad*%
%ADD10C,0.600000*%
%TD*%
%TA.AperFunction,ComponentPad*%
%ADD11RoundRect,0.475000X-0.475000X-1.275000X0.475000X-1.275000X0.475000X1.275000X-0.475000X1.275000X0*%
%TD*%
%TA.AperFunction,ViaPad*%
%ADD12C,0.450000*%
%TD*%
%TA.AperFunction,Conductor*%
%ADD13C,0.090000*%
%TD*%
%TA.AperFunction,Conductor*%
%ADD14C,0.400000*%
%TD*%
G04 APERTURE END LIST*
D10*
%TO.N,+5V*%
%TO.C,TP3*%
X105880000Y-116000000D03*
X105880000Y-118000000D03*
D11*
X106380000Y-117000000D03*
D10*
X106880000Y-116000000D03*
X106880000Y-118000000D03*
%TD*%
%TO.N,Net-(U1-U0RXD)*%
%TO.C,TP1*%
X100800000Y-116000000D03*
X100800000Y-118000000D03*
D11*
X101300000Y-117000000D03*
D10*
X101800000Y-116000000D03*
X101800000Y-118000000D03*
%TD*%
%TO.N,Net-(U1-U0TXD)*%
%TO.C,TP2*%
X103340000Y-116000000D03*
X103340000Y-118000000D03*
D11*
X103840000Y-117000000D03*
D10*
X104340000Y-116000000D03*
X104340000Y-118000000D03*
%TD*%
%TO.N,GND*%
%TO.C,TP4*%
X108420000Y-116000000D03*
X108420000Y-118000000D03*
D11*
X108920000Y-117000000D03*
D10*
X109420000Y-116000000D03*
X109420000Y-118000000D03*
%TD*%
D12*
%TO.N,+5V*%
X100676186Y-112544071D03*
X100650000Y-111750000D03*
%TO.N,Net-(J1-In)*%
X102600000Y-103650000D03*
%TO.N,GND*%
X111600000Y-105400000D03*
X111095199Y-103427436D03*
X102287211Y-104403673D03*
X106789999Y-108153239D03*
X105150000Y-106400000D03*
X104630000Y-104580000D03*
X113900000Y-103715000D03*
X107150000Y-105350000D03*
X104650000Y-102600000D03*
X112650000Y-102821500D03*
X114450000Y-112250000D03*
X114702340Y-102826602D03*
X116350000Y-115150000D03*
X101985000Y-103902853D03*
X103600000Y-109750000D03*
X110685000Y-109365000D03*
X106850000Y-102650000D03*
X104232451Y-103790000D03*
X104800000Y-111880000D03*
X112250000Y-106950000D03*
X115924170Y-107643142D03*
X113215002Y-108300000D03*
X110950000Y-107700000D03*
X103150000Y-106400000D03*
X108150000Y-104550000D03*
X114370000Y-105600000D03*
X109700000Y-111800000D03*
X108900000Y-109400000D03*
X105785000Y-112383329D03*
X111815002Y-104000000D03*
X108130000Y-101880000D03*
X115558660Y-103477456D03*
X115560000Y-105930000D03*
X109000000Y-111850000D03*
X110521683Y-105585222D03*
X107650000Y-106040000D03*
X113137597Y-102693286D03*
X112119692Y-102821500D03*
X114498035Y-103578500D03*
X115050000Y-106100000D03*
X106150000Y-102650000D03*
X106840000Y-106770000D03*
X112150000Y-113500000D03*
X107550000Y-102600000D03*
X102900000Y-102835000D03*
X103950000Y-111050000D03*
X102410000Y-108107895D03*
X114890000Y-107520260D03*
X105550000Y-101721500D03*
X102168232Y-112989998D03*
X115270000Y-105250000D03*
X108600000Y-102650000D03*
X111500000Y-115650000D03*
X116050000Y-105350000D03*
X112169271Y-103578500D03*
X107349991Y-101721496D03*
X107450000Y-104450000D03*
X115450000Y-114800000D03*
X107600000Y-105050000D03*
X112950000Y-113550000D03*
X102900000Y-114235000D03*
X108150000Y-111400000D03*
X102142106Y-103002046D03*
X108350000Y-111900000D03*
X108150000Y-110900000D03*
X116575000Y-108985002D03*
X115273597Y-103072773D03*
X110993697Y-105636487D03*
X103253893Y-104455225D03*
X105390000Y-107635000D03*
X104400000Y-105650000D03*
X103950000Y-111550000D03*
X111481394Y-102970231D03*
X114750000Y-104100000D03*
X108700000Y-111350000D03*
X113300000Y-110800000D03*
X114700000Y-105000000D03*
X113070000Y-113000000D03*
X104250000Y-101750000D03*
X110100000Y-115300000D03*
X113050000Y-107700000D03*
X113184998Y-111300000D03*
X105200000Y-110550000D03*
X110600000Y-116500000D03*
X107300000Y-103450000D03*
X110971767Y-104485000D03*
X111550347Y-104677350D03*
X103634000Y-103062000D03*
X114700000Y-108200000D03*
X108420000Y-107650000D03*
X114400000Y-111350000D03*
X105012342Y-101721500D03*
X108080000Y-110350000D03*
X115750000Y-104050000D03*
X108204559Y-106240000D03*
X108900000Y-103650000D03*
X107900000Y-104100000D03*
X113075000Y-112400000D03*
X115400000Y-108550000D03*
X103650000Y-102560000D03*
X115420728Y-115337589D03*
X114164088Y-102685029D03*
X113850000Y-110750000D03*
X106350000Y-105150000D03*
X110450000Y-104200000D03*
X113250000Y-103715000D03*
X100425000Y-109300000D03*
X110984998Y-103950000D03*
X108800000Y-104700000D03*
X116050000Y-104800000D03*
X100424999Y-110715884D03*
X114050000Y-113550000D03*
X102579559Y-105129559D03*
X109350000Y-104100000D03*
X109275950Y-109989050D03*
X111900000Y-105950000D03*
X107765000Y-112100000D03*
X116150000Y-116450000D03*
%TO.N,/LR1121_B/RXEN24*%
X115855000Y-108869998D03*
X116575000Y-103620000D03*
X116450000Y-105800000D03*
%TO.N,+3V3*%
X101635000Y-109464501D03*
X105537679Y-103146796D03*
X107400000Y-108100000D03*
X111463627Y-112500000D03*
X107971569Y-114454024D03*
X109900000Y-102800000D03*
X107700000Y-108500000D03*
X101938974Y-107843818D03*
X104800462Y-112535000D03*
X105800000Y-105642755D03*
X113550000Y-106300000D03*
X102934998Y-109650000D03*
X102253319Y-114224999D03*
X114957429Y-115615000D03*
X116575000Y-102980000D03*
X110697742Y-111187888D03*
X112820000Y-104400000D03*
X112480000Y-110784998D03*
%TO.N,/Clock/TCXO_Out*%
X101610000Y-113450000D03*
X109175000Y-112825000D03*
%TO.N,Net-(U3-VREG)*%
X103912500Y-114000000D03*
%TO.N,/LR1121_B/CTRL1*%
X112908646Y-105498492D03*
X112647509Y-114269999D03*
%TO.N,/LR1121_B/CTRL2*%
X112016367Y-114493310D03*
X112905542Y-104958498D03*
%TO.N,Net-(U8-RFC)*%
X110975000Y-105024999D03*
%TO.N,/LR1121_A/CTRL1*%
X105550000Y-104150000D03*
X102871680Y-111928320D03*
%TO.N,/LR1121_A/CTRL2*%
X105743721Y-103645943D03*
X102920441Y-112529559D03*
%TO.N,/ESP32-C3/RST_B*%
X104750000Y-109134998D03*
X111461217Y-113300846D03*
%TO.N,/ESP32-C3/DIO1_B*%
X108950000Y-107900000D03*
X111389475Y-115065000D03*
%TO.N,Net-(U6-VREG)*%
X112900000Y-115200000D03*
%TO.N,Net-(U6-DCC_SW)*%
X113950000Y-114900000D03*
%TO.N,/ESP32-C3/MISO*%
X106380073Y-112293070D03*
X115016853Y-112224671D03*
X107284998Y-110525419D03*
%TO.N,/ESP32-C3/MOSI*%
X115116148Y-111693876D03*
X107206758Y-109991115D03*
X106790000Y-112994679D03*
%TO.N,/ESP32-C3/SCK*%
X115400813Y-111235002D03*
X107600000Y-109434998D03*
X106265000Y-111381597D03*
%TO.N,/ESP32-C3/NSS_B*%
X115555001Y-109604997D03*
X106359654Y-110849955D03*
%TO.N,/ESP32-C3/BUSY_B*%
X115015000Y-109605157D03*
%TO.N,/ESP32-C3/RST_A*%
X100951422Y-114502723D03*
%TO.N,/ESP32-C3/DIO1_A*%
X108735925Y-113856076D03*
X102722519Y-115264999D03*
%TO.N,Net-(U3-DCC_SW)*%
X105410000Y-113467210D03*
%TO.N,/LR1121_A/TXEN24*%
X107284998Y-111610000D03*
X110400564Y-103662266D03*
%TO.N,/LR1121_A/RXEN24*%
X109660602Y-106105002D03*
X107187743Y-111056588D03*
%TO.N,/ESP32-C3/NSS_A*%
X108150000Y-109434998D03*
X109268712Y-113968475D03*
%TO.N,/ESP32-C3/BUSY_A*%
X107174732Y-113373604D03*
X105290003Y-109134998D03*
%TO.N,Net-(U1-U0RXD)*%
X110144997Y-109365000D03*
X103030335Y-109047193D03*
%TO.N,/ESP32-C3/BOOT*%
X106378206Y-109790000D03*
X110164354Y-106980000D03*
X103560000Y-101690000D03*
%TO.N,Net-(U1-U0TXD)*%
X113980000Y-108890000D03*
%TO.N,/ESP32-C3/LED*%
X112300000Y-102300000D03*
X106550000Y-103600000D03*
X113850000Y-108300000D03*
%TD*%
%TO.N,/LR1121_B/RXEN24*%
D13*
X115919998Y-108869998D02*
X116450000Y-108339996D01*
X116450000Y-108339996D02*
X116450000Y-105800000D01*
X115855000Y-108869998D02*
X115919998Y-108869998D01*
%TO.N,+3V3*%
D14*
X101670499Y-109500000D02*
X102784998Y-109500000D01*
X104800462Y-112535000D02*
X104793436Y-112542026D01*
X104213706Y-112542026D02*
X102934998Y-111263318D01*
X104793436Y-112542026D02*
X104213706Y-112542026D01*
X101635000Y-109464501D02*
X101670499Y-109500000D01*
X102934998Y-111263318D02*
X102934998Y-109650000D01*
X102784998Y-109500000D02*
X102934998Y-109650000D01*
%TO.N,/Clock/TCXO_Out*%
D13*
X106965883Y-114450000D02*
X103850000Y-114450000D01*
X103850000Y-114450000D02*
X102850000Y-113450000D01*
X102850000Y-113450000D02*
X101610000Y-113450000D01*
X109175000Y-112825000D02*
X108590883Y-112825000D01*
X108590883Y-112825000D02*
X106965883Y-114450000D01*
%TO.N,/LR1121_B/CTRL1*%
X114400000Y-108409117D02*
X114400000Y-109900000D01*
X114250000Y-108259117D02*
X114400000Y-108409117D01*
X114250000Y-107600000D02*
X114250000Y-108259117D01*
X114400000Y-109900000D02*
X115000000Y-110500000D01*
X113839118Y-114269999D02*
X112647509Y-114269999D01*
X115000000Y-110500000D02*
X115174928Y-110500000D01*
X112908646Y-106258646D02*
X114250000Y-107600000D01*
X112908646Y-105498492D02*
X112908646Y-106258646D01*
X115174928Y-110500000D02*
X115760813Y-111085885D01*
X115760813Y-112348304D02*
X113839118Y-114269999D01*
X115760813Y-111085885D02*
X115760813Y-112348304D01*
%TO.N,/LR1121_B/CTRL2*%
X114650000Y-108790883D02*
X114650000Y-109750000D01*
X115370000Y-110320000D02*
X116000000Y-110950000D01*
X112967615Y-104958498D02*
X115250000Y-107240883D01*
X115250000Y-107240883D02*
X115250000Y-108190883D01*
X115220000Y-110320000D02*
X115370000Y-110320000D01*
X112905542Y-104958498D02*
X112967615Y-104958498D01*
X113300000Y-114650000D02*
X112173057Y-114650000D01*
X114000000Y-114500000D02*
X113450000Y-114500000D01*
X112173057Y-114650000D02*
X112016367Y-114493310D01*
X113450000Y-114500000D02*
X113300000Y-114650000D01*
X114650000Y-109750000D02*
X115220000Y-110320000D01*
X116000000Y-112500000D02*
X114000000Y-114500000D01*
X116000000Y-110950000D02*
X116000000Y-112500000D01*
X115250000Y-108190883D02*
X114650000Y-108790883D01*
%TO.N,/LR1121_A/CTRL1*%
X104089852Y-104150000D02*
X101275000Y-106964852D01*
X101275000Y-110331640D02*
X102871680Y-111928320D01*
X105550000Y-104150000D02*
X104089852Y-104150000D01*
X101275000Y-106964852D02*
X101275000Y-110331640D01*
%TO.N,/LR1121_A/CTRL2*%
X104850000Y-103400000D02*
X103800000Y-103400000D01*
X101000000Y-110850000D02*
X102679559Y-112529559D01*
X103800000Y-103400000D02*
X101000000Y-106200000D01*
X105743721Y-103645943D02*
X105095943Y-103645943D01*
X102679559Y-112529559D02*
X102920441Y-112529559D01*
X105095943Y-103645943D02*
X104850000Y-103400000D01*
X101000000Y-106200000D02*
X101000000Y-110850000D01*
%TO.N,/ESP32-C3/DIO1_B*%
X108950000Y-107900000D02*
X108880440Y-107900000D01*
X105050000Y-113286327D02*
X105050000Y-113616327D01*
X109324117Y-112465000D02*
X111389475Y-114530358D01*
X111389475Y-114530358D02*
X111389475Y-115065000D01*
X108880440Y-107900000D02*
X107705442Y-109074998D01*
X106738206Y-110011794D02*
X106480000Y-110270000D01*
X107211325Y-113950000D02*
X108696325Y-112465000D01*
X106480000Y-110270000D02*
X106175442Y-110270000D01*
X105245000Y-111200442D02*
X105245000Y-113091327D01*
X105050000Y-113616327D02*
X105383673Y-113950000D01*
X107450883Y-109074998D02*
X106738206Y-109787675D01*
X108696325Y-112465000D02*
X109324117Y-112465000D01*
X106175442Y-110270000D02*
X105245000Y-111200442D01*
X105383673Y-113950000D02*
X107211325Y-113950000D01*
X107705442Y-109074998D02*
X107450883Y-109074998D01*
X106738206Y-109787675D02*
X106738206Y-110011794D01*
X105245000Y-113091327D02*
X105050000Y-113286327D01*
%TO.N,/ESP32-C3/MISO*%
X107540883Y-112500000D02*
X108359117Y-112500000D01*
X106827743Y-111845400D02*
X106380073Y-112293070D01*
X111410000Y-113910000D02*
X113180883Y-113910000D01*
X109750000Y-112250000D02*
X111410000Y-113910000D01*
X107284998Y-110525419D02*
X107209795Y-110525419D01*
X108609117Y-112250000D02*
X109750000Y-112250000D01*
X114631524Y-112610000D02*
X115016853Y-112224671D01*
X107209795Y-110525419D02*
X106827743Y-110907471D01*
X106827743Y-110907471D02*
X106827743Y-111845400D01*
X114480883Y-112610000D02*
X114631524Y-112610000D01*
X113180883Y-113910000D02*
X114480883Y-112610000D01*
X106380073Y-112293070D02*
X107333953Y-112293070D01*
X107333953Y-112293070D02*
X107540883Y-112500000D01*
X108359117Y-112500000D02*
X108609117Y-112250000D01*
%TO.N,/ESP32-C3/MOSI*%
X115000024Y-111810000D02*
X112610000Y-111810000D01*
X105425000Y-111275000D02*
X106250000Y-110450000D01*
X107207873Y-109990000D02*
X107206758Y-109991115D01*
X115116148Y-111693876D02*
X115000024Y-111810000D01*
X112610000Y-111810000D02*
X111160000Y-110360000D01*
X105694679Y-112994679D02*
X105425000Y-112725000D01*
X105425000Y-112725000D02*
X105425000Y-111275000D01*
X106790000Y-112994679D02*
X105694679Y-112994679D01*
X108769117Y-110360000D02*
X108399117Y-109990000D01*
X106250000Y-110450000D02*
X106747873Y-110450000D01*
X111160000Y-110360000D02*
X108769117Y-110360000D01*
X108399117Y-109990000D02*
X107207873Y-109990000D01*
X106747873Y-110450000D02*
X107206758Y-109991115D01*
%TO.N,/ESP32-C3/SCK*%
X115400813Y-111235002D02*
X114985002Y-111235002D01*
X114985002Y-111235002D02*
X113900000Y-110150000D01*
X113900000Y-110150000D02*
X110200000Y-110150000D01*
X110200000Y-110150000D02*
X108900000Y-108850000D01*
X108184998Y-108850000D02*
X107600000Y-109434998D01*
X108900000Y-108850000D02*
X108184998Y-108850000D01*
%TO.N,/ESP32-C3/DIO1_A*%
X102700000Y-115100000D02*
X102850000Y-114950000D01*
X108735925Y-114214075D02*
X108735925Y-113856076D01*
X102722519Y-115264999D02*
X102722519Y-115137519D01*
X102850000Y-114950000D02*
X108000000Y-114950000D01*
X102700000Y-115115000D02*
X102700000Y-115100000D01*
X108000000Y-114950000D02*
X108735925Y-114214075D01*
X102722519Y-115137519D02*
X102700000Y-115115000D01*
%TO.N,Net-(U1-U0RXD)*%
X103195219Y-109054781D02*
X105850000Y-106400000D01*
X103037923Y-109054781D02*
X103195219Y-109054781D01*
X110550000Y-107259117D02*
X110144997Y-107664120D01*
X103030335Y-109047193D02*
X103037923Y-109054781D01*
X110300000Y-106600000D02*
X110550000Y-106850000D01*
X110550000Y-106850000D02*
X110550000Y-107259117D01*
X110144997Y-107664120D02*
X110144997Y-109365000D01*
X105850000Y-106400000D02*
X107750000Y-106400000D01*
X107950000Y-106600000D02*
X110300000Y-106600000D01*
X107750000Y-106400000D02*
X107950000Y-106600000D01*
%TO.N,/ESP32-C3/BOOT*%
X110164354Y-107135646D02*
X110150000Y-107150000D01*
X110150000Y-107150000D02*
X107246646Y-107150000D01*
X110164354Y-106980000D02*
X110164354Y-107135646D01*
X107246646Y-107150000D02*
X106378206Y-108018440D01*
X106378206Y-108018440D02*
X106378206Y-109790000D01*
%TO.N,Net-(U1-U0TXD)*%
X100799117Y-103750883D02*
X102350000Y-102200000D01*
X108850883Y-103010000D02*
X109950000Y-104109117D01*
X100799117Y-111390000D02*
X100799117Y-103750883D01*
X101250000Y-114301597D02*
X101250000Y-111840883D01*
X103340000Y-116300000D02*
X103248403Y-116300000D01*
X113110883Y-108730000D02*
X113820000Y-108730000D01*
X109950000Y-105569117D02*
X113110883Y-108730000D01*
X109950000Y-104109117D02*
X109950000Y-105569117D01*
X105910000Y-103010000D02*
X108850883Y-103010000D01*
X103248403Y-116300000D02*
X101250000Y-114301597D01*
X101250000Y-111840883D02*
X100799117Y-111390000D01*
X113820000Y-108730000D02*
X113980000Y-108890000D01*
X102350000Y-102200000D02*
X105100000Y-102200000D01*
X105100000Y-102200000D02*
X105910000Y-103010000D01*
%TO.N,/ESP32-C3/LED*%
X113850000Y-107454558D02*
X112350000Y-105954558D01*
X113253428Y-102300000D02*
X113497597Y-102544169D01*
X113497597Y-102544169D02*
X113497597Y-102852403D01*
X112350000Y-105954558D02*
X112350000Y-104000000D01*
X113497597Y-102852403D02*
X112350000Y-104000000D01*
X112300000Y-102300000D02*
X113253428Y-102300000D01*
X113850000Y-108300000D02*
X113850000Y-107454558D01*
%TD*%
%TA.AperFunction,Conductor*%
%TO.N,GND*%
G36*
X109706761Y-112398387D02*
G01*
X111292617Y-113984243D01*
X111292630Y-113984258D01*
X111313747Y-114005374D01*
X111333245Y-114024872D01*
X111333247Y-114024873D01*
X111333249Y-114024874D01*
X111348710Y-114031278D01*
X111348711Y-114031278D01*
X111383048Y-114045501D01*
X111383049Y-114045501D01*
X111442072Y-114045501D01*
X111442080Y-114045500D01*
X112336606Y-114045500D01*
X112367719Y-114058387D01*
X112380606Y-114089500D01*
X112374711Y-114111500D01*
X112353512Y-114148216D01*
X112353510Y-114148220D01*
X112345164Y-114179369D01*
X112332336Y-114227245D01*
X112332009Y-114228464D01*
X112332009Y-114256543D01*
X112319122Y-114287656D01*
X112288009Y-114300543D01*
X112256896Y-114287656D01*
X112210087Y-114240847D01*
X112138149Y-114199313D01*
X112138145Y-114199311D01*
X112117279Y-114193720D01*
X112057903Y-114177810D01*
X111974831Y-114177810D01*
X111939702Y-114187223D01*
X111894588Y-114199311D01*
X111894584Y-114199313D01*
X111822647Y-114240847D01*
X111822646Y-114240847D01*
X111763904Y-114299589D01*
X111763904Y-114299590D01*
X111722370Y-114371527D01*
X111722368Y-114371531D01*
X111722368Y-114371532D01*
X111700867Y-114451774D01*
X111700867Y-114534846D01*
X111719587Y-114604710D01*
X111722368Y-114615088D01*
X111722370Y-114615092D01*
X111750059Y-114663050D01*
X111763905Y-114687031D01*
X111822646Y-114745772D01*
X111894589Y-114787309D01*
X111974831Y-114808810D01*
X111974833Y-114808810D01*
X112057901Y-114808810D01*
X112057903Y-114808810D01*
X112138145Y-114787309D01*
X112138146Y-114787308D01*
X112139297Y-114787000D01*
X112150685Y-114785501D01*
X112205129Y-114785501D01*
X112205137Y-114785500D01*
X113267920Y-114785500D01*
X113267928Y-114785501D01*
X113273047Y-114785501D01*
X113326952Y-114785501D01*
X113326953Y-114785501D01*
X113362167Y-114770913D01*
X113376755Y-114764872D01*
X113414872Y-114726755D01*
X113414872Y-114726754D01*
X113421057Y-114720569D01*
X113421058Y-114720566D01*
X113421061Y-114720564D01*
X113493240Y-114648387D01*
X113524352Y-114635500D01*
X113662625Y-114635500D01*
X113693738Y-114648387D01*
X113706625Y-114679500D01*
X113698481Y-114703493D01*
X113698980Y-114703781D01*
X113656003Y-114778217D01*
X113656001Y-114778221D01*
X113646280Y-114814500D01*
X113634500Y-114858464D01*
X113634500Y-114941536D01*
X113651848Y-115006279D01*
X113656001Y-115021778D01*
X113656003Y-115021782D01*
X113680881Y-115064870D01*
X113697538Y-115093721D01*
X113756279Y-115152462D01*
X113828222Y-115193999D01*
X113908464Y-115215500D01*
X113908466Y-115215500D01*
X113991534Y-115215500D01*
X113991536Y-115215500D01*
X114071778Y-115193999D01*
X114143721Y-115152462D01*
X114202462Y-115093721D01*
X114243999Y-115021778D01*
X114265500Y-114941536D01*
X114265500Y-114858464D01*
X114243999Y-114778222D01*
X114202462Y-114706279D01*
X114143721Y-114647538D01*
X114143720Y-114647537D01*
X114130215Y-114639740D01*
X114109714Y-114613023D01*
X114114110Y-114579635D01*
X114121098Y-114570526D01*
X114674887Y-114016738D01*
X114706000Y-114003851D01*
X114737113Y-114016738D01*
X114750000Y-114047851D01*
X114750000Y-114550000D01*
X116755500Y-114550000D01*
X116786613Y-114562887D01*
X116799500Y-114594000D01*
X116799500Y-116446537D01*
X116798958Y-116453420D01*
X116785931Y-116535665D01*
X116781677Y-116548758D01*
X116745464Y-116619830D01*
X116737373Y-116630967D01*
X116680967Y-116687373D01*
X116669830Y-116695464D01*
X116598758Y-116731677D01*
X116585666Y-116735931D01*
X116529825Y-116744775D01*
X116503419Y-116748958D01*
X116496538Y-116749500D01*
X107464500Y-116749500D01*
X107433387Y-116736613D01*
X107420500Y-116705500D01*
X107420500Y-115687932D01*
X107416669Y-115658836D01*
X107405945Y-115577375D01*
X107404325Y-115573464D01*
X114641929Y-115573464D01*
X114641929Y-115656536D01*
X114663430Y-115736778D01*
X114704967Y-115808721D01*
X114763708Y-115867462D01*
X114835651Y-115908999D01*
X114915893Y-115930500D01*
X114915895Y-115930500D01*
X114998963Y-115930500D01*
X114998965Y-115930500D01*
X115079207Y-115908999D01*
X115151150Y-115867462D01*
X115209891Y-115808721D01*
X115251428Y-115736778D01*
X115272929Y-115656536D01*
X115272929Y-115573464D01*
X115251428Y-115493222D01*
X115209891Y-115421279D01*
X115151150Y-115362538D01*
X115151149Y-115362537D01*
X115079211Y-115321003D01*
X115079207Y-115321001D01*
X115065999Y-115317462D01*
X114998965Y-115299500D01*
X114915893Y-115299500D01*
X114862398Y-115313834D01*
X114835650Y-115321001D01*
X114835646Y-115321003D01*
X114763709Y-115362537D01*
X114763708Y-115362537D01*
X114704966Y-115421279D01*
X114704966Y-115421280D01*
X114663432Y-115493217D01*
X114663430Y-115493221D01*
X114652679Y-115533343D01*
X114641929Y-115573464D01*
X107404325Y-115573464D01*
X107348964Y-115439810D01*
X107258320Y-115321680D01*
X107140190Y-115231036D01*
X107002625Y-115174055D01*
X106995547Y-115173123D01*
X106966384Y-115156285D01*
X106957668Y-115123757D01*
X106974507Y-115094592D01*
X107001292Y-115085500D01*
X107967920Y-115085500D01*
X107967928Y-115085501D01*
X107973047Y-115085501D01*
X108026952Y-115085501D01*
X108026953Y-115085501D01*
X108062167Y-115070913D01*
X108076755Y-115064872D01*
X108114872Y-115026755D01*
X108114872Y-115026754D01*
X108121057Y-115020569D01*
X108121058Y-115020566D01*
X108812678Y-114328947D01*
X108812680Y-114328947D01*
X108850797Y-114290830D01*
X108859627Y-114269513D01*
X108871426Y-114241028D01*
X108871426Y-114187122D01*
X108871426Y-114183582D01*
X108871425Y-114183568D01*
X108871425Y-114167555D01*
X108884312Y-114136442D01*
X108893425Y-114129450D01*
X108932144Y-114107096D01*
X108932846Y-114108312D01*
X108960900Y-114100784D01*
X108990071Y-114117611D01*
X108993279Y-114122410D01*
X109016250Y-114162196D01*
X109074991Y-114220937D01*
X109146934Y-114262474D01*
X109227176Y-114283975D01*
X109227178Y-114283975D01*
X109310246Y-114283975D01*
X109310248Y-114283975D01*
X109390490Y-114262474D01*
X109462433Y-114220937D01*
X109521174Y-114162196D01*
X109562711Y-114090253D01*
X109584212Y-114010011D01*
X109584212Y-113926939D01*
X109562711Y-113846697D01*
X109521174Y-113774754D01*
X109462433Y-113716013D01*
X109462432Y-113716012D01*
X109390494Y-113674478D01*
X109390490Y-113674476D01*
X109380066Y-113671683D01*
X109310248Y-113652975D01*
X109227176Y-113652975D01*
X109173681Y-113667309D01*
X109146933Y-113674476D01*
X109146929Y-113674478D01*
X109072493Y-113717455D01*
X109071796Y-113716249D01*
X109043689Y-113723760D01*
X109014536Y-113706902D01*
X109011357Y-113702140D01*
X109006127Y-113693082D01*
X108988387Y-113662355D01*
X108929646Y-113603614D01*
X108929645Y-113603613D01*
X108857707Y-113562079D01*
X108857703Y-113562077D01*
X108843883Y-113558374D01*
X108777461Y-113540576D01*
X108694389Y-113540576D01*
X108646873Y-113553308D01*
X108614146Y-113562077D01*
X108614142Y-113562079D01*
X108542205Y-113603613D01*
X108542204Y-113603613D01*
X108483462Y-113662355D01*
X108483462Y-113662356D01*
X108441928Y-113734293D01*
X108441926Y-113734297D01*
X108438378Y-113747538D01*
X108420425Y-113814540D01*
X108420425Y-113897612D01*
X108436731Y-113958465D01*
X108441926Y-113977854D01*
X108441928Y-113977858D01*
X108457815Y-114005374D01*
X108482339Y-114047851D01*
X108483462Y-114049795D01*
X108483466Y-114049801D01*
X108542202Y-114108536D01*
X108542204Y-114108538D01*
X108560780Y-114119263D01*
X108581280Y-114145981D01*
X108576884Y-114179369D01*
X108569892Y-114188481D01*
X108353387Y-114404986D01*
X108322274Y-114417873D01*
X108291161Y-114404986D01*
X108279773Y-114385261D01*
X108265568Y-114332246D01*
X108224031Y-114260303D01*
X108165290Y-114201562D01*
X108165289Y-114201561D01*
X108093351Y-114160027D01*
X108093347Y-114160025D01*
X108085599Y-114157949D01*
X108013105Y-114138524D01*
X107930033Y-114138524D01*
X107893844Y-114148221D01*
X107849790Y-114160025D01*
X107849786Y-114160027D01*
X107777849Y-114201561D01*
X107777848Y-114201561D01*
X107719106Y-114260303D01*
X107719106Y-114260304D01*
X107677572Y-114332241D01*
X107677570Y-114332245D01*
X107673676Y-114346777D01*
X107656069Y-114412488D01*
X107656069Y-114495560D01*
X107674641Y-114564871D01*
X107677570Y-114575802D01*
X107677572Y-114575806D01*
X107683169Y-114585500D01*
X107718987Y-114647538D01*
X107719106Y-114647743D01*
X107719106Y-114647744D01*
X107777848Y-114706486D01*
X107822722Y-114732395D01*
X107843223Y-114759112D01*
X107838827Y-114792500D01*
X107812110Y-114813001D01*
X107800722Y-114814500D01*
X102882080Y-114814500D01*
X102882072Y-114814499D01*
X102876953Y-114814499D01*
X102823047Y-114814499D01*
X102823045Y-114814499D01*
X102787831Y-114829086D01*
X102773244Y-114835128D01*
X102735127Y-114873244D01*
X102735128Y-114873245D01*
X102735127Y-114873246D01*
X102735126Y-114873246D01*
X102659117Y-114949254D01*
X102639395Y-114960641D01*
X102600744Y-114970998D01*
X102600736Y-114971002D01*
X102528799Y-115012536D01*
X102528798Y-115012536D01*
X102470056Y-115071278D01*
X102470056Y-115071279D01*
X102428522Y-115143216D01*
X102428518Y-115143226D01*
X102417544Y-115184178D01*
X102397043Y-115210895D01*
X102363655Y-115215289D01*
X102343931Y-115203902D01*
X101398387Y-114258358D01*
X101385500Y-114227245D01*
X101385500Y-114183463D01*
X101937819Y-114183463D01*
X101937819Y-114266535D01*
X101955425Y-114332241D01*
X101959320Y-114346777D01*
X101959322Y-114346781D01*
X101979044Y-114380940D01*
X102000857Y-114418720D01*
X102059598Y-114477461D01*
X102131541Y-114518998D01*
X102211783Y-114540499D01*
X102211785Y-114540499D01*
X102294853Y-114540499D01*
X102294855Y-114540499D01*
X102375097Y-114518998D01*
X102447040Y-114477461D01*
X102505781Y-114418720D01*
X102547318Y-114346777D01*
X102568819Y-114266535D01*
X102568819Y-114183463D01*
X102547318Y-114103221D01*
X102505781Y-114031278D01*
X102447040Y-113972537D01*
X102447039Y-113972536D01*
X102375101Y-113931002D01*
X102375097Y-113931000D01*
X102359941Y-113926939D01*
X102294855Y-113909499D01*
X102211783Y-113909499D01*
X102165700Y-113921847D01*
X102131540Y-113931000D01*
X102131536Y-113931002D01*
X102059599Y-113972536D01*
X102059598Y-113972536D01*
X102000856Y-114031278D01*
X101959322Y-114103216D01*
X101959320Y-114103220D01*
X101954178Y-114122410D01*
X101937819Y-114183463D01*
X101385500Y-114183463D01*
X101385500Y-113760902D01*
X101398387Y-113729789D01*
X101429500Y-113716902D01*
X101451498Y-113722796D01*
X101488222Y-113743999D01*
X101568464Y-113765500D01*
X101568466Y-113765500D01*
X101651534Y-113765500D01*
X101651536Y-113765500D01*
X101731778Y-113743999D01*
X101803721Y-113702462D01*
X101862462Y-113643721D01*
X101883374Y-113607499D01*
X101910091Y-113586999D01*
X101921479Y-113585500D01*
X102775648Y-113585500D01*
X102806761Y-113598387D01*
X103732617Y-114524243D01*
X103732630Y-114524258D01*
X103758372Y-114549999D01*
X103773245Y-114564872D01*
X103773247Y-114564873D01*
X103773249Y-114564874D01*
X103793459Y-114573245D01*
X103793460Y-114573245D01*
X103823048Y-114585501D01*
X103823050Y-114585501D01*
X103882072Y-114585501D01*
X103882080Y-114585500D01*
X106933803Y-114585500D01*
X106933811Y-114585501D01*
X106938930Y-114585501D01*
X106992834Y-114585501D01*
X106992836Y-114585501D01*
X107027259Y-114571242D01*
X107030224Y-114570014D01*
X107030226Y-114570013D01*
X107042638Y-114564872D01*
X107080755Y-114526755D01*
X107080755Y-114526753D01*
X108634122Y-112973387D01*
X108665235Y-112960500D01*
X108863521Y-112960500D01*
X108894634Y-112973387D01*
X108901626Y-112982500D01*
X108922535Y-113018717D01*
X108922539Y-113018722D01*
X108981274Y-113077458D01*
X108981277Y-113077460D01*
X108981279Y-113077462D01*
X109053222Y-113118999D01*
X109133464Y-113140500D01*
X109133466Y-113140500D01*
X109216534Y-113140500D01*
X109216536Y-113140500D01*
X109296778Y-113118999D01*
X109368721Y-113077462D01*
X109427462Y-113018721D01*
X109468999Y-112946778D01*
X109479973Y-112905819D01*
X109500474Y-112879104D01*
X109533862Y-112874708D01*
X109553587Y-112886096D01*
X111241088Y-114573597D01*
X111253975Y-114604710D01*
X111253975Y-114753519D01*
X111241088Y-114784632D01*
X111231976Y-114791623D01*
X111195757Y-114812535D01*
X111195754Y-114812537D01*
X111137012Y-114871279D01*
X111137012Y-114871280D01*
X111095478Y-114943217D01*
X111095476Y-114943221D01*
X111088033Y-114970998D01*
X111073975Y-115023464D01*
X111073975Y-115106536D01*
X111088167Y-115159500D01*
X111095476Y-115186778D01*
X111095478Y-115186782D01*
X111104754Y-115202848D01*
X111137013Y-115258721D01*
X111195754Y-115317462D01*
X111267697Y-115358999D01*
X111347939Y-115380500D01*
X111347941Y-115380500D01*
X111431009Y-115380500D01*
X111431011Y-115380500D01*
X111511253Y-115358999D01*
X111583196Y-115317462D01*
X111641937Y-115258721D01*
X111683474Y-115186778D01*
X111691061Y-115158464D01*
X112584500Y-115158464D01*
X112584500Y-115241536D01*
X112606001Y-115321778D01*
X112647538Y-115393721D01*
X112706279Y-115452462D01*
X112778222Y-115493999D01*
X112858464Y-115515500D01*
X112858466Y-115515500D01*
X112941534Y-115515500D01*
X112941536Y-115515500D01*
X113021778Y-115493999D01*
X113093721Y-115452462D01*
X113152462Y-115393721D01*
X113193999Y-115321778D01*
X113215500Y-115241536D01*
X113215500Y-115158464D01*
X113193999Y-115078222D01*
X113152462Y-115006279D01*
X113093721Y-114947538D01*
X113093720Y-114947537D01*
X113021782Y-114906003D01*
X113021778Y-114906001D01*
X112941536Y-114884500D01*
X112858464Y-114884500D01*
X112804969Y-114898834D01*
X112778221Y-114906001D01*
X112778217Y-114906003D01*
X112706280Y-114947537D01*
X112706279Y-114947537D01*
X112647537Y-115006279D01*
X112647537Y-115006280D01*
X112606003Y-115078217D01*
X112606001Y-115078221D01*
X112600598Y-115098387D01*
X112584500Y-115158464D01*
X111691061Y-115158464D01*
X111704975Y-115106536D01*
X111704975Y-115023464D01*
X111683474Y-114943222D01*
X111641937Y-114871279D01*
X111583196Y-114812538D01*
X111583195Y-114812537D01*
X111583192Y-114812535D01*
X111546974Y-114791623D01*
X111526474Y-114764906D01*
X111524975Y-114753519D01*
X111524975Y-114562438D01*
X111524976Y-114562429D01*
X111524976Y-114503407D01*
X111524975Y-114503403D01*
X111521725Y-114495558D01*
X111514019Y-114476953D01*
X111511679Y-114471305D01*
X111504347Y-114453603D01*
X111463733Y-114412988D01*
X111463718Y-114412975D01*
X109511356Y-112460613D01*
X109498469Y-112429500D01*
X109511356Y-112398387D01*
X109542469Y-112385500D01*
X109675648Y-112385500D01*
X109706761Y-112398387D01*
G37*
%TD.AperFunction*%
%TA.AperFunction,Conductor*%
G36*
X103288871Y-101463387D02*
G01*
X103301758Y-101494500D01*
X103295863Y-101516500D01*
X103266003Y-101568217D01*
X103266001Y-101568221D01*
X103266001Y-101568222D01*
X103244500Y-101648464D01*
X103244500Y-101731536D01*
X103250375Y-101753460D01*
X103266001Y-101811778D01*
X103266003Y-101811782D01*
X103307537Y-101883719D01*
X103307537Y-101883720D01*
X103366279Y-101942462D01*
X103435443Y-101982395D01*
X103455944Y-102009112D01*
X103451548Y-102042500D01*
X103424831Y-102063001D01*
X103413443Y-102064500D01*
X102382080Y-102064500D01*
X102382072Y-102064499D01*
X102376953Y-102064499D01*
X102323047Y-102064499D01*
X102323045Y-102064499D01*
X102287831Y-102079086D01*
X102273244Y-102085128D01*
X102235127Y-102123244D01*
X102235128Y-102123245D01*
X102235127Y-102123246D01*
X100722363Y-103636010D01*
X100722362Y-103636011D01*
X100722361Y-103636010D01*
X100684246Y-103674126D01*
X100684246Y-103674127D01*
X100684245Y-103674129D01*
X100663617Y-103723926D01*
X100663616Y-103723932D01*
X100663616Y-103782954D01*
X100663617Y-103782963D01*
X100663617Y-111359493D01*
X100663616Y-111359507D01*
X100663616Y-111390500D01*
X100650729Y-111421613D01*
X100619616Y-111434500D01*
X100608464Y-111434500D01*
X100554969Y-111448834D01*
X100528221Y-111456001D01*
X100528217Y-111456003D01*
X100456280Y-111497537D01*
X100456279Y-111497537D01*
X100397537Y-111556279D01*
X100397537Y-111556280D01*
X100356003Y-111628217D01*
X100356001Y-111628221D01*
X100349754Y-111651536D01*
X100334500Y-111708464D01*
X100334500Y-111791536D01*
X100353505Y-111862462D01*
X100356001Y-111871778D01*
X100356003Y-111871782D01*
X100374604Y-111903999D01*
X100397538Y-111943721D01*
X100456279Y-112002462D01*
X100528222Y-112043999D01*
X100608464Y-112065500D01*
X100608466Y-112065500D01*
X100691534Y-112065500D01*
X100691536Y-112065500D01*
X100771778Y-112043999D01*
X100843721Y-112002462D01*
X100902462Y-111943721D01*
X100943999Y-111871778D01*
X100954973Y-111830819D01*
X100975474Y-111804104D01*
X101008862Y-111799708D01*
X101028587Y-111811096D01*
X101101613Y-111884122D01*
X101114500Y-111915235D01*
X101114500Y-114162448D01*
X101101613Y-114193561D01*
X101070500Y-114206448D01*
X101059112Y-114204949D01*
X101046471Y-114201562D01*
X100992958Y-114187223D01*
X100909886Y-114187223D01*
X100864766Y-114199313D01*
X100829643Y-114208724D01*
X100829639Y-114208726D01*
X100757702Y-114250260D01*
X100757701Y-114250260D01*
X100698959Y-114309002D01*
X100698959Y-114309003D01*
X100657425Y-114380940D01*
X100657423Y-114380944D01*
X100650981Y-114404986D01*
X100635922Y-114461187D01*
X100635922Y-114544259D01*
X100654901Y-114615088D01*
X100657423Y-114624501D01*
X100657425Y-114624505D01*
X100670843Y-114647745D01*
X100698960Y-114696444D01*
X100757701Y-114755185D01*
X100829644Y-114796722D01*
X100909886Y-114818223D01*
X100909888Y-114818223D01*
X100992956Y-114818223D01*
X100992958Y-114818223D01*
X101073200Y-114796722D01*
X101145143Y-114755185D01*
X101203884Y-114696444D01*
X101245421Y-114624501D01*
X101254406Y-114590965D01*
X101274905Y-114564250D01*
X101308293Y-114559854D01*
X101328019Y-114571242D01*
X101841164Y-115084387D01*
X101854051Y-115115500D01*
X101841164Y-115146613D01*
X101810051Y-115159500D01*
X100787932Y-115159500D01*
X100677374Y-115174055D01*
X100539812Y-115231035D01*
X100539808Y-115231037D01*
X100421682Y-115321678D01*
X100421678Y-115321682D01*
X100331037Y-115439808D01*
X100331035Y-115439812D01*
X100285151Y-115550587D01*
X100261338Y-115574400D01*
X100227662Y-115574400D01*
X100203849Y-115550587D01*
X100200500Y-115533749D01*
X100200500Y-112502535D01*
X100360686Y-112502535D01*
X100360686Y-112585607D01*
X100378300Y-112651341D01*
X100382187Y-112665849D01*
X100382189Y-112665853D01*
X100398279Y-112693721D01*
X100423724Y-112737792D01*
X100482465Y-112796533D01*
X100554408Y-112838070D01*
X100634650Y-112859571D01*
X100634652Y-112859571D01*
X100717720Y-112859571D01*
X100717722Y-112859571D01*
X100797964Y-112838070D01*
X100869907Y-112796533D01*
X100928648Y-112737792D01*
X100970185Y-112665849D01*
X100991686Y-112585607D01*
X100991686Y-112502535D01*
X100970185Y-112422293D01*
X100928648Y-112350350D01*
X100869907Y-112291609D01*
X100869906Y-112291608D01*
X100797968Y-112250074D01*
X100797964Y-112250072D01*
X100764118Y-112241003D01*
X100717722Y-112228571D01*
X100634650Y-112228571D01*
X100588265Y-112241000D01*
X100554407Y-112250072D01*
X100554403Y-112250074D01*
X100482466Y-112291608D01*
X100482465Y-112291608D01*
X100423723Y-112350350D01*
X100423723Y-112350351D01*
X100382189Y-112422288D01*
X100382187Y-112422292D01*
X100382187Y-112422293D01*
X100360686Y-112502535D01*
X100200500Y-112502535D01*
X100200500Y-101753460D01*
X100201042Y-101746577D01*
X100206817Y-101710116D01*
X100214069Y-101664330D01*
X100218320Y-101651244D01*
X100254537Y-101580165D01*
X100262623Y-101569035D01*
X100319035Y-101512623D01*
X100330165Y-101504537D01*
X100401244Y-101468320D01*
X100414330Y-101464069D01*
X100496579Y-101451041D01*
X100503462Y-101450500D01*
X100539882Y-101450500D01*
X103257758Y-101450500D01*
X103288871Y-101463387D01*
G37*
%TD.AperFunction*%
%TA.AperFunction,Conductor*%
G36*
X101009730Y-111051356D02*
G01*
X102562176Y-112603802D01*
X102562189Y-112603817D01*
X102585325Y-112626952D01*
X102602804Y-112644431D01*
X102609318Y-112647129D01*
X102614830Y-112649412D01*
X102636098Y-112668062D01*
X102650912Y-112693720D01*
X102667979Y-112723280D01*
X102726720Y-112782021D01*
X102798663Y-112823558D01*
X102878905Y-112845059D01*
X102878907Y-112845059D01*
X102961975Y-112845059D01*
X102961977Y-112845059D01*
X103042219Y-112823558D01*
X103114162Y-112782021D01*
X103172903Y-112723280D01*
X103214440Y-112651337D01*
X103235941Y-112571095D01*
X103235941Y-112488023D01*
X103214440Y-112407781D01*
X103172903Y-112335838D01*
X103114162Y-112277097D01*
X103071738Y-112252603D01*
X103051238Y-112225885D01*
X103055634Y-112192497D01*
X103063768Y-112183227D01*
X103063362Y-112182821D01*
X103088614Y-112157569D01*
X103124142Y-112122041D01*
X103165679Y-112050098D01*
X103176653Y-112009139D01*
X103197154Y-111982424D01*
X103230542Y-111978028D01*
X103250267Y-111989416D01*
X103981248Y-112720397D01*
X103981247Y-112720397D01*
X104013313Y-112752462D01*
X104035335Y-112774484D01*
X104101577Y-112812729D01*
X104175461Y-112832526D01*
X104686053Y-112832526D01*
X104697441Y-112834025D01*
X104758926Y-112850500D01*
X104758928Y-112850500D01*
X104841996Y-112850500D01*
X104841998Y-112850500D01*
X104922240Y-112828999D01*
X104994183Y-112787462D01*
X105034387Y-112747258D01*
X105065500Y-112734371D01*
X105096613Y-112747258D01*
X105109500Y-112778371D01*
X105109500Y-113016974D01*
X105096613Y-113048087D01*
X104973245Y-113171455D01*
X104973244Y-113171454D01*
X104935129Y-113209570D01*
X104935129Y-113209571D01*
X104935128Y-113209573D01*
X104914500Y-113259370D01*
X104914499Y-113259376D01*
X104914499Y-113318398D01*
X104914500Y-113318407D01*
X104914500Y-113585820D01*
X104914499Y-113585834D01*
X104914499Y-113643281D01*
X104927267Y-113674104D01*
X104927266Y-113674104D01*
X104935126Y-113693079D01*
X104935127Y-113693080D01*
X104935128Y-113693082D01*
X104973245Y-113731199D01*
X104973246Y-113731199D01*
X105268800Y-114026753D01*
X105268801Y-114026755D01*
X105306918Y-114064872D01*
X105321505Y-114070913D01*
X105327387Y-114073349D01*
X105327389Y-114073351D01*
X105345085Y-114080681D01*
X105356720Y-114085501D01*
X105356722Y-114085501D01*
X105415745Y-114085501D01*
X105415753Y-114085500D01*
X107032531Y-114085500D01*
X107063644Y-114098387D01*
X107076531Y-114129500D01*
X107063644Y-114160613D01*
X106922644Y-114301613D01*
X106891531Y-114314500D01*
X104150409Y-114314500D01*
X104119296Y-114301613D01*
X104106409Y-114270500D01*
X104119296Y-114239387D01*
X104137746Y-114220937D01*
X104164962Y-114193721D01*
X104206499Y-114121778D01*
X104228000Y-114041536D01*
X104228000Y-113958464D01*
X104206499Y-113878222D01*
X104164962Y-113806279D01*
X104106221Y-113747538D01*
X104106220Y-113747537D01*
X104034282Y-113706003D01*
X104034278Y-113706001D01*
X104021055Y-113702458D01*
X103954036Y-113684500D01*
X103870964Y-113684500D01*
X103817469Y-113698834D01*
X103790721Y-113706001D01*
X103790717Y-113706003D01*
X103718780Y-113747537D01*
X103718779Y-113747537D01*
X103660037Y-113806279D01*
X103660037Y-113806280D01*
X103618503Y-113878217D01*
X103618501Y-113878221D01*
X103606812Y-113921847D01*
X103586311Y-113948564D01*
X103552923Y-113952960D01*
X103533198Y-113941572D01*
X102964872Y-113373246D01*
X102964872Y-113373245D01*
X102926755Y-113335128D01*
X102926753Y-113335127D01*
X102910081Y-113328221D01*
X102910080Y-113328221D01*
X102876956Y-113314500D01*
X102876954Y-113314499D01*
X102876953Y-113314499D01*
X102823047Y-113314499D01*
X102817928Y-113314499D01*
X102817920Y-113314500D01*
X101921479Y-113314500D01*
X101890366Y-113301613D01*
X101883374Y-113292500D01*
X101881167Y-113288678D01*
X101862462Y-113256279D01*
X101834500Y-113228317D01*
X101803725Y-113197541D01*
X101803719Y-113197537D01*
X101787895Y-113188401D01*
X101751679Y-113167491D01*
X101731782Y-113156003D01*
X101731778Y-113156001D01*
X101706639Y-113149265D01*
X101651536Y-113134500D01*
X101568464Y-113134500D01*
X101536496Y-113143066D01*
X101488221Y-113156001D01*
X101488216Y-113156003D01*
X101451500Y-113177202D01*
X101418112Y-113181598D01*
X101391395Y-113161097D01*
X101385500Y-113139097D01*
X101385500Y-111872963D01*
X101385501Y-111872954D01*
X101385501Y-111813932D01*
X101385501Y-111813930D01*
X101367738Y-111771047D01*
X101364872Y-111764127D01*
X101324258Y-111723513D01*
X101324243Y-111723500D01*
X100947504Y-111346761D01*
X100934617Y-111315648D01*
X100934617Y-111082469D01*
X100947504Y-111051356D01*
X100978617Y-111038469D01*
X101009730Y-111051356D01*
G37*
%TD.AperFunction*%
%TA.AperFunction,Conductor*%
G36*
X114746650Y-112756602D02*
G01*
X114750000Y-112773441D01*
X114750000Y-113149265D01*
X114737113Y-113180378D01*
X113795879Y-114121612D01*
X113764766Y-114134499D01*
X112958988Y-114134499D01*
X112927875Y-114121612D01*
X112920872Y-114112479D01*
X112920454Y-114111756D01*
X112920294Y-114111478D01*
X112915918Y-114078087D01*
X112936434Y-114051382D01*
X112958412Y-114045500D01*
X113148803Y-114045500D01*
X113148811Y-114045501D01*
X113153930Y-114045501D01*
X113207835Y-114045501D01*
X113207836Y-114045501D01*
X113243050Y-114030913D01*
X113257638Y-114024872D01*
X113295755Y-113986755D01*
X113295755Y-113986754D01*
X113301940Y-113980569D01*
X113301941Y-113980566D01*
X114524122Y-112758387D01*
X114555235Y-112745500D01*
X114599444Y-112745500D01*
X114599452Y-112745501D01*
X114604571Y-112745501D01*
X114658475Y-112745501D01*
X114658477Y-112745501D01*
X114689161Y-112732791D01*
X114722837Y-112732790D01*
X114746650Y-112756602D01*
G37*
%TD.AperFunction*%
%TA.AperFunction,Conductor*%
G36*
X108355878Y-110138387D02*
G01*
X108654244Y-110436753D01*
X108654245Y-110436755D01*
X108692362Y-110474872D01*
X108706949Y-110480913D01*
X108712831Y-110483349D01*
X108712833Y-110483351D01*
X108728865Y-110489992D01*
X108742164Y-110495501D01*
X108742166Y-110495501D01*
X108801189Y-110495501D01*
X108801197Y-110495500D01*
X111085648Y-110495500D01*
X111116761Y-110508387D01*
X112492617Y-111884243D01*
X112492630Y-111884258D01*
X112523608Y-111915235D01*
X112533245Y-111924872D01*
X112533247Y-111924873D01*
X112533249Y-111924874D01*
X112547248Y-111930672D01*
X112583047Y-111945501D01*
X112583049Y-111945501D01*
X112642072Y-111945501D01*
X112642080Y-111945500D01*
X114706000Y-111945500D01*
X114737113Y-111958387D01*
X114750000Y-111989500D01*
X114750000Y-112044085D01*
X114744105Y-112066085D01*
X114722856Y-112102888D01*
X114722854Y-112102892D01*
X114715835Y-112129087D01*
X114701353Y-112183135D01*
X114701353Y-112266207D01*
X114712091Y-112306280D01*
X114712178Y-112306605D01*
X114707782Y-112339993D01*
X114700790Y-112349105D01*
X114588285Y-112461612D01*
X114557172Y-112474500D01*
X114512963Y-112474500D01*
X114512955Y-112474499D01*
X114507836Y-112474499D01*
X114453930Y-112474499D01*
X114453928Y-112474499D01*
X114418714Y-112489086D01*
X114404127Y-112495128D01*
X114366010Y-112533244D01*
X114366011Y-112533245D01*
X114366010Y-112533246D01*
X113747002Y-113152255D01*
X113137644Y-113761613D01*
X113106531Y-113774500D01*
X111484352Y-113774500D01*
X111453239Y-113761613D01*
X111382690Y-113691064D01*
X111369803Y-113659951D01*
X111382690Y-113628838D01*
X111413803Y-113615951D01*
X111419558Y-113616329D01*
X111419675Y-113616344D01*
X111419681Y-113616346D01*
X111419687Y-113616346D01*
X111502751Y-113616346D01*
X111502753Y-113616346D01*
X111582995Y-113594845D01*
X111654938Y-113553308D01*
X111713679Y-113494567D01*
X111755216Y-113422624D01*
X111776717Y-113342382D01*
X111776717Y-113259310D01*
X111755216Y-113179068D01*
X111713679Y-113107125D01*
X111654938Y-113048384D01*
X111654937Y-113048383D01*
X111582999Y-113006849D01*
X111582995Y-113006847D01*
X111502753Y-112985346D01*
X111419681Y-112985346D01*
X111366186Y-112999680D01*
X111339438Y-113006847D01*
X111339434Y-113006849D01*
X111267497Y-113048383D01*
X111267496Y-113048383D01*
X111208754Y-113107125D01*
X111208754Y-113107126D01*
X111167220Y-113179063D01*
X111167218Y-113179067D01*
X111164717Y-113188400D01*
X111146529Y-113256282D01*
X111145717Y-113259311D01*
X111145717Y-113342379D01*
X111145735Y-113342516D01*
X111145717Y-113342583D01*
X111145717Y-113345266D01*
X111144998Y-113345266D01*
X111137018Y-113375045D01*
X111107854Y-113391883D01*
X111075325Y-113383166D01*
X111070998Y-113379372D01*
X110150090Y-112458464D01*
X111148127Y-112458464D01*
X111148127Y-112541536D01*
X111160328Y-112587069D01*
X111169628Y-112621778D01*
X111169630Y-112621782D01*
X111189836Y-112656778D01*
X111211165Y-112693721D01*
X111269906Y-112752462D01*
X111341849Y-112793999D01*
X111422091Y-112815500D01*
X111422093Y-112815500D01*
X111505161Y-112815500D01*
X111505163Y-112815500D01*
X111585405Y-112793999D01*
X111657348Y-112752462D01*
X111716089Y-112693721D01*
X111757626Y-112621778D01*
X111779127Y-112541536D01*
X111779127Y-112458464D01*
X111757626Y-112378222D01*
X111716089Y-112306279D01*
X111657348Y-112247538D01*
X111657347Y-112247537D01*
X111585409Y-112206003D01*
X111585405Y-112206001D01*
X111505163Y-112184500D01*
X111422091Y-112184500D01*
X111368596Y-112198834D01*
X111341848Y-112206001D01*
X111341844Y-112206003D01*
X111269907Y-112247537D01*
X111269906Y-112247537D01*
X111211164Y-112306279D01*
X111211164Y-112306280D01*
X111169630Y-112378217D01*
X111169628Y-112378221D01*
X111169628Y-112378222D01*
X111148127Y-112458464D01*
X110150090Y-112458464D01*
X109864872Y-112173246D01*
X109864872Y-112173245D01*
X109826755Y-112135128D01*
X109812167Y-112129086D01*
X109795160Y-112122041D01*
X109776956Y-112114500D01*
X109776954Y-112114499D01*
X109776953Y-112114499D01*
X109723047Y-112114499D01*
X109717928Y-112114499D01*
X109717920Y-112114500D01*
X108582163Y-112114500D01*
X108546952Y-112129085D01*
X108532365Y-112135127D01*
X108532360Y-112135129D01*
X108494244Y-112173244D01*
X108494245Y-112173245D01*
X108494244Y-112173246D01*
X108401284Y-112266207D01*
X108315878Y-112351613D01*
X108284765Y-112364500D01*
X107615234Y-112364500D01*
X107584121Y-112351613D01*
X107448825Y-112216316D01*
X107448825Y-112216315D01*
X107410708Y-112178198D01*
X107410706Y-112178197D01*
X107394034Y-112171291D01*
X107394033Y-112171291D01*
X107360909Y-112157570D01*
X107360907Y-112157569D01*
X107360906Y-112157569D01*
X107307000Y-112157569D01*
X107301881Y-112157569D01*
X107301873Y-112157570D01*
X106813425Y-112157570D01*
X106782312Y-112144683D01*
X106769425Y-112113570D01*
X106782312Y-112082458D01*
X106898307Y-111966461D01*
X106904496Y-111960272D01*
X106904498Y-111960272D01*
X106942615Y-111922155D01*
X106955925Y-111890021D01*
X106963244Y-111872353D01*
X106963244Y-111840655D01*
X106976131Y-111809542D01*
X107007244Y-111796655D01*
X107038357Y-111809542D01*
X107091277Y-111862462D01*
X107163220Y-111903999D01*
X107243462Y-111925500D01*
X107243464Y-111925500D01*
X107326532Y-111925500D01*
X107326534Y-111925500D01*
X107406776Y-111903999D01*
X107478719Y-111862462D01*
X107537460Y-111803721D01*
X107578997Y-111731778D01*
X107600498Y-111651536D01*
X107600498Y-111568464D01*
X107578997Y-111488222D01*
X107537460Y-111416279D01*
X107478719Y-111357538D01*
X107478718Y-111357537D01*
X107435981Y-111332863D01*
X107415480Y-111306146D01*
X107419876Y-111272758D01*
X107426865Y-111263648D01*
X107440205Y-111250309D01*
X107481742Y-111178366D01*
X107490320Y-111146352D01*
X110382242Y-111146352D01*
X110382242Y-111229424D01*
X110395331Y-111278271D01*
X110403743Y-111309666D01*
X110403745Y-111309670D01*
X110427369Y-111350587D01*
X110445280Y-111381609D01*
X110504021Y-111440350D01*
X110575964Y-111481887D01*
X110656206Y-111503388D01*
X110656208Y-111503388D01*
X110739276Y-111503388D01*
X110739278Y-111503388D01*
X110819520Y-111481887D01*
X110891463Y-111440350D01*
X110950204Y-111381609D01*
X110991741Y-111309666D01*
X111013242Y-111229424D01*
X111013242Y-111146352D01*
X110991741Y-111066110D01*
X110950204Y-110994167D01*
X110891463Y-110935426D01*
X110891462Y-110935425D01*
X110819524Y-110893891D01*
X110819520Y-110893889D01*
X110739278Y-110872388D01*
X110656206Y-110872388D01*
X110602711Y-110886722D01*
X110575963Y-110893889D01*
X110575959Y-110893891D01*
X110504022Y-110935425D01*
X110504021Y-110935425D01*
X110445279Y-110994167D01*
X110445279Y-110994168D01*
X110403745Y-111066105D01*
X110403743Y-111066109D01*
X110398529Y-111085569D01*
X110382242Y-111146352D01*
X107490320Y-111146352D01*
X107503243Y-111098124D01*
X107503243Y-111015052D01*
X107481742Y-110934810D01*
X107440205Y-110862867D01*
X107440201Y-110862863D01*
X107438448Y-110860577D01*
X107439401Y-110859845D01*
X107428083Y-110832519D01*
X107440970Y-110801406D01*
X107450083Y-110794414D01*
X107478719Y-110777881D01*
X107537460Y-110719140D01*
X107578997Y-110647197D01*
X107600498Y-110566955D01*
X107600498Y-110483883D01*
X107578997Y-110403641D01*
X107537460Y-110331698D01*
X107478719Y-110272957D01*
X107478718Y-110272956D01*
X107478715Y-110272954D01*
X107460149Y-110262234D01*
X107439649Y-110235517D01*
X107444046Y-110202129D01*
X107451033Y-110193021D01*
X107459220Y-110184836D01*
X107480776Y-110147499D01*
X107507493Y-110126999D01*
X107518881Y-110125500D01*
X108324765Y-110125500D01*
X108355878Y-110138387D01*
G37*
%TD.AperFunction*%
%TA.AperFunction,Conductor*%
G36*
X106043188Y-110910662D02*
G01*
X106054575Y-110930385D01*
X106065655Y-110971733D01*
X106065656Y-110971734D01*
X106065657Y-110971737D01*
X106107191Y-111043674D01*
X106107191Y-111043675D01*
X106107678Y-111044162D01*
X106107810Y-111044482D01*
X106108949Y-111045966D01*
X106108551Y-111046270D01*
X106120565Y-111075275D01*
X106107678Y-111106388D01*
X106098566Y-111113379D01*
X106071282Y-111129132D01*
X106071279Y-111129134D01*
X106012537Y-111187876D01*
X106012537Y-111187877D01*
X105971003Y-111259814D01*
X105971001Y-111259818D01*
X105971001Y-111259819D01*
X105949500Y-111340061D01*
X105949500Y-111423133D01*
X105966941Y-111488222D01*
X105971001Y-111503375D01*
X105971003Y-111503379D01*
X105997766Y-111549732D01*
X106012538Y-111575318D01*
X106071279Y-111634059D01*
X106143222Y-111675596D01*
X106223464Y-111697097D01*
X106223466Y-111697097D01*
X106306534Y-111697097D01*
X106306536Y-111697097D01*
X106386778Y-111675596D01*
X106458721Y-111634059D01*
X106517462Y-111575318D01*
X106558999Y-111503375D01*
X106580500Y-111423133D01*
X106580500Y-111340061D01*
X106558999Y-111259819D01*
X106517462Y-111187876D01*
X106516975Y-111187389D01*
X106516841Y-111187067D01*
X106515705Y-111185586D01*
X106516102Y-111185281D01*
X106504088Y-111156276D01*
X106516975Y-111125163D01*
X106526085Y-111118172D01*
X106553375Y-111102417D01*
X106612116Y-111043676D01*
X106612120Y-111043668D01*
X106613332Y-111042090D01*
X106642495Y-111025249D01*
X106675025Y-111033961D01*
X106691866Y-111063124D01*
X106692243Y-111068872D01*
X106692243Y-111771047D01*
X106679356Y-111802160D01*
X106504508Y-111977007D01*
X106473395Y-111989894D01*
X106462009Y-111988395D01*
X106421609Y-111977570D01*
X106338537Y-111977570D01*
X106298138Y-111988395D01*
X106258294Y-111999071D01*
X106258290Y-111999073D01*
X106186353Y-112040607D01*
X106186352Y-112040607D01*
X106127610Y-112099349D01*
X106127610Y-112099350D01*
X106086076Y-112171287D01*
X106086074Y-112171291D01*
X106082900Y-112183136D01*
X106064573Y-112251534D01*
X106064573Y-112334606D01*
X106068458Y-112349105D01*
X106086074Y-112414848D01*
X106086076Y-112414852D01*
X106094533Y-112429500D01*
X106127611Y-112486791D01*
X106186352Y-112545532D01*
X106258295Y-112587069D01*
X106338537Y-112608570D01*
X106338539Y-112608570D01*
X106421607Y-112608570D01*
X106421609Y-112608570D01*
X106501851Y-112587069D01*
X106573794Y-112545532D01*
X106632535Y-112486791D01*
X106653447Y-112450569D01*
X106680164Y-112430069D01*
X106691552Y-112428570D01*
X107259601Y-112428570D01*
X107290714Y-112441457D01*
X107423497Y-112574239D01*
X107423516Y-112574261D01*
X107449756Y-112600500D01*
X107464128Y-112614872D01*
X107493299Y-112626954D01*
X107493300Y-112626955D01*
X107493301Y-112626955D01*
X107513930Y-112635501D01*
X107513931Y-112635501D01*
X107572955Y-112635501D01*
X107572963Y-112635500D01*
X108227973Y-112635500D01*
X108259086Y-112648387D01*
X108271973Y-112679500D01*
X108259086Y-112710613D01*
X107565345Y-113404353D01*
X107534232Y-113417240D01*
X107503119Y-113404353D01*
X107490232Y-113373240D01*
X107490232Y-113332069D01*
X107487820Y-113323066D01*
X107468731Y-113251826D01*
X107427194Y-113179883D01*
X107368453Y-113121142D01*
X107368452Y-113121141D01*
X107296514Y-113079607D01*
X107296510Y-113079605D01*
X107288497Y-113077458D01*
X107216268Y-113058104D01*
X107149500Y-113058104D01*
X107118387Y-113045217D01*
X107105500Y-113014104D01*
X107105500Y-112953144D01*
X107103918Y-112947239D01*
X107083999Y-112872901D01*
X107042462Y-112800958D01*
X106983721Y-112742217D01*
X106983720Y-112742216D01*
X106911782Y-112700682D01*
X106911778Y-112700680D01*
X106831536Y-112679179D01*
X106748464Y-112679179D01*
X106709946Y-112689500D01*
X106668221Y-112700680D01*
X106668217Y-112700682D01*
X106596280Y-112742216D01*
X106596274Y-112742220D01*
X106537539Y-112800956D01*
X106537535Y-112800961D01*
X106516626Y-112837179D01*
X106489909Y-112857680D01*
X106478521Y-112859179D01*
X105769031Y-112859179D01*
X105737918Y-112846292D01*
X105573387Y-112681761D01*
X105560500Y-112650648D01*
X105560500Y-111349351D01*
X105573387Y-111318238D01*
X105773454Y-111118171D01*
X105980963Y-110910661D01*
X106012075Y-110897775D01*
X106043188Y-110910662D01*
G37*
%TD.AperFunction*%
%TA.AperFunction,Conductor*%
G36*
X107706761Y-106548387D02*
G01*
X107835127Y-106676753D01*
X107835128Y-106676755D01*
X107873245Y-106714872D01*
X107887832Y-106720913D01*
X107893714Y-106723349D01*
X107893716Y-106723351D01*
X107911412Y-106730681D01*
X107923047Y-106735501D01*
X107923049Y-106735501D01*
X107982072Y-106735501D01*
X107982080Y-106735500D01*
X109864999Y-106735500D01*
X109896112Y-106748387D01*
X109908999Y-106779500D01*
X109903104Y-106801500D01*
X109870357Y-106858217D01*
X109870355Y-106858221D01*
X109870355Y-106858222D01*
X109849006Y-106937899D01*
X109848854Y-106938465D01*
X109848854Y-106970500D01*
X109835967Y-107001613D01*
X109804854Y-107014500D01*
X107278726Y-107014500D01*
X107278718Y-107014499D01*
X107273599Y-107014499D01*
X107219693Y-107014499D01*
X107219691Y-107014499D01*
X107184477Y-107029086D01*
X107169890Y-107035128D01*
X107131773Y-107073244D01*
X107131774Y-107073245D01*
X107131773Y-107073246D01*
X106301452Y-107903567D01*
X106301451Y-107903568D01*
X106301450Y-107903567D01*
X106263335Y-107941683D01*
X106263335Y-107941684D01*
X106263334Y-107941686D01*
X106242706Y-107991483D01*
X106242705Y-107991489D01*
X106242705Y-108050511D01*
X106242706Y-108050520D01*
X106242706Y-109478519D01*
X106229819Y-109509632D01*
X106220707Y-109516623D01*
X106184488Y-109537535D01*
X106184485Y-109537537D01*
X106125743Y-109596279D01*
X106125743Y-109596280D01*
X106084209Y-109668217D01*
X106084207Y-109668221D01*
X106077960Y-109691536D01*
X106062706Y-109748464D01*
X106062706Y-109831536D01*
X106074387Y-109875128D01*
X106084207Y-109911778D01*
X106084209Y-109911782D01*
X106125743Y-109983719D01*
X106125743Y-109983720D01*
X106184485Y-110042462D01*
X106201687Y-110052394D01*
X106222188Y-110079111D01*
X106217792Y-110112499D01*
X106191075Y-110133000D01*
X106179687Y-110134499D01*
X106148487Y-110134499D01*
X106113273Y-110149086D01*
X106098686Y-110155128D01*
X106060569Y-110193244D01*
X106060570Y-110193245D01*
X106060569Y-110193246D01*
X105168246Y-111085569D01*
X105168245Y-111085570D01*
X105168244Y-111085569D01*
X105130128Y-111123686D01*
X105127522Y-111129975D01*
X105127523Y-111129976D01*
X105109499Y-111173487D01*
X105109499Y-111232513D01*
X105109500Y-111232522D01*
X105109500Y-112291629D01*
X105096613Y-112322742D01*
X105065500Y-112335629D01*
X105034387Y-112322742D01*
X104994182Y-112282537D01*
X104922244Y-112241003D01*
X104922240Y-112241001D01*
X104901934Y-112235560D01*
X104841998Y-112219500D01*
X104758926Y-112219500D01*
X104725073Y-112228571D01*
X104678686Y-112241000D01*
X104678679Y-112241003D01*
X104670665Y-112245631D01*
X104648665Y-112251526D01*
X104352261Y-112251526D01*
X104321148Y-112238639D01*
X103238385Y-111155876D01*
X103225498Y-111124763D01*
X103225498Y-109788977D01*
X103228358Y-109774593D01*
X103228250Y-109774564D01*
X103228694Y-109772903D01*
X103228847Y-109772139D01*
X103228993Y-109771784D01*
X103228997Y-109771778D01*
X103250498Y-109691536D01*
X103250498Y-109608464D01*
X103228997Y-109528222D01*
X103187460Y-109456279D01*
X103142106Y-109410925D01*
X103129219Y-109379812D01*
X103142106Y-109348699D01*
X103151219Y-109341707D01*
X103152109Y-109341192D01*
X103152113Y-109341192D01*
X103224056Y-109299655D01*
X103282797Y-109240914D01*
X103324334Y-109168971D01*
X103340199Y-109109761D01*
X103349608Y-109093462D01*
X104434500Y-109093462D01*
X104434500Y-109176534D01*
X104456001Y-109256776D01*
X104497538Y-109328719D01*
X104556279Y-109387460D01*
X104628222Y-109428997D01*
X104708464Y-109450498D01*
X104708466Y-109450498D01*
X104791534Y-109450498D01*
X104791536Y-109450498D01*
X104871778Y-109428997D01*
X104943721Y-109387460D01*
X104988888Y-109342293D01*
X105020001Y-109329405D01*
X105051113Y-109342292D01*
X105051114Y-109342292D01*
X105096282Y-109387460D01*
X105168225Y-109428997D01*
X105248467Y-109450498D01*
X105248469Y-109450498D01*
X105331537Y-109450498D01*
X105331539Y-109450498D01*
X105411781Y-109428997D01*
X105483724Y-109387460D01*
X105542465Y-109328719D01*
X105584002Y-109256776D01*
X105605503Y-109176534D01*
X105605503Y-109093462D01*
X105584002Y-109013220D01*
X105542465Y-108941277D01*
X105483724Y-108882536D01*
X105483723Y-108882535D01*
X105411785Y-108841001D01*
X105411781Y-108840999D01*
X105386112Y-108834121D01*
X105331539Y-108819498D01*
X105248467Y-108819498D01*
X105194972Y-108833832D01*
X105168224Y-108840999D01*
X105168220Y-108841001D01*
X105096283Y-108882535D01*
X105096277Y-108882539D01*
X105051113Y-108927703D01*
X105020001Y-108940590D01*
X104988888Y-108927703D01*
X104943720Y-108882535D01*
X104871782Y-108841001D01*
X104871778Y-108840999D01*
X104846109Y-108834121D01*
X104791536Y-108819498D01*
X104708464Y-108819498D01*
X104654969Y-108833832D01*
X104628221Y-108840999D01*
X104628217Y-108841001D01*
X104556280Y-108882535D01*
X104556279Y-108882535D01*
X104497537Y-108941277D01*
X104497537Y-108941278D01*
X104456003Y-109013215D01*
X104456001Y-109013219D01*
X104456001Y-109013220D01*
X104434500Y-109093462D01*
X103349608Y-109093462D01*
X103351584Y-109090040D01*
X105893239Y-106548387D01*
X105924352Y-106535500D01*
X107675648Y-106535500D01*
X107706761Y-106548387D01*
G37*
%TD.AperFunction*%
%TA.AperFunction,Conductor*%
G36*
X113856761Y-110298387D02*
G01*
X114737113Y-111178739D01*
X114750000Y-111209852D01*
X114750000Y-111630500D01*
X114737113Y-111661613D01*
X114706000Y-111674500D01*
X112684352Y-111674500D01*
X112653239Y-111661613D01*
X111735088Y-110743462D01*
X112164500Y-110743462D01*
X112164500Y-110826534D01*
X112183589Y-110897775D01*
X112186001Y-110906776D01*
X112186003Y-110906780D01*
X112199632Y-110930386D01*
X112227538Y-110978719D01*
X112286279Y-111037460D01*
X112358222Y-111078997D01*
X112438464Y-111100498D01*
X112438466Y-111100498D01*
X112521534Y-111100498D01*
X112521536Y-111100498D01*
X112601778Y-111078997D01*
X112673721Y-111037460D01*
X112732462Y-110978719D01*
X112773999Y-110906776D01*
X112795500Y-110826534D01*
X112795500Y-110743462D01*
X112773999Y-110663220D01*
X112732462Y-110591277D01*
X112673721Y-110532536D01*
X112673720Y-110532535D01*
X112601782Y-110491001D01*
X112601778Y-110490999D01*
X112598020Y-110489992D01*
X112521536Y-110469498D01*
X112438464Y-110469498D01*
X112395863Y-110480913D01*
X112358221Y-110490999D01*
X112358217Y-110491001D01*
X112286280Y-110532535D01*
X112286279Y-110532535D01*
X112227537Y-110591277D01*
X112227537Y-110591278D01*
X112186003Y-110663215D01*
X112186001Y-110663219D01*
X112186001Y-110663220D01*
X112164500Y-110743462D01*
X111735088Y-110743462D01*
X111352239Y-110360613D01*
X111339352Y-110329500D01*
X111352239Y-110298387D01*
X111383352Y-110285500D01*
X113825648Y-110285500D01*
X113856761Y-110298387D01*
G37*
%TD.AperFunction*%
%TA.AperFunction,Conductor*%
G36*
X108807644Y-103158387D02*
G01*
X109801613Y-104152355D01*
X109814500Y-104183468D01*
X109814500Y-105538610D01*
X109814499Y-105538624D01*
X109814499Y-105596071D01*
X109818728Y-105606279D01*
X109829086Y-105631284D01*
X109835128Y-105645872D01*
X109873245Y-105683989D01*
X109873246Y-105683989D01*
X112993500Y-108804243D01*
X112993513Y-108804258D01*
X113017643Y-108828387D01*
X113034128Y-108844872D01*
X113034130Y-108844873D01*
X113034132Y-108844874D01*
X113047563Y-108850437D01*
X113047564Y-108850437D01*
X113047566Y-108850438D01*
X113083930Y-108865501D01*
X113083932Y-108865501D01*
X113142955Y-108865501D01*
X113142963Y-108865500D01*
X113620500Y-108865500D01*
X113651613Y-108878387D01*
X113664500Y-108909500D01*
X113664500Y-108931536D01*
X113682374Y-108998242D01*
X113686001Y-109011778D01*
X113686003Y-109011782D01*
X113695500Y-109028230D01*
X113727538Y-109083721D01*
X113786279Y-109142462D01*
X113858222Y-109183999D01*
X113938464Y-109205500D01*
X113938466Y-109205500D01*
X114021534Y-109205500D01*
X114021536Y-109205500D01*
X114101778Y-109183999D01*
X114173721Y-109142462D01*
X114189387Y-109126795D01*
X114220499Y-109113908D01*
X114251612Y-109126794D01*
X114264500Y-109157907D01*
X114264500Y-109869493D01*
X114264499Y-109869507D01*
X114264499Y-109873047D01*
X114264499Y-109926953D01*
X114264499Y-109926955D01*
X114264500Y-109926956D01*
X114274252Y-109950498D01*
X114274252Y-109950500D01*
X114274253Y-109950500D01*
X114285128Y-109976755D01*
X114323245Y-110014872D01*
X114323246Y-110014872D01*
X114737113Y-110428739D01*
X114750000Y-110459852D01*
X114750000Y-110702148D01*
X114737113Y-110733261D01*
X114706000Y-110746148D01*
X114674887Y-110733261D01*
X114014872Y-110073246D01*
X114014872Y-110073245D01*
X113976755Y-110035128D01*
X113962167Y-110029086D01*
X113962165Y-110029085D01*
X113926956Y-110014500D01*
X113926954Y-110014499D01*
X113926953Y-110014499D01*
X113873047Y-110014499D01*
X113867928Y-110014499D01*
X113867920Y-110014500D01*
X110274352Y-110014500D01*
X110243239Y-110001613D01*
X109969484Y-109727858D01*
X109956597Y-109696745D01*
X109969484Y-109665632D01*
X110000597Y-109652745D01*
X110020478Y-109658072D01*
X110020552Y-109657894D01*
X110021909Y-109658456D01*
X110022598Y-109658640D01*
X110023219Y-109658999D01*
X110103461Y-109680500D01*
X110103463Y-109680500D01*
X110186531Y-109680500D01*
X110186533Y-109680500D01*
X110266775Y-109658999D01*
X110338718Y-109617462D01*
X110397459Y-109558721D01*
X110438996Y-109486778D01*
X110460497Y-109406536D01*
X110460497Y-109323464D01*
X110438996Y-109243222D01*
X110397459Y-109171279D01*
X110338718Y-109112538D01*
X110338717Y-109112537D01*
X110338714Y-109112535D01*
X110302496Y-109091623D01*
X110281996Y-109064906D01*
X110280497Y-109053519D01*
X110280497Y-107738471D01*
X110293383Y-107707359D01*
X110626753Y-107373989D01*
X110626755Y-107373989D01*
X110664872Y-107335872D01*
X110672425Y-107317637D01*
X110685501Y-107286070D01*
X110685501Y-107232164D01*
X110685501Y-107228624D01*
X110685500Y-107228610D01*
X110685500Y-106823050D01*
X110685500Y-106823047D01*
X110664872Y-106773245D01*
X110664870Y-106773243D01*
X110624258Y-106732630D01*
X110624243Y-106732617D01*
X110414872Y-106523246D01*
X110414872Y-106523245D01*
X110376755Y-106485128D01*
X110362167Y-106479086D01*
X110362165Y-106479085D01*
X110326956Y-106464500D01*
X110326954Y-106464499D01*
X110326953Y-106464499D01*
X110273047Y-106464499D01*
X110267928Y-106464499D01*
X110267920Y-106464500D01*
X109833142Y-106464500D01*
X109802029Y-106451613D01*
X109789142Y-106420500D01*
X109802029Y-106389387D01*
X109811142Y-106382395D01*
X109812025Y-106381884D01*
X109854323Y-106357464D01*
X109913064Y-106298723D01*
X109954601Y-106226780D01*
X109976102Y-106146538D01*
X109976102Y-106063466D01*
X109954601Y-105983224D01*
X109913064Y-105911281D01*
X109854323Y-105852540D01*
X109854322Y-105852539D01*
X109782384Y-105811005D01*
X109782380Y-105811003D01*
X109702138Y-105789502D01*
X109619066Y-105789502D01*
X109585176Y-105798583D01*
X109538823Y-105811003D01*
X109538819Y-105811005D01*
X109466882Y-105852539D01*
X109466881Y-105852539D01*
X109408139Y-105911281D01*
X109408139Y-105911282D01*
X109366605Y-105983219D01*
X109366603Y-105983223D01*
X109363791Y-105993719D01*
X109345102Y-106063466D01*
X109345102Y-106146538D01*
X109363556Y-106215407D01*
X109366603Y-106226780D01*
X109366605Y-106226784D01*
X109408139Y-106298721D01*
X109408139Y-106298722D01*
X109466881Y-106357464D01*
X109510062Y-106382395D01*
X109530563Y-106409112D01*
X109526167Y-106442500D01*
X109499450Y-106463001D01*
X109488062Y-106464500D01*
X108024352Y-106464500D01*
X107993239Y-106451613D01*
X107864872Y-106323246D01*
X107864872Y-106323245D01*
X107826755Y-106285128D01*
X107806538Y-106276754D01*
X107806537Y-106276753D01*
X107806536Y-106276753D01*
X107776956Y-106264500D01*
X107776954Y-106264499D01*
X107776953Y-106264499D01*
X107723047Y-106264499D01*
X107717928Y-106264499D01*
X107717920Y-106264500D01*
X105882080Y-106264500D01*
X105882072Y-106264499D01*
X105876953Y-106264499D01*
X105823047Y-106264499D01*
X105823045Y-106264499D01*
X105823043Y-106264500D01*
X105773246Y-106285127D01*
X105773243Y-106285129D01*
X105735127Y-106323244D01*
X105735128Y-106323245D01*
X105735127Y-106323246D01*
X103273026Y-108785346D01*
X103241913Y-108798233D01*
X103219913Y-108792338D01*
X103152118Y-108753196D01*
X103152113Y-108753194D01*
X103133531Y-108748215D01*
X103071871Y-108731693D01*
X102988799Y-108731693D01*
X102935304Y-108746027D01*
X102908556Y-108753194D01*
X102908552Y-108753196D01*
X102836615Y-108794730D01*
X102836614Y-108794730D01*
X102777872Y-108853472D01*
X102777872Y-108853473D01*
X102736338Y-108925410D01*
X102736336Y-108925414D01*
X102735723Y-108927703D01*
X102714835Y-109005657D01*
X102714835Y-109088729D01*
X102732217Y-109153598D01*
X102732355Y-109154112D01*
X102727959Y-109187500D01*
X102701242Y-109208001D01*
X102689854Y-109209500D01*
X101836113Y-109209500D01*
X101814113Y-109203605D01*
X101756782Y-109170504D01*
X101756778Y-109170502D01*
X101732501Y-109163997D01*
X101676536Y-109149001D01*
X101593464Y-109149001D01*
X101560227Y-109157907D01*
X101513221Y-109170502D01*
X101513216Y-109170504D01*
X101476500Y-109191703D01*
X101443112Y-109196099D01*
X101416395Y-109175598D01*
X101410500Y-109153598D01*
X101410500Y-107802282D01*
X101623474Y-107802282D01*
X101623474Y-107885354D01*
X101638568Y-107941684D01*
X101644975Y-107965596D01*
X101644977Y-107965600D01*
X101664784Y-107999906D01*
X101686512Y-108037539D01*
X101745253Y-108096280D01*
X101817196Y-108137817D01*
X101897438Y-108159318D01*
X101897440Y-108159318D01*
X101980508Y-108159318D01*
X101980510Y-108159318D01*
X102060752Y-108137817D01*
X102132695Y-108096280D01*
X102191436Y-108037539D01*
X102232973Y-107965596D01*
X102254474Y-107885354D01*
X102254474Y-107802282D01*
X102232973Y-107722040D01*
X102191436Y-107650097D01*
X102132695Y-107591356D01*
X102132694Y-107591355D01*
X102060756Y-107549821D01*
X102060752Y-107549819D01*
X102058617Y-107549247D01*
X101980510Y-107528318D01*
X101897438Y-107528318D01*
X101843943Y-107542652D01*
X101817195Y-107549819D01*
X101817191Y-107549821D01*
X101745254Y-107591355D01*
X101745253Y-107591355D01*
X101686511Y-107650097D01*
X101686511Y-107650098D01*
X101644977Y-107722035D01*
X101644975Y-107722039D01*
X101644975Y-107722040D01*
X101623474Y-107802282D01*
X101410500Y-107802282D01*
X101410500Y-107039204D01*
X101423387Y-107008091D01*
X102830259Y-105601219D01*
X105484500Y-105601219D01*
X105484500Y-105684291D01*
X105502363Y-105750956D01*
X105506001Y-105764533D01*
X105506003Y-105764537D01*
X105517568Y-105784568D01*
X105547538Y-105836476D01*
X105606279Y-105895217D01*
X105678222Y-105936754D01*
X105758464Y-105958255D01*
X105758466Y-105958255D01*
X105841534Y-105958255D01*
X105841536Y-105958255D01*
X105921778Y-105936754D01*
X105993721Y-105895217D01*
X106052462Y-105836476D01*
X106093999Y-105764533D01*
X106115500Y-105684291D01*
X106115500Y-105601219D01*
X106093999Y-105520977D01*
X106052462Y-105449034D01*
X105993721Y-105390293D01*
X105993720Y-105390292D01*
X105921782Y-105348758D01*
X105921778Y-105348756D01*
X105841536Y-105327255D01*
X105758464Y-105327255D01*
X105709037Y-105340499D01*
X105678221Y-105348756D01*
X105678217Y-105348758D01*
X105606280Y-105390292D01*
X105606279Y-105390292D01*
X105547537Y-105449034D01*
X105547537Y-105449035D01*
X105506003Y-105520972D01*
X105506001Y-105520976D01*
X105506001Y-105520977D01*
X105484500Y-105601219D01*
X102830259Y-105601219D01*
X104133091Y-104298387D01*
X104164204Y-104285500D01*
X105238521Y-104285500D01*
X105269634Y-104298387D01*
X105276626Y-104307500D01*
X105297535Y-104343717D01*
X105297539Y-104343722D01*
X105356274Y-104402458D01*
X105356277Y-104402460D01*
X105356279Y-104402462D01*
X105428222Y-104443999D01*
X105508464Y-104465500D01*
X105508466Y-104465500D01*
X105591534Y-104465500D01*
X105591536Y-104465500D01*
X105671778Y-104443999D01*
X105743721Y-104402462D01*
X105802462Y-104343721D01*
X105843999Y-104271778D01*
X105865500Y-104191536D01*
X105865500Y-104108464D01*
X105843999Y-104028222D01*
X105841677Y-104024200D01*
X105831410Y-104006417D01*
X105827014Y-103973029D01*
X105847515Y-103946312D01*
X105858124Y-103941917D01*
X105865499Y-103939942D01*
X105937442Y-103898405D01*
X105996183Y-103839664D01*
X106037720Y-103767721D01*
X106059221Y-103687479D01*
X106059221Y-103604407D01*
X106046910Y-103558464D01*
X106234500Y-103558464D01*
X106234500Y-103641536D01*
X106246810Y-103687477D01*
X106256001Y-103721778D01*
X106256003Y-103721782D01*
X106281527Y-103765989D01*
X106297538Y-103793721D01*
X106356279Y-103852462D01*
X106428222Y-103893999D01*
X106508464Y-103915500D01*
X106508466Y-103915500D01*
X106591534Y-103915500D01*
X106591536Y-103915500D01*
X106671778Y-103893999D01*
X106743721Y-103852462D01*
X106802462Y-103793721D01*
X106843999Y-103721778D01*
X106865500Y-103641536D01*
X106865500Y-103558464D01*
X106843999Y-103478222D01*
X106802462Y-103406279D01*
X106743721Y-103347538D01*
X106743720Y-103347537D01*
X106671782Y-103306003D01*
X106671778Y-103306001D01*
X106666176Y-103304500D01*
X106591536Y-103284500D01*
X106508464Y-103284500D01*
X106473473Y-103293876D01*
X106428221Y-103306001D01*
X106428217Y-103306003D01*
X106356280Y-103347537D01*
X106356279Y-103347537D01*
X106297537Y-103406279D01*
X106297537Y-103406280D01*
X106256003Y-103478217D01*
X106256001Y-103478221D01*
X106256001Y-103478222D01*
X106234500Y-103558464D01*
X106046910Y-103558464D01*
X106037720Y-103524165D01*
X105996183Y-103452222D01*
X105937442Y-103393481D01*
X105937441Y-103393480D01*
X105865503Y-103351946D01*
X105865495Y-103351942D01*
X105849910Y-103347766D01*
X105823194Y-103327264D01*
X105818800Y-103293876D01*
X105823196Y-103283264D01*
X105825609Y-103279086D01*
X105831678Y-103268574D01*
X105853179Y-103188332D01*
X105853179Y-103188326D01*
X105853556Y-103185471D01*
X105854781Y-103185632D01*
X105866066Y-103158388D01*
X105897179Y-103145501D01*
X105942072Y-103145501D01*
X105942080Y-103145500D01*
X108776531Y-103145500D01*
X108807644Y-103158387D01*
G37*
%TD.AperFunction*%
%TA.AperFunction,Conductor*%
G36*
X108856761Y-108998387D02*
G01*
X110007761Y-110149387D01*
X110020648Y-110180500D01*
X110007761Y-110211613D01*
X109976648Y-110224500D01*
X108843469Y-110224500D01*
X108812356Y-110211613D01*
X108513989Y-109913246D01*
X108513989Y-109913245D01*
X108475872Y-109875128D01*
X108461284Y-109869086D01*
X108461282Y-109869085D01*
X108426073Y-109854500D01*
X108426071Y-109854499D01*
X108426070Y-109854499D01*
X108372164Y-109854499D01*
X108367045Y-109854499D01*
X108367037Y-109854500D01*
X107517594Y-109854500D01*
X107486481Y-109841613D01*
X107479489Y-109832500D01*
X107462139Y-109802449D01*
X107457743Y-109769061D01*
X107478244Y-109742344D01*
X107511628Y-109737948D01*
X107558464Y-109750498D01*
X107558467Y-109750498D01*
X107641534Y-109750498D01*
X107641536Y-109750498D01*
X107721778Y-109728997D01*
X107793721Y-109687460D01*
X107843887Y-109637294D01*
X107875000Y-109624406D01*
X107906112Y-109637293D01*
X107956279Y-109687460D01*
X108028222Y-109728997D01*
X108108464Y-109750498D01*
X108108466Y-109750498D01*
X108191534Y-109750498D01*
X108191536Y-109750498D01*
X108271778Y-109728997D01*
X108343721Y-109687460D01*
X108402462Y-109628719D01*
X108443999Y-109556776D01*
X108465500Y-109476534D01*
X108465500Y-109393462D01*
X108443999Y-109313220D01*
X108402462Y-109241277D01*
X108343721Y-109182536D01*
X108343720Y-109182535D01*
X108271782Y-109141001D01*
X108271778Y-109140999D01*
X108198576Y-109121384D01*
X108171860Y-109100884D01*
X108167464Y-109067496D01*
X108178853Y-109047771D01*
X108228238Y-108998387D01*
X108259350Y-108985500D01*
X108825648Y-108985500D01*
X108856761Y-108998387D01*
G37*
%TD.AperFunction*%
%TA.AperFunction,Conductor*%
G36*
X110091092Y-107286999D02*
G01*
X110122818Y-107295500D01*
X110122819Y-107295500D01*
X110205892Y-107295500D01*
X110208747Y-107295124D01*
X110208849Y-107295900D01*
X110239247Y-107299894D01*
X110259755Y-107326605D01*
X110255369Y-107359994D01*
X110248371Y-107369118D01*
X110068243Y-107549247D01*
X110068242Y-107549248D01*
X110068241Y-107549247D01*
X110030126Y-107587363D01*
X110030126Y-107587364D01*
X110030125Y-107587366D01*
X110009497Y-107637163D01*
X110009496Y-107637169D01*
X110009496Y-107696191D01*
X110009497Y-107696200D01*
X110009497Y-109053519D01*
X109996610Y-109084632D01*
X109987498Y-109091623D01*
X109951279Y-109112535D01*
X109951276Y-109112537D01*
X109892534Y-109171279D01*
X109892534Y-109171280D01*
X109851000Y-109243217D01*
X109850998Y-109243221D01*
X109850998Y-109243222D01*
X109829497Y-109323464D01*
X109829497Y-109406536D01*
X109836590Y-109433007D01*
X109850998Y-109486778D01*
X109851001Y-109486784D01*
X109851357Y-109487401D01*
X109851403Y-109487756D01*
X109852103Y-109489445D01*
X109851650Y-109489632D01*
X109855751Y-109520789D01*
X109835249Y-109547505D01*
X109801861Y-109551899D01*
X109782138Y-109540512D01*
X109014872Y-108773246D01*
X109014872Y-108773245D01*
X108976755Y-108735128D01*
X108962167Y-108729086D01*
X108962165Y-108729085D01*
X108926956Y-108714500D01*
X108926954Y-108714499D01*
X108926953Y-108714499D01*
X108873047Y-108714499D01*
X108867928Y-108714499D01*
X108867920Y-108714500D01*
X108363792Y-108714500D01*
X108332679Y-108701613D01*
X108319792Y-108670500D01*
X108332679Y-108639387D01*
X108431700Y-108540366D01*
X108772551Y-108199513D01*
X108803663Y-108186627D01*
X108825663Y-108192522D01*
X108828216Y-108193996D01*
X108828218Y-108193997D01*
X108828222Y-108193999D01*
X108908464Y-108215500D01*
X108908466Y-108215500D01*
X108991534Y-108215500D01*
X108991536Y-108215500D01*
X109071778Y-108193999D01*
X109143721Y-108152462D01*
X109202462Y-108093721D01*
X109243999Y-108021778D01*
X109265500Y-107941536D01*
X109265500Y-107858464D01*
X109243999Y-107778222D01*
X109202462Y-107706279D01*
X109143721Y-107647538D01*
X109143720Y-107647537D01*
X109071782Y-107606003D01*
X109071778Y-107606001D01*
X109057738Y-107602239D01*
X108991536Y-107584500D01*
X108908464Y-107584500D01*
X108854969Y-107598834D01*
X108828221Y-107606001D01*
X108828217Y-107606003D01*
X108756280Y-107647537D01*
X108756279Y-107647537D01*
X108697537Y-107706279D01*
X108697537Y-107706280D01*
X108656003Y-107778217D01*
X108656001Y-107778221D01*
X108634500Y-107858465D01*
X108634500Y-107936087D01*
X108621613Y-107967200D01*
X108090613Y-108498200D01*
X108059500Y-108511087D01*
X108028387Y-108498200D01*
X108015500Y-108467087D01*
X108015500Y-108458465D01*
X108015500Y-108458464D01*
X107993999Y-108378222D01*
X107952462Y-108306279D01*
X107893721Y-108247538D01*
X107893720Y-108247537D01*
X107821782Y-108206003D01*
X107821778Y-108206001D01*
X107748112Y-108186262D01*
X107721395Y-108165761D01*
X107715500Y-108143761D01*
X107715500Y-108058465D01*
X107712572Y-108047537D01*
X107693999Y-107978222D01*
X107652462Y-107906279D01*
X107593721Y-107847538D01*
X107593720Y-107847537D01*
X107521782Y-107806003D01*
X107521778Y-107806001D01*
X107507902Y-107802283D01*
X107441536Y-107784500D01*
X107358464Y-107784500D01*
X107304969Y-107798834D01*
X107278221Y-107806001D01*
X107278217Y-107806003D01*
X107206280Y-107847537D01*
X107206279Y-107847537D01*
X107147537Y-107906279D01*
X107147537Y-107906280D01*
X107106003Y-107978217D01*
X107106001Y-107978221D01*
X107102446Y-107991489D01*
X107084500Y-108058464D01*
X107084500Y-108141536D01*
X107106001Y-108221778D01*
X107147538Y-108293721D01*
X107206279Y-108352462D01*
X107278222Y-108393999D01*
X107351889Y-108413738D01*
X107378605Y-108434238D01*
X107384500Y-108456238D01*
X107384500Y-108458464D01*
X107384500Y-108541536D01*
X107399094Y-108596001D01*
X107406001Y-108621778D01*
X107406003Y-108621782D01*
X107424145Y-108653204D01*
X107447538Y-108693721D01*
X107506279Y-108752462D01*
X107578222Y-108793999D01*
X107658464Y-108815500D01*
X107658466Y-108815500D01*
X107667088Y-108815500D01*
X107698201Y-108828387D01*
X107711088Y-108859500D01*
X107698201Y-108890613D01*
X107662203Y-108926611D01*
X107631090Y-108939498D01*
X107423929Y-108939498D01*
X107374126Y-108960127D01*
X107336010Y-108998242D01*
X107336011Y-108998243D01*
X107336010Y-108998244D01*
X106710491Y-109623762D01*
X106679378Y-109636649D01*
X106648265Y-109623762D01*
X106641277Y-109614654D01*
X106630668Y-109596279D01*
X106624071Y-109589682D01*
X106571931Y-109537541D01*
X106571923Y-109537535D01*
X106535705Y-109516623D01*
X106515205Y-109489906D01*
X106513706Y-109478519D01*
X106513706Y-108092792D01*
X106526593Y-108061679D01*
X107289885Y-107298387D01*
X107320998Y-107285500D01*
X110079704Y-107285500D01*
X110091092Y-107286999D01*
G37*
%TD.AperFunction*%
%TA.AperFunction,Conductor*%
G36*
X116503420Y-101451041D02*
G01*
X116585667Y-101464068D01*
X116598757Y-101468321D01*
X116669831Y-101504536D01*
X116680967Y-101512626D01*
X116737373Y-101569032D01*
X116745464Y-101580169D01*
X116781677Y-101651241D01*
X116785931Y-101664333D01*
X116798958Y-101746576D01*
X116799500Y-101753460D01*
X116799500Y-102669097D01*
X116786613Y-102700210D01*
X116755500Y-102713097D01*
X116733500Y-102707202D01*
X116696783Y-102686003D01*
X116696778Y-102686001D01*
X116616536Y-102664500D01*
X116533464Y-102664500D01*
X116482272Y-102678217D01*
X116453221Y-102686001D01*
X116453217Y-102686003D01*
X116381280Y-102727537D01*
X116381279Y-102727537D01*
X116322537Y-102786279D01*
X116322537Y-102786280D01*
X116281003Y-102858217D01*
X116281001Y-102858221D01*
X116276639Y-102874500D01*
X116259500Y-102938464D01*
X116259500Y-103021536D01*
X116267787Y-103052462D01*
X116281001Y-103101778D01*
X116281003Y-103101782D01*
X116322537Y-103173719D01*
X116322537Y-103173720D01*
X116381279Y-103232462D01*
X116432257Y-103261895D01*
X116452758Y-103288612D01*
X116448362Y-103322000D01*
X116432257Y-103338105D01*
X116381280Y-103367537D01*
X116381279Y-103367537D01*
X116322537Y-103426279D01*
X116322537Y-103426280D01*
X116281003Y-103498217D01*
X116281001Y-103498221D01*
X116272964Y-103528217D01*
X116259500Y-103578464D01*
X116259500Y-103661536D01*
X116281001Y-103741778D01*
X116322538Y-103813721D01*
X116381279Y-103872462D01*
X116453222Y-103913999D01*
X116533464Y-103935500D01*
X116533466Y-103935500D01*
X116616534Y-103935500D01*
X116616536Y-103935500D01*
X116696778Y-103913999D01*
X116733500Y-103892796D01*
X116766887Y-103888401D01*
X116793605Y-103908901D01*
X116799500Y-103930902D01*
X116799500Y-105610142D01*
X116786613Y-105641255D01*
X116755500Y-105654142D01*
X116724387Y-105641255D01*
X116717395Y-105632143D01*
X116704692Y-105610142D01*
X116702462Y-105606279D01*
X116643721Y-105547538D01*
X116643720Y-105547537D01*
X116571782Y-105506003D01*
X116571778Y-105506001D01*
X116491536Y-105484500D01*
X116408464Y-105484500D01*
X116370155Y-105494765D01*
X116328221Y-105506001D01*
X116328217Y-105506003D01*
X116256280Y-105547537D01*
X116256279Y-105547537D01*
X116197537Y-105606279D01*
X116197537Y-105606280D01*
X116156003Y-105678217D01*
X116156001Y-105678221D01*
X116152252Y-105692213D01*
X116134500Y-105758464D01*
X116134500Y-105841536D01*
X116156001Y-105921778D01*
X116156003Y-105921782D01*
X116170769Y-105947356D01*
X116191477Y-105983224D01*
X116197537Y-105993719D01*
X116197541Y-105993725D01*
X116235128Y-106031311D01*
X116256279Y-106052462D01*
X116256280Y-106052463D01*
X116256282Y-106052464D01*
X116274660Y-106063074D01*
X116285668Y-106069430D01*
X116292500Y-106073374D01*
X116313001Y-106100091D01*
X116314500Y-106111479D01*
X116314500Y-108265643D01*
X116301613Y-108296756D01*
X116029555Y-108568813D01*
X115998442Y-108581700D01*
X115979629Y-108576657D01*
X115979445Y-108577104D01*
X115976778Y-108575999D01*
X115971184Y-108574500D01*
X115896536Y-108554498D01*
X115813464Y-108554498D01*
X115760040Y-108568813D01*
X115733221Y-108575999D01*
X115733217Y-108576001D01*
X115661280Y-108617535D01*
X115661279Y-108617535D01*
X115602537Y-108676277D01*
X115602537Y-108676278D01*
X115561003Y-108748215D01*
X115561001Y-108748219D01*
X115554295Y-108773246D01*
X115539500Y-108828462D01*
X115539500Y-108911534D01*
X115552521Y-108960127D01*
X115561001Y-108991776D01*
X115561003Y-108991780D01*
X115573379Y-109013215D01*
X115602538Y-109063719D01*
X115661279Y-109122460D01*
X115733222Y-109163997D01*
X115813464Y-109185498D01*
X115813466Y-109185498D01*
X115896534Y-109185498D01*
X115896536Y-109185498D01*
X115976778Y-109163997D01*
X116048721Y-109122460D01*
X116107462Y-109063719D01*
X116148999Y-108991776D01*
X116170500Y-108911534D01*
X116170500Y-108829347D01*
X116183387Y-108798234D01*
X116344084Y-108637537D01*
X116526753Y-108454868D01*
X116526755Y-108454868D01*
X116564872Y-108416751D01*
X116578433Y-108384011D01*
X116585501Y-108366949D01*
X116585501Y-108313043D01*
X116585501Y-108309503D01*
X116585500Y-108309489D01*
X116585500Y-106111479D01*
X116598387Y-106080366D01*
X116607500Y-106073374D01*
X116643721Y-106052462D01*
X116702462Y-105993721D01*
X116717395Y-105967857D01*
X116744112Y-105947356D01*
X116777500Y-105951752D01*
X116798001Y-105978469D01*
X116799500Y-105989857D01*
X116799500Y-109506000D01*
X116786613Y-109537113D01*
X116755500Y-109550000D01*
X115900656Y-109550000D01*
X115869543Y-109537113D01*
X115858156Y-109517389D01*
X115849000Y-109483219D01*
X115807463Y-109411276D01*
X115748722Y-109352535D01*
X115748721Y-109352534D01*
X115676783Y-109311000D01*
X115676779Y-109310998D01*
X115596537Y-109289497D01*
X115513465Y-109289497D01*
X115459970Y-109303831D01*
X115433222Y-109310998D01*
X115433218Y-109311000D01*
X115361281Y-109352534D01*
X115361275Y-109352538D01*
X115316032Y-109397781D01*
X115284920Y-109410668D01*
X115253807Y-109397781D01*
X115208720Y-109352694D01*
X115136782Y-109311160D01*
X115136778Y-109311158D01*
X115136181Y-109310998D01*
X115056536Y-109289657D01*
X114973464Y-109289657D01*
X114919969Y-109303991D01*
X114893221Y-109311158D01*
X114893217Y-109311160D01*
X114851500Y-109335246D01*
X114818112Y-109339642D01*
X114791395Y-109319141D01*
X114785500Y-109297141D01*
X114785500Y-108865234D01*
X114798386Y-108834122D01*
X115320566Y-108311941D01*
X115320569Y-108311940D01*
X115326754Y-108305755D01*
X115326755Y-108305755D01*
X115364872Y-108267638D01*
X115370913Y-108253050D01*
X115385501Y-108217836D01*
X115385501Y-108163930D01*
X115385501Y-108160390D01*
X115385500Y-108160376D01*
X115385500Y-107272963D01*
X115385501Y-107272954D01*
X115385501Y-107213932D01*
X115385501Y-107213930D01*
X115368845Y-107173721D01*
X115364872Y-107164128D01*
X115364871Y-107164127D01*
X115324258Y-107123513D01*
X115324243Y-107123500D01*
X113233929Y-105033186D01*
X113221042Y-105002073D01*
X113221042Y-104916963D01*
X113217360Y-104903221D01*
X113199541Y-104836720D01*
X113158004Y-104764777D01*
X113099263Y-104706036D01*
X113060726Y-104683786D01*
X113040226Y-104657068D01*
X113044622Y-104623680D01*
X113051615Y-104614568D01*
X113072459Y-104593724D01*
X113072462Y-104593721D01*
X113113999Y-104521778D01*
X113135500Y-104441536D01*
X113135500Y-104358464D01*
X113113999Y-104278222D01*
X113072462Y-104206279D01*
X113013721Y-104147538D01*
X113013720Y-104147537D01*
X112941782Y-104106003D01*
X112941778Y-104106001D01*
X112861536Y-104084500D01*
X112778464Y-104084500D01*
X112724969Y-104098834D01*
X112698221Y-104106001D01*
X112698217Y-104106003D01*
X112626280Y-104147537D01*
X112626279Y-104147537D01*
X112567537Y-104206279D01*
X112565784Y-104208565D01*
X112565129Y-104208063D01*
X112540884Y-104226664D01*
X112507496Y-104222265D01*
X112486998Y-104195546D01*
X112485500Y-104184162D01*
X112485500Y-104074350D01*
X112498386Y-104043238D01*
X113570121Y-102971502D01*
X113570125Y-102971500D01*
X113574349Y-102967275D01*
X113574352Y-102967275D01*
X113612469Y-102929158D01*
X113615526Y-102921778D01*
X113626893Y-102894335D01*
X113626893Y-102894333D01*
X113633098Y-102879356D01*
X113633098Y-102825450D01*
X113633098Y-102821910D01*
X113633097Y-102821896D01*
X113633097Y-102576249D01*
X113633098Y-102576240D01*
X113633098Y-102517218D01*
X113633098Y-102517216D01*
X113615669Y-102475141D01*
X113612469Y-102467413D01*
X113571855Y-102426799D01*
X113571840Y-102426786D01*
X113368300Y-102223246D01*
X113368300Y-102223245D01*
X113330183Y-102185128D01*
X113330181Y-102185127D01*
X113313509Y-102178221D01*
X113313508Y-102178221D01*
X113280384Y-102164500D01*
X113280382Y-102164499D01*
X113280381Y-102164499D01*
X113226475Y-102164499D01*
X113221356Y-102164499D01*
X113221348Y-102164500D01*
X112611479Y-102164500D01*
X112580366Y-102151613D01*
X112573374Y-102142500D01*
X112552464Y-102106282D01*
X112552463Y-102106280D01*
X112552462Y-102106279D01*
X112525268Y-102079085D01*
X112493725Y-102047541D01*
X112493719Y-102047537D01*
X112421782Y-102006003D01*
X112421778Y-102006001D01*
X112419908Y-102005500D01*
X112341536Y-101984500D01*
X112258464Y-101984500D01*
X112204969Y-101998834D01*
X112178221Y-102006001D01*
X112178217Y-102006003D01*
X112106280Y-102047537D01*
X112106279Y-102047537D01*
X112047537Y-102106279D01*
X112047537Y-102106280D01*
X112006003Y-102178217D01*
X112006001Y-102178221D01*
X111995250Y-102218343D01*
X111984500Y-102258464D01*
X111984500Y-102341536D01*
X111986336Y-102348387D01*
X112006001Y-102421778D01*
X112006003Y-102421782D01*
X112014789Y-102436999D01*
X112047538Y-102493721D01*
X112106279Y-102552462D01*
X112178222Y-102593999D01*
X112258464Y-102615500D01*
X112258466Y-102615500D01*
X112341534Y-102615500D01*
X112341536Y-102615500D01*
X112421778Y-102593999D01*
X112493721Y-102552462D01*
X112552462Y-102493721D01*
X112573374Y-102457499D01*
X112600091Y-102436999D01*
X112611479Y-102435500D01*
X113179076Y-102435500D01*
X113210189Y-102448387D01*
X113349210Y-102587408D01*
X113362097Y-102618521D01*
X113362097Y-102778050D01*
X113349210Y-102809163D01*
X112273245Y-103885128D01*
X112273244Y-103885127D01*
X112235130Y-103923242D01*
X112235125Y-103923249D01*
X112230052Y-103935499D01*
X112230052Y-103935500D01*
X112214499Y-103973045D01*
X112214499Y-104032071D01*
X112214500Y-104032080D01*
X112214500Y-105924051D01*
X112214499Y-105924065D01*
X112214499Y-105981512D01*
X112220139Y-105995127D01*
X112229086Y-106016725D01*
X112235128Y-106031313D01*
X112273245Y-106069430D01*
X112273246Y-106069430D01*
X113701613Y-107497797D01*
X113714500Y-107528910D01*
X113714500Y-107988519D01*
X113701613Y-108019632D01*
X113692501Y-108026623D01*
X113656282Y-108047535D01*
X113656279Y-108047537D01*
X113597537Y-108106279D01*
X113597537Y-108106280D01*
X113556003Y-108178217D01*
X113556001Y-108178221D01*
X113548557Y-108206003D01*
X113534500Y-108258464D01*
X113534500Y-108341536D01*
X113548557Y-108393996D01*
X113556001Y-108421778D01*
X113556003Y-108421782D01*
X113597537Y-108493719D01*
X113597537Y-108493720D01*
X113623204Y-108519387D01*
X113636091Y-108550500D01*
X113623204Y-108581613D01*
X113592091Y-108594500D01*
X113185235Y-108594500D01*
X113154122Y-108581613D01*
X110098387Y-105525878D01*
X110085500Y-105494765D01*
X110085500Y-104983463D01*
X110659500Y-104983463D01*
X110659500Y-105066535D01*
X110681001Y-105146777D01*
X110722538Y-105218720D01*
X110781279Y-105277461D01*
X110853222Y-105318998D01*
X110933464Y-105340499D01*
X110933466Y-105340499D01*
X111016534Y-105340499D01*
X111016536Y-105340499D01*
X111096778Y-105318998D01*
X111168721Y-105277461D01*
X111227462Y-105218720D01*
X111268999Y-105146777D01*
X111290500Y-105066535D01*
X111290500Y-104983463D01*
X111268999Y-104903221D01*
X111227462Y-104831278D01*
X111168721Y-104772537D01*
X111168720Y-104772536D01*
X111096782Y-104731002D01*
X111096778Y-104731000D01*
X111016536Y-104709499D01*
X110933464Y-104709499D01*
X110879969Y-104723833D01*
X110853221Y-104731000D01*
X110853217Y-104731002D01*
X110781280Y-104772536D01*
X110781279Y-104772536D01*
X110722537Y-104831278D01*
X110722537Y-104831279D01*
X110681003Y-104903216D01*
X110681001Y-104903220D01*
X110681001Y-104903221D01*
X110659500Y-104983463D01*
X110085500Y-104983463D01*
X110085500Y-104141197D01*
X110085501Y-104141188D01*
X110085501Y-104082164D01*
X110085500Y-104082162D01*
X110081806Y-104073246D01*
X110076955Y-104061535D01*
X110076954Y-104061532D01*
X110064874Y-104032366D01*
X110064873Y-104032364D01*
X110064872Y-104032362D01*
X110045511Y-104013001D01*
X110024261Y-103991750D01*
X110024239Y-103991731D01*
X109681467Y-103648959D01*
X109653238Y-103620730D01*
X110085064Y-103620730D01*
X110085064Y-103703802D01*
X110102191Y-103767721D01*
X110106565Y-103784044D01*
X110106567Y-103784048D01*
X110119824Y-103807009D01*
X110148102Y-103855987D01*
X110206843Y-103914728D01*
X110278786Y-103956265D01*
X110359028Y-103977766D01*
X110359030Y-103977766D01*
X110442098Y-103977766D01*
X110442100Y-103977766D01*
X110522342Y-103956265D01*
X110594285Y-103914728D01*
X110653026Y-103855987D01*
X110694563Y-103784044D01*
X110716064Y-103703802D01*
X110716064Y-103620730D01*
X110694563Y-103540488D01*
X110653026Y-103468545D01*
X110594285Y-103409804D01*
X110594284Y-103409803D01*
X110522346Y-103368269D01*
X110522342Y-103368267D01*
X110519618Y-103367537D01*
X110442100Y-103346766D01*
X110359028Y-103346766D01*
X110305533Y-103361100D01*
X110278785Y-103368267D01*
X110278781Y-103368269D01*
X110206844Y-103409803D01*
X110206843Y-103409803D01*
X110148101Y-103468545D01*
X110148101Y-103468546D01*
X110106567Y-103540483D01*
X110106565Y-103540487D01*
X110106565Y-103540488D01*
X110085064Y-103620730D01*
X109653238Y-103620730D01*
X109492320Y-103459812D01*
X108965755Y-102933246D01*
X108965755Y-102933245D01*
X108927638Y-102895128D01*
X108925723Y-102894335D01*
X108924330Y-102893758D01*
X108913050Y-102889086D01*
X108913048Y-102889085D01*
X108877839Y-102874500D01*
X108877837Y-102874499D01*
X108877836Y-102874499D01*
X108823930Y-102874499D01*
X108818811Y-102874499D01*
X108818803Y-102874500D01*
X105984352Y-102874500D01*
X105953239Y-102861613D01*
X105850090Y-102758464D01*
X109584500Y-102758464D01*
X109584500Y-102841536D01*
X109598648Y-102894335D01*
X109606001Y-102921778D01*
X109606003Y-102921782D01*
X109612622Y-102933246D01*
X109647538Y-102993721D01*
X109706279Y-103052462D01*
X109778222Y-103093999D01*
X109858464Y-103115500D01*
X109858466Y-103115500D01*
X109941534Y-103115500D01*
X109941536Y-103115500D01*
X110021778Y-103093999D01*
X110093721Y-103052462D01*
X110152462Y-102993721D01*
X110193999Y-102921778D01*
X110215500Y-102841536D01*
X110215500Y-102758464D01*
X110193999Y-102678222D01*
X110152462Y-102606279D01*
X110093721Y-102547538D01*
X110093720Y-102547537D01*
X110021782Y-102506003D01*
X110021778Y-102506001D01*
X109941536Y-102484500D01*
X109858464Y-102484500D01*
X109804969Y-102498834D01*
X109778221Y-102506001D01*
X109778217Y-102506003D01*
X109706280Y-102547537D01*
X109706279Y-102547537D01*
X109647537Y-102606279D01*
X109647537Y-102606280D01*
X109606003Y-102678217D01*
X109606001Y-102678221D01*
X109603916Y-102686003D01*
X109584500Y-102758464D01*
X105850090Y-102758464D01*
X105214872Y-102123246D01*
X105214872Y-102123245D01*
X105176755Y-102085128D01*
X105162167Y-102079086D01*
X105162165Y-102079085D01*
X105126956Y-102064500D01*
X105126954Y-102064499D01*
X105126953Y-102064499D01*
X105073047Y-102064499D01*
X105067928Y-102064499D01*
X105067920Y-102064500D01*
X103706557Y-102064500D01*
X103675444Y-102051613D01*
X103662557Y-102020500D01*
X103675444Y-101989387D01*
X103684557Y-101982395D01*
X103704955Y-101970617D01*
X103753721Y-101942462D01*
X103812462Y-101883721D01*
X103853999Y-101811778D01*
X103875500Y-101731536D01*
X103875500Y-101648464D01*
X103853999Y-101568222D01*
X103824137Y-101516500D01*
X103819741Y-101483112D01*
X103840242Y-101456395D01*
X103862242Y-101450500D01*
X116460118Y-101450500D01*
X116496538Y-101450500D01*
X116503420Y-101451041D01*
G37*
%TD.AperFunction*%
%TA.AperFunction,Conductor*%
G36*
X113873078Y-106055587D02*
G01*
X115101613Y-107284122D01*
X115114500Y-107315235D01*
X115114500Y-108116530D01*
X115101613Y-108147643D01*
X114610613Y-108638643D01*
X114579500Y-108651530D01*
X114548387Y-108638643D01*
X114535500Y-108607530D01*
X114535500Y-108441197D01*
X114535501Y-108441188D01*
X114535501Y-108382166D01*
X114535501Y-108382164D01*
X114514872Y-108332363D01*
X114514872Y-108332362D01*
X114495550Y-108313040D01*
X114474258Y-108291747D01*
X114474243Y-108291734D01*
X114398387Y-108215878D01*
X114385500Y-108184765D01*
X114385500Y-107632080D01*
X114385501Y-107632071D01*
X114385501Y-107573049D01*
X114385501Y-107573047D01*
X114375642Y-107549247D01*
X114366644Y-107527523D01*
X114366643Y-107527522D01*
X114366479Y-107527126D01*
X114364872Y-107523246D01*
X114364872Y-107523245D01*
X114352311Y-107510684D01*
X114324258Y-107482630D01*
X114324243Y-107482617D01*
X113532239Y-106690613D01*
X113519352Y-106659500D01*
X113532239Y-106628387D01*
X113563352Y-106615500D01*
X113591534Y-106615500D01*
X113591536Y-106615500D01*
X113671778Y-106593999D01*
X113743721Y-106552462D01*
X113802462Y-106493721D01*
X113843999Y-106421778D01*
X113865500Y-106341536D01*
X113865500Y-106258464D01*
X113843999Y-106178222D01*
X113803860Y-106108700D01*
X113799464Y-106075312D01*
X113819965Y-106048595D01*
X113853353Y-106044199D01*
X113873078Y-106055587D01*
G37*
%TD.AperFunction*%
%TA.AperFunction,Conductor*%
G36*
X104806761Y-103548387D02*
G01*
X104978560Y-103720186D01*
X104978573Y-103720201D01*
X105000151Y-103741778D01*
X105019188Y-103760815D01*
X105019193Y-103760817D01*
X105031679Y-103765989D01*
X105031684Y-103765990D01*
X105068990Y-103781444D01*
X105068992Y-103781444D01*
X105128015Y-103781444D01*
X105128023Y-103781443D01*
X105393150Y-103781443D01*
X105424263Y-103794330D01*
X105437150Y-103825443D01*
X105424263Y-103856556D01*
X105415150Y-103863548D01*
X105356280Y-103897537D01*
X105356274Y-103897541D01*
X105297539Y-103956277D01*
X105297535Y-103956282D01*
X105276626Y-103992500D01*
X105249909Y-104013001D01*
X105238521Y-104014500D01*
X104121932Y-104014500D01*
X104121924Y-104014499D01*
X104116805Y-104014499D01*
X104062899Y-104014499D01*
X104062897Y-104014499D01*
X104029770Y-104028222D01*
X104029769Y-104028221D01*
X104013097Y-104035127D01*
X103974979Y-104073244D01*
X103974980Y-104073245D01*
X101210613Y-106837612D01*
X101179500Y-106850499D01*
X101148387Y-106837612D01*
X101135500Y-106806499D01*
X101135500Y-106274352D01*
X101148387Y-106243239D01*
X103843239Y-103548387D01*
X103874352Y-103535500D01*
X104775648Y-103535500D01*
X104806761Y-103548387D01*
G37*
%TD.AperFunction*%
%TA.AperFunction,Conductor*%
G36*
X105056761Y-102348387D02*
G01*
X105476582Y-102768208D01*
X105489469Y-102799321D01*
X105476582Y-102830434D01*
X105456858Y-102841821D01*
X105415906Y-102852795D01*
X105415896Y-102852799D01*
X105343959Y-102894333D01*
X105343958Y-102894333D01*
X105285216Y-102953075D01*
X105285216Y-102953076D01*
X105243682Y-103025013D01*
X105243680Y-103025017D01*
X105243680Y-103025018D01*
X105222179Y-103105260D01*
X105222179Y-103188332D01*
X105234004Y-103232462D01*
X105243680Y-103268574D01*
X105243682Y-103268578D01*
X105255249Y-103288612D01*
X105283824Y-103338105D01*
X105285216Y-103340515D01*
X105285216Y-103340516D01*
X105343958Y-103399258D01*
X105394325Y-103428338D01*
X105414826Y-103455055D01*
X105410430Y-103488443D01*
X105383713Y-103508944D01*
X105372325Y-103510443D01*
X105170295Y-103510443D01*
X105139182Y-103497556D01*
X104964872Y-103323246D01*
X104964872Y-103323245D01*
X104926755Y-103285128D01*
X104912167Y-103279086D01*
X104899887Y-103273999D01*
X104876956Y-103264500D01*
X104876954Y-103264499D01*
X104876953Y-103264499D01*
X104823047Y-103264499D01*
X104817928Y-103264499D01*
X104817920Y-103264500D01*
X103832080Y-103264500D01*
X103832072Y-103264499D01*
X103826953Y-103264499D01*
X103773047Y-103264499D01*
X103773045Y-103264499D01*
X103737831Y-103279086D01*
X103723244Y-103285128D01*
X103685127Y-103323244D01*
X103685128Y-103323245D01*
X101009730Y-105998643D01*
X100978617Y-106011530D01*
X100947504Y-105998643D01*
X100934617Y-105967530D01*
X100934617Y-103825235D01*
X100947504Y-103794122D01*
X101133162Y-103608464D01*
X102284500Y-103608464D01*
X102284500Y-103691536D01*
X102303064Y-103760817D01*
X102306001Y-103771778D01*
X102306003Y-103771782D01*
X102326342Y-103807009D01*
X102347538Y-103843721D01*
X102406279Y-103902462D01*
X102478222Y-103943999D01*
X102558464Y-103965500D01*
X102558466Y-103965500D01*
X102641534Y-103965500D01*
X102641536Y-103965500D01*
X102721778Y-103943999D01*
X102793721Y-103902462D01*
X102852462Y-103843721D01*
X102893999Y-103771778D01*
X102915500Y-103691536D01*
X102915500Y-103608464D01*
X102893999Y-103528222D01*
X102852462Y-103456279D01*
X102793721Y-103397538D01*
X102793720Y-103397537D01*
X102721782Y-103356003D01*
X102721778Y-103356001D01*
X102641536Y-103334500D01*
X102558464Y-103334500D01*
X102512687Y-103346766D01*
X102478221Y-103356001D01*
X102478217Y-103356003D01*
X102406280Y-103397537D01*
X102406279Y-103397537D01*
X102347537Y-103456279D01*
X102347537Y-103456280D01*
X102306003Y-103528217D01*
X102306001Y-103528221D01*
X102302714Y-103540488D01*
X102284500Y-103608464D01*
X101133162Y-103608464D01*
X102393239Y-102348387D01*
X102424352Y-102335500D01*
X105025648Y-102335500D01*
X105056761Y-102348387D01*
G37*
%TD.AperFunction*%
%TD*%
M02*
