%TF.GenerationSoftware,KiCad,Pcbnew,10.0.5*%
%TF.CreationDate,2026-08-11T12:07:31+02:00*%
%TF.ProjectId,OpenRX-Gemini,4f70656e-5258-42d4-9765-6d696e692e6b,rev?*%
%TF.SameCoordinates,Original*%
%TF.FileFunction,Paste,Bot*%
%TF.FilePolarity,Positive*%
%FSLAX46Y46*%
G04 Gerber Fmt 4.6, Leading zero omitted, Abs format (unit mm)*
G04 Created by KiCad (PCBNEW 10.0.5) date 2026-08-11 12:07:31*
%MOMM*%
%LPD*%
G01*
G04 APERTURE LIST*
G04 Aperture macros list*
%AMRoundRect*
0 Rectangle with rounded corners*
0 $1 Rounding radius*
0 $2 $3 $4 $5 $6 $7 $8 $9 X,Y pos of 4 corners*
0 Add a 4 corners polygon primitive as box body*
4,1,4,$2,$3,$4,$5,$6,$7,$8,$9,$2,$3,0*
0 Add four circle primitives for the rounded corners*
1,1,$1+$1,$2,$3*
1,1,$1+$1,$4,$5*
1,1,$1+$1,$6,$7*
1,1,$1+$1,$8,$9*
0 Add four rect primitives between the rounded corners*
20,1,$1+$1,$2,$3,$4,$5,0*
20,1,$1+$1,$4,$5,$6,$7,0*
20,1,$1+$1,$6,$7,$8,$9,0*
20,1,$1+$1,$8,$9,$2,$3,0*%
%AMRotRect*
0 Rectangle, with rotation*
0 The origin of the aperture is its center*
0 $1 length*
0 $2 width*
0 $3 Rotation angle, in degrees counterclockwise*
0 Add horizontal line*
21,1,$1,$2,0,0,$3*%
%AMFreePoly0*
4,1,15,0.020663,0.130920,0.194661,-0.004411,0.209153,-0.029894,0.209200,-0.030649,0.209200,-0.105861,0.199435,-0.129435,0.175862,-0.139200,-0.175862,-0.139200,-0.199435,-0.129435,-0.209200,-0.105861,-0.209200,0.105861,-0.199435,0.129435,-0.175862,0.139200,-0.003468,0.139200,0.020663,0.130920,0.020663,0.130920,$1*%
%AMFreePoly1*
4,1,15,0.199435,0.139435,0.209200,0.115861,0.209200,0.044138,0.197979,0.017050,0.197419,0.016556,0.020663,-0.120920,-0.003468,-0.129200,-0.175862,-0.129200,-0.199435,-0.119435,-0.209200,-0.095861,-0.209200,0.115861,-0.199435,0.139435,-0.175862,0.149200,0.175862,0.149200,0.199435,0.139435,0.199435,0.139435,$1*%
%AMFreePoly2*
4,1,15,0.199435,0.139435,0.209200,0.115861,0.209200,-0.095861,0.199435,-0.119435,0.175862,-0.129200,0.003468,-0.129200,-0.020663,-0.120920,-0.194661,0.014411,-0.209153,0.039894,-0.209200,0.040649,-0.209200,0.115861,-0.199435,0.139435,-0.175862,0.149200,0.175862,0.149200,0.199435,0.139435,0.199435,0.139435,$1*%
%AMFreePoly3*
4,1,15,0.199435,0.129435,0.209200,0.105861,0.209200,-0.105861,0.199435,-0.129435,0.175862,-0.139200,-0.175862,-0.139200,-0.199435,-0.129435,-0.209200,-0.105861,-0.209200,-0.034138,-0.197979,-0.007050,-0.197419,-0.006556,-0.020663,0.130920,0.003468,0.139200,0.175862,0.139200,0.199435,0.129435,0.199435,0.129435,$1*%
G04 Aperture macros list end*
%ADD10RoundRect,0.079500X-0.100500X0.079500X-0.100500X-0.079500X0.100500X-0.079500X0.100500X0.079500X0*%
%ADD11RoundRect,0.079500X-0.079500X-0.100500X0.079500X-0.100500X0.079500X0.100500X-0.079500X0.100500X0*%
%ADD12RoundRect,0.079500X0.100500X-0.079500X0.100500X0.079500X-0.100500X0.079500X-0.100500X-0.079500X0*%
%ADD13RoundRect,0.167785X0.332215X-0.332215X0.332215X0.332215X-0.332215X0.332215X-0.332215X-0.332215X0*%
%ADD14RoundRect,0.042500X0.042500X-0.273500X0.042500X0.273500X-0.042500X0.273500X-0.042500X-0.273500X0*%
%ADD15RoundRect,0.042500X0.273500X-0.042500X0.273500X0.042500X-0.273500X0.042500X-0.273500X-0.042500X0*%
%ADD16RoundRect,0.173750X0.173750X0.205250X-0.173750X0.205250X-0.173750X-0.205250X0.173750X-0.205250X0*%
%ADD17RoundRect,0.079500X0.079500X0.100500X-0.079500X0.100500X-0.079500X-0.100500X0.079500X-0.100500X0*%
%ADD18R,0.422000X0.531200*%
%ADD19FreePoly0,270.000000*%
%ADD20FreePoly1,270.000000*%
%ADD21FreePoly2,270.000000*%
%ADD22FreePoly3,270.000000*%
%ADD23RotRect,0.363200X0.363200X225.000000*%
%ADD24RoundRect,0.107600X-0.107600X-0.132800X0.107600X-0.132800X0.107600X0.132800X-0.107600X0.132800X0*%
%ADD25R,0.312800X0.464000*%
%ADD26RoundRect,0.200000X0.221000X0.200000X-0.221000X0.200000X-0.221000X-0.200000X0.221000X-0.200000X0*%
%ADD27RoundRect,0.200476X0.703524X0.220524X-0.703524X0.220524X-0.703524X-0.220524X0.703524X-0.220524X0*%
%ADD28R,0.338000X0.338000*%
%ADD29R,1.430000X0.800000*%
%ADD30RoundRect,0.179000X0.179000X0.221000X-0.179000X0.221000X-0.179000X-0.221000X0.179000X-0.221000X0*%
G04 APERTURE END LIST*
D10*
%TO.C,C5*%
X105500000Y-111855000D03*
X105500000Y-112545000D03*
%TD*%
D11*
%TO.C,C21*%
X105625000Y-106000000D03*
X106315000Y-106000000D03*
%TD*%
D12*
%TO.C,C30*%
X111350000Y-116295000D03*
X111350000Y-115605000D03*
%TD*%
D11*
%TO.C,C40*%
X113705000Y-106300000D03*
X114395000Y-106300000D03*
%TD*%
%TO.C,C35*%
X112405000Y-110900000D03*
X113095000Y-110900000D03*
%TD*%
D13*
%TO.C,U1*%
X108200000Y-111850000D03*
X109700000Y-111850000D03*
X108200000Y-110350000D03*
X109700000Y-110350000D03*
D14*
X110700000Y-113550000D03*
X110200000Y-113550000D03*
X109700000Y-113550000D03*
X109200000Y-113550000D03*
X108700000Y-113550000D03*
X108200000Y-113550000D03*
X107700000Y-113550000D03*
X107200000Y-113550000D03*
D15*
X106500000Y-112850000D03*
X106500000Y-112350000D03*
X106500000Y-111850000D03*
X106500000Y-111350000D03*
X106500000Y-110850000D03*
X106500000Y-110350000D03*
X106500000Y-109850000D03*
X106500000Y-109350000D03*
D14*
X107200000Y-108650000D03*
X107700000Y-108650000D03*
X108200000Y-108650000D03*
X108700000Y-108650000D03*
X109200000Y-108650000D03*
X109700000Y-108650000D03*
X110200000Y-108650000D03*
X110700000Y-108650000D03*
D15*
X111400000Y-109350000D03*
X111400000Y-109850000D03*
X111400000Y-110350000D03*
X111400000Y-110850000D03*
X111400000Y-111350000D03*
X111400000Y-111850000D03*
X111400000Y-112350000D03*
X111400000Y-112850000D03*
%TD*%
D11*
%TO.C,C25*%
X109255000Y-114550000D03*
X109945000Y-114550000D03*
%TD*%
%TO.C,C31*%
X105625000Y-105300000D03*
X106315000Y-105300000D03*
%TD*%
D16*
%TO.C,L6*%
X114237500Y-115150000D03*
X112662500Y-115150000D03*
%TD*%
D17*
%TO.C,C44*%
X111095000Y-105000000D03*
X110405000Y-105000000D03*
%TD*%
D12*
%TO.C,C12*%
X102600000Y-107145000D03*
X102600000Y-106455000D03*
%TD*%
D18*
%TO.C,X1*%
X113775000Y-111500000D03*
X113775000Y-110425000D03*
X114525000Y-110425000D03*
X114525000Y-111475000D03*
%TD*%
D17*
%TO.C,C3*%
X114495000Y-109650000D03*
X113805000Y-109650000D03*
%TD*%
D19*
%TO.C,U2*%
X101330000Y-110870000D03*
D20*
X101970000Y-110870000D03*
D21*
X101970000Y-111730000D03*
D22*
X101330000Y-111730000D03*
D23*
X101650000Y-111300000D03*
%TD*%
D12*
%TO.C,L4*%
X110650000Y-115945000D03*
X110650000Y-115255000D03*
%TD*%
D11*
%TO.C,R4*%
X115805000Y-106500000D03*
X116495000Y-106500000D03*
%TD*%
D16*
%TO.C,L1*%
X105487500Y-114000000D03*
X103912500Y-114000000D03*
%TD*%
D24*
%TO.C,C18*%
X101270000Y-109300000D03*
X102230000Y-109300000D03*
%TD*%
D17*
%TO.C,C43*%
X112845000Y-104400000D03*
X112155000Y-104400000D03*
%TD*%
D24*
%TO.C,C8*%
X100770000Y-112600000D03*
X101730000Y-112600000D03*
%TD*%
D10*
%TO.C,R5*%
X102150000Y-113655000D03*
X102150000Y-114345000D03*
%TD*%
D11*
%TO.C,C26*%
X112405000Y-113000000D03*
X113095000Y-113000000D03*
%TD*%
%TO.C,C4*%
X112405000Y-112300000D03*
X113095000Y-112300000D03*
%TD*%
D25*
%TO.C,U9*%
X116540000Y-108370000D03*
X116540000Y-107530000D03*
X113260000Y-108370000D03*
X113260000Y-107530000D03*
%TD*%
D12*
%TO.C,C10*%
X100700000Y-111745000D03*
X100700000Y-111055000D03*
%TD*%
D11*
%TO.C,C17*%
X101355000Y-110150000D03*
X102045000Y-110150000D03*
%TD*%
D26*
%TO.C,J1*%
X102825000Y-103650000D03*
D27*
X101300000Y-105125000D03*
X101300000Y-102175000D03*
%TD*%
D11*
%TO.C,C27*%
X107755000Y-107650000D03*
X108445000Y-107650000D03*
%TD*%
D10*
%TO.C,C28*%
X102850000Y-113655000D03*
X102850000Y-114345000D03*
%TD*%
D17*
%TO.C,C6*%
X107045000Y-107650000D03*
X106355000Y-107650000D03*
%TD*%
D11*
%TO.C,C41*%
X113705000Y-105600000D03*
X114395000Y-105600000D03*
%TD*%
D17*
%TO.C,C9*%
X107195000Y-114650000D03*
X106505000Y-114650000D03*
%TD*%
D28*
%TO.C,D1*%
X101030000Y-107170000D03*
X101870000Y-107170000D03*
X101030000Y-106330000D03*
X101870000Y-106330000D03*
%TD*%
D11*
%TO.C,C29*%
X110655000Y-114550000D03*
X111345000Y-114550000D03*
%TD*%
%TO.C,R3*%
X104805000Y-111150000D03*
X105495000Y-111150000D03*
%TD*%
D29*
%TO.C,AE1*%
X115900000Y-113580000D03*
X115900000Y-110420000D03*
%TD*%
D11*
%TO.C,C36*%
X112405000Y-111600000D03*
X113095000Y-111600000D03*
%TD*%
D12*
%TO.C,C16*%
X104800000Y-112545000D03*
X104800000Y-111855000D03*
%TD*%
D10*
%TO.C,R2*%
X101000000Y-113805000D03*
X101000000Y-114495000D03*
%TD*%
D17*
%TO.C,C22*%
X105345000Y-103250000D03*
X104655000Y-103250000D03*
%TD*%
%TO.C,L2*%
X114495000Y-112950000D03*
X113805000Y-112950000D03*
%TD*%
D30*
%TO.C,J2*%
X109587500Y-105000000D03*
D27*
X108137500Y-106475000D03*
X108137500Y-103525000D03*
%TD*%
D17*
%TO.C,L3*%
X108545000Y-114550000D03*
X107855000Y-114550000D03*
%TD*%
D11*
%TO.C,C1*%
X113805000Y-112250000D03*
X114495000Y-112250000D03*
%TD*%
M02*
