%TF.GenerationSoftware,KiCad,Pcbnew,10.0.5*%
%TF.CreationDate,2026-08-11T12:07:31+02:00*%
%TF.ProjectId,OpenRX-Gemini,4f70656e-5258-42d4-9765-6d696e692e6b,rev?*%
%TF.SameCoordinates,Original*%
%TF.FileFunction,Soldermask,Bot*%
%TF.FilePolarity,Negative*%
%FSLAX46Y46*%
G04 Gerber Fmt 4.6, Leading zero omitted, Abs format (unit mm)*
G04 Created by KiCad (PCBNEW 10.0.5) date 2026-08-11 12:07:31*
%MOMM*%
%LPD*%
G01*
G04 APERTURE LIST*
G04 Aperture macros list*
%AMRoundRect*
0 Rectangle with rounded corners*
0 $1 Rounding radius*
0 $2 $3 $4 $5 $6 $7 $8 $9 X,Y pos of 4 corners*
0 Add a 4 corners polygon primitive as box body*
4,1,4,$2,$3,$4,$5,$6,$7,$8,$9,$2,$3,0*
0 Add four circle primitives for the rounded corners*
1,1,$1+$1,$2,$3*
1,1,$1+$1,$4,$5*
1,1,$1+$1,$6,$7*
1,1,$1+$1,$8,$9*
0 Add four rect primitives between the rounded corners*
20,1,$1+$1,$2,$3,$4,$5,0*
20,1,$1+$1,$4,$5,$6,$7,0*
20,1,$1+$1,$6,$7,$8,$9,0*
20,1,$1+$1,$8,$9,$2,$3,0*%
%AMRotRect*
0 Rectangle, with rotation*
0 The origin of the aperture is its center*
0 $1 length*
0 $2 width*
0 $3 Rotation angle, in degrees counterclockwise*
0 Add horizontal line*
21,1,$1,$2,0,0,$3*%
%AMFreePoly0*
4,1,15,0.030697,0.149468,0.210697,0.009468,0.229614,-0.023798,0.230000,-0.030000,0.230000,-0.110000,0.215355,-0.145355,0.180000,-0.160000,-0.180000,-0.160000,-0.215355,-0.145355,-0.230000,-0.110000,-0.230000,0.110000,-0.215355,0.145355,-0.180000,0.160000,0.000000,0.160000,0.030697,0.149468,0.030697,0.149468,$1*%
%AMFreePoly1*
4,1,15,0.215355,0.155355,0.230000,0.120000,0.230000,0.040000,0.215355,0.004645,0.210697,0.000532,0.030697,-0.139468,0.000000,-0.150000,-0.180000,-0.150000,-0.215355,-0.135355,-0.230000,-0.100000,-0.230000,0.120000,-0.215355,0.155355,-0.180000,0.170000,0.180000,0.170000,0.215355,0.155355,0.215355,0.155355,$1*%
%AMFreePoly2*
4,1,15,0.215355,0.155355,0.230000,0.120000,0.230000,-0.100000,0.215355,-0.135355,0.180000,-0.150000,0.000000,-0.150000,-0.030697,-0.139468,-0.210697,0.000532,-0.229614,0.033798,-0.230000,0.040000,-0.230000,0.120000,-0.215355,0.155355,-0.180000,0.170000,0.180000,0.170000,0.215355,0.155355,0.215355,0.155355,$1*%
%AMFreePoly3*
4,1,15,0.215355,0.145355,0.230000,0.110000,0.230000,-0.110000,0.215355,-0.145355,0.180000,-0.160000,-0.180000,-0.160000,-0.215355,-0.145355,-0.230000,-0.110000,-0.230000,-0.030000,-0.215355,0.005355,-0.210697,0.009468,-0.030697,0.149468,0.000000,0.160000,0.180000,0.160000,0.215355,0.145355,0.215355,0.145355,$1*%
G04 Aperture macros list end*
%ADD10C,0.400000*%
%ADD11C,0.600000*%
%ADD12RoundRect,0.475000X-0.475000X-1.275000X0.475000X-1.275000X0.475000X1.275000X-0.475000X1.275000X0*%
%ADD13RoundRect,0.100000X-0.100000X0.130000X-0.100000X-0.130000X0.100000X-0.130000X0.100000X0.130000X0*%
%ADD14RoundRect,0.100000X-0.130000X-0.100000X0.130000X-0.100000X0.130000X0.100000X-0.130000X0.100000X0*%
%ADD15RoundRect,0.100000X0.100000X-0.130000X0.100000X0.130000X-0.100000X0.130000X-0.100000X-0.130000X0*%
%ADD16RoundRect,0.062500X0.062500X-0.337500X0.062500X0.337500X-0.062500X0.337500X-0.062500X-0.337500X0*%
%ADD17RoundRect,0.062500X0.337500X-0.062500X0.337500X0.062500X-0.337500X0.062500X-0.337500X-0.062500X0*%
%ADD18R,2.700000X2.700000*%
%ADD19RoundRect,0.218750X0.218750X0.256250X-0.218750X0.256250X-0.218750X-0.256250X0.218750X-0.256250X0*%
%ADD20RoundRect,0.100000X0.130000X0.100000X-0.130000X0.100000X-0.130000X-0.100000X0.130000X-0.100000X0*%
%ADD21R,0.550000X0.680000*%
%ADD22FreePoly0,270.000000*%
%ADD23FreePoly1,270.000000*%
%ADD24FreePoly2,270.000000*%
%ADD25FreePoly3,270.000000*%
%ADD26RotRect,0.480000X0.480000X225.000000*%
%ADD27RoundRect,0.140000X-0.140000X-0.170000X0.140000X-0.170000X0.140000X0.170000X-0.140000X0.170000X0*%
%ADD28R,0.420000X0.600000*%
%ADD29RoundRect,0.250000X0.275000X0.250000X-0.275000X0.250000X-0.275000X-0.250000X0.275000X-0.250000X0*%
%ADD30RoundRect,0.250000X0.850000X0.275000X-0.850000X0.275000X-0.850000X-0.275000X0.850000X-0.275000X0*%
%ADD31R,0.450000X0.450000*%
%ADD32R,1.750000X1.000000*%
%ADD33RoundRect,0.225000X0.225000X0.275000X-0.225000X0.275000X-0.225000X-0.275000X0.225000X-0.275000X0*%
G04 APERTURE END LIST*
D10*
G36*
X114107294Y-102726721D02*
G01*
X114142355Y-102726721D01*
X114155385Y-101824000D01*
X114525608Y-101824000D01*
X114512712Y-102778439D01*
X114564565Y-102817262D01*
X114629761Y-102882906D01*
X114674633Y-102954996D01*
X114701182Y-103035017D01*
X114834844Y-103677803D01*
X114841871Y-103763297D01*
X114826667Y-103835970D01*
X114790245Y-103899722D01*
X114736827Y-103949878D01*
X114672112Y-103979977D01*
X114592506Y-103990531D01*
X114008827Y-103990531D01*
X113822856Y-103096004D01*
X114183998Y-103096004D01*
X114293346Y-103621248D01*
X114418276Y-103621248D01*
X114445680Y-103609024D01*
X114452800Y-103577724D01*
X114362796Y-103144498D01*
X114341303Y-103110243D01*
X114307182Y-103096004D01*
X114183998Y-103096004D01*
X113822856Y-103096004D01*
X113558407Y-101824000D01*
X113919630Y-101824000D01*
X114107294Y-102726721D01*
G37*
G36*
X115846376Y-103217442D02*
G01*
X115819383Y-103135505D01*
X115774259Y-103062554D01*
X115709221Y-102997000D01*
X115606456Y-102910624D01*
X115672683Y-102824247D01*
X115709690Y-102760068D01*
X115725199Y-102686920D01*
X115718222Y-102600851D01*
X115556753Y-101824000D01*
X115195396Y-101824000D01*
X115375806Y-102691794D01*
X115370163Y-102715974D01*
X115348670Y-102726721D01*
X115250741Y-102726721D01*
X115221994Y-102715303D01*
X115206948Y-102689779D01*
X115026941Y-101824000D01*
X114665718Y-101824000D01*
X114827590Y-102602731D01*
X114854512Y-102685523D01*
X114898797Y-102759011D01*
X114961924Y-102824785D01*
X115064958Y-102911967D01*
X114998597Y-102997672D01*
X114963238Y-103061206D01*
X114948578Y-103133808D01*
X114955744Y-103219322D01*
X115116139Y-103990531D01*
X115477362Y-103990531D01*
X115299235Y-103133617D01*
X115302728Y-103106482D01*
X115325699Y-103096004D01*
X115423628Y-103096004D01*
X115450898Y-103107288D01*
X115468093Y-103135498D01*
X115645816Y-103990531D01*
X116007173Y-103990531D01*
X115846376Y-103217442D01*
G37*
D11*
%TO.C,TP3*%
X105880000Y-116000000D03*
X105880000Y-118000000D03*
D12*
X106380000Y-117000000D03*
D11*
X106880000Y-116000000D03*
X106880000Y-118000000D03*
%TD*%
%TO.C,TP1*%
X100800000Y-116000000D03*
X100800000Y-118000000D03*
D12*
X101300000Y-117000000D03*
D11*
X101800000Y-116000000D03*
X101800000Y-118000000D03*
%TD*%
%TO.C,TP2*%
X103340000Y-116000000D03*
X103340000Y-118000000D03*
D12*
X103840000Y-117000000D03*
D11*
X104340000Y-116000000D03*
X104340000Y-118000000D03*
%TD*%
%TO.C,TP4*%
X108420000Y-116000000D03*
X108420000Y-118000000D03*
D12*
X108920000Y-117000000D03*
D11*
X109420000Y-116000000D03*
X109420000Y-118000000D03*
%TD*%
D13*
%TO.C,C5*%
X105500000Y-111880000D03*
X105500000Y-112520000D03*
%TD*%
D14*
%TO.C,C21*%
X105650000Y-106000000D03*
X106290000Y-106000000D03*
%TD*%
D15*
%TO.C,C30*%
X111350000Y-116270000D03*
X111350000Y-115630000D03*
%TD*%
D14*
%TO.C,C40*%
X113730000Y-106300000D03*
X114370000Y-106300000D03*
%TD*%
%TO.C,C35*%
X112430000Y-110900000D03*
X113070000Y-110900000D03*
%TD*%
D16*
%TO.C,U1*%
X110700000Y-113550000D03*
X110200000Y-113550000D03*
X109700000Y-113550000D03*
X109200000Y-113550000D03*
X108700000Y-113550000D03*
X108200000Y-113550000D03*
X107700000Y-113550000D03*
X107200000Y-113550000D03*
D17*
X106500000Y-112850000D03*
X106500000Y-112350000D03*
X106500000Y-111850000D03*
X106500000Y-111350000D03*
X106500000Y-110850000D03*
X106500000Y-110350000D03*
X106500000Y-109850000D03*
X106500000Y-109350000D03*
D16*
X107200000Y-108650000D03*
X107700000Y-108650000D03*
X108200000Y-108650000D03*
X108700000Y-108650000D03*
X109200000Y-108650000D03*
X109700000Y-108650000D03*
X110200000Y-108650000D03*
X110700000Y-108650000D03*
D17*
X111400000Y-109350000D03*
X111400000Y-109850000D03*
X111400000Y-110350000D03*
X111400000Y-110850000D03*
X111400000Y-111350000D03*
X111400000Y-111850000D03*
X111400000Y-112350000D03*
X111400000Y-112850000D03*
D18*
X108950000Y-111100000D03*
%TD*%
D14*
%TO.C,C25*%
X109280000Y-114550000D03*
X109920000Y-114550000D03*
%TD*%
%TO.C,C31*%
X105650000Y-105300000D03*
X106290000Y-105300000D03*
%TD*%
D19*
%TO.C,L6*%
X114237500Y-115150000D03*
X112662500Y-115150000D03*
%TD*%
D20*
%TO.C,C44*%
X111070000Y-105000000D03*
X110430000Y-105000000D03*
%TD*%
D15*
%TO.C,C12*%
X102600000Y-107120000D03*
X102600000Y-106480000D03*
%TD*%
D21*
%TO.C,X1*%
X113775000Y-111500000D03*
X113775000Y-110425000D03*
X114525000Y-110425000D03*
X114525000Y-111475000D03*
%TD*%
D20*
%TO.C,C3*%
X114470000Y-109650000D03*
X113830000Y-109650000D03*
%TD*%
D22*
%TO.C,U2*%
X101330000Y-110870000D03*
D23*
X101970000Y-110870000D03*
D24*
X101970000Y-111730000D03*
D25*
X101330000Y-111730000D03*
D26*
X101650000Y-111300000D03*
%TD*%
D15*
%TO.C,L4*%
X110650000Y-115920000D03*
X110650000Y-115280000D03*
%TD*%
D14*
%TO.C,R4*%
X115830000Y-106500000D03*
X116470000Y-106500000D03*
%TD*%
D19*
%TO.C,L1*%
X105487500Y-114000000D03*
X103912500Y-114000000D03*
%TD*%
D27*
%TO.C,C18*%
X101270000Y-109300000D03*
X102230000Y-109300000D03*
%TD*%
D20*
%TO.C,C43*%
X112820000Y-104400000D03*
X112180000Y-104400000D03*
%TD*%
D27*
%TO.C,C8*%
X100770000Y-112600000D03*
X101730000Y-112600000D03*
%TD*%
D13*
%TO.C,R5*%
X102150000Y-113680000D03*
X102150000Y-114320000D03*
%TD*%
D14*
%TO.C,C26*%
X112430000Y-113000000D03*
X113070000Y-113000000D03*
%TD*%
%TO.C,C4*%
X112430000Y-112300000D03*
X113070000Y-112300000D03*
%TD*%
D28*
%TO.C,U9*%
X116540000Y-108370000D03*
X116540000Y-107530000D03*
X113260000Y-108370000D03*
X113260000Y-107530000D03*
%TD*%
D15*
%TO.C,C10*%
X100700000Y-111720000D03*
X100700000Y-111080000D03*
%TD*%
D14*
%TO.C,C17*%
X101380000Y-110150000D03*
X102020000Y-110150000D03*
%TD*%
D29*
%TO.C,J1*%
X102825000Y-103650000D03*
D30*
X101300000Y-105125000D03*
X101300000Y-102175000D03*
%TD*%
D14*
%TO.C,C27*%
X107780000Y-107650000D03*
X108420000Y-107650000D03*
%TD*%
D13*
%TO.C,C28*%
X102850000Y-113680000D03*
X102850000Y-114320000D03*
%TD*%
D20*
%TO.C,C6*%
X107020000Y-107650000D03*
X106380000Y-107650000D03*
%TD*%
D14*
%TO.C,C41*%
X113730000Y-105600000D03*
X114370000Y-105600000D03*
%TD*%
D20*
%TO.C,C9*%
X107170000Y-114650000D03*
X106530000Y-114650000D03*
%TD*%
D31*
%TO.C,D1*%
X101030000Y-107170000D03*
X101870000Y-107170000D03*
X101030000Y-106330000D03*
X101870000Y-106330000D03*
%TD*%
D14*
%TO.C,C29*%
X110680000Y-114550000D03*
X111320000Y-114550000D03*
%TD*%
%TO.C,R3*%
X104830000Y-111150000D03*
X105470000Y-111150000D03*
%TD*%
D32*
%TO.C,AE1*%
X115900000Y-113580000D03*
X115900000Y-110420000D03*
%TD*%
D14*
%TO.C,C36*%
X112430000Y-111600000D03*
X113070000Y-111600000D03*
%TD*%
D15*
%TO.C,C16*%
X104800000Y-112520000D03*
X104800000Y-111880000D03*
%TD*%
D13*
%TO.C,R2*%
X101000000Y-113830000D03*
X101000000Y-114470000D03*
%TD*%
D20*
%TO.C,C22*%
X105320000Y-103250000D03*
X104680000Y-103250000D03*
%TD*%
%TO.C,L2*%
X114470000Y-112950000D03*
X113830000Y-112950000D03*
%TD*%
D33*
%TO.C,J2*%
X109587500Y-105000000D03*
D30*
X108137500Y-106475000D03*
X108137500Y-103525000D03*
%TD*%
D20*
%TO.C,L3*%
X108520000Y-114550000D03*
X107880000Y-114550000D03*
%TD*%
D14*
%TO.C,C1*%
X113830000Y-112250000D03*
X114470000Y-112250000D03*
%TD*%
M02*
