%TF.GenerationSoftware,KiCad,Pcbnew,10.0.5*%
%TF.CreationDate,2026-08-11T12:07:31+02:00*%
%TF.ProjectId,OpenRX-Gemini,4f70656e-5258-42d4-9765-6d696e692e6b,rev?*%
%TF.SameCoordinates,Original*%
%TF.FileFunction,Copper,L6,Bot*%
%TF.FilePolarity,Positive*%
%FSLAX46Y46*%
G04 Gerber Fmt 4.6, Leading zero omitted, Abs format (unit mm)*
G04 Created by KiCad (PCBNEW 10.0.5) date 2026-08-11 12:07:31*
%MOMM*%
%LPD*%
G01*
G04 APERTURE LIST*
G04 Aperture macros list*
%AMRoundRect*
0 Rectangle with rounded corners*
0 $1 Rounding radius*
0 $2 $3 $4 $5 $6 $7 $8 $9 X,Y pos of 4 corners*
0 Add a 4 corners polygon primitive as box body*
4,1,4,$2,$3,$4,$5,$6,$7,$8,$9,$2,$3,0*
0 Add four circle primitives for the rounded corners*
1,1,$1+$1,$2,$3*
1,1,$1+$1,$4,$5*
1,1,$1+$1,$6,$7*
1,1,$1+$1,$8,$9*
0 Add four rect primitives between the rounded corners*
20,1,$1+$1,$2,$3,$4,$5,0*
20,1,$1+$1,$4,$5,$6,$7,0*
20,1,$1+$1,$6,$7,$8,$9,0*
20,1,$1+$1,$8,$9,$2,$3,0*%
%AMRotRect*
0 Rectangle, with rotation*
0 The origin of the aperture is its center*
0 $1 length*
0 $2 width*
0 $3 Rotation angle, in degrees counterclockwise*
0 Add horizontal line*
21,1,$1,$2,0,0,$3*%
%AMFreePoly0*
4,1,15,0.030697,0.149468,0.210697,0.009468,0.229614,-0.023798,0.230000,-0.030000,0.230000,-0.110000,0.215355,-0.145355,0.180000,-0.160000,-0.180000,-0.160000,-0.215355,-0.145355,-0.230000,-0.110000,-0.230000,0.110000,-0.215355,0.145355,-0.180000,0.160000,0.000000,0.160000,0.030697,0.149468,0.030697,0.149468,$1*%
%AMFreePoly1*
4,1,15,0.215355,0.155355,0.230000,0.120000,0.230000,0.040000,0.215355,0.004645,0.210697,0.000532,0.030697,-0.139468,0.000000,-0.150000,-0.180000,-0.150000,-0.215355,-0.135355,-0.230000,-0.100000,-0.230000,0.120000,-0.215355,0.155355,-0.180000,0.170000,0.180000,0.170000,0.215355,0.155355,0.215355,0.155355,$1*%
%AMFreePoly2*
4,1,15,0.215355,0.155355,0.230000,0.120000,0.230000,-0.100000,0.215355,-0.135355,0.180000,-0.150000,0.000000,-0.150000,-0.030697,-0.139468,-0.210697,0.000532,-0.229614,0.033798,-0.230000,0.040000,-0.230000,0.120000,-0.215355,0.155355,-0.180000,0.170000,0.180000,0.170000,0.215355,0.155355,0.215355,0.155355,$1*%
%AMFreePoly3*
4,1,15,0.215355,0.145355,0.230000,0.110000,0.230000,-0.110000,0.215355,-0.145355,0.180000,-0.160000,-0.180000,-0.160000,-0.215355,-0.145355,-0.230000,-0.110000,-0.230000,-0.030000,-0.215355,0.005355,-0.210697,0.009468,-0.030697,0.149468,0.000000,0.160000,0.180000,0.160000,0.215355,0.145355,0.215355,0.145355,$1*%
G04 Aperture macros list end*
%TA.AperFunction,ComponentPad*%
%ADD10C,0.600000*%
%TD*%
%TA.AperFunction,ComponentPad*%
%ADD11RoundRect,0.475000X-0.475000X-1.275000X0.475000X-1.275000X0.475000X1.275000X-0.475000X1.275000X0*%
%TD*%
%TA.AperFunction,SMDPad,CuDef*%
%ADD12RoundRect,0.100000X-0.100000X0.130000X-0.100000X-0.130000X0.100000X-0.130000X0.100000X0.130000X0*%
%TD*%
%TA.AperFunction,SMDPad,CuDef*%
%ADD13RoundRect,0.100000X-0.130000X-0.100000X0.130000X-0.100000X0.130000X0.100000X-0.130000X0.100000X0*%
%TD*%
%TA.AperFunction,SMDPad,CuDef*%
%ADD14RoundRect,0.100000X0.100000X-0.130000X0.100000X0.130000X-0.100000X0.130000X-0.100000X-0.130000X0*%
%TD*%
%TA.AperFunction,SMDPad,CuDef*%
%ADD15RoundRect,0.062500X0.062500X-0.337500X0.062500X0.337500X-0.062500X0.337500X-0.062500X-0.337500X0*%
%TD*%
%TA.AperFunction,SMDPad,CuDef*%
%ADD16RoundRect,0.062500X0.337500X-0.062500X0.337500X0.062500X-0.337500X0.062500X-0.337500X-0.062500X0*%
%TD*%
%TA.AperFunction,HeatsinkPad*%
%ADD17R,2.700000X2.700000*%
%TD*%
%TA.AperFunction,SMDPad,CuDef*%
%ADD18RoundRect,0.218750X0.218750X0.256250X-0.218750X0.256250X-0.218750X-0.256250X0.218750X-0.256250X0*%
%TD*%
%TA.AperFunction,SMDPad,CuDef*%
%ADD19RoundRect,0.100000X0.130000X0.100000X-0.130000X0.100000X-0.130000X-0.100000X0.130000X-0.100000X0*%
%TD*%
%TA.AperFunction,SMDPad,CuDef*%
%ADD20R,0.550000X0.680000*%
%TD*%
%TA.AperFunction,SMDPad,CuDef*%
%ADD21FreePoly0,270.000000*%
%TD*%
%TA.AperFunction,SMDPad,CuDef*%
%ADD22FreePoly1,270.000000*%
%TD*%
%TA.AperFunction,SMDPad,CuDef*%
%ADD23FreePoly2,270.000000*%
%TD*%
%TA.AperFunction,SMDPad,CuDef*%
%ADD24FreePoly3,270.000000*%
%TD*%
%TA.AperFunction,SMDPad,CuDef*%
%ADD25RotRect,0.480000X0.480000X225.000000*%
%TD*%
%TA.AperFunction,SMDPad,CuDef*%
%ADD26RoundRect,0.140000X-0.140000X-0.170000X0.140000X-0.170000X0.140000X0.170000X-0.140000X0.170000X0*%
%TD*%
%TA.AperFunction,SMDPad,CuDef*%
%ADD27R,0.420000X0.600000*%
%TD*%
%TA.AperFunction,SMDPad,CuDef*%
%ADD28RoundRect,0.250000X0.275000X0.250000X-0.275000X0.250000X-0.275000X-0.250000X0.275000X-0.250000X0*%
%TD*%
%TA.AperFunction,SMDPad,CuDef*%
%ADD29RoundRect,0.250000X0.850000X0.275000X-0.850000X0.275000X-0.850000X-0.275000X0.850000X-0.275000X0*%
%TD*%
%TA.AperFunction,SMDPad,CuDef*%
%ADD30R,0.450000X0.450000*%
%TD*%
%TA.AperFunction,SMDPad,CuDef*%
%ADD31R,1.750000X1.000000*%
%TD*%
%TA.AperFunction,SMDPad,CuDef*%
%ADD32RoundRect,0.225000X0.225000X0.275000X-0.225000X0.275000X-0.225000X-0.275000X0.225000X-0.275000X0*%
%TD*%
%TA.AperFunction,ViaPad*%
%ADD33C,0.450000*%
%TD*%
%TA.AperFunction,Conductor*%
%ADD34C,0.090000*%
%TD*%
%TA.AperFunction,Conductor*%
%ADD35C,0.200000*%
%TD*%
%TA.AperFunction,Conductor*%
%ADD36C,0.300000*%
%TD*%
%TA.AperFunction,Conductor*%
%ADD37C,0.127000*%
%TD*%
G04 APERTURE END LIST*
D10*
%TO.P,TP3,1,1_1*%
%TO.N,+5V*%
X105880000Y-116000000D03*
X105880000Y-118000000D03*
D11*
X106380000Y-117000000D03*
D10*
X106880000Y-116000000D03*
X106880000Y-118000000D03*
%TD*%
%TO.P,TP1,1,1_1*%
%TO.N,Net-(U1-U0RXD)*%
X100800000Y-116000000D03*
X100800000Y-118000000D03*
D11*
X101300000Y-117000000D03*
D10*
X101800000Y-116000000D03*
X101800000Y-118000000D03*
%TD*%
%TO.P,TP2,1,1_1*%
%TO.N,Net-(U1-U0TXD)*%
X103340000Y-116000000D03*
X103340000Y-118000000D03*
D11*
X103840000Y-117000000D03*
D10*
X104340000Y-116000000D03*
X104340000Y-118000000D03*
%TD*%
%TO.P,TP4,1,1_1*%
%TO.N,GND*%
X108420000Y-116000000D03*
X108420000Y-118000000D03*
D11*
X108920000Y-117000000D03*
D10*
X109420000Y-116000000D03*
X109420000Y-118000000D03*
%TD*%
D12*
%TO.P,C5,1*%
%TO.N,+3V3*%
X105500000Y-111880000D03*
%TO.P,C5,2*%
%TO.N,GND*%
X105500000Y-112520000D03*
%TD*%
D13*
%TO.P,C21,1*%
%TO.N,+3V3*%
X105650000Y-106000000D03*
%TO.P,C21,2*%
%TO.N,GND*%
X106290000Y-106000000D03*
%TD*%
D14*
%TO.P,C30,1*%
%TO.N,/ESP32-C3/WIFI*%
X111350000Y-116270000D03*
%TO.P,C30,2*%
%TO.N,GND*%
X111350000Y-115630000D03*
%TD*%
D13*
%TO.P,C40,1*%
%TO.N,+3V3*%
X113730000Y-106300000D03*
%TO.P,C40,2*%
%TO.N,GND*%
X114370000Y-106300000D03*
%TD*%
%TO.P,C35,1*%
%TO.N,+3V3*%
X112430000Y-110900000D03*
%TO.P,C35,2*%
%TO.N,GND*%
X113070000Y-110900000D03*
%TD*%
D15*
%TO.P,U1,1,LNA_IN_1*%
%TO.N,Net-(U1-LNA_IN)*%
X110700000Y-113550000D03*
%TO.P,U1,2,VDD3P3_2*%
%TO.N,Net-(C25-Pad1)*%
X110200000Y-113550000D03*
%TO.P,U1,3,VDD3P3_3*%
X109700000Y-113550000D03*
%TO.P,U1,4,XTAL_32K_P_4*%
%TO.N,/ESP32-C3/NSS_A*%
X109200000Y-113550000D03*
%TO.P,U1,5,XTAL_32K_N_5*%
%TO.N,/ESP32-C3/DIO1_A*%
X108700000Y-113550000D03*
%TO.P,U1,6,GPIO2_6*%
%TO.N,/ESP32-C3/RST_A*%
X108200000Y-113550000D03*
%TO.P,U1,7,CHIP_EN_7*%
%TO.N,/ESP32-C3/CHIP_EN*%
X107700000Y-113550000D03*
%TO.P,U1,8,GPIO3_8*%
%TO.N,/ESP32-C3/BUSY_A*%
X107200000Y-113550000D03*
D16*
%TO.P,U1,9,MTMS_9*%
%TO.N,/ESP32-C3/MOSI*%
X106500000Y-112850000D03*
%TO.P,U1,10,MTDI_10*%
%TO.N,/ESP32-C3/MISO*%
X106500000Y-112350000D03*
%TO.P,U1,11,VDD3P3_RTC_11*%
%TO.N,+3V3*%
X106500000Y-111850000D03*
%TO.P,U1,12,MTCK_12*%
%TO.N,/ESP32-C3/SCK*%
X106500000Y-111350000D03*
%TO.P,U1,13,MTDO_13*%
%TO.N,/ESP32-C3/NSS_B*%
X106500000Y-110850000D03*
%TO.P,U1,14,GPIO8_14*%
%TO.N,/ESP32-C3/BUSY_B*%
X106500000Y-110350000D03*
%TO.P,U1,15,GPIO9_15*%
%TO.N,/ESP32-C3/BOOT*%
X106500000Y-109850000D03*
%TO.P,U1,16,GPIO10_16*%
%TO.N,/ESP32-C3/RST_B*%
X106500000Y-109350000D03*
D15*
%TO.P,U1,17,VDD3P3_CPU_17*%
%TO.N,+3V3*%
X107200000Y-108650000D03*
%TO.P,U1,18,VDD_SPI_18*%
X107700000Y-108650000D03*
%TO.P,U1,19,SPIHD_19*%
%TO.N,unconnected-(U1-SPIHD-Pad19)*%
X108200000Y-108650000D03*
%TO.P,U1,20,SPIWP_20*%
%TO.N,unconnected-(U1-SPIWP-Pad20)*%
X108700000Y-108650000D03*
%TO.P,U1,21,SPICS0_21*%
%TO.N,unconnected-(U1-SPICS0-Pad21)*%
X109200000Y-108650000D03*
%TO.P,U1,22,SPICLK_22*%
%TO.N,unconnected-(U1-SPICLK-Pad22)*%
X109700000Y-108650000D03*
%TO.P,U1,23,SPID_23*%
%TO.N,unconnected-(U1-SPID-Pad23)*%
X110200000Y-108650000D03*
%TO.P,U1,24,SPIQ_24*%
%TO.N,unconnected-(U1-SPIQ-Pad24)*%
X110700000Y-108650000D03*
D16*
%TO.P,U1,25,GPIO18_25*%
%TO.N,/ESP32-C3/DIO1_B*%
X111400000Y-109350000D03*
%TO.P,U1,26,GPIO19_26*%
%TO.N,/ESP32-C3/LED*%
X111400000Y-109850000D03*
%TO.P,U1,27,U0RXD_27*%
%TO.N,Net-(U1-U0RXD)*%
X111400000Y-110350000D03*
%TO.P,U1,28,U0TXD_28*%
%TO.N,Net-(U1-U0TXD)*%
X111400000Y-110850000D03*
%TO.P,U1,29,XTAL_N_29*%
%TO.N,/ESP32-C3/XTAL_N*%
X111400000Y-111350000D03*
%TO.P,U1,30,XTAL_P_30*%
%TO.N,/ESP32-C3/XTAL_P*%
X111400000Y-111850000D03*
%TO.P,U1,31,VDDA_31*%
%TO.N,+3V3*%
X111400000Y-112350000D03*
%TO.P,U1,32,VDDA_32*%
X111400000Y-112850000D03*
D17*
%TO.P,U1,33,GND_33*%
%TO.N,GND*%
X108950000Y-111100000D03*
%TD*%
D13*
%TO.P,C25,1*%
%TO.N,Net-(C25-Pad1)*%
X109280000Y-114550000D03*
%TO.P,C25,2*%
%TO.N,GND*%
X109920000Y-114550000D03*
%TD*%
%TO.P,C31,1*%
%TO.N,+3V3*%
X105650000Y-105300000D03*
%TO.P,C31,2*%
%TO.N,GND*%
X106290000Y-105300000D03*
%TD*%
D18*
%TO.P,L6,1,1_1*%
%TO.N,Net-(U6-DCC_SW)*%
X114237500Y-115150000D03*
%TO.P,L6,2,2_2*%
%TO.N,Net-(U6-VREG)*%
X112662500Y-115150000D03*
%TD*%
D19*
%TO.P,C44,1*%
%TO.N,Net-(U8-RFC)*%
X111070000Y-105000000D03*
%TO.P,C44,2*%
%TO.N,Net-(J2-In)*%
X110430000Y-105000000D03*
%TD*%
D14*
%TO.P,C12,1*%
%TO.N,+3V3*%
X102600000Y-107120000D03*
%TO.P,C12,2*%
%TO.N,GND*%
X102600000Y-106480000D03*
%TD*%
D20*
%TO.P,X1,1,1_1*%
%TO.N,Net-(C1-Pad1)*%
X113775000Y-111500000D03*
%TO.P,X1,2,GND_2*%
%TO.N,GND*%
X113775000Y-110425000D03*
%TO.P,X1,3,3_3*%
%TO.N,/ESP32-C3/XTAL_N*%
X114525000Y-110425000D03*
%TO.P,X1,4,GND_4*%
%TO.N,GND*%
X114525000Y-111475000D03*
%TD*%
D19*
%TO.P,C3,1*%
%TO.N,/ESP32-C3/XTAL_N*%
X114470000Y-109650000D03*
%TO.P,C3,2*%
%TO.N,GND*%
X113830000Y-109650000D03*
%TD*%
D21*
%TO.P,U2,1,OUT_1*%
%TO.N,+3V3*%
X101330000Y-110870000D03*
D22*
%TO.P,U2,2,GND_2*%
%TO.N,GND*%
X101970000Y-110870000D03*
D23*
%TO.P,U2,3,EN_3*%
%TO.N,+5V*%
X101970000Y-111730000D03*
D24*
%TO.P,U2,4,IN_4*%
X101330000Y-111730000D03*
D25*
%TO.P,U2,5,EP_5*%
%TO.N,GND*%
X101650000Y-111300000D03*
%TD*%
D14*
%TO.P,L4,1,1_1*%
%TO.N,/ESP32-C3/WIFI*%
X110650000Y-115920000D03*
%TO.P,L4,2,2_2*%
%TO.N,Net-(U1-LNA_IN)*%
X110650000Y-115280000D03*
%TD*%
D13*
%TO.P,R4,1*%
%TO.N,+3V3*%
X115830000Y-106500000D03*
%TO.P,R4,2*%
%TO.N,/ESP32-C3/BOOT*%
X116470000Y-106500000D03*
%TD*%
D18*
%TO.P,L1,1,1_1*%
%TO.N,Net-(U3-DCC_SW)*%
X105487500Y-114000000D03*
%TO.P,L1,2,2_2*%
%TO.N,Net-(U3-VREG)*%
X103912500Y-114000000D03*
%TD*%
D26*
%TO.P,C18,1*%
%TO.N,+3V3*%
X101270000Y-109300000D03*
%TO.P,C18,2*%
%TO.N,GND*%
X102230000Y-109300000D03*
%TD*%
D19*
%TO.P,C43,1*%
%TO.N,+3V3*%
X112820000Y-104400000D03*
%TO.P,C43,2*%
%TO.N,GND*%
X112180000Y-104400000D03*
%TD*%
D26*
%TO.P,C8,1*%
%TO.N,+5V*%
X100770000Y-112600000D03*
%TO.P,C8,2*%
%TO.N,GND*%
X101730000Y-112600000D03*
%TD*%
D12*
%TO.P,R5,1*%
%TO.N,/ESP32-C3/CHIP_EN*%
X102150000Y-113680000D03*
%TO.P,R5,2*%
%TO.N,+3V3*%
X102150000Y-114320000D03*
%TD*%
D13*
%TO.P,C26,1*%
%TO.N,+3V3*%
X112430000Y-113000000D03*
%TO.P,C26,2*%
%TO.N,GND*%
X113070000Y-113000000D03*
%TD*%
%TO.P,C4,1*%
%TO.N,+3V3*%
X112430000Y-112300000D03*
%TO.P,C4,2*%
%TO.N,GND*%
X113070000Y-112300000D03*
%TD*%
D27*
%TO.P,U9,1,1_1*%
%TO.N,/ESP32-C3/BOOT*%
X116540000Y-108370000D03*
X116540000Y-107530000D03*
%TO.P,U9,2,2_2*%
%TO.N,GND*%
X113260000Y-108370000D03*
X113260000Y-107530000D03*
%TD*%
D14*
%TO.P,C10,1*%
%TO.N,+5V*%
X100700000Y-111720000D03*
%TO.P,C10,2*%
%TO.N,GND*%
X100700000Y-111080000D03*
%TD*%
D13*
%TO.P,C17,1*%
%TO.N,+3V3*%
X101380000Y-110150000D03*
%TO.P,C17,2*%
%TO.N,GND*%
X102020000Y-110150000D03*
%TD*%
D28*
%TO.P,J1,1,In_1*%
%TO.N,Net-(J1-In)*%
X102825000Y-103650000D03*
D29*
%TO.P,J1,2,Ext_2*%
%TO.N,GND*%
X101300000Y-105125000D03*
X101300000Y-102175000D03*
%TD*%
D13*
%TO.P,C27,1*%
%TO.N,+3V3*%
X107780000Y-107650000D03*
%TO.P,C27,2*%
%TO.N,GND*%
X108420000Y-107650000D03*
%TD*%
D12*
%TO.P,C28,1*%
%TO.N,/ESP32-C3/CHIP_EN*%
X102850000Y-113680000D03*
%TO.P,C28,2*%
%TO.N,GND*%
X102850000Y-114320000D03*
%TD*%
D19*
%TO.P,C6,1*%
%TO.N,+3V3*%
X107020000Y-107650000D03*
%TO.P,C6,2*%
%TO.N,GND*%
X106380000Y-107650000D03*
%TD*%
D13*
%TO.P,C41,1*%
%TO.N,+3V3*%
X113730000Y-105600000D03*
%TO.P,C41,2*%
%TO.N,GND*%
X114370000Y-105600000D03*
%TD*%
D19*
%TO.P,C9,1*%
%TO.N,+3V3*%
X107170000Y-114650000D03*
%TO.P,C9,2*%
%TO.N,GND*%
X106530000Y-114650000D03*
%TD*%
D30*
%TO.P,D1,1,DOUT_1*%
%TO.N,unconnected-(D1-DOUT-Pad1)*%
X101030000Y-107170000D03*
%TO.P,D1,2,VDD_2*%
%TO.N,+3V3*%
X101870000Y-107170000D03*
%TO.P,D1,3,GND_3*%
%TO.N,GND*%
X101030000Y-106330000D03*
%TO.P,D1,4,DIN_4*%
%TO.N,/ESP32-C3/LED*%
X101870000Y-106330000D03*
%TD*%
D13*
%TO.P,C29,1*%
%TO.N,Net-(U1-LNA_IN)*%
X110680000Y-114550000D03*
%TO.P,C29,2*%
%TO.N,GND*%
X111320000Y-114550000D03*
%TD*%
%TO.P,R3,1*%
%TO.N,+3V3*%
X104830000Y-111150000D03*
%TO.P,R3,2*%
%TO.N,/ESP32-C3/BUSY_B*%
X105470000Y-111150000D03*
%TD*%
D31*
%TO.P,AE1,1*%
%TO.N,/ESP32-C3/WIFI*%
X115900000Y-113580000D03*
%TO.P,AE1,2*%
%TO.N,unconnected-(AE1-Pad2)*%
X115900000Y-110420000D03*
%TD*%
D13*
%TO.P,C36,1*%
%TO.N,+3V3*%
X112430000Y-111600000D03*
%TO.P,C36,2*%
%TO.N,GND*%
X113070000Y-111600000D03*
%TD*%
D14*
%TO.P,C16,1*%
%TO.N,+3V3*%
X104800000Y-112520000D03*
%TO.P,C16,2*%
%TO.N,GND*%
X104800000Y-111880000D03*
%TD*%
D12*
%TO.P,R2,1*%
%TO.N,+3V3*%
X101000000Y-113830000D03*
%TO.P,R2,2*%
%TO.N,/ESP32-C3/RST_A*%
X101000000Y-114470000D03*
%TD*%
D19*
%TO.P,C22,1*%
%TO.N,+3V3*%
X105320000Y-103250000D03*
%TO.P,C22,2*%
%TO.N,GND*%
X104680000Y-103250000D03*
%TD*%
%TO.P,L2,1,1_1*%
%TO.N,Net-(C1-Pad1)*%
X114470000Y-112950000D03*
%TO.P,L2,2,2_2*%
%TO.N,/ESP32-C3/XTAL_P*%
X113830000Y-112950000D03*
%TD*%
D32*
%TO.P,J2,1,In_1*%
%TO.N,Net-(J2-In)*%
X109587500Y-105000000D03*
D29*
%TO.P,J2,2,Ext_2*%
%TO.N,GND*%
X108137500Y-106475000D03*
X108137500Y-103525000D03*
%TD*%
D19*
%TO.P,L3,1,1_1*%
%TO.N,Net-(C25-Pad1)*%
X108520000Y-114550000D03*
%TO.P,L3,2,2_2*%
%TO.N,+3V3*%
X107880000Y-114550000D03*
%TD*%
D13*
%TO.P,C1,1*%
%TO.N,Net-(C1-Pad1)*%
X113830000Y-112250000D03*
%TO.P,C1,2*%
%TO.N,GND*%
X114470000Y-112250000D03*
%TD*%
D33*
%TO.N,+5V*%
X100676186Y-112544071D03*
X100650000Y-111750000D03*
%TO.N,Net-(J1-In)*%
X102600000Y-103650000D03*
%TO.N,GND*%
X111600000Y-105400000D03*
X111095199Y-103427436D03*
X102287211Y-104403673D03*
X106789999Y-108153239D03*
X105150000Y-106400000D03*
X104630000Y-104580000D03*
X113900000Y-103715000D03*
X107150000Y-105350000D03*
X104650000Y-102600000D03*
X112650000Y-102821500D03*
X114450000Y-112250000D03*
X114702340Y-102826602D03*
X116350000Y-115150000D03*
X101985000Y-103902853D03*
X103600000Y-109750000D03*
X110685000Y-109365000D03*
X106850000Y-102650000D03*
X104232451Y-103790000D03*
X104800000Y-111880000D03*
X112250000Y-106950000D03*
X115924170Y-107643142D03*
X113215002Y-108300000D03*
X110950000Y-107700000D03*
X103150000Y-106400000D03*
X108150000Y-104550000D03*
X114370000Y-105600000D03*
X109700000Y-111800000D03*
X108900000Y-109400000D03*
X105785000Y-112383329D03*
X111815002Y-104000000D03*
X108130000Y-101880000D03*
X115558660Y-103477456D03*
X115560000Y-105930000D03*
X109000000Y-111850000D03*
X110521683Y-105585222D03*
X107650000Y-106040000D03*
X113137597Y-102693286D03*
X112119692Y-102821500D03*
X114498035Y-103578500D03*
X115050000Y-106100000D03*
X106150000Y-102650000D03*
X106840000Y-106770000D03*
X112150000Y-113500000D03*
X107550000Y-102600000D03*
X102900000Y-102835000D03*
X103950000Y-111050000D03*
X102410000Y-108107895D03*
X114890000Y-107520260D03*
X105550000Y-101721500D03*
X102168232Y-112989998D03*
X115270000Y-105250000D03*
X108600000Y-102650000D03*
X111500000Y-115650000D03*
X116050000Y-105350000D03*
X112169271Y-103578500D03*
X107349991Y-101721496D03*
X107450000Y-104450000D03*
X115450000Y-114800000D03*
X107600000Y-105050000D03*
X112950000Y-113550000D03*
X102900000Y-114235000D03*
X108150000Y-111400000D03*
X102142106Y-103002046D03*
X108350000Y-111900000D03*
X108150000Y-110900000D03*
X116575000Y-108985002D03*
X115273597Y-103072773D03*
X110993697Y-105636487D03*
X103253893Y-104455225D03*
X105390000Y-107635000D03*
X104400000Y-105650000D03*
X103950000Y-111550000D03*
X111481394Y-102970231D03*
X114750000Y-104100000D03*
X108700000Y-111350000D03*
X113300000Y-110800000D03*
X114700000Y-105000000D03*
X113070000Y-113000000D03*
X104250000Y-101750000D03*
X110100000Y-115300000D03*
X113050000Y-107700000D03*
X113184998Y-111300000D03*
X105200000Y-110550000D03*
X110600000Y-116500000D03*
X107300000Y-103450000D03*
X110971767Y-104485000D03*
X111550347Y-104677350D03*
X103634000Y-103062000D03*
X114700000Y-108200000D03*
X108420000Y-107650000D03*
X114400000Y-111350000D03*
X105012342Y-101721500D03*
X108080000Y-110350000D03*
X115750000Y-104050000D03*
X108204559Y-106240000D03*
X108900000Y-103650000D03*
X107900000Y-104100000D03*
X113075000Y-112400000D03*
X115400000Y-108550000D03*
X103650000Y-102560000D03*
X115420728Y-115337589D03*
X114164088Y-102685029D03*
X113850000Y-110750000D03*
X106350000Y-105150000D03*
X110450000Y-104200000D03*
X113250000Y-103715000D03*
X100425000Y-109300000D03*
X110984998Y-103950000D03*
X108800000Y-104700000D03*
X116050000Y-104800000D03*
X100424999Y-110715884D03*
X114050000Y-113550000D03*
X102579559Y-105129559D03*
X109350000Y-104100000D03*
X109275950Y-109989050D03*
X111900000Y-105950000D03*
X107765000Y-112100000D03*
X116150000Y-116450000D03*
%TO.N,/LR1121_B/RXEN24*%
X115855000Y-108869998D03*
X116575000Y-103620000D03*
X116450000Y-105800000D03*
%TO.N,+3V3*%
X101635000Y-109464501D03*
X105537679Y-103146796D03*
X107400000Y-108100000D03*
X111463627Y-112500000D03*
X107971569Y-114454024D03*
X109900000Y-102800000D03*
X107700000Y-108500000D03*
X101938974Y-107843818D03*
X104800462Y-112535000D03*
X105800000Y-105642755D03*
X113550000Y-106300000D03*
X102934998Y-109650000D03*
X102253319Y-114224999D03*
X114957429Y-115615000D03*
X116575000Y-102980000D03*
X110697742Y-111187888D03*
X112820000Y-104400000D03*
X112480000Y-110784998D03*
%TO.N,/Clock/TCXO_Out*%
X101610000Y-113450000D03*
X109175000Y-112825000D03*
%TO.N,Net-(U3-VREG)*%
X103912500Y-114000000D03*
%TO.N,/LR1121_B/CTRL1*%
X112908646Y-105498492D03*
X112647509Y-114269999D03*
%TO.N,/LR1121_B/CTRL2*%
X112016367Y-114493310D03*
X112905542Y-104958498D03*
%TO.N,Net-(U8-RFC)*%
X110975000Y-105024999D03*
%TO.N,/LR1121_A/CTRL1*%
X105550000Y-104150000D03*
X102871680Y-111928320D03*
%TO.N,/LR1121_A/CTRL2*%
X105743721Y-103645943D03*
X102920441Y-112529559D03*
%TO.N,/ESP32-C3/RST_B*%
X104750000Y-109134998D03*
X111461217Y-113300846D03*
%TO.N,/ESP32-C3/DIO1_B*%
X108950000Y-107900000D03*
X111389475Y-115065000D03*
%TO.N,Net-(U6-VREG)*%
X112900000Y-115200000D03*
%TO.N,Net-(U6-DCC_SW)*%
X113950000Y-114900000D03*
%TO.N,/ESP32-C3/MISO*%
X106380073Y-112293070D03*
X115016853Y-112224671D03*
X107284998Y-110525419D03*
%TO.N,/ESP32-C3/MOSI*%
X115116148Y-111693876D03*
X107206758Y-109991115D03*
X106790000Y-112994679D03*
%TO.N,/ESP32-C3/SCK*%
X115400813Y-111235002D03*
X107600000Y-109434998D03*
X106265000Y-111381597D03*
%TO.N,/ESP32-C3/NSS_B*%
X115555001Y-109604997D03*
X106359654Y-110849955D03*
%TO.N,/ESP32-C3/BUSY_B*%
X115015000Y-109605157D03*
%TO.N,/ESP32-C3/RST_A*%
X100951422Y-114502723D03*
%TO.N,/ESP32-C3/DIO1_A*%
X108735925Y-113856076D03*
X102722519Y-115264999D03*
%TO.N,Net-(U3-DCC_SW)*%
X105410000Y-113467210D03*
%TO.N,/LR1121_A/TXEN24*%
X107284998Y-111610000D03*
X110400564Y-103662266D03*
%TO.N,/LR1121_A/RXEN24*%
X109660602Y-106105002D03*
X107187743Y-111056588D03*
%TO.N,/ESP32-C3/NSS_A*%
X108150000Y-109434998D03*
X109268712Y-113968475D03*
%TO.N,/ESP32-C3/BUSY_A*%
X107174732Y-113373604D03*
X105290003Y-109134998D03*
%TO.N,Net-(U1-U0RXD)*%
X110144997Y-109365000D03*
X103030335Y-109047193D03*
%TO.N,/ESP32-C3/BOOT*%
X106378206Y-109790000D03*
X110164354Y-106980000D03*
X103560000Y-101690000D03*
%TO.N,Net-(U1-U0TXD)*%
X113980000Y-108890000D03*
%TO.N,/ESP32-C3/LED*%
X112300000Y-102300000D03*
X106550000Y-103600000D03*
X113850000Y-108300000D03*
%TD*%
%TO.N,+5V*%
D34*
X101545000Y-112155000D02*
X101970000Y-111730000D01*
X100770000Y-112600000D02*
X101215000Y-112155000D01*
X101215000Y-112155000D02*
X101545000Y-112155000D01*
%TO.N,GND*%
X100700000Y-110990885D02*
X100424999Y-110715884D01*
X101778234Y-112600000D02*
X102168232Y-112989998D01*
D35*
X106530000Y-107855763D02*
X106530000Y-107650000D01*
X105785000Y-112383329D02*
X105648329Y-112520000D01*
D34*
X102020000Y-109510000D02*
X102230000Y-109300000D01*
X101970000Y-110870000D02*
X101970000Y-110200000D01*
X100700000Y-111080000D02*
X100920000Y-111300000D01*
X102850000Y-114320000D02*
X102850000Y-114285000D01*
X100700000Y-111080000D02*
X100700000Y-110990885D01*
D35*
X106789999Y-108115762D02*
X106530000Y-107855763D01*
D34*
X101650000Y-111300000D02*
X101650000Y-111190000D01*
X101730000Y-112600000D02*
X101778234Y-112600000D01*
D35*
X106789999Y-108153239D02*
X106789999Y-108115762D01*
D34*
X114525000Y-111475000D02*
X114525000Y-112195000D01*
X101970000Y-110200000D02*
X102020000Y-110150000D01*
X113830000Y-109650000D02*
X113830000Y-110370000D01*
X114525000Y-112195000D02*
X114470000Y-112250000D01*
X113830000Y-110370000D02*
X113775000Y-110425000D01*
D35*
X114370000Y-106300000D02*
X114370000Y-105600000D01*
X105648329Y-112520000D02*
X105500000Y-112520000D01*
D34*
X102020000Y-110150000D02*
X102020000Y-109510000D01*
X102850000Y-114285000D02*
X102900000Y-114235000D01*
X101650000Y-111190000D02*
X101970000Y-110870000D01*
X100920000Y-111300000D02*
X101650000Y-111300000D01*
%TO.N,/LR1121_B/RXEN24*%
X116510000Y-105740000D02*
X116510000Y-103685000D01*
X116510000Y-103685000D02*
X116575000Y-103620000D01*
X116450000Y-105800000D02*
X116510000Y-105740000D01*
%TO.N,+3V3*%
D35*
X107800000Y-114550000D02*
X107170000Y-114550000D01*
D34*
X111463627Y-112413627D02*
X111400000Y-112350000D01*
D35*
X104800462Y-112535000D02*
X104970463Y-112364999D01*
D36*
X112480000Y-110784998D02*
X112480000Y-110854998D01*
D35*
X105470000Y-111880000D02*
X105500000Y-111880000D01*
X113730000Y-106300000D02*
X113550000Y-106300000D01*
D34*
X102150000Y-114320000D02*
X102070000Y-114320000D01*
D35*
X104800462Y-112535000D02*
X104800462Y-112520462D01*
D34*
X114065000Y-106635000D02*
X113730000Y-106300000D01*
X102231223Y-114320000D02*
X102150000Y-114320000D01*
X111400000Y-112665606D02*
X111400000Y-112850000D01*
D35*
X107971569Y-114454024D02*
X107964072Y-114461521D01*
X107964072Y-114461521D02*
X107897600Y-114461521D01*
X107897600Y-114461521D02*
X107880000Y-114479121D01*
D36*
X105842755Y-105600000D02*
X105800000Y-105642755D01*
D35*
X105530000Y-111850000D02*
X105500000Y-111880000D01*
X101920000Y-107120000D02*
X101870000Y-107170000D01*
X104800462Y-112520462D02*
X104800000Y-112520000D01*
D36*
X105800000Y-106000000D02*
X105800000Y-105300000D01*
D35*
X106500000Y-111850000D02*
X105530000Y-111850000D01*
D34*
X115695000Y-106635000D02*
X114065000Y-106635000D01*
D35*
X107880000Y-114479121D02*
X107880000Y-114550000D01*
D34*
X102253319Y-114224999D02*
X102253319Y-114297904D01*
D35*
X105500000Y-111880000D02*
X104830000Y-111210000D01*
X102600000Y-107120000D02*
X101920000Y-107120000D01*
X104970463Y-112364999D02*
X104985001Y-112364999D01*
D36*
X101270000Y-108480000D02*
X101270000Y-109300000D01*
D35*
X104830000Y-111210000D02*
X104830000Y-111150000D01*
X107888479Y-114461521D02*
X107800000Y-114550000D01*
D36*
X112430000Y-110904998D02*
X112430000Y-111600000D01*
D34*
X102253319Y-114297904D02*
X102231223Y-114320000D01*
X111463627Y-112601979D02*
X111400000Y-112665606D01*
X101580000Y-113830000D02*
X101000000Y-113830000D01*
X111463627Y-112500000D02*
X111463627Y-112413627D01*
D36*
X101938974Y-107843818D02*
X101906182Y-107843818D01*
D35*
X104985001Y-112364999D02*
X105470000Y-111880000D01*
X101870000Y-107774844D02*
X101938974Y-107843818D01*
X113730000Y-105600000D02*
X113730000Y-106300000D01*
D34*
X102070000Y-114320000D02*
X101580000Y-113830000D01*
D36*
X112480000Y-110854998D02*
X112430000Y-110904998D01*
X101906182Y-107843818D02*
X101270000Y-108480000D01*
D34*
X111463627Y-112500000D02*
X111463627Y-112601979D01*
D35*
X101870000Y-107170000D02*
X101870000Y-107774844D01*
D34*
X115830000Y-106500000D02*
X115695000Y-106635000D01*
D35*
X107964072Y-114461521D02*
X107888479Y-114461521D01*
%TO.N,/ESP32-C3/RST_B*%
D34*
X104750000Y-109000000D02*
X105150000Y-108600000D01*
X105900000Y-108600000D02*
X106500000Y-109200000D01*
X105150000Y-108600000D02*
X105900000Y-108600000D01*
X104750000Y-109134998D02*
X104750000Y-109000000D01*
X106500000Y-109200000D02*
X106500000Y-109350000D01*
%TO.N,/ESP32-C3/DIO1_B*%
X111400000Y-109350000D02*
X111400000Y-108659117D01*
X110640883Y-107900000D02*
X108950000Y-107900000D01*
X111400000Y-108659117D02*
X110640883Y-107900000D01*
%TO.N,Net-(U6-VREG)*%
D36*
X112662500Y-115150000D02*
X112850000Y-115150000D01*
X112850000Y-115150000D02*
X112900000Y-115200000D01*
%TO.N,Net-(U6-DCC_SW)*%
X114200000Y-115150000D02*
X113950000Y-114900000D01*
X114237500Y-115150000D02*
X114200000Y-115150000D01*
%TO.N,/ESP32-C3/MISO*%
D34*
X106437003Y-112350000D02*
X106380073Y-112293070D01*
X106500000Y-112350000D02*
X106437003Y-112350000D01*
%TO.N,/ESP32-C3/MOSI*%
X106500000Y-112850000D02*
X106645321Y-112850000D01*
X106645321Y-112850000D02*
X106790000Y-112994679D01*
%TO.N,/ESP32-C3/SCK*%
X106265000Y-111381597D02*
X106296597Y-111350000D01*
X106296597Y-111350000D02*
X106500000Y-111350000D01*
%TO.N,/ESP32-C3/NSS_B*%
X106359699Y-110850000D02*
X106359654Y-110849955D01*
X106500000Y-110850000D02*
X106359699Y-110850000D01*
%TO.N,/ESP32-C3/BUSY_B*%
X106270000Y-110350000D02*
X106500000Y-110350000D01*
X106296684Y-110350000D02*
X106264999Y-110318315D01*
X113605000Y-107095000D02*
X112915000Y-107095000D01*
X115015000Y-109605157D02*
X114340000Y-108930157D01*
X114340000Y-108930157D02*
X114340000Y-107830000D01*
X109100000Y-107150000D02*
X105000000Y-107150000D01*
X114340000Y-107830000D02*
X113605000Y-107095000D01*
X104100000Y-108994115D02*
X104905885Y-109800000D01*
X105750000Y-109800000D02*
X106300000Y-110350000D01*
X112670000Y-107340000D02*
X109290000Y-107340000D01*
X104905885Y-109800000D02*
X105750000Y-109800000D01*
X112915000Y-107095000D02*
X112670000Y-107340000D01*
X106500000Y-110350000D02*
X106296684Y-110350000D01*
X105000000Y-107150000D02*
X104100000Y-108050000D01*
X109290000Y-107340000D02*
X109100000Y-107150000D01*
X105470000Y-111150000D02*
X106270000Y-110350000D01*
X104100000Y-108050000D02*
X104100000Y-108994115D01*
%TO.N,/ESP32-C3/RST_A*%
X101298699Y-114850000D02*
X105764890Y-114850000D01*
X100951422Y-114502723D02*
X101298699Y-114850000D01*
X108200000Y-113800000D02*
X108200000Y-113550000D01*
X106299890Y-114315000D02*
X107535004Y-114315000D01*
X107748483Y-114101521D02*
X107898479Y-114101521D01*
X107535004Y-114315000D02*
X107748483Y-114101521D01*
X105764890Y-114850000D02*
X106299890Y-114315000D01*
X107898479Y-114101521D02*
X108200000Y-113800000D01*
%TO.N,/ESP32-C3/DIO1_A*%
X108700000Y-113820151D02*
X108735925Y-113856076D01*
X108700000Y-113550000D02*
X108700000Y-113820151D01*
%TO.N,Net-(U3-DCC_SW)*%
D36*
X105410000Y-113467210D02*
X105438683Y-113495893D01*
X105438683Y-113495893D02*
X105438683Y-113951183D01*
X105438683Y-113951183D02*
X105487500Y-114000000D01*
%TO.N,/ESP32-C3/NSS_A*%
D34*
X109200000Y-113550000D02*
X109200000Y-113899763D01*
X109200000Y-113899763D02*
X109268712Y-113968475D01*
%TO.N,/ESP32-C3/BUSY_A*%
X107174732Y-113524732D02*
X107200000Y-113550000D01*
X107174732Y-113373604D02*
X107174732Y-113524732D01*
%TO.N,Net-(U1-U0RXD)*%
X111129997Y-110350000D02*
X110144997Y-109365000D01*
X111400000Y-110350000D02*
X111129997Y-110350000D01*
%TO.N,/ESP32-C3/BOOT*%
X110470000Y-101650000D02*
X115600000Y-101650000D01*
X116120000Y-106850000D02*
X116470000Y-106500000D01*
X116540000Y-107410000D02*
X116470000Y-107340000D01*
X116470000Y-107340000D02*
X116470000Y-106500000D01*
X116540000Y-108370000D02*
X116540000Y-107530000D01*
X103560000Y-101690000D02*
X104110000Y-102240000D01*
X109880000Y-102240000D02*
X110470000Y-101650000D01*
X106378206Y-109791463D02*
X106436743Y-109850000D01*
X116540000Y-107530000D02*
X116540000Y-107410000D01*
X106436743Y-109850000D02*
X106500000Y-109850000D01*
X110164354Y-106980000D02*
X110320000Y-106980000D01*
X110710000Y-106590000D02*
X112399117Y-106590000D01*
X106378206Y-109790000D02*
X106378206Y-109791463D01*
X115690000Y-105550883D02*
X116470000Y-106330883D01*
X115690000Y-104650883D02*
X115690000Y-105550883D01*
X112399117Y-106590000D02*
X112659117Y-106850000D01*
X116470000Y-106330883D02*
X116470000Y-106500000D01*
X116160000Y-102210000D02*
X116160000Y-104180883D01*
X116160000Y-104180883D02*
X115690000Y-104650883D01*
X115600000Y-101650000D02*
X116160000Y-102210000D01*
X112659117Y-106850000D02*
X116120000Y-106850000D01*
X104110000Y-102240000D02*
X109880000Y-102240000D01*
X110320000Y-106980000D02*
X110710000Y-106590000D01*
%TO.N,Net-(U1-U0TXD)*%
X111935000Y-110215000D02*
X111935000Y-110496040D01*
X113902211Y-108890000D02*
X113657211Y-109135000D01*
X111581040Y-110850000D02*
X111400000Y-110850000D01*
X111935000Y-110496040D02*
X111581040Y-110850000D01*
X113980000Y-108890000D02*
X113902211Y-108890000D01*
X113657211Y-109135000D02*
X113015000Y-109135000D01*
X113015000Y-109135000D02*
X111935000Y-110215000D01*
%TO.N,/ESP32-C3/WIFI*%
D37*
X114951403Y-116250000D02*
X111370000Y-116250000D01*
X110650000Y-115920000D02*
X111350000Y-116270000D01*
X115900000Y-114200000D02*
X115900000Y-115301403D01*
X115900000Y-113580000D02*
X115900000Y-114200000D01*
X111370000Y-116250000D02*
G75*
G03*
X111350000Y-116270000I0J-20000D01*
G01*
X115900000Y-115301403D02*
G75*
G02*
X114951403Y-116250000I-948600J3D01*
G01*
%TO.N,Net-(U1-LNA_IN)*%
X110650000Y-115280000D02*
X110650000Y-114580000D01*
X110700000Y-114530000D02*
X110680000Y-114550000D01*
X110700000Y-113550000D02*
X110700000Y-114530000D01*
X110650000Y-114580000D02*
X110680000Y-114550000D01*
%TO.N,Net-(C25-Pad1)*%
D35*
X109700000Y-113550000D02*
X109700000Y-114127106D01*
X109700000Y-114100000D02*
X110200000Y-113600000D01*
X110200000Y-113600000D02*
X110200000Y-113550000D01*
X109280000Y-114547106D02*
X109280000Y-114550000D01*
X109700000Y-114127106D02*
X109700000Y-114100000D01*
X109700000Y-114127106D02*
X109280000Y-114547106D01*
X108520000Y-114550000D02*
X109280000Y-114550000D01*
%TO.N,/ESP32-C3/CHIP_EN*%
D34*
X107700000Y-113731040D02*
X107296040Y-114135000D01*
X105576050Y-113107210D02*
X103442790Y-113107210D01*
X102850000Y-113680000D02*
X102150000Y-113680000D01*
X106603840Y-114135000D02*
X105576050Y-113107210D01*
X103442790Y-113107210D02*
X102870000Y-113680000D01*
X102870000Y-113680000D02*
X102850000Y-113680000D01*
X107296040Y-114135000D02*
X106603840Y-114135000D01*
X107700000Y-113550000D02*
X107700000Y-113731040D01*
%TO.N,/ESP32-C3/LED*%
X111400000Y-109850000D02*
X111700000Y-109850000D01*
X106550000Y-103659117D02*
X106550000Y-103600000D01*
X113450000Y-108950000D02*
X113620000Y-108780000D01*
X103465000Y-105050000D02*
X105159117Y-105050000D01*
X113620000Y-108530000D02*
X113850000Y-108300000D01*
X105159117Y-105050000D02*
X106550000Y-103659117D01*
X101870000Y-106330000D02*
X102185000Y-106330000D01*
X102185000Y-106330000D02*
X103465000Y-105050000D01*
X113620000Y-108780000D02*
X113620000Y-108530000D01*
X111700000Y-109850000D02*
X112600000Y-108950000D01*
X112600000Y-108950000D02*
X113450000Y-108950000D01*
%TO.N,/ESP32-C3/XTAL_N*%
X114470000Y-109650000D02*
X114470000Y-110370000D01*
X113439558Y-109315000D02*
X114135000Y-109315000D01*
X111448203Y-111377020D02*
X111554020Y-111377020D01*
X112065000Y-110689558D02*
X113439558Y-109315000D01*
X114135000Y-109315000D02*
X114470000Y-109650000D01*
X114525000Y-110075000D02*
X114525000Y-110425000D01*
X112065000Y-110866040D02*
X112065000Y-110689558D01*
X111554020Y-111377020D02*
X112065000Y-110866040D01*
X111400000Y-111350000D02*
X111421183Y-111350000D01*
X114470000Y-110370000D02*
X114525000Y-110425000D01*
X111421183Y-111350000D02*
X111448203Y-111377020D01*
%TO.N,/ESP32-C3/XTAL_P*%
X113270110Y-111935000D02*
X111559998Y-111935000D01*
X111489442Y-111910000D02*
X111429442Y-111850000D01*
X111559998Y-111935000D02*
X111534998Y-111910000D01*
X113830000Y-112950000D02*
X113435000Y-112555000D01*
X113435000Y-112555000D02*
X113435000Y-112099890D01*
X111429442Y-111850000D02*
X111400000Y-111850000D01*
X111534998Y-111910000D02*
X111489442Y-111910000D01*
X113435000Y-112099890D02*
X113270110Y-111935000D01*
%TO.N,Net-(J2-In)*%
D37*
X110430000Y-105000000D02*
X109587500Y-105000000D01*
%TO.N,Net-(C1-Pad1)*%
D34*
X113775000Y-112195000D02*
X113830000Y-112250000D01*
X113775000Y-111500000D02*
X113775000Y-112195000D01*
X113830000Y-112250000D02*
X113830000Y-112310000D01*
X113830000Y-112310000D02*
X114470000Y-112950000D01*
%TD*%
%TA.AperFunction,Conductor*%
%TO.N,GND*%
G36*
X103265840Y-101453848D02*
G01*
X103272029Y-101456411D01*
X103295837Y-101480207D01*
X103296034Y-101480682D01*
X103297890Y-101508931D01*
X103297360Y-101510908D01*
X103292966Y-101521515D01*
X103266005Y-101568212D01*
X103265979Y-101568263D01*
X103265830Y-101568859D01*
X103262801Y-101580165D01*
X103244500Y-101648464D01*
X103244500Y-101731536D01*
X103258960Y-101785500D01*
X103266001Y-101811778D01*
X103266003Y-101811782D01*
X103293692Y-101859740D01*
X103307538Y-101883721D01*
X103366279Y-101942462D01*
X103438222Y-101983999D01*
X103518464Y-102005500D01*
X103518466Y-102005500D01*
X103601534Y-102005500D01*
X103601536Y-102005500D01*
X103633479Y-101996939D01*
X103650610Y-101995816D01*
X103662955Y-101997441D01*
X103688326Y-102009952D01*
X103992062Y-102313688D01*
X103992117Y-102313745D01*
X103992629Y-102314257D01*
X103992630Y-102314258D01*
X104019907Y-102341534D01*
X104033245Y-102354872D01*
X104083047Y-102375500D01*
X109846544Y-102375500D01*
X109846576Y-102375501D01*
X109847928Y-102375501D01*
X109853047Y-102375501D01*
X109906952Y-102375501D01*
X109906953Y-102375501D01*
X109942167Y-102360913D01*
X109956755Y-102354872D01*
X109994872Y-102316755D01*
X109994872Y-102316754D01*
X110001057Y-102310569D01*
X110001060Y-102310564D01*
X110001065Y-102310560D01*
X110004675Y-102306950D01*
X110004677Y-102306946D01*
X110053159Y-102258464D01*
X111984500Y-102258464D01*
X111984500Y-102341536D01*
X112006001Y-102421778D01*
X112047538Y-102493721D01*
X112106279Y-102552462D01*
X112178222Y-102593999D01*
X112258464Y-102615500D01*
X112258466Y-102615500D01*
X112341534Y-102615500D01*
X112341536Y-102615500D01*
X112421778Y-102593999D01*
X112493721Y-102552462D01*
X112552462Y-102493721D01*
X112593999Y-102421778D01*
X112615500Y-102341536D01*
X112615500Y-102258464D01*
X112593999Y-102178222D01*
X112552462Y-102106279D01*
X112493721Y-102047538D01*
X112493720Y-102047537D01*
X112493719Y-102047536D01*
X112421786Y-102006005D01*
X112421779Y-102006001D01*
X112421095Y-102005818D01*
X112419909Y-102005500D01*
X112419908Y-102005499D01*
X112419908Y-102005500D01*
X112341536Y-101984500D01*
X112341535Y-101984500D01*
X112258465Y-101984500D01*
X112258464Y-101984500D01*
X112220495Y-101994674D01*
X112178220Y-102006001D01*
X112178214Y-102006004D01*
X112108778Y-102046094D01*
X112106695Y-102047121D01*
X112047121Y-102106695D01*
X112046094Y-102108778D01*
X112006004Y-102178214D01*
X112006000Y-102178220D01*
X111995249Y-102218341D01*
X111995250Y-102218342D01*
X111995250Y-102218343D01*
X111984500Y-102258464D01*
X110053159Y-102258464D01*
X110507052Y-101804573D01*
X110521325Y-101795037D01*
X110529570Y-101791622D01*
X110536270Y-101788848D01*
X110553105Y-101785500D01*
X115516895Y-101785500D01*
X115533731Y-101788849D01*
X115548672Y-101795037D01*
X115562949Y-101804575D01*
X116005424Y-102247050D01*
X116014961Y-102261324D01*
X116021150Y-102276265D01*
X116024500Y-102293104D01*
X116024500Y-104097777D01*
X116021150Y-104114616D01*
X116014961Y-104129557D01*
X116005424Y-104143831D01*
X115626133Y-104523123D01*
X115626127Y-104523125D01*
X115575129Y-104574124D01*
X115554501Y-104623921D01*
X115554500Y-104623926D01*
X115554499Y-104623934D01*
X115554499Y-104684172D01*
X115554500Y-104684190D01*
X115554500Y-105519578D01*
X115554499Y-105519634D01*
X115554499Y-105577838D01*
X115557845Y-105585916D01*
X115557847Y-105585919D01*
X115560835Y-105593132D01*
X115562575Y-105601882D01*
X115567532Y-105609300D01*
X115575128Y-105627638D01*
X115613245Y-105665755D01*
X115613246Y-105665755D01*
X116115218Y-106167727D01*
X116124757Y-106182006D01*
X116125861Y-106184672D01*
X116125858Y-106218348D01*
X116102043Y-106242158D01*
X116072442Y-106243613D01*
X116072099Y-106243509D01*
X116060421Y-106237987D01*
X116034329Y-106220553D01*
X116034319Y-106220551D01*
X115978762Y-106209500D01*
X115978759Y-106209500D01*
X115681240Y-106209500D01*
X115681238Y-106209500D01*
X115639562Y-106217789D01*
X115639559Y-106217789D01*
X115625672Y-106220551D01*
X115562660Y-106262654D01*
X115562654Y-106262660D01*
X115520551Y-106325672D01*
X115519921Y-106327749D01*
X115519708Y-106329918D01*
X115509500Y-106381239D01*
X115509500Y-106446747D01*
X115506150Y-106463587D01*
X115503586Y-106469776D01*
X115479776Y-106493586D01*
X115473587Y-106496150D01*
X115456747Y-106499500D01*
X114148105Y-106499500D01*
X114131267Y-106496151D01*
X114116325Y-106489962D01*
X114102050Y-106480424D01*
X114069575Y-106447949D01*
X114060037Y-106433672D01*
X114053849Y-106418731D01*
X114050500Y-106401895D01*
X114050500Y-106181241D01*
X114050500Y-106181238D01*
X114039447Y-106125671D01*
X113997343Y-106062657D01*
X113997339Y-106062654D01*
X113997338Y-106062653D01*
X113947331Y-106029239D01*
X113935191Y-106017099D01*
X113927915Y-106006209D01*
X113920500Y-105981765D01*
X113920500Y-105920957D01*
X113923849Y-105904120D01*
X113928861Y-105892019D01*
X113945066Y-105872272D01*
X113997343Y-105837343D01*
X114039447Y-105774329D01*
X114050500Y-105718762D01*
X114050500Y-105481238D01*
X114039447Y-105425671D01*
X113997343Y-105362657D01*
X113934329Y-105320553D01*
X113878762Y-105309500D01*
X113878759Y-105309500D01*
X113581240Y-105309500D01*
X113581238Y-105309500D01*
X113539562Y-105317789D01*
X113539559Y-105317789D01*
X113525672Y-105320551D01*
X113462660Y-105362654D01*
X113462654Y-105362660D01*
X113420551Y-105425672D01*
X113419921Y-105427749D01*
X113419708Y-105429918D01*
X113409500Y-105481238D01*
X113409500Y-105718762D01*
X113420553Y-105774329D01*
X113462657Y-105837343D01*
X113485402Y-105852540D01*
X113512669Y-105870759D01*
X113516295Y-105876186D01*
X113522069Y-105879228D01*
X113524808Y-105882898D01*
X113532084Y-105893788D01*
X113539500Y-105918233D01*
X113539500Y-105933668D01*
X113536150Y-105950507D01*
X113532327Y-105959736D01*
X113513660Y-105981012D01*
X113511888Y-105982034D01*
X113501294Y-105986419D01*
X113433817Y-106004501D01*
X113427920Y-106005277D01*
X113423204Y-106008897D01*
X113358779Y-106046094D01*
X113356695Y-106047121D01*
X113297121Y-106106695D01*
X113296094Y-106108778D01*
X113256004Y-106178214D01*
X113256001Y-106178220D01*
X113252731Y-106190424D01*
X113251923Y-106193441D01*
X113235969Y-106252984D01*
X113234500Y-106258465D01*
X113234500Y-106341535D01*
X113238768Y-106357464D01*
X113256000Y-106421777D01*
X113256004Y-106421784D01*
X113272817Y-106450905D01*
X113272820Y-106450909D01*
X113297538Y-106493721D01*
X113356279Y-106552462D01*
X113428222Y-106593999D01*
X113508464Y-106615500D01*
X113508466Y-106615500D01*
X113591534Y-106615500D01*
X113591536Y-106615500D01*
X113671536Y-106594063D01*
X113674338Y-106593411D01*
X113684728Y-106591345D01*
X113693309Y-106590500D01*
X113801895Y-106590500D01*
X113818731Y-106593849D01*
X113833672Y-106600037D01*
X113847949Y-106609575D01*
X113871572Y-106633198D01*
X113881112Y-106647478D01*
X113882924Y-106651854D01*
X113882920Y-106685530D01*
X113859112Y-106709336D01*
X113854736Y-106711149D01*
X113837895Y-106714500D01*
X112742222Y-106714500D01*
X112725384Y-106711151D01*
X112710442Y-106704962D01*
X112696167Y-106695424D01*
X112513989Y-106513246D01*
X112513989Y-106513245D01*
X112475872Y-106475128D01*
X112475862Y-106475124D01*
X112474949Y-106474746D01*
X112474949Y-106474744D01*
X112474942Y-106474743D01*
X112472564Y-106473758D01*
X112472563Y-106473757D01*
X112461286Y-106469087D01*
X112461284Y-106469086D01*
X112452630Y-106465501D01*
X112427517Y-106455098D01*
X112426348Y-106454564D01*
X112426071Y-106454499D01*
X112426070Y-106454499D01*
X112372164Y-106454499D01*
X112367045Y-106454499D01*
X112365693Y-106454499D01*
X112365661Y-106454500D01*
X110743456Y-106454500D01*
X110743424Y-106454499D01*
X110742072Y-106454499D01*
X110736953Y-106454499D01*
X110683047Y-106454499D01*
X110683045Y-106454499D01*
X110682765Y-106454565D01*
X110681604Y-106455095D01*
X110633249Y-106475124D01*
X110633245Y-106475127D01*
X110633241Y-106475129D01*
X110633240Y-106475130D01*
X110582241Y-106526128D01*
X110582240Y-106526132D01*
X110402565Y-106705806D01*
X110388290Y-106715344D01*
X110379063Y-106719166D01*
X110350822Y-106721012D01*
X110348843Y-106720481D01*
X110338246Y-106716089D01*
X110286136Y-106686003D01*
X110286132Y-106686001D01*
X110284374Y-106685530D01*
X110205890Y-106664500D01*
X110205888Y-106664500D01*
X110122820Y-106664500D01*
X110122818Y-106664500D01*
X110069323Y-106678834D01*
X110042574Y-106686001D01*
X110042568Y-106686004D01*
X109973132Y-106726094D01*
X109971049Y-106727121D01*
X109911475Y-106786695D01*
X109910448Y-106788778D01*
X109870358Y-106858214D01*
X109870355Y-106858220D01*
X109869946Y-106859748D01*
X109864586Y-106879752D01*
X109848854Y-106938464D01*
X109848854Y-107021536D01*
X109866328Y-107086747D01*
X109868669Y-107095485D01*
X109868852Y-107096167D01*
X109868854Y-107096183D01*
X109868855Y-107096183D01*
X109870354Y-107101778D01*
X109879447Y-107117528D01*
X109887180Y-107130921D01*
X109892700Y-107147180D01*
X109893574Y-107153820D01*
X109884870Y-107186331D01*
X109884558Y-107186738D01*
X109861035Y-107202467D01*
X109859055Y-107202998D01*
X109847658Y-107204500D01*
X109373105Y-107204500D01*
X109356267Y-107201151D01*
X109341325Y-107194962D01*
X109327050Y-107185424D01*
X109214872Y-107073246D01*
X109214872Y-107073245D01*
X109176755Y-107035128D01*
X109162167Y-107029086D01*
X109143941Y-107021536D01*
X109128402Y-107015099D01*
X109127229Y-107014564D01*
X109126954Y-107014499D01*
X109126953Y-107014499D01*
X109073047Y-107014499D01*
X109067928Y-107014499D01*
X109066576Y-107014499D01*
X109066544Y-107014500D01*
X105033456Y-107014500D01*
X105033424Y-107014499D01*
X105032072Y-107014499D01*
X105026953Y-107014499D01*
X104973047Y-107014499D01*
X104973045Y-107014499D01*
X104956062Y-107021535D01*
X104956060Y-107021536D01*
X104923245Y-107035128D01*
X104885128Y-107073245D01*
X104885126Y-107073248D01*
X104036133Y-107922240D01*
X104036127Y-107922242D01*
X103985129Y-107973242D01*
X103985127Y-107973244D01*
X103985125Y-107973247D01*
X103985124Y-107973249D01*
X103981301Y-107982484D01*
X103981298Y-107982491D01*
X103964500Y-108023041D01*
X103964499Y-108023047D01*
X103964499Y-108083289D01*
X103964500Y-108083307D01*
X103964500Y-108962810D01*
X103964499Y-108962866D01*
X103964499Y-109021068D01*
X103969350Y-109032780D01*
X103969350Y-109032784D01*
X103985127Y-109070870D01*
X104023245Y-109108987D01*
X104023246Y-109108987D01*
X104787947Y-109873688D01*
X104788002Y-109873745D01*
X104788514Y-109874257D01*
X104788515Y-109874258D01*
X104816720Y-109902462D01*
X104829130Y-109914872D01*
X104878932Y-109935500D01*
X105666895Y-109935500D01*
X105683731Y-109938849D01*
X105698672Y-109945037D01*
X105712949Y-109954575D01*
X105990506Y-110232132D01*
X106000043Y-110246406D01*
X106006150Y-110261149D01*
X106009500Y-110277988D01*
X106009500Y-110391895D01*
X106006150Y-110408734D01*
X105999961Y-110423675D01*
X105990424Y-110437949D01*
X105587949Y-110840424D01*
X105573675Y-110849961D01*
X105558734Y-110856150D01*
X105541895Y-110859500D01*
X105321238Y-110859500D01*
X105279562Y-110867789D01*
X105279559Y-110867789D01*
X105265672Y-110870551D01*
X105211457Y-110906777D01*
X105202657Y-110912656D01*
X105202653Y-110912660D01*
X105191447Y-110929433D01*
X105179309Y-110941572D01*
X105173741Y-110945293D01*
X105140713Y-110951865D01*
X105140712Y-110951865D01*
X105138786Y-110951482D01*
X105110785Y-110932774D01*
X105110783Y-110932772D01*
X105108552Y-110929433D01*
X105097343Y-110912657D01*
X105034329Y-110870553D01*
X104978762Y-110859500D01*
X104978759Y-110859500D01*
X104681240Y-110859500D01*
X104681238Y-110859500D01*
X104639562Y-110867789D01*
X104639559Y-110867789D01*
X104625672Y-110870551D01*
X104562660Y-110912654D01*
X104562654Y-110912660D01*
X104520551Y-110975672D01*
X104519921Y-110977749D01*
X104519708Y-110979918D01*
X104516167Y-110997720D01*
X104509500Y-111031238D01*
X104509500Y-111268762D01*
X104520553Y-111324329D01*
X104562657Y-111387343D01*
X104625671Y-111429447D01*
X104681238Y-111440500D01*
X104764114Y-111440500D01*
X104780950Y-111443849D01*
X104795891Y-111450037D01*
X104810168Y-111459575D01*
X105178290Y-111827697D01*
X105187829Y-111841975D01*
X105190392Y-111848164D01*
X105190391Y-111881836D01*
X105187828Y-111888024D01*
X105178290Y-111902300D01*
X104900167Y-112180424D01*
X104885893Y-112189961D01*
X104870952Y-112196150D01*
X104854113Y-112199500D01*
X104681238Y-112199500D01*
X104676211Y-112200500D01*
X104642728Y-112207160D01*
X104642727Y-112207159D01*
X104625673Y-112210552D01*
X104625669Y-112210553D01*
X104562660Y-112252654D01*
X104562654Y-112252660D01*
X104520551Y-112315672D01*
X104519921Y-112317749D01*
X104519708Y-112319918D01*
X104509500Y-112371239D01*
X104509500Y-112392808D01*
X104508655Y-112401385D01*
X104507405Y-112407671D01*
X104506121Y-112414132D01*
X104505467Y-112416937D01*
X104493052Y-112463271D01*
X104484962Y-112493464D01*
X104484962Y-112576536D01*
X104493544Y-112608565D01*
X104506009Y-112655086D01*
X104506188Y-112655779D01*
X104509459Y-112668832D01*
X104509933Y-112670943D01*
X104520551Y-112724324D01*
X104520553Y-112724329D01*
X104562657Y-112787343D01*
X104625671Y-112829447D01*
X104681238Y-112840500D01*
X104712926Y-112840500D01*
X104718664Y-112840876D01*
X104724336Y-112841622D01*
X104729978Y-112842743D01*
X104758926Y-112850500D01*
X104758927Y-112850500D01*
X104841996Y-112850500D01*
X104841997Y-112850500D01*
X104841998Y-112850500D01*
X104870948Y-112842742D01*
X104876588Y-112841622D01*
X104882261Y-112840876D01*
X104887998Y-112840500D01*
X104918758Y-112840500D01*
X104918762Y-112840500D01*
X104974329Y-112829447D01*
X105037343Y-112787343D01*
X105079447Y-112724329D01*
X105089932Y-112671614D01*
X105091918Y-112664674D01*
X105093822Y-112659634D01*
X105093821Y-112659633D01*
X105098002Y-112648561D01*
X105097713Y-112644640D01*
X105115962Y-112576536D01*
X105115962Y-112530422D01*
X105119310Y-112513587D01*
X105125499Y-112498643D01*
X105135037Y-112484370D01*
X105152682Y-112466726D01*
X105152685Y-112466720D01*
X105399834Y-112219573D01*
X105414107Y-112210037D01*
X105425606Y-112205275D01*
X105429052Y-112203848D01*
X105445887Y-112200500D01*
X105618758Y-112200500D01*
X105618762Y-112200500D01*
X105674329Y-112189447D01*
X105737343Y-112147343D01*
X105779447Y-112084329D01*
X105779448Y-112084326D01*
X105781107Y-112080323D01*
X105781138Y-112080336D01*
X105785980Y-112068642D01*
X105791085Y-112061002D01*
X105814898Y-112043345D01*
X105818034Y-112042394D01*
X105830803Y-112040500D01*
X106058800Y-112040500D01*
X106071571Y-112042394D01*
X106083526Y-112046020D01*
X106095194Y-112051537D01*
X106096958Y-112052716D01*
X106109100Y-112064856D01*
X106110752Y-112067328D01*
X106113288Y-112071123D01*
X106120116Y-112102736D01*
X106119203Y-112108266D01*
X106113896Y-112123099D01*
X106112412Y-112125671D01*
X106109467Y-112130771D01*
X106103475Y-112138849D01*
X106096731Y-112146049D01*
X106089064Y-112152554D01*
X106052198Y-112177188D01*
X106052190Y-112177196D01*
X106028789Y-112212220D01*
X106018378Y-112227801D01*
X106016852Y-112235472D01*
X106009500Y-112272434D01*
X106009500Y-112272437D01*
X106009500Y-112427571D01*
X106011844Y-112439351D01*
X106016602Y-112463270D01*
X106018024Y-112470423D01*
X106018378Y-112472199D01*
X106032584Y-112493460D01*
X106032588Y-112493465D01*
X106052193Y-112522808D01*
X106052194Y-112522809D01*
X106064455Y-112531000D01*
X106064456Y-112531000D01*
X106064457Y-112531001D01*
X106102803Y-112556622D01*
X106102804Y-112556622D01*
X106104534Y-112557778D01*
X106108476Y-112559885D01*
X106115142Y-112564339D01*
X106133851Y-112592340D01*
X106127282Y-112625369D01*
X106127163Y-112625546D01*
X106127084Y-112625663D01*
X106107460Y-112641690D01*
X106106999Y-112641881D01*
X106102936Y-112643335D01*
X106102807Y-112643373D01*
X106052196Y-112677190D01*
X106052190Y-112677196D01*
X106018376Y-112727803D01*
X106017746Y-112729881D01*
X106017532Y-112732055D01*
X106009500Y-112772428D01*
X106009500Y-112772434D01*
X106009500Y-112927566D01*
X106014588Y-112953141D01*
X106014588Y-112953146D01*
X106018376Y-112972193D01*
X106018379Y-112972201D01*
X106031829Y-112992330D01*
X106031833Y-112992335D01*
X106049465Y-113018725D01*
X106052193Y-113022807D01*
X106085733Y-113045217D01*
X106096171Y-113052191D01*
X106102798Y-113056619D01*
X106102801Y-113056621D01*
X106102803Y-113056622D01*
X106147434Y-113065500D01*
X106439832Y-113065500D01*
X106456669Y-113068849D01*
X106465897Y-113072671D01*
X106487164Y-113091321D01*
X106488186Y-113093091D01*
X106492581Y-113103698D01*
X106494136Y-113109498D01*
X106494137Y-113109500D01*
X106496001Y-113116457D01*
X106496003Y-113116461D01*
X106500801Y-113124771D01*
X106516986Y-113152803D01*
X106537535Y-113188396D01*
X106537539Y-113188401D01*
X106596274Y-113247137D01*
X106596277Y-113247139D01*
X106596279Y-113247141D01*
X106668222Y-113288678D01*
X106748464Y-113310179D01*
X106748466Y-113310179D01*
X106806479Y-113310179D01*
X106823314Y-113313527D01*
X106829503Y-113316090D01*
X106853317Y-113339901D01*
X106853318Y-113339902D01*
X106855882Y-113346091D01*
X106859232Y-113362931D01*
X106859232Y-113415140D01*
X106876010Y-113477756D01*
X106880733Y-113495382D01*
X106880735Y-113495386D01*
X106892846Y-113516363D01*
X106919783Y-113563019D01*
X106920826Y-113564824D01*
X106921854Y-113566909D01*
X106965424Y-113610480D01*
X106974961Y-113624753D01*
X106981150Y-113639694D01*
X106984500Y-113656533D01*
X106984500Y-113902572D01*
X106986773Y-113913999D01*
X106991433Y-113937422D01*
X106991614Y-113938329D01*
X106991615Y-113955499D01*
X106990308Y-113962070D01*
X106971604Y-113990066D01*
X106968590Y-113992080D01*
X106944140Y-113999500D01*
X106686945Y-113999500D01*
X106670107Y-113996151D01*
X106655165Y-113989962D01*
X106640890Y-113980424D01*
X105690922Y-113030456D01*
X105690922Y-113030455D01*
X105652805Y-112992338D01*
X105652803Y-112992337D01*
X105652755Y-112992289D01*
X105652646Y-112992219D01*
X105651371Y-112991743D01*
X105636655Y-112985648D01*
X105636655Y-112985647D01*
X105636643Y-112985643D01*
X105604451Y-112972308D01*
X105603282Y-112971774D01*
X105603004Y-112971709D01*
X105603003Y-112971709D01*
X105549097Y-112971709D01*
X105543978Y-112971709D01*
X105542626Y-112971709D01*
X105542594Y-112971710D01*
X103415836Y-112971710D01*
X103382918Y-112985345D01*
X103382917Y-112985345D01*
X103366265Y-112992242D01*
X103366044Y-112992331D01*
X103366031Y-112992340D01*
X103315031Y-113043338D01*
X103315030Y-113043342D01*
X103016694Y-113341677D01*
X103002419Y-113351215D01*
X102989976Y-113356369D01*
X102970921Y-113359196D01*
X102970921Y-113359500D01*
X102968879Y-113359500D01*
X102968832Y-113359507D01*
X102968762Y-113359500D01*
X102968761Y-113359500D01*
X102731240Y-113359500D01*
X102731238Y-113359500D01*
X102689562Y-113367789D01*
X102689559Y-113367789D01*
X102675672Y-113370551D01*
X102612660Y-113412654D01*
X102612654Y-113412660D01*
X102570553Y-113475669D01*
X102570549Y-113475679D01*
X102565612Y-113500502D01*
X102559042Y-113516363D01*
X102553943Y-113523994D01*
X102530144Y-113541650D01*
X102527009Y-113542602D01*
X102514224Y-113544500D01*
X102488001Y-113544500D01*
X102471162Y-113541150D01*
X102462679Y-113537636D01*
X102440713Y-113517726D01*
X102439170Y-113514839D01*
X102434821Y-113502687D01*
X102430291Y-113479916D01*
X102430079Y-113477756D01*
X102430076Y-113477746D01*
X102429855Y-113476865D01*
X102429702Y-113476417D01*
X102429474Y-113475713D01*
X102429447Y-113475672D01*
X102429447Y-113475671D01*
X102387343Y-113412657D01*
X102324329Y-113370553D01*
X102268762Y-113359500D01*
X102268759Y-113359500D01*
X102031240Y-113359500D01*
X102031238Y-113359500D01*
X101989562Y-113367789D01*
X101989559Y-113367789D01*
X101969447Y-113371790D01*
X101969094Y-113371916D01*
X101960394Y-113373645D01*
X101927367Y-113367070D01*
X101925341Y-113365716D01*
X101907295Y-113340524D01*
X101903999Y-113328222D01*
X101862462Y-113256279D01*
X101803721Y-113197538D01*
X101803720Y-113197537D01*
X101803719Y-113197536D01*
X101731784Y-113156004D01*
X101731779Y-113156001D01*
X101724038Y-113153926D01*
X101724038Y-113153927D01*
X101651536Y-113134500D01*
X101651534Y-113134500D01*
X101568466Y-113134500D01*
X101568464Y-113134500D01*
X101531465Y-113144414D01*
X101514969Y-113148834D01*
X101488220Y-113156001D01*
X101488214Y-113156004D01*
X101418778Y-113196094D01*
X101416695Y-113197121D01*
X101357121Y-113256695D01*
X101356094Y-113258778D01*
X101316004Y-113328214D01*
X101316000Y-113328221D01*
X101311389Y-113345433D01*
X101294500Y-113408464D01*
X101294500Y-113491536D01*
X101297655Y-113503312D01*
X101298778Y-113520440D01*
X101298160Y-113525136D01*
X101281323Y-113554301D01*
X101248795Y-113563019D01*
X101245383Y-113562570D01*
X101226680Y-113555531D01*
X101174329Y-113520553D01*
X101173761Y-113520440D01*
X101118762Y-113509500D01*
X101118759Y-113509500D01*
X100881240Y-113509500D01*
X100881238Y-113509500D01*
X100839562Y-113517789D01*
X100839559Y-113517789D01*
X100825672Y-113520551D01*
X100762660Y-113562654D01*
X100762654Y-113562660D01*
X100720551Y-113625672D01*
X100719921Y-113627749D01*
X100719708Y-113629918D01*
X100709500Y-113681238D01*
X100709500Y-113978762D01*
X100720553Y-114034329D01*
X100762657Y-114097343D01*
X100777254Y-114107096D01*
X100779432Y-114108551D01*
X100791572Y-114120690D01*
X100795294Y-114126260D01*
X100801866Y-114159282D01*
X100801483Y-114161209D01*
X100782778Y-114189213D01*
X100782772Y-114189217D01*
X100762660Y-114202654D01*
X100762654Y-114202660D01*
X100720550Y-114265674D01*
X100719919Y-114267755D01*
X100719705Y-114269929D01*
X100719030Y-114273320D01*
X100714682Y-114285471D01*
X100708796Y-114296483D01*
X100701108Y-114306850D01*
X100698968Y-114308989D01*
X100698963Y-114308996D01*
X100698615Y-114309559D01*
X100698302Y-114310141D01*
X100691895Y-114321239D01*
X100691894Y-114321241D01*
X100657422Y-114380944D01*
X100657422Y-114380947D01*
X100654519Y-114391781D01*
X100635922Y-114461187D01*
X100635922Y-114544259D01*
X100647083Y-114585912D01*
X100652465Y-114606001D01*
X100654749Y-114614523D01*
X100657423Y-114624501D01*
X100657425Y-114624505D01*
X100660511Y-114629849D01*
X100674259Y-114653661D01*
X100698957Y-114696440D01*
X100698961Y-114696445D01*
X100757696Y-114755181D01*
X100757699Y-114755183D01*
X100757701Y-114755185D01*
X100829644Y-114796722D01*
X100909886Y-114818223D01*
X100909888Y-114818223D01*
X100992956Y-114818223D01*
X100992958Y-114818223D01*
X101024901Y-114809662D01*
X101042032Y-114808539D01*
X101054377Y-114810164D01*
X101079748Y-114822675D01*
X101180761Y-114923688D01*
X101180816Y-114923745D01*
X101221635Y-114964563D01*
X101221635Y-114964564D01*
X101221944Y-114964873D01*
X101237628Y-114971369D01*
X101237651Y-114971377D01*
X101271746Y-114985501D01*
X101271748Y-114985501D01*
X101330771Y-114985501D01*
X101332123Y-114985501D01*
X101332155Y-114985500D01*
X102440856Y-114985500D01*
X102457689Y-114988847D01*
X102459843Y-114989739D01*
X102462065Y-114990659D01*
X102485881Y-115014469D01*
X102485886Y-115048142D01*
X102484074Y-115052519D01*
X102474531Y-115066803D01*
X102469640Y-115071693D01*
X102468611Y-115073780D01*
X102428523Y-115143213D01*
X102428519Y-115143220D01*
X102424435Y-115158464D01*
X102424435Y-115158465D01*
X102407019Y-115223463D01*
X102407019Y-115306535D01*
X102421076Y-115358996D01*
X102428520Y-115386777D01*
X102428522Y-115386781D01*
X102470055Y-115458718D01*
X102470057Y-115458720D01*
X102528798Y-115517461D01*
X102600741Y-115558998D01*
X102680983Y-115580499D01*
X102680985Y-115580499D01*
X102754718Y-115580499D01*
X102771553Y-115583847D01*
X102777742Y-115586410D01*
X102801556Y-115610221D01*
X102801558Y-115610225D01*
X102803247Y-115614303D01*
X102806220Y-115636883D01*
X102799500Y-115687930D01*
X102799500Y-116696747D01*
X102796150Y-116713587D01*
X102793586Y-116719776D01*
X102769776Y-116743586D01*
X102763587Y-116746150D01*
X102746747Y-116749500D01*
X102393253Y-116749500D01*
X102376415Y-116746151D01*
X102370225Y-116743587D01*
X102346412Y-116719774D01*
X102346411Y-116719771D01*
X102343848Y-116713582D01*
X102340500Y-116696747D01*
X102340500Y-115687930D01*
X102336510Y-115657625D01*
X102334380Y-115641447D01*
X102325945Y-115577375D01*
X102268964Y-115439810D01*
X102178320Y-115321680D01*
X102060190Y-115231036D01*
X101922625Y-115174055D01*
X101812068Y-115159500D01*
X100787932Y-115159500D01*
X100677373Y-115174055D01*
X100539808Y-115231036D01*
X100421683Y-115321677D01*
X100421677Y-115321683D01*
X100331036Y-115439808D01*
X100323204Y-115458718D01*
X100288501Y-115542499D01*
X100278967Y-115556769D01*
X100275617Y-115560120D01*
X100244507Y-115573012D01*
X100213392Y-115560129D01*
X100200500Y-115529019D01*
X100200500Y-111708464D01*
X100334500Y-111708464D01*
X100334500Y-111791536D01*
X100345848Y-111833886D01*
X100356001Y-111871778D01*
X100356003Y-111871782D01*
X100374604Y-111903999D01*
X100398605Y-111945569D01*
X100404500Y-111967569D01*
X100404500Y-112371853D01*
X100398605Y-112393853D01*
X100382192Y-112422281D01*
X100382186Y-112422292D01*
X100380775Y-112427561D01*
X100380775Y-112427562D01*
X100360686Y-112502535D01*
X100360686Y-112585607D01*
X100373594Y-112633778D01*
X100373787Y-112634500D01*
X100380521Y-112659634D01*
X100382186Y-112665846D01*
X100382189Y-112665853D01*
X100384531Y-112669909D01*
X100390709Y-112680611D01*
X100395104Y-112691219D01*
X100398001Y-112702030D01*
X100399500Y-112713419D01*
X100399500Y-112792701D01*
X100399782Y-112794439D01*
X100400039Y-112795410D01*
X100409915Y-112845059D01*
X100412874Y-112859937D01*
X100463819Y-112936181D01*
X100540063Y-112987126D01*
X100607297Y-113000500D01*
X100932702Y-113000499D01*
X100953587Y-112996345D01*
X100962170Y-112995500D01*
X101034491Y-112995500D01*
X101035594Y-112995435D01*
X101045538Y-112994859D01*
X101055644Y-112993682D01*
X101066538Y-112991768D01*
X101076247Y-112989476D01*
X101086849Y-112986315D01*
X101096414Y-112982848D01*
X101106578Y-112978482D01*
X101132278Y-112965632D01*
X101141782Y-112960881D01*
X101141783Y-112960879D01*
X101168243Y-112947649D01*
X101185980Y-112936166D01*
X101200963Y-112923916D01*
X101215745Y-112908810D01*
X101225070Y-112896885D01*
X101235101Y-112881077D01*
X101242835Y-112865749D01*
X101249590Y-112848289D01*
X101333654Y-112545659D01*
X101395581Y-112322724D01*
X101416326Y-112296195D01*
X101437976Y-112290500D01*
X101511544Y-112290500D01*
X101511576Y-112290501D01*
X101512928Y-112290501D01*
X101518047Y-112290501D01*
X101571951Y-112290501D01*
X101571953Y-112290501D01*
X101596355Y-112280393D01*
X101613610Y-112273246D01*
X101613610Y-112273245D01*
X101620949Y-112270206D01*
X101620949Y-112270207D01*
X101620956Y-112270202D01*
X101621755Y-112269872D01*
X101659872Y-112231755D01*
X101659872Y-112231753D01*
X101814760Y-112076863D01*
X101829028Y-112067330D01*
X101841133Y-112062316D01*
X101866558Y-112059815D01*
X101870000Y-112060500D01*
X101870003Y-112060500D01*
X102089998Y-112060500D01*
X102090000Y-112060500D01*
X102126546Y-112053231D01*
X102165437Y-112037122D01*
X102178790Y-112030318D01*
X102217122Y-111985437D01*
X102233231Y-111946546D01*
X102240500Y-111910000D01*
X102240500Y-111886784D01*
X102556180Y-111886784D01*
X102556180Y-111969856D01*
X102576047Y-112043999D01*
X102577681Y-112050098D01*
X102577683Y-112050102D01*
X102596901Y-112083387D01*
X102611448Y-112108584D01*
X102617776Y-112119545D01*
X102618802Y-112121626D01*
X102677954Y-112180778D01*
X102677959Y-112180782D01*
X102712802Y-112200899D01*
X102725710Y-112212220D01*
X102729787Y-112217534D01*
X102738501Y-112250061D01*
X102738225Y-112252157D01*
X102727694Y-112275411D01*
X102723614Y-112280067D01*
X102721635Y-112282182D01*
X102667562Y-112336254D01*
X102666535Y-112338337D01*
X102626445Y-112407773D01*
X102626441Y-112407779D01*
X102617981Y-112439350D01*
X102617982Y-112439351D01*
X102617982Y-112439352D01*
X102604941Y-112488023D01*
X102604941Y-112571095D01*
X102610386Y-112591417D01*
X102622488Y-112636583D01*
X102626442Y-112651338D01*
X102626445Y-112651343D01*
X102652131Y-112695832D01*
X102652134Y-112695836D01*
X102667977Y-112723278D01*
X102667979Y-112723280D01*
X102726720Y-112782021D01*
X102798663Y-112823558D01*
X102878905Y-112845059D01*
X102878907Y-112845059D01*
X102961975Y-112845059D01*
X102961977Y-112845059D01*
X103042219Y-112823558D01*
X103114162Y-112782021D01*
X103172903Y-112723280D01*
X103214440Y-112651337D01*
X103235941Y-112571095D01*
X103235941Y-112488023D01*
X103214440Y-112407781D01*
X103172903Y-112335838D01*
X103172901Y-112335836D01*
X103172899Y-112335833D01*
X103114163Y-112277098D01*
X103114158Y-112277094D01*
X103091164Y-112263819D01*
X103091163Y-112263817D01*
X103079316Y-112256978D01*
X103066411Y-112245661D01*
X103062331Y-112240342D01*
X103053616Y-112207819D01*
X103053619Y-112207802D01*
X103053894Y-112205719D01*
X103064441Y-112182459D01*
X103068628Y-112177687D01*
X103070590Y-112175593D01*
X103090167Y-112156016D01*
X103106074Y-112140109D01*
X103124142Y-112122041D01*
X103165679Y-112050098D01*
X103187180Y-111969856D01*
X103187180Y-111886784D01*
X103165679Y-111806542D01*
X103124142Y-111734599D01*
X103065401Y-111675858D01*
X103065400Y-111675857D01*
X103065399Y-111675856D01*
X102993464Y-111634324D01*
X102993458Y-111634321D01*
X102970696Y-111628222D01*
X102956604Y-111624446D01*
X102913216Y-111612820D01*
X102913215Y-111612820D01*
X102830145Y-111612820D01*
X102830144Y-111612820D01*
X102786756Y-111624446D01*
X102749900Y-111634321D01*
X102749894Y-111634324D01*
X102680458Y-111674414D01*
X102678375Y-111675441D01*
X102618801Y-111735015D01*
X102617774Y-111737098D01*
X102577684Y-111806534D01*
X102577681Y-111806540D01*
X102576574Y-111810672D01*
X102570354Y-111833886D01*
X102556180Y-111886784D01*
X102240500Y-111886784D01*
X102240500Y-111550000D01*
X102233231Y-111513454D01*
X102217122Y-111474563D01*
X102210318Y-111461210D01*
X102210317Y-111461208D01*
X102207270Y-111458606D01*
X102200302Y-111452654D01*
X102165439Y-111422878D01*
X102165437Y-111422877D01*
X102165436Y-111422877D01*
X102135681Y-111410553D01*
X102135679Y-111410552D01*
X102126548Y-111406769D01*
X102110890Y-111403655D01*
X102090000Y-111399500D01*
X102089997Y-111399500D01*
X102010015Y-111399500D01*
X102010000Y-111399500D01*
X102004433Y-111399673D01*
X102004061Y-111399685D01*
X102003342Y-111399729D01*
X101999703Y-111399956D01*
X101999691Y-111399956D01*
X101998594Y-111400025D01*
X101997607Y-111400055D01*
X101997231Y-111400110D01*
X101955978Y-111412406D01*
X101955903Y-111412431D01*
X101955262Y-111412812D01*
X101937563Y-111422877D01*
X101937561Y-111422878D01*
X101919377Y-111433217D01*
X101891207Y-111457596D01*
X101891204Y-111457599D01*
X101891198Y-111457606D01*
X101751212Y-111637586D01*
X101751201Y-111637601D01*
X101736251Y-111665242D01*
X101724670Y-111698996D01*
X101724665Y-111699019D01*
X101719500Y-111729991D01*
X101719500Y-111761894D01*
X101719252Y-111762490D01*
X101716150Y-111778733D01*
X101709961Y-111793674D01*
X101700424Y-111807948D01*
X101671801Y-111836571D01*
X101657521Y-111846111D01*
X101653145Y-111847923D01*
X101619469Y-111847919D01*
X101595659Y-111824103D01*
X101595579Y-111823911D01*
X101593847Y-111819727D01*
X101590500Y-111802894D01*
X101590500Y-111729754D01*
X101590260Y-111728562D01*
X101585331Y-111699006D01*
X101585329Y-111698999D01*
X101577389Y-111675857D01*
X101573747Y-111665242D01*
X101558797Y-111637601D01*
X101558786Y-111637586D01*
X101454398Y-111503375D01*
X101454397Y-111503374D01*
X101442611Y-111488221D01*
X101418797Y-111457602D01*
X101415011Y-111453034D01*
X101415009Y-111453031D01*
X101410488Y-111447910D01*
X101375437Y-111422878D01*
X101375435Y-111422877D01*
X101336546Y-111406769D01*
X101300000Y-111399500D01*
X101299997Y-111399500D01*
X101220001Y-111399500D01*
X101220000Y-111399500D01*
X101204198Y-111402642D01*
X101199110Y-111403655D01*
X101190527Y-111404500D01*
X100848234Y-111404500D01*
X100839651Y-111403655D01*
X100838166Y-111403359D01*
X100818762Y-111399500D01*
X100818760Y-111399500D01*
X100581240Y-111399500D01*
X100581238Y-111399500D01*
X100539562Y-111407789D01*
X100539559Y-111407789D01*
X100525672Y-111410551D01*
X100462660Y-111452654D01*
X100462654Y-111452660D01*
X100420551Y-111515673D01*
X100420550Y-111515677D01*
X100420058Y-111518149D01*
X100415710Y-111530299D01*
X100409826Y-111541308D01*
X100402138Y-111551676D01*
X100397539Y-111556276D01*
X100397361Y-111556522D01*
X100396882Y-111557414D01*
X100392215Y-111565498D01*
X100392214Y-111565499D01*
X100356000Y-111628220D01*
X100356001Y-111628221D01*
X100349754Y-111651536D01*
X100334500Y-111708464D01*
X100200500Y-111708464D01*
X100200500Y-109107297D01*
X100899500Y-109107297D01*
X100899500Y-109107298D01*
X100899500Y-109107300D01*
X100899500Y-109492700D01*
X100899782Y-109494439D01*
X100900039Y-109495410D01*
X100912444Y-109557776D01*
X100912874Y-109559937D01*
X100947085Y-109611137D01*
X100954500Y-109635581D01*
X100954500Y-111120500D01*
X100961769Y-111157045D01*
X100974656Y-111188158D01*
X100981460Y-111201513D01*
X101026342Y-111239844D01*
X101026343Y-111239844D01*
X101026344Y-111239845D01*
X101041898Y-111246287D01*
X101057455Y-111252731D01*
X101094000Y-111260000D01*
X101299874Y-111260000D01*
X101299878Y-111260000D01*
X101336426Y-111252730D01*
X101367539Y-111239842D01*
X101398520Y-111219140D01*
X101609919Y-111007738D01*
X101618632Y-110997720D01*
X101625982Y-110987976D01*
X101633222Y-110976845D01*
X101727945Y-110806345D01*
X101736910Y-110783921D01*
X101742447Y-110762553D01*
X101745500Y-110738598D01*
X101745500Y-109790414D01*
X101758387Y-109759301D01*
X101767497Y-109752311D01*
X101828721Y-109716963D01*
X101887462Y-109658222D01*
X101916190Y-109608464D01*
X102619498Y-109608464D01*
X102619498Y-109691536D01*
X102629216Y-109727803D01*
X102631934Y-109737948D01*
X102640998Y-109771777D01*
X102641002Y-109771784D01*
X102658707Y-109802449D01*
X102668690Y-109819740D01*
X102682536Y-109843721D01*
X102741277Y-109902462D01*
X102813220Y-109943999D01*
X102893462Y-109965500D01*
X102893464Y-109965500D01*
X102976532Y-109965500D01*
X102976534Y-109965500D01*
X103056776Y-109943999D01*
X103128719Y-109902462D01*
X103187460Y-109843721D01*
X103228997Y-109771778D01*
X103250498Y-109691536D01*
X103250498Y-109608464D01*
X103228997Y-109528222D01*
X103187460Y-109456279D01*
X103148294Y-109417113D01*
X103138756Y-109402837D01*
X103136193Y-109396649D01*
X103136193Y-109362975D01*
X103137332Y-109360225D01*
X103155981Y-109338958D01*
X103224056Y-109299655D01*
X103282797Y-109240914D01*
X103324334Y-109168971D01*
X103345835Y-109088729D01*
X103345835Y-109005657D01*
X103324334Y-108925415D01*
X103282797Y-108853472D01*
X103224056Y-108794731D01*
X103224055Y-108794730D01*
X103224054Y-108794729D01*
X103152119Y-108753197D01*
X103152113Y-108753194D01*
X103133531Y-108748215D01*
X103111161Y-108742221D01*
X103071871Y-108731693D01*
X103071870Y-108731693D01*
X102988801Y-108731693D01*
X102988799Y-108731693D01*
X102946792Y-108742949D01*
X102936271Y-108745768D01*
X102908555Y-108753194D01*
X102908549Y-108753197D01*
X102839113Y-108793287D01*
X102837030Y-108794314D01*
X102777456Y-108853888D01*
X102776429Y-108855971D01*
X102736340Y-108925404D01*
X102736336Y-108925413D01*
X102735770Y-108927526D01*
X102714835Y-109005657D01*
X102714835Y-109088729D01*
X102734636Y-109162628D01*
X102736336Y-109168971D01*
X102736338Y-109168975D01*
X102776333Y-109238246D01*
X102776429Y-109238412D01*
X102777458Y-109240499D01*
X102817037Y-109280079D01*
X102826576Y-109294356D01*
X102829139Y-109300545D01*
X102829138Y-109334217D01*
X102827999Y-109336967D01*
X102809348Y-109358235D01*
X102743776Y-109396094D01*
X102741693Y-109397121D01*
X102682119Y-109456695D01*
X102681092Y-109458778D01*
X102641002Y-109528214D01*
X102640998Y-109528221D01*
X102633346Y-109556781D01*
X102632827Y-109558719D01*
X102619498Y-109608464D01*
X101916190Y-109608464D01*
X101928999Y-109586279D01*
X101950500Y-109506037D01*
X101950500Y-109422965D01*
X101928999Y-109342723D01*
X101887462Y-109270780D01*
X101828721Y-109212039D01*
X101828720Y-109212038D01*
X101803190Y-109197298D01*
X101767499Y-109176691D01*
X101746999Y-109149973D01*
X101745500Y-109138586D01*
X101745500Y-109044003D01*
X101745500Y-109044000D01*
X101738231Y-109007455D01*
X101725344Y-108976342D01*
X101718540Y-108962987D01*
X101673658Y-108924656D01*
X101673656Y-108924655D01*
X101673655Y-108924654D01*
X101642546Y-108911769D01*
X101630363Y-108909346D01*
X101606000Y-108904500D01*
X101605998Y-108904500D01*
X101554500Y-108904500D01*
X101523387Y-108891613D01*
X101510500Y-108860500D01*
X101510500Y-108606597D01*
X101513849Y-108589761D01*
X101520037Y-108574820D01*
X101529572Y-108560546D01*
X101911728Y-108178390D01*
X101926000Y-108168855D01*
X101935654Y-108164857D01*
X101940945Y-108162666D01*
X101957780Y-108159318D01*
X101980508Y-108159318D01*
X101980510Y-108159318D01*
X102060752Y-108137817D01*
X102132695Y-108096280D01*
X102191436Y-108037539D01*
X102232973Y-107965596D01*
X102254474Y-107885354D01*
X102254474Y-107802282D01*
X102232973Y-107722040D01*
X102191436Y-107650097D01*
X102132695Y-107591356D01*
X102132694Y-107591355D01*
X102132693Y-107591354D01*
X102097773Y-107571193D01*
X102084872Y-107559880D01*
X102081988Y-107556123D01*
X102073265Y-107523596D01*
X102090097Y-107494429D01*
X102092835Y-107492328D01*
X102111038Y-107484081D01*
X102121160Y-107482068D01*
X102130308Y-107480250D01*
X102130309Y-107480249D01*
X102130311Y-107480249D01*
X102160247Y-107460247D01*
X102180249Y-107430311D01*
X102185500Y-107403913D01*
X102185500Y-107363252D01*
X102188848Y-107346417D01*
X102191411Y-107340228D01*
X102215222Y-107316414D01*
X102215222Y-107316413D01*
X102221415Y-107313849D01*
X102221420Y-107313847D01*
X102238253Y-107310500D01*
X102279041Y-107310500D01*
X102295878Y-107313849D01*
X102307979Y-107318861D01*
X102327726Y-107335067D01*
X102362653Y-107387338D01*
X102362654Y-107387339D01*
X102362657Y-107387343D01*
X102425671Y-107429447D01*
X102481238Y-107440500D01*
X102481241Y-107440500D01*
X102718758Y-107440500D01*
X102718762Y-107440500D01*
X102774329Y-107429447D01*
X102837343Y-107387343D01*
X102879447Y-107324329D01*
X102890500Y-107268762D01*
X102890500Y-106971238D01*
X102879447Y-106915671D01*
X102837343Y-106852657D01*
X102774329Y-106810553D01*
X102718762Y-106799500D01*
X102718759Y-106799500D01*
X102481240Y-106799500D01*
X102481238Y-106799500D01*
X102439562Y-106807789D01*
X102439559Y-106807789D01*
X102425672Y-106810551D01*
X102362660Y-106852654D01*
X102362654Y-106852660D01*
X102329240Y-106902669D01*
X102317102Y-106914807D01*
X102313906Y-106916943D01*
X102308007Y-106920885D01*
X102306214Y-106922083D01*
X102281767Y-106929500D01*
X102225758Y-106929500D01*
X102208921Y-106926151D01*
X102196818Y-106921138D01*
X102177070Y-106904932D01*
X102166660Y-106889351D01*
X102160247Y-106879753D01*
X102130311Y-106859751D01*
X102103913Y-106854500D01*
X102103909Y-106854500D01*
X101636088Y-106854500D01*
X101636083Y-106854501D01*
X101613939Y-106858905D01*
X101611767Y-106859118D01*
X101609691Y-106859748D01*
X101579756Y-106879750D01*
X101579748Y-106879758D01*
X101559749Y-106909690D01*
X101559119Y-106911767D01*
X101558906Y-106913936D01*
X101557588Y-106920564D01*
X101554501Y-106936085D01*
X101554500Y-106936088D01*
X101554500Y-107403910D01*
X101554501Y-107403915D01*
X101558905Y-107426060D01*
X101559190Y-107428959D01*
X101560309Y-107431660D01*
X101562156Y-107433911D01*
X101579753Y-107460247D01*
X101609689Y-107480249D01*
X101609691Y-107480249D01*
X101609693Y-107480250D01*
X101630670Y-107484423D01*
X101638838Y-107486890D01*
X101639327Y-107487093D01*
X101641004Y-107487835D01*
X101641297Y-107487908D01*
X101649750Y-107491403D01*
X101673577Y-107515198D01*
X101676139Y-107521371D01*
X101679500Y-107538237D01*
X101679500Y-107644657D01*
X101678001Y-107656046D01*
X101675104Y-107666857D01*
X101670708Y-107677468D01*
X101644978Y-107722032D01*
X101644973Y-107722041D01*
X101633831Y-107763617D01*
X101629436Y-107774226D01*
X101623844Y-107783912D01*
X101616852Y-107793026D01*
X101203118Y-108206763D01*
X101066114Y-108343767D01*
X101036402Y-108415500D01*
X101032702Y-108424432D01*
X101032701Y-108424436D01*
X101029500Y-108432162D01*
X101029500Y-108887660D01*
X101026150Y-108904500D01*
X101021137Y-108916601D01*
X101004933Y-108936345D01*
X100963824Y-108963814D01*
X100963816Y-108963822D01*
X100945136Y-108991780D01*
X100935863Y-109005658D01*
X100912874Y-109040063D01*
X100899500Y-109107297D01*
X100200500Y-109107297D01*
X100200500Y-106936087D01*
X100714500Y-106936087D01*
X100714500Y-106936088D01*
X100714500Y-106936090D01*
X100714500Y-106937933D01*
X100714500Y-107403910D01*
X100714501Y-107403915D01*
X100718905Y-107426060D01*
X100719190Y-107428959D01*
X100720309Y-107431660D01*
X100722156Y-107433911D01*
X100739753Y-107460247D01*
X100769689Y-107480249D01*
X100796087Y-107485500D01*
X101263912Y-107485499D01*
X101290311Y-107480249D01*
X101320247Y-107460247D01*
X101340249Y-107430311D01*
X101345500Y-107403913D01*
X101345499Y-106936088D01*
X101340249Y-106909689D01*
X101320247Y-106879753D01*
X101290311Y-106859751D01*
X101263913Y-106854500D01*
X101263909Y-106854500D01*
X100796088Y-106854500D01*
X100796083Y-106854501D01*
X100773939Y-106858905D01*
X100771767Y-106859118D01*
X100769691Y-106859748D01*
X100739756Y-106879750D01*
X100739748Y-106879758D01*
X100719749Y-106909690D01*
X100719119Y-106911767D01*
X100718986Y-106913120D01*
X100719026Y-106913306D01*
X100718958Y-106913670D01*
X100714500Y-106936087D01*
X100200500Y-106936087D01*
X100200500Y-106096087D01*
X101554500Y-106096087D01*
X101554500Y-106096088D01*
X101554500Y-106096090D01*
X101554500Y-106097933D01*
X101554500Y-106563910D01*
X101554501Y-106563915D01*
X101558905Y-106586060D01*
X101559118Y-106588228D01*
X101559750Y-106590311D01*
X101562212Y-106593995D01*
X101562213Y-106593999D01*
X101562215Y-106593999D01*
X101579753Y-106620247D01*
X101609689Y-106640249D01*
X101636087Y-106645500D01*
X102103912Y-106645499D01*
X102130311Y-106640249D01*
X102160247Y-106620247D01*
X102180249Y-106590311D01*
X102185500Y-106563913D01*
X102185500Y-106514610D01*
X102188849Y-106497772D01*
X102193225Y-106487206D01*
X102217036Y-106463395D01*
X102247167Y-106450913D01*
X102261755Y-106444872D01*
X102299872Y-106406755D01*
X102299872Y-106406754D01*
X102306057Y-106400569D01*
X102306060Y-106400564D01*
X102306065Y-106400560D01*
X102309675Y-106396950D01*
X102309677Y-106396946D01*
X103502052Y-105204573D01*
X103516325Y-105195037D01*
X103524570Y-105191622D01*
X103531270Y-105188848D01*
X103548105Y-105185500D01*
X105125661Y-105185500D01*
X105125693Y-105185501D01*
X105127045Y-105185501D01*
X105132164Y-105185501D01*
X105186069Y-105185501D01*
X105186070Y-105185501D01*
X105221284Y-105170913D01*
X105235872Y-105164872D01*
X105248377Y-105152366D01*
X105262648Y-105142831D01*
X105267025Y-105141018D01*
X105300702Y-105141019D01*
X105324510Y-105164826D01*
X105326148Y-105168779D01*
X105329500Y-105185622D01*
X105329500Y-105418762D01*
X105340553Y-105474329D01*
X105382657Y-105537343D01*
X105445671Y-105579447D01*
X105445673Y-105579447D01*
X105445674Y-105579448D01*
X105447967Y-105580398D01*
X105455580Y-105584466D01*
X105463993Y-105590087D01*
X105481653Y-105613896D01*
X105482604Y-105617030D01*
X105484500Y-105629806D01*
X105484500Y-105667966D01*
X105481150Y-105684805D01*
X105477636Y-105693288D01*
X105457728Y-105715254D01*
X105454845Y-105716795D01*
X105449586Y-105718677D01*
X105449676Y-105718893D01*
X105445675Y-105720549D01*
X105382660Y-105762654D01*
X105382654Y-105762660D01*
X105340551Y-105825672D01*
X105339921Y-105827749D01*
X105339708Y-105829918D01*
X105338232Y-105837341D01*
X105329500Y-105881238D01*
X105329500Y-106118762D01*
X105340553Y-106174329D01*
X105382657Y-106237343D01*
X105445671Y-106279447D01*
X105501238Y-106290500D01*
X105501241Y-106290500D01*
X105798758Y-106290500D01*
X105798762Y-106290500D01*
X105854329Y-106279447D01*
X105917343Y-106237343D01*
X105943083Y-106198815D01*
X105945639Y-106195369D01*
X105948369Y-106192043D01*
X105951239Y-106188876D01*
X106003886Y-106136232D01*
X106034027Y-106063466D01*
X109345102Y-106063466D01*
X109345102Y-106146538D01*
X109364344Y-106218348D01*
X109365287Y-106221867D01*
X109365287Y-106221872D01*
X109366602Y-106226777D01*
X109366603Y-106226781D01*
X109376262Y-106243509D01*
X109389173Y-106265871D01*
X109408140Y-106298723D01*
X109408143Y-106298726D01*
X109466876Y-106357460D01*
X109466879Y-106357462D01*
X109466881Y-106357464D01*
X109538824Y-106399001D01*
X109619066Y-106420502D01*
X109619068Y-106420502D01*
X109702136Y-106420502D01*
X109702138Y-106420502D01*
X109782380Y-106399001D01*
X109854323Y-106357464D01*
X109913064Y-106298723D01*
X109954601Y-106226780D01*
X109976102Y-106146538D01*
X109976102Y-106063466D01*
X109954601Y-105983224D01*
X109913064Y-105911281D01*
X109854323Y-105852540D01*
X109854322Y-105852539D01*
X109854321Y-105852538D01*
X109782386Y-105811006D01*
X109782378Y-105811002D01*
X109782380Y-105811002D01*
X109730134Y-105797003D01*
X109702138Y-105789502D01*
X109702136Y-105789502D01*
X109619068Y-105789502D01*
X109619066Y-105789502D01*
X109565866Y-105803757D01*
X109538822Y-105811003D01*
X109538816Y-105811006D01*
X109469380Y-105851096D01*
X109467297Y-105852123D01*
X109407723Y-105911697D01*
X109406696Y-105913780D01*
X109366606Y-105983216D01*
X109366602Y-105983223D01*
X109356681Y-106020250D01*
X109356661Y-106020328D01*
X109356601Y-106020553D01*
X109345102Y-106063466D01*
X106034027Y-106063466D01*
X106040500Y-106047838D01*
X106040500Y-105950000D01*
X107037500Y-105950000D01*
X107037501Y-105950000D01*
X109127499Y-105950000D01*
X109127500Y-105950000D01*
X109127500Y-105591351D01*
X109130848Y-105574516D01*
X109133411Y-105568327D01*
X109157222Y-105544513D01*
X109157222Y-105544512D01*
X109158685Y-105543906D01*
X109184947Y-105541581D01*
X109185136Y-105541622D01*
X109185301Y-105541659D01*
X109194456Y-105544755D01*
X109270305Y-105580125D01*
X109279044Y-105584200D01*
X109279828Y-105584578D01*
X109280514Y-105584699D01*
X109282422Y-105584824D01*
X109325531Y-105590500D01*
X109849468Y-105590499D01*
X109895417Y-105584451D01*
X109996255Y-105537429D01*
X110018786Y-105514896D01*
X110029438Y-105507056D01*
X110040331Y-105501337D01*
X110289018Y-105300282D01*
X110316681Y-105290500D01*
X110578758Y-105290500D01*
X110578762Y-105290500D01*
X110634329Y-105279447D01*
X110686309Y-105244714D01*
X110702171Y-105238144D01*
X110707117Y-105237160D01*
X110711175Y-105236354D01*
X110740490Y-105240701D01*
X110743378Y-105242244D01*
X110753757Y-105249939D01*
X110781279Y-105277461D01*
X110853222Y-105318998D01*
X110933464Y-105340499D01*
X110933466Y-105340499D01*
X111016534Y-105340499D01*
X111016536Y-105340499D01*
X111096778Y-105318998D01*
X111130912Y-105299290D01*
X111141518Y-105294896D01*
X111151047Y-105292343D01*
X111152337Y-105291998D01*
X111163721Y-105290500D01*
X111218758Y-105290500D01*
X111218762Y-105290500D01*
X111274329Y-105279447D01*
X111337343Y-105237343D01*
X111379447Y-105174329D01*
X111390500Y-105118762D01*
X111390500Y-104881238D01*
X111379447Y-104825671D01*
X111337343Y-104762657D01*
X111274329Y-104720553D01*
X111218762Y-104709500D01*
X111218759Y-104709500D01*
X111019945Y-104709500D01*
X111019880Y-104709499D01*
X111019226Y-104709499D01*
X111016536Y-104709499D01*
X110933464Y-104709499D01*
X110930774Y-104709499D01*
X110930120Y-104709499D01*
X110930055Y-104709500D01*
X110921238Y-104709500D01*
X110896658Y-104714389D01*
X110869918Y-104719708D01*
X110868771Y-104719820D01*
X110865670Y-104720552D01*
X110865657Y-104720560D01*
X110831590Y-104743322D01*
X110830389Y-104744097D01*
X110829161Y-104744861D01*
X110827919Y-104745605D01*
X110781292Y-104772527D01*
X110781284Y-104772532D01*
X110781267Y-104772546D01*
X110779006Y-104774807D01*
X110764743Y-104784334D01*
X110758558Y-104786896D01*
X110724887Y-104786899D01*
X110721537Y-104785512D01*
X110701784Y-104769304D01*
X110701489Y-104768862D01*
X110697343Y-104762657D01*
X110690397Y-104758016D01*
X110634329Y-104720553D01*
X110630081Y-104719708D01*
X110578762Y-104709500D01*
X110578759Y-104709500D01*
X110316682Y-104709500D01*
X110289019Y-104699717D01*
X110040331Y-104498662D01*
X110040326Y-104498659D01*
X110040323Y-104498657D01*
X110028641Y-104492351D01*
X110018430Y-104484746D01*
X109996255Y-104462571D01*
X109979961Y-104454973D01*
X109895417Y-104415549D01*
X109849469Y-104409500D01*
X109325532Y-104409500D01*
X109279582Y-104415549D01*
X109198026Y-104453579D01*
X109181351Y-104457659D01*
X109174659Y-104457951D01*
X109143014Y-104446432D01*
X109143008Y-104446427D01*
X109141843Y-104445359D01*
X109128624Y-104422470D01*
X109128548Y-104422128D01*
X109127500Y-104412583D01*
X109127500Y-104281238D01*
X112499500Y-104281238D01*
X112499500Y-104518762D01*
X112510553Y-104574329D01*
X112552657Y-104637343D01*
X112615671Y-104679447D01*
X112628729Y-104682044D01*
X112644587Y-104688614D01*
X112650004Y-104692233D01*
X112668710Y-104720236D01*
X112664361Y-104749554D01*
X112662917Y-104752256D01*
X112655224Y-104762630D01*
X112653081Y-104764772D01*
X112652996Y-104764921D01*
X112611547Y-104836710D01*
X112611521Y-104836761D01*
X112611372Y-104837357D01*
X112590042Y-104916962D01*
X112590042Y-105000034D01*
X112611543Y-105080276D01*
X112649594Y-105146183D01*
X112649595Y-105146183D01*
X112651636Y-105149718D01*
X112652664Y-105151803D01*
X112693606Y-105192746D01*
X112703145Y-105207023D01*
X112705708Y-105213212D01*
X112705707Y-105246885D01*
X112703143Y-105253075D01*
X112693605Y-105267350D01*
X112655767Y-105305187D01*
X112654740Y-105307270D01*
X112614651Y-105376704D01*
X112614625Y-105376755D01*
X112614476Y-105377351D01*
X112593146Y-105456956D01*
X112593146Y-105540028D01*
X112610898Y-105606279D01*
X112614647Y-105620270D01*
X112614649Y-105620274D01*
X112626763Y-105641255D01*
X112656184Y-105692213D01*
X112714925Y-105750954D01*
X112786868Y-105792491D01*
X112867110Y-105813992D01*
X112867112Y-105813992D01*
X112950180Y-105813992D01*
X112950182Y-105813992D01*
X113030424Y-105792491D01*
X113102367Y-105750954D01*
X113161108Y-105692213D01*
X113202645Y-105620270D01*
X113224146Y-105540028D01*
X113224146Y-105456956D01*
X113202645Y-105376714D01*
X113161108Y-105304771D01*
X113120580Y-105264243D01*
X113111043Y-105249970D01*
X113109119Y-105245325D01*
X113108478Y-105243779D01*
X113108477Y-105210108D01*
X113111041Y-105203916D01*
X113120574Y-105189647D01*
X113158004Y-105152219D01*
X113199541Y-105080276D01*
X113221042Y-105000034D01*
X113221042Y-104916962D01*
X113199541Y-104836720D01*
X113158004Y-104764777D01*
X113099263Y-104706036D01*
X113099262Y-104706035D01*
X113099261Y-104706034D01*
X113097849Y-104704623D01*
X113094045Y-104700286D01*
X113088410Y-104692943D01*
X113079692Y-104660417D01*
X113080260Y-104656103D01*
X113087298Y-104637409D01*
X113087341Y-104637343D01*
X113087343Y-104637343D01*
X113129447Y-104574329D01*
X113140500Y-104518762D01*
X113140500Y-104281238D01*
X113129447Y-104225671D01*
X113087343Y-104162657D01*
X113024329Y-104120553D01*
X112968762Y-104109500D01*
X112968759Y-104109500D01*
X112963312Y-104109500D01*
X112954729Y-104108655D01*
X112944321Y-104106585D01*
X112941521Y-104105932D01*
X112913097Y-104098316D01*
X112861536Y-104084500D01*
X112861535Y-104084500D01*
X112778465Y-104084500D01*
X112778464Y-104084500D01*
X112726903Y-104098316D01*
X112698479Y-104105931D01*
X112695683Y-104106584D01*
X112685271Y-104108655D01*
X112676687Y-104109500D01*
X112671238Y-104109500D01*
X112629562Y-104117789D01*
X112629559Y-104117789D01*
X112615672Y-104120551D01*
X112552660Y-104162654D01*
X112552654Y-104162660D01*
X112510551Y-104225672D01*
X112509921Y-104227749D01*
X112509748Y-104229510D01*
X112509768Y-104229607D01*
X112509714Y-104229884D01*
X112499500Y-104281238D01*
X109127500Y-104281238D01*
X109127500Y-104050001D01*
X109127500Y-104050000D01*
X109127499Y-104050000D01*
X107037501Y-104050000D01*
X107037500Y-104050000D01*
X107037500Y-105950000D01*
X106040500Y-105950000D01*
X106040500Y-105875415D01*
X106043847Y-105858581D01*
X106051729Y-105839552D01*
X106051728Y-105839551D01*
X106053273Y-105835821D01*
X106055813Y-105830670D01*
X106093999Y-105764533D01*
X106115500Y-105684291D01*
X106115500Y-105601219D01*
X106093999Y-105520977D01*
X106055820Y-105454850D01*
X106053274Y-105449687D01*
X106043849Y-105426931D01*
X106040500Y-105410094D01*
X106040500Y-105252162D01*
X106035401Y-105239853D01*
X106023079Y-105210105D01*
X106003886Y-105163768D01*
X106003885Y-105163767D01*
X106003885Y-105163766D01*
X105986299Y-105146180D01*
X105986297Y-105146179D01*
X105951268Y-105111149D01*
X105948370Y-105107952D01*
X105945641Y-105104627D01*
X105943067Y-105101157D01*
X105929115Y-105080276D01*
X105917343Y-105062657D01*
X105854329Y-105020553D01*
X105798762Y-105009500D01*
X105798759Y-105009500D01*
X105508242Y-105009500D01*
X105495455Y-105007601D01*
X105488681Y-105005543D01*
X105462658Y-104984170D01*
X105459368Y-104950660D01*
X105460219Y-104947859D01*
X105471204Y-104929536D01*
X106466415Y-103934325D01*
X106480684Y-103924791D01*
X106495037Y-103918847D01*
X106511870Y-103915500D01*
X106591534Y-103915500D01*
X106591536Y-103915500D01*
X106671778Y-103893999D01*
X106743721Y-103852462D01*
X106802462Y-103793721D01*
X106843999Y-103721778D01*
X106865500Y-103641536D01*
X106865500Y-103620730D01*
X110085064Y-103620730D01*
X110085064Y-103703802D01*
X110090654Y-103724662D01*
X110096627Y-103746954D01*
X110106565Y-103784046D01*
X110112149Y-103793717D01*
X110112151Y-103793720D01*
X110112152Y-103793721D01*
X110148102Y-103855987D01*
X110206843Y-103914728D01*
X110278786Y-103956265D01*
X110359028Y-103977766D01*
X110359030Y-103977766D01*
X110442098Y-103977766D01*
X110442100Y-103977766D01*
X110522342Y-103956265D01*
X110594285Y-103914728D01*
X110653026Y-103855987D01*
X110694563Y-103784044D01*
X110716064Y-103703802D01*
X110716064Y-103620730D01*
X110694563Y-103540488D01*
X110653026Y-103468545D01*
X110594285Y-103409804D01*
X110594284Y-103409803D01*
X110594283Y-103409802D01*
X110522351Y-103368271D01*
X110522341Y-103368266D01*
X110519619Y-103367537D01*
X110490501Y-103359735D01*
X110442100Y-103346766D01*
X110442098Y-103346766D01*
X110359029Y-103346766D01*
X110359028Y-103346766D01*
X110339693Y-103351947D01*
X110310628Y-103359735D01*
X110278784Y-103368267D01*
X110278778Y-103368270D01*
X110209342Y-103408360D01*
X110207259Y-103409387D01*
X110147685Y-103468961D01*
X110146658Y-103471044D01*
X110106569Y-103540478D01*
X110106543Y-103540529D01*
X110106394Y-103541125D01*
X110101748Y-103558464D01*
X110085064Y-103620730D01*
X106865500Y-103620730D01*
X106865500Y-103558464D01*
X106843999Y-103478222D01*
X106802462Y-103406279D01*
X106743721Y-103347538D01*
X106743720Y-103347537D01*
X106743719Y-103347536D01*
X106671784Y-103306004D01*
X106671778Y-103306001D01*
X106666176Y-103304500D01*
X106626527Y-103293876D01*
X106591536Y-103284500D01*
X106591535Y-103284500D01*
X106508465Y-103284500D01*
X106508464Y-103284500D01*
X106473473Y-103293876D01*
X106428220Y-103306001D01*
X106428214Y-103306004D01*
X106358778Y-103346094D01*
X106356695Y-103347121D01*
X106297121Y-103406695D01*
X106296094Y-103408778D01*
X106256004Y-103478214D01*
X106256000Y-103478221D01*
X106253557Y-103487342D01*
X106253557Y-103487343D01*
X106234500Y-103558464D01*
X106234500Y-103641536D01*
X106246810Y-103687477D01*
X106254881Y-103717599D01*
X106256380Y-103728987D01*
X106256380Y-103742882D01*
X106243493Y-103773995D01*
X105934774Y-104082714D01*
X105920498Y-104092252D01*
X105914310Y-104094815D01*
X105880677Y-104094832D01*
X105880200Y-104094635D01*
X105858892Y-104075968D01*
X105857870Y-104074198D01*
X105853473Y-104063583D01*
X105844000Y-104028225D01*
X105843999Y-104028224D01*
X105843999Y-104028222D01*
X105841677Y-104024200D01*
X105835784Y-104013994D01*
X105830267Y-103997736D01*
X105829393Y-103991093D01*
X105838105Y-103958575D01*
X105839917Y-103956212D01*
X105863451Y-103940490D01*
X105865499Y-103939942D01*
X105937442Y-103898405D01*
X105996183Y-103839664D01*
X106037720Y-103767721D01*
X106059221Y-103687479D01*
X106059221Y-103604407D01*
X106037720Y-103524165D01*
X105996183Y-103452222D01*
X105937442Y-103393481D01*
X105937441Y-103393480D01*
X105937440Y-103393479D01*
X105865505Y-103351947D01*
X105865493Y-103351941D01*
X105865492Y-103351940D01*
X105858360Y-103350029D01*
X105842962Y-103342434D01*
X105837651Y-103338358D01*
X105820817Y-103309201D01*
X105820428Y-103306249D01*
X105825950Y-103278493D01*
X105828546Y-103273999D01*
X105831678Y-103268574D01*
X105853179Y-103188332D01*
X105853179Y-103105260D01*
X105831678Y-103025018D01*
X105790141Y-102953075D01*
X105731400Y-102894334D01*
X105731399Y-102894333D01*
X105731398Y-102894332D01*
X105659463Y-102852800D01*
X105659455Y-102852796D01*
X105659457Y-102852796D01*
X105607211Y-102838797D01*
X105579215Y-102831296D01*
X105579213Y-102831296D01*
X105496145Y-102831296D01*
X105496143Y-102831296D01*
X105442648Y-102845630D01*
X105415899Y-102852797D01*
X105343958Y-102894333D01*
X105343956Y-102894335D01*
X105297868Y-102940424D01*
X105283594Y-102949961D01*
X105268653Y-102956150D01*
X105251815Y-102959500D01*
X105171238Y-102959500D01*
X105129562Y-102967789D01*
X105129559Y-102967789D01*
X105115672Y-102970551D01*
X105052660Y-103012654D01*
X105052654Y-103012660D01*
X105010551Y-103075672D01*
X105009921Y-103077749D01*
X105009708Y-103079918D01*
X105006907Y-103093999D01*
X104999500Y-103131238D01*
X104999500Y-103368762D01*
X105010553Y-103424329D01*
X105052657Y-103487343D01*
X105115671Y-103529447D01*
X105171238Y-103540500D01*
X105379250Y-103540500D01*
X105396085Y-103543848D01*
X105402274Y-103546411D01*
X105426088Y-103570222D01*
X105426092Y-103570231D01*
X105427231Y-103572982D01*
X105429081Y-103601194D01*
X105428221Y-103604406D01*
X105428221Y-103604407D01*
X105428221Y-103687479D01*
X105446682Y-103756374D01*
X105449722Y-103767721D01*
X105449724Y-103767726D01*
X105457933Y-103781945D01*
X105463452Y-103798205D01*
X105464326Y-103804848D01*
X105455609Y-103837374D01*
X105453798Y-103839734D01*
X105430283Y-103855447D01*
X105428226Y-103855998D01*
X105428212Y-103856005D01*
X105358778Y-103896094D01*
X105356695Y-103897121D01*
X105297121Y-103956695D01*
X105296094Y-103958778D01*
X105256004Y-104028214D01*
X105256000Y-104028221D01*
X105250165Y-104050000D01*
X105250165Y-104050001D01*
X105235004Y-104106585D01*
X105234500Y-104108465D01*
X105234500Y-104191535D01*
X105243647Y-104225672D01*
X105245417Y-104232278D01*
X105256001Y-104271778D01*
X105256003Y-104271782D01*
X105269844Y-104295755D01*
X105297538Y-104343721D01*
X105356279Y-104402462D01*
X105428222Y-104443999D01*
X105460727Y-104452708D01*
X105476120Y-104460300D01*
X105479080Y-104462571D01*
X105481435Y-104464378D01*
X105498267Y-104493503D01*
X105498335Y-104494016D01*
X105492821Y-104521799D01*
X105491799Y-104523569D01*
X105484808Y-104532681D01*
X105122066Y-104895424D01*
X105107792Y-104904961D01*
X105092851Y-104911150D01*
X105076012Y-104914500D01*
X103438046Y-104914500D01*
X103438043Y-104914500D01*
X103438043Y-104914501D01*
X103402832Y-104929084D01*
X103402833Y-104929085D01*
X103397360Y-104931352D01*
X103389612Y-104934562D01*
X103389609Y-104934563D01*
X103388242Y-104935128D01*
X103388241Y-104935129D01*
X103337241Y-104986128D01*
X103337240Y-104986132D01*
X102253762Y-106069609D01*
X102239486Y-106079147D01*
X102233298Y-106081710D01*
X102199625Y-106081711D01*
X102196276Y-106080324D01*
X102176528Y-106064118D01*
X102160250Y-106039757D01*
X102160249Y-106039756D01*
X102160247Y-106039753D01*
X102137237Y-106024379D01*
X102137236Y-106024377D01*
X102137236Y-106024378D01*
X102130315Y-106019753D01*
X102130311Y-106019751D01*
X102130296Y-106019748D01*
X102103913Y-106014500D01*
X102103910Y-106014500D01*
X101636088Y-106014500D01*
X101636083Y-106014501D01*
X101613939Y-106018905D01*
X101611767Y-106019118D01*
X101609691Y-106019748D01*
X101579756Y-106039750D01*
X101579748Y-106039758D01*
X101559749Y-106069690D01*
X101559119Y-106071767D01*
X101558986Y-106073120D01*
X101559026Y-106073306D01*
X101558958Y-106073670D01*
X101554500Y-106096087D01*
X100200500Y-106096087D01*
X100200500Y-104652752D01*
X100203848Y-104635917D01*
X100206411Y-104629728D01*
X100230222Y-104605914D01*
X100230222Y-104605913D01*
X100234590Y-104604104D01*
X100236420Y-104603347D01*
X100253253Y-104600000D01*
X102289999Y-104600000D01*
X102290000Y-104600000D01*
X102290000Y-104232278D01*
X102293348Y-104215443D01*
X102294799Y-104211939D01*
X102295911Y-104209253D01*
X102319722Y-104185440D01*
X102319723Y-104185439D01*
X102321192Y-104184830D01*
X102347552Y-104182530D01*
X102347892Y-104182605D01*
X102356955Y-104185682D01*
X102460513Y-104233972D01*
X102510099Y-104240500D01*
X103139900Y-104240499D01*
X103189487Y-104233972D01*
X103298316Y-104183224D01*
X103383224Y-104098316D01*
X103433972Y-103989487D01*
X103440500Y-103939901D01*
X103440499Y-103360100D01*
X103433972Y-103310513D01*
X103383224Y-103201684D01*
X103298316Y-103116776D01*
X103189487Y-103066028D01*
X103139901Y-103059500D01*
X102510100Y-103059500D01*
X102460512Y-103066028D01*
X102360526Y-103112652D01*
X102343851Y-103116732D01*
X102337159Y-103117024D01*
X102305514Y-103105505D01*
X102305508Y-103105500D01*
X102304343Y-103104432D01*
X102291124Y-103081543D01*
X102291048Y-103081201D01*
X102290000Y-103071656D01*
X102290000Y-102758464D01*
X109584500Y-102758464D01*
X109584500Y-102841536D01*
X109606001Y-102921778D01*
X109647538Y-102993721D01*
X109706279Y-103052462D01*
X109778222Y-103093999D01*
X109858464Y-103115500D01*
X109858466Y-103115500D01*
X109941534Y-103115500D01*
X109941536Y-103115500D01*
X110021778Y-103093999D01*
X110093721Y-103052462D01*
X110152462Y-102993721D01*
X110193999Y-102921778D01*
X110215500Y-102841536D01*
X110215500Y-102758464D01*
X110193999Y-102678222D01*
X110152462Y-102606279D01*
X110093721Y-102547538D01*
X110093720Y-102547537D01*
X110093719Y-102547536D01*
X110021784Y-102506004D01*
X110021776Y-102506000D01*
X110021778Y-102506000D01*
X109969532Y-102492001D01*
X109941536Y-102484500D01*
X109941534Y-102484500D01*
X109858466Y-102484500D01*
X109858464Y-102484500D01*
X109804969Y-102498834D01*
X109778220Y-102506001D01*
X109778214Y-102506004D01*
X109708778Y-102546094D01*
X109706695Y-102547121D01*
X109647121Y-102606695D01*
X109646094Y-102608778D01*
X109606004Y-102678214D01*
X109606000Y-102678221D01*
X109600611Y-102698338D01*
X109600165Y-102700001D01*
X109584500Y-102758464D01*
X102290000Y-102758464D01*
X102290000Y-102700001D01*
X102290000Y-102700000D01*
X102289999Y-102700000D01*
X100253253Y-102700000D01*
X100236415Y-102696651D01*
X100230225Y-102694087D01*
X100206412Y-102670274D01*
X100206411Y-102670271D01*
X100203848Y-102664082D01*
X100200500Y-102647247D01*
X100200500Y-101755186D01*
X100200634Y-101751754D01*
X100200908Y-101748275D01*
X100201309Y-101744885D01*
X100206817Y-101710116D01*
X100213528Y-101667740D01*
X100215139Y-101661036D01*
X100217251Y-101654534D01*
X100219892Y-101648158D01*
X100251498Y-101586129D01*
X100252968Y-101583243D01*
X100256565Y-101577372D01*
X100260591Y-101571830D01*
X100265063Y-101566594D01*
X100316594Y-101515063D01*
X100321830Y-101510591D01*
X100327372Y-101506565D01*
X100333243Y-101502968D01*
X100398162Y-101469890D01*
X100404524Y-101467254D01*
X100411050Y-101465134D01*
X100417734Y-101463529D01*
X100494883Y-101451309D01*
X100498309Y-101450905D01*
X100501754Y-101450635D01*
X100505192Y-101450500D01*
X103249005Y-101450500D01*
X103265840Y-101453848D01*
G37*
%TD.AperFunction*%
%TA.AperFunction,Conductor*%
G36*
X110475368Y-113922716D02*
G01*
X110489639Y-113944056D01*
X110491720Y-113943195D01*
X110493376Y-113947195D01*
X110517508Y-113983312D01*
X110527193Y-113997807D01*
X110528775Y-113998864D01*
X110532362Y-114003383D01*
X110537530Y-114014327D01*
X110538491Y-114013921D01*
X110541744Y-114021611D01*
X110540591Y-114022098D01*
X110546000Y-114039918D01*
X110546000Y-114101636D01*
X110539168Y-114125183D01*
X110493777Y-114196828D01*
X110431054Y-114295828D01*
X110418336Y-114308861D01*
X110412659Y-114312654D01*
X110412655Y-114312658D01*
X110370551Y-114375672D01*
X110369921Y-114377749D01*
X110369708Y-114379918D01*
X110364389Y-114406658D01*
X110359500Y-114431238D01*
X110359500Y-114668762D01*
X110370553Y-114724329D01*
X110370553Y-114724330D01*
X110370554Y-114724331D01*
X110372211Y-114728332D01*
X110372030Y-114728406D01*
X110375328Y-114735690D01*
X110376296Y-114739313D01*
X110429613Y-114847581D01*
X110441283Y-114871280D01*
X110445853Y-114880559D01*
X110448037Y-114914165D01*
X110445853Y-114919436D01*
X110376582Y-115060102D01*
X110376567Y-115060137D01*
X110371833Y-115071565D01*
X110370857Y-115074436D01*
X110367597Y-115086594D01*
X110367492Y-115087122D01*
X110367492Y-115087127D01*
X110367454Y-115088259D01*
X110366634Y-115095360D01*
X110359500Y-115131235D01*
X110359500Y-115131238D01*
X110359500Y-115428762D01*
X110370553Y-115484329D01*
X110412657Y-115547343D01*
X110429436Y-115558554D01*
X110441572Y-115570690D01*
X110445294Y-115576260D01*
X110451866Y-115609282D01*
X110451483Y-115611209D01*
X110432778Y-115639213D01*
X110432772Y-115639217D01*
X110412660Y-115652654D01*
X110412654Y-115652660D01*
X110370551Y-115715672D01*
X110369921Y-115717749D01*
X110369708Y-115719918D01*
X110366354Y-115736782D01*
X110359500Y-115771238D01*
X110359500Y-116068762D01*
X110370553Y-116124329D01*
X110412657Y-116187343D01*
X110475671Y-116229447D01*
X110531238Y-116240500D01*
X110531241Y-116240500D01*
X110636031Y-116240500D01*
X110646992Y-116242120D01*
X110647043Y-116241918D01*
X110648090Y-116242178D01*
X110648091Y-116242179D01*
X110652518Y-116243282D01*
X110652523Y-116243282D01*
X110652524Y-116243283D01*
X110655152Y-116243669D01*
X110671019Y-116246005D01*
X110897659Y-116256903D01*
X110928115Y-116271268D01*
X110929753Y-116273179D01*
X110977305Y-116331965D01*
X111056579Y-116429967D01*
X111065524Y-116449053D01*
X111070552Y-116474325D01*
X111070553Y-116474329D01*
X111112657Y-116537343D01*
X111175671Y-116579447D01*
X111231238Y-116590500D01*
X111231241Y-116590500D01*
X111468758Y-116590500D01*
X111468762Y-116590500D01*
X111524329Y-116579447D01*
X111587343Y-116537343D01*
X111591136Y-116531664D01*
X111604170Y-116518941D01*
X111774815Y-116410831D01*
X111798363Y-116404000D01*
X115047865Y-116404000D01*
X115047868Y-116404000D01*
X115237866Y-116370498D01*
X115419161Y-116304512D01*
X115586242Y-116208047D01*
X115734035Y-116084035D01*
X115858047Y-115936242D01*
X115954512Y-115769161D01*
X116020498Y-115587866D01*
X116054000Y-115397868D01*
X116054000Y-115301403D01*
X116054000Y-115266254D01*
X116054000Y-115266253D01*
X116054000Y-114602752D01*
X116057348Y-114585917D01*
X116057935Y-114584500D01*
X116059911Y-114579727D01*
X116083722Y-114555914D01*
X116083722Y-114555913D01*
X116088090Y-114554104D01*
X116089920Y-114553347D01*
X116106753Y-114550000D01*
X116746747Y-114550000D01*
X116763582Y-114553348D01*
X116768839Y-114555525D01*
X116769768Y-114555910D01*
X116769771Y-114555911D01*
X116793585Y-114579722D01*
X116793586Y-114579723D01*
X116796150Y-114585912D01*
X116799500Y-114602752D01*
X116799500Y-116444810D01*
X116799364Y-116448256D01*
X116799302Y-116449053D01*
X116799093Y-116451706D01*
X116798687Y-116455127D01*
X116786473Y-116532241D01*
X116784861Y-116538957D01*
X116782745Y-116545468D01*
X116780103Y-116551844D01*
X116747036Y-116616743D01*
X116743429Y-116622631D01*
X116739409Y-116628164D01*
X116734925Y-116633414D01*
X116683414Y-116684925D01*
X116678164Y-116689409D01*
X116672631Y-116693429D01*
X116666743Y-116697036D01*
X116601840Y-116730105D01*
X116595464Y-116732747D01*
X116588962Y-116734860D01*
X116582246Y-116736472D01*
X116529824Y-116744775D01*
X116505124Y-116748687D01*
X116501706Y-116749092D01*
X116498275Y-116749363D01*
X116494810Y-116749500D01*
X107473253Y-116749500D01*
X107456415Y-116746151D01*
X107450225Y-116743587D01*
X107426412Y-116719774D01*
X107426411Y-116719771D01*
X107423848Y-116713582D01*
X107420500Y-116696747D01*
X107420500Y-115687930D01*
X107416510Y-115657625D01*
X107414380Y-115641447D01*
X107405945Y-115577375D01*
X107348964Y-115439810D01*
X107258320Y-115321680D01*
X107140190Y-115231036D01*
X107002625Y-115174055D01*
X106892068Y-115159500D01*
X105867932Y-115159500D01*
X105757373Y-115174055D01*
X105619808Y-115231036D01*
X105501683Y-115321677D01*
X105501677Y-115321683D01*
X105411036Y-115439808D01*
X105354055Y-115577373D01*
X105339500Y-115687930D01*
X105339500Y-116696747D01*
X105336150Y-116713587D01*
X105333586Y-116719776D01*
X105309776Y-116743586D01*
X105303587Y-116746150D01*
X105286747Y-116749500D01*
X104933253Y-116749500D01*
X104916415Y-116746151D01*
X104910225Y-116743587D01*
X104886412Y-116719774D01*
X104886411Y-116719771D01*
X104883848Y-116713582D01*
X104880500Y-116696747D01*
X104880500Y-115687930D01*
X104876510Y-115657625D01*
X104874380Y-115641447D01*
X104865945Y-115577375D01*
X104808964Y-115439810D01*
X104718320Y-115321680D01*
X104600190Y-115231036D01*
X104462625Y-115174055D01*
X104352068Y-115159500D01*
X103327932Y-115159500D01*
X103217373Y-115174055D01*
X103186649Y-115186782D01*
X103098457Y-115223312D01*
X103081619Y-115226661D01*
X103074923Y-115226661D01*
X103043810Y-115213774D01*
X103040688Y-115210652D01*
X103029300Y-115190927D01*
X103016518Y-115143221D01*
X102974981Y-115071278D01*
X102970504Y-115066801D01*
X102960964Y-115052521D01*
X102959152Y-115048145D01*
X102959156Y-115014469D01*
X102982970Y-114990660D01*
X102985019Y-114989811D01*
X102987352Y-114988846D01*
X103004182Y-114985500D01*
X105731434Y-114985500D01*
X105731466Y-114985501D01*
X105732818Y-114985501D01*
X105737937Y-114985501D01*
X105791841Y-114985501D01*
X105791843Y-114985501D01*
X105827927Y-114970554D01*
X105827930Y-114970553D01*
X105837672Y-114966518D01*
X105839753Y-114965885D01*
X105841440Y-114965087D01*
X105842268Y-114964288D01*
X105845931Y-114960876D01*
X105846681Y-114959835D01*
X105879762Y-114926755D01*
X105879762Y-114926753D01*
X106336942Y-114469573D01*
X106351215Y-114460037D01*
X106359971Y-114456411D01*
X106366160Y-114453848D01*
X106382995Y-114450500D01*
X106803193Y-114450500D01*
X106820028Y-114453848D01*
X106826217Y-114456411D01*
X106850031Y-114480222D01*
X106850032Y-114480223D01*
X106851419Y-114483571D01*
X106853924Y-114508993D01*
X106849500Y-114531237D01*
X106849500Y-114768758D01*
X106849499Y-114768758D01*
X106853196Y-114787343D01*
X106860553Y-114824329D01*
X106902657Y-114887343D01*
X106965671Y-114929447D01*
X107021238Y-114940500D01*
X107021241Y-114940500D01*
X107318758Y-114940500D01*
X107318762Y-114940500D01*
X107374329Y-114929447D01*
X107437343Y-114887343D01*
X107479447Y-114824329D01*
X107487370Y-114784494D01*
X107493937Y-114768639D01*
X107499041Y-114761001D01*
X107522855Y-114743343D01*
X107525994Y-114742392D01*
X107538759Y-114740500D01*
X107549086Y-114740500D01*
X107565922Y-114743848D01*
X107578025Y-114748861D01*
X107597772Y-114765066D01*
X107612657Y-114787343D01*
X107675671Y-114829447D01*
X107731238Y-114840500D01*
X107731241Y-114840500D01*
X108028758Y-114840500D01*
X108028762Y-114840500D01*
X108084329Y-114829447D01*
X108147343Y-114787343D01*
X108158554Y-114770562D01*
X108170694Y-114758422D01*
X108176264Y-114754700D01*
X108209277Y-114748131D01*
X108211204Y-114748514D01*
X108239207Y-114767216D01*
X108239214Y-114767225D01*
X108252546Y-114787178D01*
X108252655Y-114787341D01*
X108252656Y-114787341D01*
X108252657Y-114787343D01*
X108315671Y-114829447D01*
X108371238Y-114840500D01*
X108371241Y-114840500D01*
X108668758Y-114840500D01*
X108668762Y-114840500D01*
X108724329Y-114829447D01*
X108787343Y-114787343D01*
X108800715Y-114767329D01*
X108812851Y-114755193D01*
X108823746Y-114747913D01*
X108848188Y-114740500D01*
X108949086Y-114740500D01*
X108965922Y-114743848D01*
X108978025Y-114748861D01*
X108997772Y-114765066D01*
X109012657Y-114787343D01*
X109075671Y-114829447D01*
X109131238Y-114840500D01*
X109131241Y-114840500D01*
X109428758Y-114840500D01*
X109428762Y-114840500D01*
X109484329Y-114829447D01*
X109547343Y-114787343D01*
X109589447Y-114724329D01*
X109600500Y-114668762D01*
X109600500Y-114522989D01*
X109603847Y-114506156D01*
X109610037Y-114491209D01*
X109619571Y-114476940D01*
X109807908Y-114288604D01*
X109807910Y-114288604D01*
X109861498Y-114235016D01*
X109861499Y-114235011D01*
X109861501Y-114235010D01*
X109873163Y-114206853D01*
X109875657Y-114200829D01*
X109879721Y-114193226D01*
X109880444Y-114192144D01*
X109884441Y-114186160D01*
X109889909Y-114179495D01*
X110022531Y-114046873D01*
X110036799Y-114037340D01*
X110047370Y-114032961D01*
X110073131Y-114032953D01*
X110073564Y-114030779D01*
X110122428Y-114040499D01*
X110122430Y-114040499D01*
X110122434Y-114040500D01*
X110122438Y-114040500D01*
X110277562Y-114040500D01*
X110277566Y-114040500D01*
X110322197Y-114031622D01*
X110372807Y-113997807D01*
X110406622Y-113947197D01*
X110406622Y-113947194D01*
X110407784Y-113945456D01*
X110409889Y-113941515D01*
X110414340Y-113934854D01*
X110418975Y-113931757D01*
X110419125Y-113931488D01*
X110419567Y-113931361D01*
X110442339Y-113916146D01*
X110475368Y-113922716D01*
G37*
%TD.AperFunction*%
%TA.AperFunction,Conductor*%
G36*
X108482038Y-109028188D02*
G01*
X108490364Y-109043761D01*
X108491721Y-109043199D01*
X108493379Y-109047200D01*
X108504415Y-109063718D01*
X108504416Y-109063718D01*
X108527193Y-109097807D01*
X108552131Y-109114469D01*
X108556458Y-109117360D01*
X108556459Y-109117361D01*
X108577793Y-109131616D01*
X108577796Y-109131617D01*
X108577801Y-109131621D01*
X108577803Y-109131622D01*
X108622434Y-109140500D01*
X108622438Y-109140500D01*
X108777562Y-109140500D01*
X108777566Y-109140500D01*
X108822197Y-109131622D01*
X108872807Y-109097807D01*
X108906622Y-109047197D01*
X108906622Y-109047196D01*
X108907787Y-109045453D01*
X108909896Y-109041505D01*
X108914342Y-109034852D01*
X108942344Y-109016146D01*
X108950924Y-109015301D01*
X108950925Y-109015301D01*
X108982038Y-109028188D01*
X108990364Y-109043761D01*
X108991721Y-109043199D01*
X108993379Y-109047200D01*
X109004415Y-109063718D01*
X109004416Y-109063718D01*
X109027193Y-109097807D01*
X109052131Y-109114469D01*
X109056458Y-109117360D01*
X109056459Y-109117361D01*
X109077793Y-109131616D01*
X109077796Y-109131617D01*
X109077801Y-109131621D01*
X109077803Y-109131622D01*
X109122434Y-109140500D01*
X109122438Y-109140500D01*
X109277562Y-109140500D01*
X109277566Y-109140500D01*
X109322197Y-109131622D01*
X109372807Y-109097807D01*
X109406622Y-109047197D01*
X109406622Y-109047196D01*
X109407787Y-109045453D01*
X109409896Y-109041505D01*
X109414342Y-109034852D01*
X109442344Y-109016146D01*
X109450924Y-109015301D01*
X109450925Y-109015301D01*
X109482038Y-109028188D01*
X109490364Y-109043761D01*
X109491721Y-109043199D01*
X109493379Y-109047200D01*
X109504415Y-109063718D01*
X109504416Y-109063718D01*
X109527193Y-109097807D01*
X109552131Y-109114469D01*
X109556458Y-109117360D01*
X109556459Y-109117361D01*
X109577793Y-109131616D01*
X109577796Y-109131617D01*
X109577801Y-109131621D01*
X109577803Y-109131622D01*
X109622434Y-109140500D01*
X109622438Y-109140500D01*
X109777562Y-109140500D01*
X109777563Y-109140500D01*
X109777566Y-109140500D01*
X109822197Y-109131622D01*
X109822197Y-109131621D01*
X109823742Y-109131314D01*
X109832319Y-109130468D01*
X109838470Y-109130468D01*
X109869582Y-109143355D01*
X109882469Y-109174468D01*
X109882469Y-109176920D01*
X109876574Y-109198919D01*
X109859898Y-109227804D01*
X109851002Y-109243214D01*
X109851001Y-109243215D01*
X109851000Y-109243217D01*
X109850995Y-109243228D01*
X109843689Y-109270500D01*
X109843171Y-109272434D01*
X109829497Y-109323464D01*
X109829497Y-109406536D01*
X109835131Y-109427562D01*
X109844729Y-109463385D01*
X109848253Y-109476534D01*
X109850998Y-109486778D01*
X109851000Y-109486782D01*
X109874926Y-109528222D01*
X109892533Y-109558719D01*
X109892535Y-109558721D01*
X109951276Y-109617462D01*
X110023219Y-109658999D01*
X110103461Y-109680500D01*
X110103463Y-109680500D01*
X110186531Y-109680500D01*
X110186533Y-109680500D01*
X110218476Y-109671939D01*
X110235607Y-109670816D01*
X110247952Y-109672441D01*
X110273323Y-109684952D01*
X110890424Y-110302053D01*
X110899961Y-110316327D01*
X110906150Y-110331268D01*
X110909500Y-110348107D01*
X110909500Y-110427566D01*
X110910335Y-110431761D01*
X110912073Y-110440499D01*
X110912073Y-110440508D01*
X110918377Y-110472194D01*
X110918378Y-110472198D01*
X110930942Y-110491001D01*
X110952193Y-110522807D01*
X110952196Y-110522809D01*
X111004529Y-110557776D01*
X111008476Y-110559885D01*
X111015142Y-110564339D01*
X111033851Y-110592340D01*
X111027282Y-110625369D01*
X111027163Y-110625546D01*
X111027084Y-110625663D01*
X111007460Y-110641690D01*
X111006999Y-110641881D01*
X111002936Y-110643335D01*
X111002807Y-110643373D01*
X110952196Y-110677190D01*
X110952190Y-110677196D01*
X110918376Y-110727803D01*
X110917746Y-110729881D01*
X110917532Y-110732055D01*
X110909500Y-110772428D01*
X110909500Y-110860875D01*
X110906150Y-110877715D01*
X110903586Y-110883904D01*
X110879792Y-110907707D01*
X110879317Y-110907904D01*
X110851053Y-110909756D01*
X110849075Y-110909225D01*
X110838486Y-110904837D01*
X110828032Y-110898802D01*
X110819528Y-110893893D01*
X110819520Y-110893889D01*
X110819518Y-110893888D01*
X110819520Y-110893888D01*
X110757378Y-110877238D01*
X110739278Y-110872388D01*
X110739276Y-110872388D01*
X110656208Y-110872388D01*
X110656206Y-110872388D01*
X110615012Y-110883426D01*
X110602711Y-110886722D01*
X110575962Y-110893889D01*
X110575956Y-110893892D01*
X110506520Y-110933982D01*
X110504437Y-110935009D01*
X110444863Y-110994583D01*
X110443836Y-110996666D01*
X110403746Y-111066102D01*
X110403742Y-111066110D01*
X110403741Y-111066110D01*
X110398432Y-111085929D01*
X110398432Y-111085930D01*
X110382242Y-111146352D01*
X110382242Y-111229424D01*
X110402634Y-111305528D01*
X110403743Y-111309666D01*
X110403745Y-111309670D01*
X110410403Y-111321202D01*
X110445280Y-111381609D01*
X110504021Y-111440350D01*
X110575964Y-111481887D01*
X110656206Y-111503388D01*
X110656208Y-111503388D01*
X110739276Y-111503388D01*
X110739278Y-111503388D01*
X110819520Y-111481887D01*
X110852261Y-111462982D01*
X110868518Y-111457463D01*
X110875991Y-111456480D01*
X110907359Y-111464337D01*
X110911918Y-111467604D01*
X110922871Y-111478922D01*
X110952193Y-111522807D01*
X110992892Y-111550000D01*
X111002803Y-111556622D01*
X111002806Y-111556622D01*
X111004542Y-111557782D01*
X111008476Y-111559885D01*
X111009203Y-111560371D01*
X111015143Y-111564340D01*
X111033852Y-111592341D01*
X111027281Y-111625370D01*
X111027163Y-111625546D01*
X111027084Y-111625663D01*
X111007460Y-111641690D01*
X111006999Y-111641881D01*
X111002936Y-111643335D01*
X111002807Y-111643373D01*
X110952196Y-111677190D01*
X110952190Y-111677196D01*
X110924416Y-111718764D01*
X110918378Y-111727801D01*
X110917943Y-111729991D01*
X110917941Y-111730001D01*
X110909500Y-111772430D01*
X110909500Y-111927569D01*
X110913275Y-111946543D01*
X110913275Y-111946545D01*
X110913276Y-111946545D01*
X110913276Y-111946546D01*
X110918378Y-111972198D01*
X110918378Y-111972199D01*
X110918379Y-111972200D01*
X110940082Y-112004683D01*
X110940083Y-112004683D01*
X110952191Y-112022805D01*
X110952193Y-112022807D01*
X110993037Y-112050096D01*
X110993038Y-112050098D01*
X111004529Y-112057775D01*
X111008476Y-112059885D01*
X111015142Y-112064339D01*
X111033851Y-112092340D01*
X111027282Y-112125369D01*
X111027163Y-112125546D01*
X111027084Y-112125663D01*
X111007460Y-112141690D01*
X111006999Y-112141881D01*
X111002936Y-112143335D01*
X111002807Y-112143373D01*
X110952196Y-112177190D01*
X110952190Y-112177196D01*
X110928789Y-112212220D01*
X110918378Y-112227801D01*
X110916852Y-112235472D01*
X110909500Y-112272434D01*
X110909500Y-112272437D01*
X110909500Y-112427571D01*
X110911844Y-112439351D01*
X110916602Y-112463270D01*
X110918024Y-112470423D01*
X110918378Y-112472199D01*
X110932584Y-112493460D01*
X110932588Y-112493465D01*
X110952193Y-112522808D01*
X110952194Y-112522809D01*
X110964455Y-112531000D01*
X110964456Y-112531000D01*
X110964457Y-112531001D01*
X111002803Y-112556622D01*
X111002804Y-112556622D01*
X111004534Y-112557778D01*
X111008476Y-112559885D01*
X111015142Y-112564339D01*
X111033851Y-112592340D01*
X111027282Y-112625369D01*
X111027163Y-112625546D01*
X111027084Y-112625663D01*
X111007460Y-112641690D01*
X111006999Y-112641881D01*
X111002936Y-112643335D01*
X111002807Y-112643373D01*
X110952196Y-112677190D01*
X110952190Y-112677196D01*
X110918376Y-112727803D01*
X110917746Y-112729881D01*
X110917532Y-112732055D01*
X110909500Y-112772428D01*
X110909500Y-112772434D01*
X110909500Y-112927566D01*
X110914588Y-112953141D01*
X110914587Y-112953144D01*
X110918376Y-112972193D01*
X110918379Y-112972201D01*
X110931829Y-112992330D01*
X110931833Y-112992335D01*
X110949465Y-113018725D01*
X110952193Y-113022807D01*
X110985733Y-113045217D01*
X110996171Y-113052191D01*
X111002798Y-113056619D01*
X111002801Y-113056621D01*
X111002803Y-113056622D01*
X111047434Y-113065500D01*
X111147826Y-113065500D01*
X111164660Y-113068848D01*
X111165747Y-113069298D01*
X111170847Y-113071410D01*
X111194662Y-113095220D01*
X111194681Y-113095266D01*
X111194878Y-113095743D01*
X111196710Y-113123928D01*
X111196181Y-113125902D01*
X111191790Y-113136507D01*
X111189723Y-113140089D01*
X111187227Y-113144414D01*
X111187136Y-113144571D01*
X111187131Y-113144579D01*
X111167218Y-113179064D01*
X111165719Y-113184661D01*
X111164719Y-113188396D01*
X111164718Y-113188398D01*
X111145717Y-113259310D01*
X111145717Y-113342382D01*
X111163424Y-113408464D01*
X111167218Y-113422624D01*
X111167220Y-113422628D01*
X111175247Y-113436531D01*
X111208755Y-113494567D01*
X111267496Y-113553308D01*
X111339439Y-113594845D01*
X111419681Y-113616346D01*
X111419683Y-113616346D01*
X111502751Y-113616346D01*
X111502753Y-113616346D01*
X111582995Y-113594845D01*
X111654938Y-113553308D01*
X111713679Y-113494567D01*
X111755216Y-113422624D01*
X111776717Y-113342382D01*
X111776717Y-113259310D01*
X111762143Y-113204920D01*
X111766539Y-113171535D01*
X111793256Y-113151034D01*
X111817582Y-113151480D01*
X112212858Y-113273104D01*
X112224364Y-113278574D01*
X112225671Y-113279447D01*
X112225670Y-113279447D01*
X112245531Y-113283398D01*
X112249884Y-113284497D01*
X112262444Y-113288362D01*
X112269316Y-113290199D01*
X112275707Y-113291655D01*
X112280373Y-113292536D01*
X112282705Y-113292977D01*
X112287257Y-113293662D01*
X112289144Y-113293946D01*
X112296233Y-113294744D01*
X112302782Y-113295234D01*
X112304207Y-113295287D01*
X112309895Y-113295500D01*
X112309907Y-113295500D01*
X112447245Y-113295500D01*
X112447247Y-113295500D01*
X112465880Y-113293665D01*
X112477537Y-113291345D01*
X112486122Y-113290500D01*
X112578758Y-113290500D01*
X112578762Y-113290500D01*
X112634329Y-113279447D01*
X112697343Y-113237343D01*
X112739447Y-113174329D01*
X112750500Y-113118762D01*
X112750500Y-112881238D01*
X112739447Y-112825671D01*
X112697343Y-112762657D01*
X112634329Y-112720553D01*
X112634328Y-112720552D01*
X112634327Y-112720552D01*
X112630913Y-112719873D01*
X112602914Y-112701162D01*
X112595500Y-112676719D01*
X112595500Y-112623280D01*
X112608387Y-112592167D01*
X112630915Y-112580126D01*
X112634329Y-112579447D01*
X112697343Y-112537343D01*
X112739447Y-112474329D01*
X112750500Y-112418762D01*
X112750500Y-112181238D01*
X112740639Y-112131663D01*
X112740639Y-112114502D01*
X112741816Y-112108584D01*
X112741946Y-112107929D01*
X112760652Y-112079931D01*
X112763682Y-112077906D01*
X112788114Y-112070500D01*
X113187005Y-112070500D01*
X113203841Y-112073849D01*
X113218782Y-112080037D01*
X113233059Y-112089575D01*
X113280424Y-112136940D01*
X113289961Y-112151214D01*
X113296150Y-112166155D01*
X113299500Y-112182994D01*
X113299500Y-112523695D01*
X113299499Y-112523751D01*
X113299499Y-112524507D01*
X113299499Y-112581954D01*
X113299499Y-112581956D01*
X113299500Y-112581957D01*
X113303419Y-112591417D01*
X113310523Y-112608565D01*
X113310524Y-112608570D01*
X113310525Y-112608570D01*
X113319534Y-112630323D01*
X113320009Y-112631596D01*
X113320079Y-112631705D01*
X113320127Y-112631753D01*
X113320128Y-112631755D01*
X113358245Y-112669872D01*
X113358246Y-112669872D01*
X113490424Y-112802050D01*
X113499961Y-112816324D01*
X113506150Y-112831265D01*
X113509500Y-112848104D01*
X113509500Y-113068762D01*
X113520553Y-113124329D01*
X113562657Y-113187343D01*
X113625671Y-113229447D01*
X113681238Y-113240500D01*
X113681241Y-113240500D01*
X113978758Y-113240500D01*
X113978762Y-113240500D01*
X114034329Y-113229447D01*
X114097343Y-113187343D01*
X114108553Y-113170564D01*
X114120687Y-113158428D01*
X114126261Y-113154704D01*
X114159286Y-113148133D01*
X114159296Y-113148135D01*
X114161220Y-113148518D01*
X114189214Y-113167225D01*
X114195802Y-113177084D01*
X114202657Y-113187343D01*
X114265671Y-113229447D01*
X114321238Y-113240500D01*
X114321241Y-113240500D01*
X114618758Y-113240500D01*
X114618762Y-113240500D01*
X114674329Y-113229447D01*
X114674334Y-113229443D01*
X114678332Y-113227788D01*
X114678337Y-113227800D01*
X114690138Y-113222910D01*
X114696533Y-113221638D01*
X114729559Y-113228212D01*
X114747212Y-113252013D01*
X114748103Y-113254951D01*
X114750000Y-113267729D01*
X114750000Y-114550000D01*
X115693247Y-114550000D01*
X115710082Y-114553348D01*
X115715339Y-114555525D01*
X115716268Y-114555910D01*
X115716271Y-114555911D01*
X115740085Y-114579722D01*
X115740086Y-114579723D01*
X115742650Y-114585912D01*
X115746000Y-114602752D01*
X115746000Y-115298160D01*
X115745946Y-115300338D01*
X115745839Y-115302497D01*
X115745681Y-115304632D01*
X115731367Y-115449958D01*
X115730733Y-115454231D01*
X115729893Y-115458453D01*
X115728844Y-115462639D01*
X115687401Y-115599261D01*
X115685949Y-115603322D01*
X115684301Y-115607302D01*
X115682452Y-115611211D01*
X115615147Y-115737126D01*
X115612934Y-115740819D01*
X115610546Y-115744395D01*
X115607967Y-115747873D01*
X115517388Y-115858244D01*
X115514489Y-115861444D01*
X115511444Y-115864489D01*
X115508244Y-115867388D01*
X115397873Y-115957967D01*
X115394395Y-115960546D01*
X115390819Y-115962934D01*
X115387126Y-115965147D01*
X115261211Y-116032452D01*
X115257305Y-116034299D01*
X115255173Y-116035182D01*
X115253322Y-116035949D01*
X115249261Y-116037401D01*
X115112639Y-116078844D01*
X115108453Y-116079893D01*
X115104231Y-116080733D01*
X115099958Y-116081367D01*
X114954632Y-116095681D01*
X114952497Y-116095839D01*
X114950338Y-116095946D01*
X114948160Y-116096000D01*
X111794066Y-116096000D01*
X111773499Y-116090897D01*
X111545524Y-115970356D01*
X111538001Y-115967834D01*
X111527544Y-115962701D01*
X111524330Y-115960553D01*
X111510437Y-115957789D01*
X111468762Y-115949500D01*
X111468759Y-115949500D01*
X111363973Y-115949500D01*
X111353002Y-115947880D01*
X111352953Y-115948079D01*
X111347498Y-115946719D01*
X111347473Y-115946714D01*
X111328980Y-115943993D01*
X111102338Y-115933094D01*
X111071881Y-115918727D01*
X111070243Y-115916817D01*
X111063918Y-115908998D01*
X111031415Y-115868816D01*
X110943419Y-115760031D01*
X110934473Y-115740943D01*
X110929447Y-115715671D01*
X110927328Y-115712500D01*
X110907011Y-115682093D01*
X110887343Y-115652657D01*
X110887341Y-115652656D01*
X110887341Y-115652655D01*
X110870566Y-115641447D01*
X110858423Y-115629304D01*
X110854702Y-115623734D01*
X110848131Y-115590728D01*
X110848513Y-115588803D01*
X110867206Y-115560797D01*
X110887343Y-115547343D01*
X110929447Y-115484329D01*
X110940500Y-115428762D01*
X110940500Y-115131238D01*
X110932108Y-115089051D01*
X110930842Y-115081360D01*
X110929811Y-115077505D01*
X110929447Y-115075671D01*
X110928843Y-115074767D01*
X110923077Y-115059418D01*
X110905372Y-115023465D01*
X111073975Y-115023465D01*
X111073975Y-115106535D01*
X111088167Y-115159500D01*
X111095476Y-115186778D01*
X111095478Y-115186782D01*
X111104751Y-115202844D01*
X111104754Y-115202848D01*
X111137013Y-115258721D01*
X111195754Y-115317462D01*
X111267697Y-115358999D01*
X111347939Y-115380500D01*
X111347941Y-115380500D01*
X111431009Y-115380500D01*
X111431011Y-115380500D01*
X111511253Y-115358999D01*
X111583196Y-115317462D01*
X111641937Y-115258721D01*
X111683474Y-115186778D01*
X111704975Y-115106536D01*
X111704975Y-115023464D01*
X111683474Y-114943222D01*
X111641937Y-114871279D01*
X111583196Y-114812538D01*
X111583195Y-114812537D01*
X111583194Y-114812536D01*
X111511259Y-114771004D01*
X111511251Y-114771000D01*
X111502883Y-114768758D01*
X111502882Y-114768758D01*
X111431011Y-114749500D01*
X111431009Y-114749500D01*
X111347940Y-114749500D01*
X111347939Y-114749500D01*
X111326738Y-114755181D01*
X111308548Y-114760055D01*
X111267695Y-114771001D01*
X111267689Y-114771004D01*
X111198253Y-114811094D01*
X111196170Y-114812121D01*
X111136596Y-114871695D01*
X111135569Y-114873778D01*
X111095480Y-114943212D01*
X111095454Y-114943263D01*
X111095305Y-114943859D01*
X111087934Y-114971369D01*
X111080695Y-114998387D01*
X111073975Y-115023465D01*
X110905372Y-115023465D01*
X110862410Y-114936223D01*
X110860227Y-114902620D01*
X110865053Y-114892714D01*
X110918646Y-114810747D01*
X110931029Y-114798243D01*
X110947340Y-114787345D01*
X110947339Y-114787345D01*
X110947343Y-114787343D01*
X110989447Y-114724329D01*
X111000500Y-114668762D01*
X111000500Y-114451774D01*
X111700867Y-114451774D01*
X111700867Y-114534846D01*
X111708277Y-114562499D01*
X111719932Y-114605998D01*
X111722216Y-114614520D01*
X111722368Y-114615088D01*
X111722370Y-114615092D01*
X111749218Y-114661592D01*
X111763905Y-114687031D01*
X111763908Y-114687034D01*
X111822641Y-114745768D01*
X111822644Y-114745770D01*
X111822646Y-114745772D01*
X111894589Y-114787309D01*
X111974831Y-114808810D01*
X111974833Y-114808810D01*
X112057901Y-114808810D01*
X112057902Y-114808810D01*
X112057903Y-114808810D01*
X112070700Y-114805380D01*
X112087822Y-114804257D01*
X112094468Y-114805131D01*
X112123628Y-114821963D01*
X112125402Y-114824274D01*
X112134500Y-114851066D01*
X112134500Y-115452422D01*
X112135231Y-115458718D01*
X112135231Y-115458720D01*
X112137499Y-115478282D01*
X112137545Y-115478437D01*
X112137924Y-115479241D01*
X112173140Y-115558998D01*
X112182633Y-115580496D01*
X112182633Y-115580499D01*
X112184198Y-115584043D01*
X112184199Y-115584044D01*
X112184200Y-115584046D01*
X112265954Y-115665800D01*
X112316077Y-115687931D01*
X112370758Y-115712075D01*
X112371219Y-115712292D01*
X112371692Y-115712487D01*
X112371716Y-115712498D01*
X112371718Y-115712499D01*
X112371721Y-115712500D01*
X112397578Y-115715500D01*
X112397582Y-115715500D01*
X112927418Y-115715500D01*
X112927422Y-115715500D01*
X112953279Y-115712500D01*
X113059046Y-115665800D01*
X113140800Y-115584046D01*
X113187500Y-115478279D01*
X113190500Y-115452422D01*
X113190500Y-115343308D01*
X113191345Y-115334726D01*
X113193411Y-115324337D01*
X113194065Y-115321531D01*
X113194206Y-115321004D01*
X113215500Y-115241536D01*
X113215500Y-115158464D01*
X113194054Y-115078429D01*
X113193406Y-115075644D01*
X113191344Y-115065266D01*
X113190500Y-115056691D01*
X113190500Y-114859460D01*
X113190500Y-114858464D01*
X113634500Y-114858464D01*
X113634500Y-114941536D01*
X113647663Y-114990659D01*
X113656001Y-115021778D01*
X113656003Y-115021782D01*
X113694177Y-115087901D01*
X113696722Y-115093062D01*
X113706150Y-115115822D01*
X113709500Y-115132661D01*
X113709500Y-115452422D01*
X113710231Y-115458718D01*
X113710231Y-115458720D01*
X113712499Y-115478282D01*
X113712545Y-115478437D01*
X113712924Y-115479241D01*
X113748140Y-115558998D01*
X113757633Y-115580496D01*
X113757633Y-115580499D01*
X113759198Y-115584043D01*
X113759199Y-115584044D01*
X113759200Y-115584046D01*
X113840954Y-115665800D01*
X113891077Y-115687931D01*
X113945758Y-115712075D01*
X113946219Y-115712292D01*
X113946692Y-115712487D01*
X113946716Y-115712498D01*
X113946718Y-115712499D01*
X113946721Y-115712500D01*
X113972578Y-115715500D01*
X113972582Y-115715500D01*
X114502418Y-115715500D01*
X114502422Y-115715500D01*
X114528279Y-115712500D01*
X114588332Y-115685982D01*
X114605084Y-115682248D01*
X114611783Y-115682093D01*
X114643182Y-115694260D01*
X114646159Y-115697103D01*
X114658271Y-115717532D01*
X114663429Y-115736777D01*
X114663433Y-115736784D01*
X114676855Y-115760031D01*
X114691121Y-115784740D01*
X114704967Y-115808721D01*
X114763708Y-115867462D01*
X114835651Y-115908999D01*
X114915893Y-115930500D01*
X114915895Y-115930500D01*
X114998963Y-115930500D01*
X114998965Y-115930500D01*
X115079207Y-115908999D01*
X115151150Y-115867462D01*
X115209891Y-115808721D01*
X115251428Y-115736778D01*
X115272929Y-115656536D01*
X115272929Y-115573464D01*
X115251428Y-115493222D01*
X115209891Y-115421279D01*
X115151150Y-115362538D01*
X115151149Y-115362537D01*
X115151148Y-115362536D01*
X115079213Y-115321004D01*
X115079207Y-115321001D01*
X115065999Y-115317462D01*
X115052459Y-115313834D01*
X114998965Y-115299500D01*
X114998964Y-115299500D01*
X114915895Y-115299500D01*
X114915893Y-115299500D01*
X114862398Y-115313834D01*
X114835647Y-115321001D01*
X114833570Y-115321790D01*
X114833413Y-115321378D01*
X114823299Y-115324477D01*
X114816179Y-115325414D01*
X114783651Y-115316696D01*
X114783644Y-115316691D01*
X114783235Y-115316377D01*
X114767525Y-115292850D01*
X114766994Y-115290871D01*
X114765500Y-115279499D01*
X114765500Y-114847581D01*
X114765500Y-114847578D01*
X114762500Y-114821721D01*
X114758445Y-114812538D01*
X114747320Y-114787341D01*
X114715800Y-114715954D01*
X114634046Y-114634200D01*
X114599082Y-114618762D01*
X114529241Y-114587924D01*
X114528437Y-114587545D01*
X114528282Y-114587499D01*
X114519662Y-114586500D01*
X114519661Y-114586499D01*
X114519661Y-114586500D01*
X114513914Y-114585833D01*
X114502422Y-114584500D01*
X114502420Y-114584500D01*
X113908466Y-114584500D01*
X113908464Y-114584500D01*
X113854969Y-114598834D01*
X113828220Y-114606001D01*
X113828214Y-114606004D01*
X113758778Y-114646094D01*
X113756695Y-114647121D01*
X113697121Y-114706695D01*
X113696094Y-114708778D01*
X113656004Y-114778214D01*
X113656000Y-114778221D01*
X113650636Y-114798243D01*
X113648153Y-114807510D01*
X113634500Y-114858464D01*
X113190500Y-114858464D01*
X113190500Y-114847581D01*
X113190500Y-114847578D01*
X113187500Y-114821721D01*
X113183445Y-114812538D01*
X113172320Y-114787341D01*
X113140800Y-114715954D01*
X113059046Y-114634200D01*
X113024082Y-114618762D01*
X112954241Y-114587924D01*
X112953437Y-114587545D01*
X112953282Y-114587499D01*
X112944662Y-114586500D01*
X112944661Y-114586499D01*
X112944661Y-114586500D01*
X112938914Y-114585833D01*
X112927422Y-114584500D01*
X112927420Y-114584500D01*
X112894170Y-114584500D01*
X112877332Y-114581151D01*
X112872955Y-114579338D01*
X112849142Y-114555525D01*
X112849140Y-114521854D01*
X112850953Y-114517475D01*
X112860494Y-114503197D01*
X112869191Y-114494500D01*
X112883469Y-114480222D01*
X112899971Y-114463720D01*
X112941508Y-114391777D01*
X112963009Y-114311535D01*
X112963009Y-114228463D01*
X112941508Y-114148221D01*
X112899971Y-114076278D01*
X112841230Y-114017537D01*
X112841229Y-114017536D01*
X112841228Y-114017535D01*
X112769293Y-113976003D01*
X112769285Y-113975999D01*
X112769287Y-113975999D01*
X112717041Y-113962000D01*
X112689045Y-113954499D01*
X112689043Y-113954499D01*
X112605975Y-113954499D01*
X112605973Y-113954499D01*
X112554299Y-113968345D01*
X112552478Y-113968833D01*
X112525729Y-113976000D01*
X112525723Y-113976003D01*
X112456287Y-114016093D01*
X112454204Y-114017120D01*
X112394630Y-114076694D01*
X112393603Y-114078777D01*
X112353513Y-114148213D01*
X112353510Y-114148219D01*
X112348582Y-114166613D01*
X112345129Y-114179499D01*
X112338924Y-114202660D01*
X112336143Y-114213039D01*
X112336142Y-114213042D01*
X112332009Y-114228463D01*
X112332009Y-114247790D01*
X112328658Y-114264631D01*
X112326845Y-114269007D01*
X112303031Y-114292818D01*
X112269363Y-114292819D01*
X112264987Y-114291007D01*
X112250707Y-114281467D01*
X112210086Y-114240846D01*
X112138151Y-114199314D01*
X112138145Y-114199311D01*
X112128878Y-114196828D01*
X112108796Y-114191447D01*
X112057903Y-114177810D01*
X112057902Y-114177810D01*
X111974833Y-114177810D01*
X111974831Y-114177810D01*
X111932275Y-114189213D01*
X111921336Y-114192144D01*
X111894587Y-114199311D01*
X111894581Y-114199314D01*
X111825145Y-114239404D01*
X111823062Y-114240431D01*
X111763488Y-114300005D01*
X111762461Y-114302088D01*
X111722372Y-114371522D01*
X111722346Y-114371573D01*
X111722197Y-114372169D01*
X111720702Y-114377749D01*
X111700867Y-114451774D01*
X111000500Y-114451774D01*
X111000500Y-114431238D01*
X110989447Y-114375671D01*
X110986842Y-114371772D01*
X110981265Y-114359911D01*
X110979642Y-114354473D01*
X110979641Y-114354471D01*
X110979640Y-114354468D01*
X110859103Y-114126500D01*
X110854000Y-114105933D01*
X110854000Y-114042643D01*
X110857349Y-114025806D01*
X110862103Y-114014327D01*
X110862860Y-114012499D01*
X110870060Y-114002120D01*
X110869967Y-114002058D01*
X110885532Y-113978762D01*
X110906622Y-113947197D01*
X110915500Y-113902566D01*
X110915500Y-113197434D01*
X110906622Y-113152803D01*
X110905516Y-113151148D01*
X110887597Y-113124329D01*
X110872807Y-113102193D01*
X110866696Y-113098110D01*
X110839569Y-113079985D01*
X110835790Y-113077460D01*
X110822198Y-113068378D01*
X110813270Y-113066602D01*
X110777571Y-113059500D01*
X110777566Y-113059500D01*
X110622434Y-113059500D01*
X110596062Y-113064746D01*
X110592271Y-113065500D01*
X110577799Y-113068378D01*
X110527196Y-113102190D01*
X110527190Y-113102196D01*
X110490592Y-113156970D01*
X110489315Y-113159671D01*
X110485664Y-113165137D01*
X110485663Y-113165138D01*
X110457664Y-113183851D01*
X110424636Y-113177285D01*
X110424453Y-113177163D01*
X110424336Y-113177084D01*
X110408318Y-113157481D01*
X110408116Y-113156994D01*
X110406657Y-113152919D01*
X110406622Y-113152804D01*
X110406622Y-113152803D01*
X110387597Y-113124329D01*
X110372807Y-113102193D01*
X110366696Y-113098110D01*
X110339569Y-113079985D01*
X110335790Y-113077460D01*
X110322198Y-113068378D01*
X110313270Y-113066602D01*
X110277571Y-113059500D01*
X110277566Y-113059500D01*
X110122434Y-113059500D01*
X110096062Y-113064746D01*
X110092271Y-113065500D01*
X110077799Y-113068378D01*
X110027196Y-113102190D01*
X110027190Y-113102196D01*
X109990592Y-113156970D01*
X109989315Y-113159671D01*
X109985664Y-113165137D01*
X109985663Y-113165138D01*
X109957664Y-113183851D01*
X109924636Y-113177285D01*
X109924453Y-113177163D01*
X109924336Y-113177084D01*
X109908318Y-113157481D01*
X109908116Y-113156994D01*
X109906657Y-113152919D01*
X109906622Y-113152804D01*
X109906622Y-113152803D01*
X109887597Y-113124329D01*
X109872807Y-113102193D01*
X109866696Y-113098110D01*
X109839569Y-113079985D01*
X109835790Y-113077460D01*
X109822198Y-113068378D01*
X109813270Y-113066602D01*
X109777571Y-113059500D01*
X109777566Y-113059500D01*
X109622434Y-113059500D01*
X109596062Y-113064746D01*
X109592271Y-113065500D01*
X109577799Y-113068378D01*
X109527196Y-113102190D01*
X109527190Y-113102196D01*
X109490592Y-113156970D01*
X109489315Y-113159671D01*
X109485664Y-113165137D01*
X109485663Y-113165138D01*
X109457664Y-113183851D01*
X109424636Y-113177285D01*
X109424453Y-113177163D01*
X109424336Y-113177084D01*
X109408322Y-113157490D01*
X109408251Y-113157319D01*
X109407154Y-113154003D01*
X109406622Y-113152802D01*
X109405739Y-113151481D01*
X109386186Y-113122217D01*
X109379618Y-113106360D01*
X109377826Y-113097350D01*
X109382176Y-113068029D01*
X109383720Y-113065139D01*
X109391409Y-113054772D01*
X109427462Y-113018721D01*
X109468999Y-112946778D01*
X109490500Y-112866536D01*
X109490500Y-112783464D01*
X109468999Y-112703222D01*
X109427462Y-112631279D01*
X109368721Y-112572538D01*
X109368720Y-112572537D01*
X109368719Y-112572536D01*
X109296784Y-112531004D01*
X109296776Y-112531000D01*
X109290979Y-112529447D01*
X109290978Y-112529446D01*
X109290978Y-112529447D01*
X109216536Y-112509500D01*
X109216535Y-112509500D01*
X109133465Y-112509500D01*
X109133464Y-112509500D01*
X109088042Y-112521671D01*
X109053220Y-112531001D01*
X109053214Y-112531004D01*
X108983778Y-112571094D01*
X108981695Y-112572121D01*
X108922121Y-112631695D01*
X108921094Y-112633778D01*
X108881004Y-112703214D01*
X108881000Y-112703221D01*
X108878426Y-112712829D01*
X108875345Y-112724329D01*
X108859500Y-112783464D01*
X108859500Y-112866536D01*
X108870828Y-112908813D01*
X108875852Y-112927562D01*
X108881000Y-112946777D01*
X108881004Y-112946784D01*
X108922529Y-113018707D01*
X108922535Y-113018717D01*
X108922537Y-113018719D01*
X108922540Y-113018724D01*
X108922542Y-113018726D01*
X108960437Y-113056620D01*
X108960437Y-113056621D01*
X108971846Y-113068029D01*
X108981279Y-113077462D01*
X108981281Y-113077463D01*
X108982601Y-113078476D01*
X108990727Y-113086602D01*
X108995058Y-113092247D01*
X109003773Y-113124771D01*
X109003068Y-113130128D01*
X108996030Y-113148829D01*
X108992701Y-113153811D01*
X108990234Y-113158294D01*
X108985663Y-113165137D01*
X108957665Y-113183850D01*
X108924635Y-113177285D01*
X108924453Y-113177163D01*
X108924336Y-113177084D01*
X108908318Y-113157481D01*
X108908116Y-113156994D01*
X108906657Y-113152919D01*
X108906622Y-113152804D01*
X108906622Y-113152803D01*
X108887597Y-113124329D01*
X108872807Y-113102193D01*
X108866696Y-113098110D01*
X108839569Y-113079985D01*
X108835790Y-113077460D01*
X108822198Y-113068378D01*
X108813270Y-113066602D01*
X108777571Y-113059500D01*
X108777566Y-113059500D01*
X108622434Y-113059500D01*
X108596062Y-113064746D01*
X108592271Y-113065500D01*
X108577799Y-113068378D01*
X108527196Y-113102190D01*
X108527190Y-113102196D01*
X108490592Y-113156970D01*
X108489315Y-113159671D01*
X108485664Y-113165137D01*
X108485663Y-113165138D01*
X108457664Y-113183851D01*
X108424636Y-113177285D01*
X108424453Y-113177163D01*
X108424336Y-113177084D01*
X108408318Y-113157481D01*
X108408116Y-113156994D01*
X108406657Y-113152919D01*
X108406622Y-113152804D01*
X108406622Y-113152803D01*
X108387597Y-113124329D01*
X108372807Y-113102193D01*
X108366696Y-113098110D01*
X108339569Y-113079985D01*
X108335790Y-113077460D01*
X108322198Y-113068378D01*
X108313270Y-113066602D01*
X108277571Y-113059500D01*
X108277566Y-113059500D01*
X108122434Y-113059500D01*
X108096062Y-113064746D01*
X108092271Y-113065500D01*
X108077799Y-113068378D01*
X108027196Y-113102190D01*
X108027190Y-113102196D01*
X107990592Y-113156970D01*
X107989315Y-113159671D01*
X107985664Y-113165137D01*
X107985663Y-113165138D01*
X107957664Y-113183851D01*
X107924636Y-113177285D01*
X107924453Y-113177163D01*
X107924336Y-113177084D01*
X107908318Y-113157481D01*
X107908116Y-113156994D01*
X107906657Y-113152919D01*
X107906622Y-113152804D01*
X107906622Y-113152803D01*
X107887597Y-113124329D01*
X107872807Y-113102193D01*
X107866696Y-113098110D01*
X107839569Y-113079985D01*
X107835790Y-113077460D01*
X107822198Y-113068378D01*
X107813270Y-113066602D01*
X107777571Y-113059500D01*
X107777566Y-113059500D01*
X107622434Y-113059500D01*
X107596062Y-113064746D01*
X107592271Y-113065500D01*
X107577799Y-113068378D01*
X107527196Y-113102190D01*
X107527190Y-113102196D01*
X107500324Y-113142406D01*
X107497615Y-113144414D01*
X107489846Y-113156027D01*
X107485494Y-113162530D01*
X107457484Y-113181224D01*
X107424459Y-113174635D01*
X107412343Y-113162513D01*
X107410888Y-113160336D01*
X107409030Y-113156407D01*
X107405514Y-113151145D01*
X107372807Y-113102193D01*
X107366696Y-113098110D01*
X107339569Y-113079985D01*
X107335790Y-113077460D01*
X107322198Y-113068378D01*
X107313270Y-113066602D01*
X107277571Y-113059500D01*
X107277566Y-113059500D01*
X107277562Y-113059500D01*
X107230154Y-113059500D01*
X107224408Y-113059123D01*
X107207809Y-113056936D01*
X107204415Y-113058104D01*
X107158253Y-113058104D01*
X107141415Y-113054755D01*
X107135225Y-113052191D01*
X107111412Y-113028378D01*
X107111411Y-113028375D01*
X107108848Y-113022186D01*
X107105500Y-113005351D01*
X107105500Y-112953144D01*
X107103796Y-112946784D01*
X107083999Y-112872901D01*
X107042462Y-112800958D01*
X106998731Y-112757227D01*
X106991039Y-112746854D01*
X106985151Y-112735836D01*
X106983669Y-112731650D01*
X106983282Y-112731811D01*
X106981622Y-112727805D01*
X106981622Y-112727803D01*
X106947807Y-112677193D01*
X106921422Y-112659564D01*
X106897198Y-112643378D01*
X106895468Y-112642222D01*
X106891516Y-112640110D01*
X106884856Y-112635660D01*
X106866147Y-112607659D01*
X106872718Y-112574630D01*
X106894058Y-112560371D01*
X106893193Y-112558280D01*
X106897192Y-112556622D01*
X106897197Y-112556622D01*
X106947807Y-112522807D01*
X106981622Y-112472197D01*
X106990500Y-112427566D01*
X106990500Y-112272434D01*
X106981622Y-112227803D01*
X106980340Y-112225885D01*
X106980336Y-112225878D01*
X106966570Y-112205275D01*
X106947809Y-112177196D01*
X106947807Y-112177193D01*
X106945412Y-112175593D01*
X106916112Y-112156016D01*
X106895468Y-112142222D01*
X106891516Y-112140110D01*
X106884856Y-112135660D01*
X106866147Y-112107659D01*
X106872718Y-112074630D01*
X106894058Y-112060371D01*
X106893193Y-112058280D01*
X106897192Y-112056622D01*
X106897197Y-112056622D01*
X106947807Y-112022807D01*
X106981622Y-111972197D01*
X106990500Y-111927566D01*
X106990500Y-111876663D01*
X106993847Y-111859830D01*
X106995660Y-111855452D01*
X107019469Y-111831638D01*
X107053145Y-111831634D01*
X107053155Y-111831638D01*
X107057522Y-111833446D01*
X107071801Y-111842986D01*
X107091277Y-111862462D01*
X107163220Y-111903999D01*
X107243462Y-111925500D01*
X107243464Y-111925500D01*
X107326532Y-111925500D01*
X107326534Y-111925500D01*
X107406776Y-111903999D01*
X107478719Y-111862462D01*
X107537460Y-111803721D01*
X107578997Y-111731778D01*
X107600498Y-111651536D01*
X107600498Y-111568464D01*
X107578997Y-111488222D01*
X107537460Y-111416279D01*
X107478719Y-111357538D01*
X107478718Y-111357537D01*
X107443559Y-111337238D01*
X107430653Y-111325919D01*
X107426576Y-111320606D01*
X107417858Y-111288088D01*
X107418246Y-111285135D01*
X107430760Y-111259753D01*
X107440205Y-111250309D01*
X107481742Y-111178366D01*
X107503243Y-111098124D01*
X107503243Y-111015052D01*
X107481742Y-110934810D01*
X107480566Y-110932774D01*
X107466970Y-110909225D01*
X107443224Y-110868096D01*
X107440684Y-110862944D01*
X107439400Y-110859845D01*
X107439401Y-110859845D01*
X107435056Y-110849354D01*
X107435056Y-110815681D01*
X107436199Y-110812923D01*
X107454846Y-110791663D01*
X107478719Y-110777881D01*
X107537460Y-110719140D01*
X107578997Y-110647197D01*
X107600498Y-110566955D01*
X107600498Y-110483883D01*
X107578997Y-110403641D01*
X107537460Y-110331698D01*
X107478719Y-110272957D01*
X107478718Y-110272956D01*
X107478717Y-110272955D01*
X107478711Y-110272951D01*
X107471142Y-110268581D01*
X107467727Y-110266610D01*
X107454822Y-110255292D01*
X107450741Y-110249973D01*
X107442028Y-110217448D01*
X107442418Y-110214488D01*
X107454934Y-110189120D01*
X107459220Y-110184836D01*
X107500757Y-110112893D01*
X107522258Y-110032651D01*
X107522258Y-109949579D01*
X107500757Y-109869337D01*
X107466514Y-109810027D01*
X107460996Y-109793768D01*
X107460378Y-109789070D01*
X107469097Y-109756542D01*
X107498251Y-109739709D01*
X107502951Y-109739090D01*
X107520075Y-109740211D01*
X107558464Y-109750498D01*
X107558467Y-109750498D01*
X107641534Y-109750498D01*
X107641536Y-109750498D01*
X107721778Y-109728997D01*
X107793721Y-109687460D01*
X107837700Y-109643481D01*
X107851968Y-109633946D01*
X107858161Y-109631380D01*
X107891836Y-109631380D01*
X107898024Y-109633943D01*
X107912300Y-109643481D01*
X107956279Y-109687460D01*
X108028222Y-109728997D01*
X108108464Y-109750498D01*
X108108466Y-109750498D01*
X108191534Y-109750498D01*
X108191536Y-109750498D01*
X108271778Y-109728997D01*
X108343721Y-109687460D01*
X108402462Y-109628719D01*
X108443999Y-109556776D01*
X108465500Y-109476534D01*
X108465500Y-109393462D01*
X108443999Y-109313220D01*
X108402462Y-109241277D01*
X108348678Y-109187493D01*
X108339140Y-109173217D01*
X108336577Y-109167029D01*
X108336576Y-109133356D01*
X108337283Y-109131650D01*
X108337964Y-109130005D01*
X108354173Y-109110257D01*
X108372804Y-109097809D01*
X108372803Y-109097809D01*
X108372807Y-109097807D01*
X108406622Y-109047197D01*
X108406622Y-109047196D01*
X108407787Y-109045453D01*
X108409896Y-109041505D01*
X108414342Y-109034852D01*
X108442344Y-109016146D01*
X108450924Y-109015301D01*
X108450925Y-109015301D01*
X108482038Y-109028188D01*
G37*
%TD.AperFunction*%
%TA.AperFunction,Conductor*%
G36*
X105107180Y-113246058D02*
G01*
X105113369Y-113248621D01*
X105137183Y-113272432D01*
X105137190Y-113272447D01*
X105137387Y-113272923D01*
X105139232Y-113301137D01*
X105138702Y-113303115D01*
X105134305Y-113313728D01*
X105116002Y-113345426D01*
X105116001Y-113345429D01*
X105116001Y-113345430D01*
X105116001Y-113345431D01*
X105107489Y-113377198D01*
X105097989Y-113412657D01*
X105095320Y-113422617D01*
X105095318Y-113422623D01*
X105094500Y-113425671D01*
X105094500Y-113453675D01*
X105091150Y-113470514D01*
X105084960Y-113485457D01*
X105075422Y-113499731D01*
X105009201Y-113565950D01*
X104962924Y-113670757D01*
X104962528Y-113671597D01*
X104962305Y-113672542D01*
X104962207Y-113674245D01*
X104959500Y-113697578D01*
X104959500Y-114302422D01*
X104959975Y-114306516D01*
X104960688Y-114312661D01*
X104960688Y-114312662D01*
X104962499Y-114328278D01*
X104962547Y-114328441D01*
X104962927Y-114329248D01*
X104990538Y-114391781D01*
X105009200Y-114434046D01*
X105090954Y-114515800D01*
X105168046Y-114549839D01*
X105195749Y-114562071D01*
X105196217Y-114562291D01*
X105196692Y-114562487D01*
X105196716Y-114562498D01*
X105196718Y-114562499D01*
X105196721Y-114562500D01*
X105222578Y-114565500D01*
X105222582Y-114565500D01*
X105742785Y-114565500D01*
X105759618Y-114568847D01*
X105761772Y-114569739D01*
X105763994Y-114570659D01*
X105770186Y-114576849D01*
X105773898Y-114578387D01*
X105775434Y-114582096D01*
X105787810Y-114594469D01*
X105787814Y-114628145D01*
X105786002Y-114632521D01*
X105776462Y-114646801D01*
X105727839Y-114695424D01*
X105713565Y-114704961D01*
X105698624Y-114711150D01*
X105681785Y-114714500D01*
X102348948Y-114714500D01*
X102332107Y-114711149D01*
X102327871Y-114709394D01*
X102304060Y-114685580D01*
X102304063Y-114651904D01*
X102320267Y-114632160D01*
X102324327Y-114629447D01*
X102324329Y-114629447D01*
X102387343Y-114587343D01*
X102429447Y-114524329D01*
X102432839Y-114507272D01*
X102437190Y-114495115D01*
X102443078Y-114484101D01*
X102450769Y-114473732D01*
X102474001Y-114450500D01*
X102505781Y-114418720D01*
X102547318Y-114346777D01*
X102568819Y-114266535D01*
X102568819Y-114183463D01*
X102547318Y-114103221D01*
X102505781Y-114031278D01*
X102447040Y-113972537D01*
X102447039Y-113972536D01*
X102440073Y-113968514D01*
X102438794Y-113966847D01*
X102436745Y-113966388D01*
X102427165Y-113957192D01*
X102423089Y-113951879D01*
X102420823Y-113943424D01*
X102419574Y-113941796D01*
X102419841Y-113939761D01*
X102414375Y-113919358D01*
X102415080Y-113913999D01*
X102422120Y-113895292D01*
X102429447Y-113884329D01*
X102429448Y-113884324D01*
X102434387Y-113859493D01*
X102440952Y-113843644D01*
X102446059Y-113836001D01*
X102469871Y-113818345D01*
X102473007Y-113817394D01*
X102485776Y-113815500D01*
X102511999Y-113815500D01*
X102528836Y-113818849D01*
X102537318Y-113822362D01*
X102559286Y-113842272D01*
X102560828Y-113845157D01*
X102565177Y-113857313D01*
X102570549Y-113884319D01*
X102570551Y-113884324D01*
X102570553Y-113884329D01*
X102612657Y-113947343D01*
X102675671Y-113989447D01*
X102731238Y-114000500D01*
X102731241Y-114000500D01*
X102968758Y-114000500D01*
X102968762Y-114000500D01*
X103024329Y-113989447D01*
X103087343Y-113947343D01*
X103129447Y-113884329D01*
X103140500Y-113828762D01*
X103140500Y-113697578D01*
X103384500Y-113697578D01*
X103384500Y-114302422D01*
X103384975Y-114306516D01*
X103385688Y-114312661D01*
X103385688Y-114312662D01*
X103387499Y-114328278D01*
X103387547Y-114328441D01*
X103387927Y-114329248D01*
X103415538Y-114391781D01*
X103434200Y-114434046D01*
X103515954Y-114515800D01*
X103593046Y-114549839D01*
X103620749Y-114562071D01*
X103621217Y-114562291D01*
X103621692Y-114562487D01*
X103621716Y-114562498D01*
X103621718Y-114562499D01*
X103621721Y-114562500D01*
X103647578Y-114565500D01*
X103647582Y-114565500D01*
X104177418Y-114565500D01*
X104177422Y-114565500D01*
X104203279Y-114562500D01*
X104309046Y-114515800D01*
X104390800Y-114434046D01*
X104429331Y-114346781D01*
X104437499Y-114328282D01*
X104437499Y-114328281D01*
X104437500Y-114328279D01*
X104440500Y-114302422D01*
X104440500Y-113697578D01*
X104437500Y-113671721D01*
X104437074Y-113670757D01*
X104410460Y-113610480D01*
X104390800Y-113565954D01*
X104309046Y-113484200D01*
X104309044Y-113484199D01*
X104309043Y-113484198D01*
X104305498Y-113482633D01*
X104305497Y-113482633D01*
X104204241Y-113437924D01*
X104203437Y-113437545D01*
X104203282Y-113437499D01*
X104194662Y-113436500D01*
X104194661Y-113436499D01*
X104194661Y-113436500D01*
X104188914Y-113435833D01*
X104177422Y-113434500D01*
X104177420Y-113434500D01*
X103647580Y-113434500D01*
X103647578Y-113434500D01*
X103644508Y-113434856D01*
X103632803Y-113436213D01*
X103632802Y-113436214D01*
X103625412Y-113437071D01*
X103621717Y-113437500D01*
X103621552Y-113437549D01*
X103620757Y-113437924D01*
X103515952Y-113484200D01*
X103434200Y-113565952D01*
X103387924Y-113670757D01*
X103387528Y-113671597D01*
X103387305Y-113672542D01*
X103387207Y-113674245D01*
X103384500Y-113697578D01*
X103140500Y-113697578D01*
X103140500Y-113628104D01*
X103143849Y-113611268D01*
X103150037Y-113596327D01*
X103159572Y-113582053D01*
X103479843Y-113261782D01*
X103494115Y-113252247D01*
X103502871Y-113248621D01*
X103509060Y-113246058D01*
X103525895Y-113242710D01*
X105090345Y-113242710D01*
X105107180Y-113246058D01*
G37*
%TD.AperFunction*%
%TA.AperFunction,Conductor*%
G36*
X114068731Y-109453849D02*
G01*
X114083672Y-109460037D01*
X114097949Y-109469575D01*
X114130424Y-109502050D01*
X114139961Y-109516324D01*
X114146150Y-109531265D01*
X114149500Y-109548104D01*
X114149500Y-109768762D01*
X114160553Y-109824329D01*
X114202657Y-109887343D01*
X114239458Y-109911932D01*
X114251592Y-109924065D01*
X114254226Y-109928007D01*
X114260798Y-109961034D01*
X114242091Y-109989036D01*
X114242082Y-109989042D01*
X114238143Y-109991673D01*
X114222298Y-109998236D01*
X114218954Y-109998902D01*
X114216772Y-109999117D01*
X114214691Y-109999748D01*
X114184756Y-110019750D01*
X114184748Y-110019758D01*
X114164749Y-110049690D01*
X114164119Y-110051767D01*
X114163906Y-110053936D01*
X114159500Y-110076088D01*
X114159500Y-110773910D01*
X114159501Y-110773915D01*
X114163905Y-110796060D01*
X114164118Y-110798229D01*
X114164749Y-110800309D01*
X114167301Y-110804128D01*
X114167300Y-110804128D01*
X114184749Y-110830242D01*
X114184750Y-110830243D01*
X114184753Y-110830247D01*
X114214689Y-110850249D01*
X114241087Y-110855500D01*
X114697247Y-110855499D01*
X114714082Y-110858847D01*
X114720271Y-110861410D01*
X114744085Y-110885221D01*
X114744086Y-110885222D01*
X114746650Y-110891411D01*
X114750000Y-110908251D01*
X114750000Y-112038291D01*
X114748500Y-112049682D01*
X114745603Y-112060491D01*
X114741208Y-112071100D01*
X114722857Y-112102885D01*
X114722854Y-112102891D01*
X114716784Y-112125546D01*
X114715259Y-112131238D01*
X114701353Y-112183135D01*
X114701353Y-112266207D01*
X114714607Y-112315670D01*
X114722853Y-112346446D01*
X114722856Y-112346453D01*
X114741209Y-112378241D01*
X114745603Y-112388848D01*
X114748500Y-112399660D01*
X114750000Y-112411046D01*
X114750000Y-112630043D01*
X114746649Y-112646885D01*
X114744156Y-112652902D01*
X114720341Y-112676712D01*
X114690735Y-112678165D01*
X114687801Y-112677275D01*
X114676126Y-112671753D01*
X114674339Y-112670559D01*
X114674334Y-112670556D01*
X114674331Y-112670554D01*
X114674329Y-112670553D01*
X114674328Y-112670552D01*
X114674327Y-112670552D01*
X114661852Y-112668070D01*
X114661852Y-112668071D01*
X114644733Y-112664666D01*
X114618762Y-112659500D01*
X114618760Y-112659500D01*
X114398105Y-112659500D01*
X114381267Y-112656151D01*
X114366325Y-112649962D01*
X114352050Y-112640424D01*
X114161685Y-112450059D01*
X114152147Y-112435784D01*
X114147134Y-112423682D01*
X114144632Y-112398261D01*
X114150499Y-112368767D01*
X114150500Y-112368759D01*
X114150500Y-112131241D01*
X114150500Y-112131238D01*
X114139447Y-112075671D01*
X114097343Y-112012657D01*
X114097263Y-112012604D01*
X114087704Y-112006216D01*
X114075568Y-111994081D01*
X114071951Y-111988669D01*
X114065378Y-111955641D01*
X114080619Y-111930208D01*
X114082423Y-111928729D01*
X114082422Y-111928727D01*
X114090931Y-111921746D01*
X114094377Y-111919190D01*
X114115247Y-111905247D01*
X114135249Y-111875311D01*
X114140500Y-111848913D01*
X114140499Y-111151088D01*
X114135249Y-111124689D01*
X114115247Y-111094753D01*
X114104539Y-111087598D01*
X114104538Y-111087597D01*
X114104538Y-111087598D01*
X114085311Y-111074751D01*
X114083783Y-111074447D01*
X114058913Y-111069500D01*
X114058910Y-111069500D01*
X113491088Y-111069500D01*
X113491083Y-111069501D01*
X113468939Y-111073905D01*
X113466767Y-111074118D01*
X113464691Y-111074748D01*
X113434756Y-111094750D01*
X113434748Y-111094758D01*
X113414749Y-111124690D01*
X113414119Y-111126767D01*
X113413906Y-111128936D01*
X113411845Y-111139297D01*
X113409501Y-111151085D01*
X113409500Y-111151088D01*
X113409500Y-111771469D01*
X113406150Y-111788309D01*
X113403586Y-111794498D01*
X113379783Y-111818305D01*
X113377971Y-111819056D01*
X113344294Y-111819063D01*
X113344285Y-111819059D01*
X113324039Y-111810672D01*
X113324032Y-111810670D01*
X113298511Y-111800098D01*
X113297342Y-111799564D01*
X113297064Y-111799499D01*
X113297063Y-111799499D01*
X113243157Y-111799499D01*
X113238038Y-111799499D01*
X113236686Y-111799499D01*
X113236654Y-111799500D01*
X112796807Y-111799500D01*
X112779969Y-111796151D01*
X112773779Y-111793587D01*
X112749968Y-111769778D01*
X112748580Y-111766428D01*
X112746075Y-111741003D01*
X112750500Y-111718762D01*
X112750500Y-111481238D01*
X112739447Y-111425671D01*
X112697343Y-111362657D01*
X112697341Y-111362655D01*
X112697340Y-111362654D01*
X112697323Y-111362643D01*
X112697192Y-111362512D01*
X112696593Y-111362042D01*
X112695667Y-111361282D01*
X112695800Y-111361119D01*
X112685191Y-111350507D01*
X112677914Y-111339615D01*
X112670500Y-111315172D01*
X112670500Y-111187549D01*
X112673849Y-111170712D01*
X112678859Y-111158616D01*
X112694057Y-111142301D01*
X112693035Y-111141143D01*
X112695127Y-111139297D01*
X112699794Y-111135704D01*
X112705905Y-111131620D01*
X112706680Y-111123749D01*
X112708889Y-111120062D01*
X112739447Y-111074329D01*
X112750500Y-111018762D01*
X112750500Y-110965056D01*
X112751999Y-110953671D01*
X112754894Y-110942864D01*
X112759290Y-110932249D01*
X112770605Y-110912654D01*
X112773997Y-110906780D01*
X112773998Y-110906777D01*
X112773999Y-110906776D01*
X112795500Y-110826534D01*
X112795500Y-110743462D01*
X112773999Y-110663220D01*
X112732462Y-110591277D01*
X112673721Y-110532536D01*
X112673720Y-110532535D01*
X112673719Y-110532534D01*
X112601784Y-110491002D01*
X112601778Y-110490999D01*
X112599326Y-110490342D01*
X112599323Y-110490340D01*
X112568227Y-110482007D01*
X112552827Y-110474412D01*
X112547516Y-110470336D01*
X112530687Y-110441213D01*
X112530619Y-110440700D01*
X112536129Y-110412924D01*
X112537155Y-110411146D01*
X112544140Y-110402042D01*
X113476610Y-109469573D01*
X113490883Y-109460037D01*
X113499128Y-109456622D01*
X113505828Y-109453848D01*
X113522663Y-109450500D01*
X114051895Y-109450500D01*
X114068731Y-109453849D01*
G37*
%TD.AperFunction*%
%TA.AperFunction,Conductor*%
G36*
X110978155Y-108436196D02*
G01*
X110982522Y-108438004D01*
X110996801Y-108447544D01*
X111245424Y-108696167D01*
X111254961Y-108710441D01*
X111261150Y-108725382D01*
X111264500Y-108742221D01*
X111264500Y-109081747D01*
X111261150Y-109098587D01*
X111258586Y-109104776D01*
X111234776Y-109128586D01*
X111228587Y-109131150D01*
X111211747Y-109134500D01*
X111047434Y-109134500D01*
X111020745Y-109139809D01*
X111014777Y-109140996D01*
X111002800Y-109143378D01*
X110952198Y-109177188D01*
X110952188Y-109177198D01*
X110918378Y-109227800D01*
X110918377Y-109227804D01*
X110915311Y-109243214D01*
X110915312Y-109243215D01*
X110909500Y-109272434D01*
X110909500Y-109427570D01*
X110913352Y-109446931D01*
X110913352Y-109446933D01*
X110913353Y-109446933D01*
X110913353Y-109446934D01*
X110916977Y-109465155D01*
X110918378Y-109472198D01*
X110932077Y-109492700D01*
X110951923Y-109522404D01*
X110952193Y-109522807D01*
X110987879Y-109546650D01*
X110989075Y-109547449D01*
X110989076Y-109547450D01*
X111004529Y-109557776D01*
X111008476Y-109559885D01*
X111015142Y-109564339D01*
X111033851Y-109592340D01*
X111027282Y-109625369D01*
X111027163Y-109625546D01*
X111027084Y-109625663D01*
X111007460Y-109641690D01*
X111006999Y-109641881D01*
X111002936Y-109643335D01*
X111002807Y-109643373D01*
X110952196Y-109677190D01*
X110952190Y-109677196D01*
X110918377Y-109727802D01*
X110918377Y-109727803D01*
X110914825Y-109745652D01*
X110914826Y-109745653D01*
X110909500Y-109772433D01*
X110909500Y-109822898D01*
X110906149Y-109839739D01*
X110904336Y-109844115D01*
X110880522Y-109867926D01*
X110846854Y-109867927D01*
X110842478Y-109866115D01*
X110828198Y-109856575D01*
X110467247Y-109495624D01*
X110457709Y-109481349D01*
X110455715Y-109476534D01*
X110452943Y-109469843D01*
X110451095Y-109441619D01*
X110460497Y-109406536D01*
X110460497Y-109323464D01*
X110438996Y-109243222D01*
X110397459Y-109171279D01*
X110384973Y-109158793D01*
X110375435Y-109144517D01*
X110371922Y-109136035D01*
X110370466Y-109106431D01*
X110370813Y-109105287D01*
X110371416Y-109103298D01*
X110376938Y-109091623D01*
X110407783Y-109045460D01*
X110409896Y-109041505D01*
X110414342Y-109034852D01*
X110442344Y-109016146D01*
X110450924Y-109015301D01*
X110450925Y-109015301D01*
X110482038Y-109028188D01*
X110490364Y-109043761D01*
X110491721Y-109043199D01*
X110493379Y-109047200D01*
X110504415Y-109063718D01*
X110504416Y-109063718D01*
X110527193Y-109097807D01*
X110552131Y-109114469D01*
X110556458Y-109117360D01*
X110556459Y-109117361D01*
X110577793Y-109131616D01*
X110577796Y-109131617D01*
X110577801Y-109131621D01*
X110577803Y-109131622D01*
X110622434Y-109140500D01*
X110622438Y-109140500D01*
X110777562Y-109140500D01*
X110777566Y-109140500D01*
X110822197Y-109131622D01*
X110872807Y-109097807D01*
X110906622Y-109047197D01*
X110915500Y-109002566D01*
X110915500Y-108481221D01*
X110918847Y-108464388D01*
X110920457Y-108460501D01*
X110920660Y-108460010D01*
X110944469Y-108436196D01*
X110978145Y-108436192D01*
X110978155Y-108436196D01*
G37*
%TD.AperFunction*%
%TA.AperFunction,Conductor*%
G36*
X106801494Y-107298387D02*
G01*
X106814381Y-107329500D01*
X106801494Y-107360613D01*
X106787219Y-107370150D01*
X106781677Y-107372445D01*
X106776339Y-107374657D01*
X106762987Y-107381459D01*
X106724654Y-107426344D01*
X106711769Y-107457453D01*
X106707235Y-107480248D01*
X106705877Y-107487080D01*
X106704500Y-107494001D01*
X106704500Y-107501764D01*
X106703655Y-107510346D01*
X106699500Y-107531237D01*
X106699500Y-107768762D01*
X106703829Y-107790529D01*
X106704599Y-107796546D01*
X106705146Y-107805925D01*
X106706334Y-107816081D01*
X106708262Y-107827007D01*
X106708264Y-107827019D01*
X106708443Y-107827775D01*
X106712611Y-107840985D01*
X106712618Y-107841004D01*
X106717321Y-107852840D01*
X106717324Y-107852846D01*
X106747931Y-107893336D01*
X106747933Y-107893338D01*
X106747934Y-107893339D01*
X106774650Y-107913839D01*
X106808069Y-107930320D01*
X106869328Y-107946734D01*
X106879928Y-107951124D01*
X106920063Y-107974297D01*
X106929171Y-107981286D01*
X106961947Y-108014062D01*
X106968937Y-108023172D01*
X106992110Y-108063308D01*
X106996504Y-108073913D01*
X107007647Y-108115500D01*
X107008500Y-108118680D01*
X107009999Y-108130069D01*
X107009999Y-108176407D01*
X107008500Y-108187794D01*
X106996505Y-108232560D01*
X106992109Y-108243172D01*
X106968939Y-108283302D01*
X106961947Y-108292414D01*
X106923883Y-108330478D01*
X106919313Y-108334458D01*
X106910809Y-108340889D01*
X106910807Y-108340891D01*
X106895323Y-108355947D01*
X106894513Y-108356743D01*
X106894510Y-108356748D01*
X106867617Y-108409281D01*
X106867616Y-108409285D01*
X106862286Y-108442534D01*
X106863111Y-108464564D01*
X106863654Y-108479086D01*
X106863680Y-108479767D01*
X106863681Y-108479779D01*
X106938572Y-108794314D01*
X106946620Y-108828115D01*
X106946620Y-108828116D01*
X106949046Y-108838307D01*
X106958581Y-108862773D01*
X106970271Y-108883695D01*
X106972213Y-108887013D01*
X106976584Y-108890746D01*
X106980545Y-108899445D01*
X106980825Y-108907559D01*
X106984500Y-108917677D01*
X106984500Y-109002570D01*
X106988180Y-109021066D01*
X106988180Y-109021068D01*
X106988181Y-109021068D01*
X106993378Y-109047199D01*
X106993379Y-109047200D01*
X107004416Y-109063718D01*
X107027193Y-109097807D01*
X107052131Y-109114469D01*
X107056458Y-109117360D01*
X107056459Y-109117361D01*
X107077793Y-109131616D01*
X107077796Y-109131617D01*
X107077801Y-109131621D01*
X107077803Y-109131622D01*
X107122434Y-109140500D01*
X107122438Y-109140500D01*
X107277562Y-109140500D01*
X107277566Y-109140500D01*
X107322197Y-109131622D01*
X107372807Y-109097807D01*
X107406622Y-109047197D01*
X107406622Y-109047195D01*
X107407784Y-109045457D01*
X107409889Y-109041515D01*
X107413152Y-109036632D01*
X107441152Y-109017926D01*
X107474181Y-109024497D01*
X107486318Y-109036635D01*
X107505258Y-109064979D01*
X107511829Y-109080845D01*
X107513135Y-109087414D01*
X107506568Y-109120434D01*
X107505218Y-109122455D01*
X107480022Y-109140515D01*
X107478226Y-109140996D01*
X107478212Y-109141003D01*
X107408778Y-109181092D01*
X107406695Y-109182119D01*
X107347121Y-109241693D01*
X107346094Y-109243776D01*
X107306004Y-109313212D01*
X107306000Y-109313219D01*
X107298095Y-109342723D01*
X107296494Y-109348699D01*
X107284500Y-109393462D01*
X107284500Y-109476534D01*
X107293948Y-109511793D01*
X107296899Y-109522807D01*
X107306000Y-109556773D01*
X107306000Y-109556775D01*
X107306004Y-109556783D01*
X107340241Y-109616082D01*
X107345760Y-109632341D01*
X107346378Y-109637037D01*
X107337660Y-109669565D01*
X107308496Y-109686402D01*
X107303801Y-109687020D01*
X107286672Y-109685897D01*
X107248294Y-109675615D01*
X107165222Y-109675615D01*
X107121031Y-109687456D01*
X107118389Y-109688164D01*
X107084978Y-109697116D01*
X107084972Y-109697119D01*
X107038868Y-109723738D01*
X107022613Y-109729256D01*
X107015141Y-109730240D01*
X106983764Y-109722380D01*
X106979207Y-109719114D01*
X106973689Y-109714426D01*
X106970646Y-109711376D01*
X106947809Y-109677196D01*
X106947807Y-109677193D01*
X106917661Y-109657051D01*
X106914035Y-109654628D01*
X106914034Y-109654627D01*
X106895468Y-109642222D01*
X106891516Y-109640110D01*
X106884856Y-109635660D01*
X106866147Y-109607659D01*
X106872718Y-109574630D01*
X106894058Y-109560371D01*
X106893193Y-109558280D01*
X106897192Y-109556622D01*
X106897197Y-109556622D01*
X106947807Y-109522807D01*
X106981622Y-109472197D01*
X106990500Y-109427566D01*
X106990500Y-109272434D01*
X106981622Y-109227803D01*
X106980759Y-109226512D01*
X106963131Y-109200128D01*
X106947807Y-109177193D01*
X106922992Y-109160613D01*
X106897198Y-109143378D01*
X106897194Y-109143377D01*
X106885234Y-109140997D01*
X106885227Y-109140997D01*
X106852566Y-109134500D01*
X106852563Y-109134500D01*
X106653105Y-109134500D01*
X106636266Y-109131150D01*
X106621325Y-109124961D01*
X106607051Y-109115424D01*
X106596914Y-109105287D01*
X106594928Y-109103301D01*
X106573757Y-109082128D01*
X106573675Y-109082049D01*
X106014872Y-108523246D01*
X106014872Y-108523245D01*
X105976755Y-108485128D01*
X105976752Y-108485127D01*
X105976750Y-108485125D01*
X105962902Y-108479390D01*
X105962855Y-108479370D01*
X105928401Y-108465098D01*
X105927232Y-108464564D01*
X105926954Y-108464499D01*
X105926953Y-108464499D01*
X105873047Y-108464499D01*
X105867928Y-108464499D01*
X105866576Y-108464499D01*
X105866544Y-108464500D01*
X105123046Y-108464500D01*
X105087835Y-108479085D01*
X105087833Y-108479085D01*
X105073469Y-108485034D01*
X105073255Y-108485120D01*
X105073241Y-108485130D01*
X105022242Y-108536127D01*
X105022240Y-108536133D01*
X104890057Y-108668317D01*
X104757951Y-108800422D01*
X104743677Y-108809959D01*
X104728736Y-108816148D01*
X104711897Y-108819498D01*
X104708464Y-108819498D01*
X104690674Y-108824265D01*
X104675007Y-108828463D01*
X104628220Y-108840999D01*
X104628214Y-108841002D01*
X104558778Y-108881092D01*
X104556695Y-108882119D01*
X104497121Y-108941693D01*
X104496094Y-108943776D01*
X104456006Y-109013209D01*
X104456002Y-109013216D01*
X104455998Y-109013227D01*
X104447290Y-109045723D01*
X104439699Y-109061117D01*
X104435621Y-109066432D01*
X104406457Y-109083271D01*
X104406432Y-109083275D01*
X104405921Y-109083342D01*
X104378195Y-109077817D01*
X104376422Y-109076793D01*
X104367315Y-109069804D01*
X104254575Y-108957064D01*
X104245037Y-108942787D01*
X104238849Y-108927846D01*
X104235500Y-108911010D01*
X104235500Y-108133103D01*
X104238849Y-108116267D01*
X104245037Y-108101326D01*
X104254572Y-108087052D01*
X105037052Y-107304572D01*
X105051324Y-107295037D01*
X105059569Y-107291622D01*
X105066269Y-107288848D01*
X105083104Y-107285500D01*
X106770381Y-107285500D01*
X106801494Y-107298387D01*
G37*
%TD.AperFunction*%
%TA.AperFunction,Conductor*%
G36*
X116305530Y-106897077D02*
G01*
X116329336Y-106920885D01*
X116331149Y-106925261D01*
X116334500Y-106942102D01*
X116334500Y-107091969D01*
X116331150Y-107108810D01*
X116327636Y-107117292D01*
X116307725Y-107139257D01*
X116304892Y-107140771D01*
X116296930Y-107144069D01*
X116294692Y-107144748D01*
X116264756Y-107164750D01*
X116264748Y-107164758D01*
X116244749Y-107194690D01*
X116244119Y-107196767D01*
X116243906Y-107198936D01*
X116239500Y-107221088D01*
X116239500Y-107838910D01*
X116239501Y-107838915D01*
X116243905Y-107861060D01*
X116244190Y-107863959D01*
X116245309Y-107866661D01*
X116247158Y-107868914D01*
X116264751Y-107895246D01*
X116264753Y-107895247D01*
X116264756Y-107895249D01*
X116284668Y-107908553D01*
X116296808Y-107920694D01*
X116300529Y-107926264D01*
X116307100Y-107959275D01*
X116306718Y-107961199D01*
X116288018Y-107989206D01*
X116288006Y-107989214D01*
X116264760Y-108004746D01*
X116264746Y-108004760D01*
X116244751Y-108034686D01*
X116244184Y-108037533D01*
X116244184Y-108037537D01*
X116240214Y-108057499D01*
X116239500Y-108061089D01*
X116239500Y-108678910D01*
X116239501Y-108678915D01*
X116243905Y-108701060D01*
X116244190Y-108703959D01*
X116245309Y-108706660D01*
X116247156Y-108708911D01*
X116264753Y-108735247D01*
X116294689Y-108755249D01*
X116321087Y-108760500D01*
X116746747Y-108760499D01*
X116763582Y-108763847D01*
X116769771Y-108766410D01*
X116793585Y-108790221D01*
X116793586Y-108790222D01*
X116796150Y-108796411D01*
X116799500Y-108813251D01*
X116799500Y-109497247D01*
X116796150Y-109514087D01*
X116793586Y-109520276D01*
X116769776Y-109544086D01*
X116763587Y-109546650D01*
X116746747Y-109550000D01*
X115909409Y-109550000D01*
X115892570Y-109546650D01*
X115883341Y-109542827D01*
X115862074Y-109524176D01*
X115861281Y-109522803D01*
X115861050Y-109522402D01*
X115856657Y-109511796D01*
X115849000Y-109483219D01*
X115807463Y-109411276D01*
X115748722Y-109352535D01*
X115748721Y-109352534D01*
X115748720Y-109352533D01*
X115676785Y-109311001D01*
X115676777Y-109310997D01*
X115676777Y-109310996D01*
X115662072Y-109307057D01*
X115662071Y-109307057D01*
X115596537Y-109289497D01*
X115596535Y-109289497D01*
X115513466Y-109289497D01*
X115513465Y-109289497D01*
X115488875Y-109296086D01*
X115472469Y-109300482D01*
X115433221Y-109310998D01*
X115433215Y-109311001D01*
X115361292Y-109352526D01*
X115361273Y-109352539D01*
X115322219Y-109391592D01*
X115307944Y-109401130D01*
X115301756Y-109403693D01*
X115268082Y-109403693D01*
X115261894Y-109401130D01*
X115247618Y-109391592D01*
X115208719Y-109352693D01*
X115136784Y-109311161D01*
X115136776Y-109311157D01*
X115136776Y-109311156D01*
X115121474Y-109307057D01*
X115121473Y-109307057D01*
X115056536Y-109289657D01*
X115056534Y-109289657D01*
X114973463Y-109289657D01*
X114956296Y-109294255D01*
X114956297Y-109294256D01*
X114941516Y-109298216D01*
X114924386Y-109299339D01*
X114912042Y-109297714D01*
X114886672Y-109285203D01*
X114494575Y-108893106D01*
X114491177Y-108886529D01*
X114485037Y-108878829D01*
X114478849Y-108863888D01*
X114475500Y-108847052D01*
X114475500Y-108828462D01*
X115539500Y-108828462D01*
X115539500Y-108911534D01*
X115553510Y-108963819D01*
X115561001Y-108991776D01*
X115561003Y-108991780D01*
X115583191Y-109030210D01*
X115602536Y-109063717D01*
X115602538Y-109063719D01*
X115661279Y-109122460D01*
X115733222Y-109163997D01*
X115813464Y-109185498D01*
X115813466Y-109185498D01*
X115896534Y-109185498D01*
X115896536Y-109185498D01*
X115976778Y-109163997D01*
X116048721Y-109122460D01*
X116107462Y-109063719D01*
X116148999Y-108991776D01*
X116170500Y-108911534D01*
X116170500Y-108828462D01*
X116148999Y-108748220D01*
X116107462Y-108676277D01*
X116048721Y-108617536D01*
X116048720Y-108617535D01*
X116048719Y-108617534D01*
X115976784Y-108576002D01*
X115976780Y-108576000D01*
X115976778Y-108575999D01*
X115971184Y-108574500D01*
X115971180Y-108574498D01*
X115919096Y-108560543D01*
X115896536Y-108554498D01*
X115896534Y-108554498D01*
X115813465Y-108554498D01*
X115813464Y-108554498D01*
X115780656Y-108563289D01*
X115767807Y-108566732D01*
X115733220Y-108575999D01*
X115733214Y-108576002D01*
X115663778Y-108616092D01*
X115661695Y-108617119D01*
X115602121Y-108676693D01*
X115601094Y-108678776D01*
X115561004Y-108748212D01*
X115561000Y-108748219D01*
X115555730Y-108767888D01*
X115555706Y-108767977D01*
X115555671Y-108768112D01*
X115539500Y-108828462D01*
X114475500Y-108828462D01*
X114475500Y-107863307D01*
X114475501Y-107863289D01*
X114475501Y-107803049D01*
X114475501Y-107803047D01*
X114454872Y-107753246D01*
X114454872Y-107753245D01*
X114442127Y-107740500D01*
X114414258Y-107712630D01*
X114414257Y-107712629D01*
X114413745Y-107712117D01*
X114413688Y-107712062D01*
X113768427Y-107066801D01*
X113758887Y-107052521D01*
X113757075Y-107048145D01*
X113757079Y-107014469D01*
X113780893Y-106990660D01*
X113782942Y-106989811D01*
X113785275Y-106988846D01*
X113802105Y-106985500D01*
X116086544Y-106985500D01*
X116086576Y-106985501D01*
X116087928Y-106985501D01*
X116093047Y-106985501D01*
X116146952Y-106985501D01*
X116146953Y-106985501D01*
X116182167Y-106970913D01*
X116196755Y-106964872D01*
X116196756Y-106964870D01*
X116196759Y-106964869D01*
X116228276Y-106933351D01*
X116234872Y-106926755D01*
X116234872Y-106926754D01*
X116241057Y-106920569D01*
X116241060Y-106920564D01*
X116241065Y-106920560D01*
X116244675Y-106916950D01*
X116244677Y-106916946D01*
X116253201Y-106908422D01*
X116267475Y-106898886D01*
X116271854Y-106897073D01*
X116305530Y-106897077D01*
G37*
%TD.AperFunction*%
%TA.AperFunction,Conductor*%
G36*
X113538731Y-107233849D02*
G01*
X113553672Y-107240037D01*
X113567949Y-107249575D01*
X114185424Y-107867050D01*
X114194961Y-107881324D01*
X114201150Y-107896265D01*
X114204500Y-107913104D01*
X114204500Y-108110049D01*
X114201149Y-108126890D01*
X114199336Y-108131266D01*
X114175522Y-108155077D01*
X114141847Y-108155075D01*
X114140908Y-108154686D01*
X114119643Y-108136036D01*
X114107786Y-108115499D01*
X114107786Y-108115498D01*
X114102465Y-108106282D01*
X114043719Y-108047536D01*
X113971784Y-108006004D01*
X113971774Y-108005999D01*
X113967115Y-108004751D01*
X113967113Y-108004751D01*
X113891536Y-107984500D01*
X113891534Y-107984500D01*
X113808465Y-107984500D01*
X113808464Y-107984500D01*
X113772148Y-107994231D01*
X113728220Y-108006001D01*
X113728214Y-108006004D01*
X113658778Y-108046094D01*
X113656695Y-108047121D01*
X113597121Y-108106695D01*
X113596094Y-108108778D01*
X113556005Y-108178212D01*
X113555979Y-108178263D01*
X113555830Y-108178859D01*
X113549579Y-108202188D01*
X113534901Y-108256970D01*
X113534500Y-108258465D01*
X113534500Y-108341535D01*
X113543059Y-108373480D01*
X113544182Y-108390609D01*
X113542557Y-108402954D01*
X113530046Y-108428324D01*
X113505130Y-108453240D01*
X113505128Y-108453243D01*
X113503801Y-108456447D01*
X113502148Y-108460440D01*
X113499523Y-108466777D01*
X113484499Y-108503043D01*
X113484499Y-108563289D01*
X113484500Y-108563307D01*
X113484500Y-108696895D01*
X113483430Y-108699752D01*
X113481150Y-108713734D01*
X113474961Y-108728675D01*
X113465424Y-108742949D01*
X113412949Y-108795424D01*
X113398675Y-108804961D01*
X113383734Y-108811150D01*
X113366895Y-108814500D01*
X112633456Y-108814500D01*
X112633424Y-108814499D01*
X112632072Y-108814499D01*
X112626953Y-108814499D01*
X112573047Y-108814499D01*
X112573045Y-108814499D01*
X112573043Y-108814499D01*
X112564750Y-108817935D01*
X112564748Y-108817936D01*
X112552417Y-108823043D01*
X112552415Y-108823044D01*
X112523247Y-108835125D01*
X112521994Y-108835752D01*
X112519623Y-108838749D01*
X112504901Y-108853472D01*
X112485128Y-108873245D01*
X112485127Y-108873247D01*
X112485126Y-108873248D01*
X111971801Y-109386571D01*
X111957521Y-109396111D01*
X111953145Y-109397923D01*
X111919469Y-109397919D01*
X111895659Y-109374103D01*
X111893847Y-109369727D01*
X111890500Y-109352894D01*
X111890500Y-109272437D01*
X111890500Y-109272434D01*
X111881622Y-109227803D01*
X111880759Y-109226512D01*
X111863131Y-109200128D01*
X111847807Y-109177193D01*
X111822992Y-109160613D01*
X111797198Y-109143378D01*
X111797194Y-109143377D01*
X111785234Y-109140997D01*
X111785227Y-109140997D01*
X111752566Y-109134500D01*
X111752563Y-109134500D01*
X111588253Y-109134500D01*
X111571415Y-109131151D01*
X111565225Y-109128587D01*
X111541412Y-109104774D01*
X111541411Y-109104771D01*
X111538848Y-109098582D01*
X111535500Y-109081747D01*
X111535500Y-108692424D01*
X111535501Y-108692406D01*
X111535501Y-108632166D01*
X111518026Y-108589976D01*
X111517589Y-108588922D01*
X111514874Y-108582366D01*
X111514873Y-108582364D01*
X111514872Y-108582362D01*
X111494581Y-108562071D01*
X111493053Y-108560543D01*
X111473757Y-108541245D01*
X111473675Y-108541166D01*
X110755755Y-107823246D01*
X110755755Y-107823245D01*
X110717639Y-107785128D01*
X110716811Y-107784785D01*
X110716122Y-107784500D01*
X110700964Y-107778221D01*
X110696959Y-107776562D01*
X110696959Y-107776561D01*
X110696956Y-107776561D01*
X110669284Y-107765098D01*
X110668115Y-107764564D01*
X110667837Y-107764499D01*
X110667836Y-107764499D01*
X110613930Y-107764499D01*
X110608811Y-107764499D01*
X110607459Y-107764499D01*
X110607427Y-107764500D01*
X109270232Y-107764500D01*
X109253393Y-107761150D01*
X109241888Y-107756384D01*
X109220622Y-107737734D01*
X109211562Y-107722041D01*
X109207571Y-107715128D01*
X109206129Y-107712630D01*
X109203123Y-107707423D01*
X109202639Y-107706524D01*
X109202464Y-107706281D01*
X109202460Y-107706277D01*
X109143725Y-107647541D01*
X109143719Y-107647537D01*
X109143717Y-107647535D01*
X109143707Y-107647529D01*
X109071784Y-107606004D01*
X109071776Y-107606000D01*
X109071778Y-107606000D01*
X109017115Y-107591354D01*
X108991536Y-107584500D01*
X108991534Y-107584500D01*
X108908466Y-107584500D01*
X108908464Y-107584500D01*
X108854969Y-107598834D01*
X108828220Y-107606001D01*
X108828214Y-107606004D01*
X108758778Y-107646094D01*
X108756695Y-107647121D01*
X108697121Y-107706695D01*
X108696094Y-107708778D01*
X108656004Y-107778214D01*
X108656000Y-107778220D01*
X108645249Y-107818341D01*
X108645250Y-107818342D01*
X108642925Y-107827019D01*
X108634500Y-107858464D01*
X108634500Y-107941536D01*
X108636294Y-107948232D01*
X108648620Y-107994231D01*
X108656001Y-108021778D01*
X108656004Y-108021784D01*
X108693033Y-108085919D01*
X108698552Y-108102180D01*
X108699426Y-108108823D01*
X108690722Y-108141331D01*
X108690410Y-108141738D01*
X108666893Y-108157466D01*
X108664914Y-108157997D01*
X108653511Y-108159500D01*
X108622434Y-108159500D01*
X108592678Y-108165418D01*
X108592677Y-108165417D01*
X108577803Y-108168377D01*
X108577802Y-108168377D01*
X108527196Y-108202190D01*
X108527190Y-108202196D01*
X108490592Y-108256970D01*
X108489315Y-108259671D01*
X108485663Y-108265138D01*
X108457664Y-108283851D01*
X108424636Y-108277285D01*
X108424453Y-108277163D01*
X108424336Y-108277084D01*
X108408318Y-108257481D01*
X108408116Y-108256994D01*
X108406657Y-108252919D01*
X108406622Y-108252804D01*
X108406622Y-108252803D01*
X108375860Y-108206763D01*
X108372807Y-108202193D01*
X108367131Y-108198400D01*
X108355862Y-108190870D01*
X108355862Y-108190871D01*
X108355861Y-108190870D01*
X108322198Y-108168378D01*
X108313270Y-108166602D01*
X108307313Y-108165417D01*
X108277571Y-108159500D01*
X108277566Y-108159500D01*
X108139500Y-108159500D01*
X108108387Y-108146613D01*
X108095500Y-108115500D01*
X108095500Y-107798233D01*
X108096345Y-107789650D01*
X108096488Y-107788932D01*
X108100500Y-107768762D01*
X108100500Y-107531238D01*
X108096345Y-107510348D01*
X108095500Y-107501765D01*
X108095500Y-107494003D01*
X108095500Y-107494000D01*
X108088231Y-107457455D01*
X108075344Y-107426342D01*
X108068540Y-107412987D01*
X108023658Y-107374656D01*
X108023656Y-107374655D01*
X108023655Y-107374654D01*
X108012782Y-107370151D01*
X107988969Y-107346339D01*
X107988968Y-107312663D01*
X108012780Y-107288850D01*
X108029619Y-107285500D01*
X109016895Y-107285500D01*
X109033731Y-107288849D01*
X109048672Y-107295037D01*
X109062949Y-107304575D01*
X109172062Y-107413688D01*
X109172117Y-107413745D01*
X109172629Y-107414257D01*
X109172630Y-107414258D01*
X109198873Y-107440500D01*
X109213245Y-107454872D01*
X109218135Y-107456897D01*
X109218136Y-107456898D01*
X109233019Y-107463063D01*
X109233020Y-107463063D01*
X109233025Y-107463065D01*
X109263048Y-107475501D01*
X109263049Y-107475501D01*
X109322072Y-107475501D01*
X109323424Y-107475501D01*
X109323456Y-107475500D01*
X112636544Y-107475500D01*
X112636576Y-107475501D01*
X112637928Y-107475501D01*
X112643047Y-107475501D01*
X112696951Y-107475501D01*
X112696953Y-107475501D01*
X112726976Y-107463064D01*
X112733776Y-107460248D01*
X112733778Y-107460247D01*
X112733781Y-107460246D01*
X112734498Y-107459949D01*
X112734500Y-107459948D01*
X112746755Y-107454872D01*
X112784872Y-107416755D01*
X112784872Y-107416753D01*
X112952052Y-107249573D01*
X112966325Y-107240037D01*
X112974570Y-107236622D01*
X112981270Y-107233848D01*
X112998105Y-107230500D01*
X113521895Y-107230500D01*
X113538731Y-107233849D01*
G37*
%TD.AperFunction*%
%TA.AperFunction,Conductor*%
G36*
X112332848Y-106728849D02*
G01*
X112347789Y-106735037D01*
X112362066Y-106744575D01*
X112541179Y-106923688D01*
X112541234Y-106923745D01*
X112582358Y-106964868D01*
X112582358Y-106964869D01*
X112582359Y-106964869D01*
X112582362Y-106964872D01*
X112582366Y-106964875D01*
X112582564Y-106964955D01*
X112602990Y-106973416D01*
X112602993Y-106973416D01*
X112604969Y-106974235D01*
X112604972Y-106974236D01*
X112632165Y-106985501D01*
X112691189Y-106985501D01*
X112692541Y-106985501D01*
X112692573Y-106985500D01*
X112717894Y-106985500D01*
X112734727Y-106988847D01*
X112736881Y-106989739D01*
X112739103Y-106990659D01*
X112762919Y-107014469D01*
X112762923Y-107048145D01*
X112761111Y-107052521D01*
X112751571Y-107066801D01*
X112632949Y-107185424D01*
X112618675Y-107194961D01*
X112603734Y-107201150D01*
X112586895Y-107204500D01*
X110484009Y-107204500D01*
X110467171Y-107201151D01*
X110460981Y-107198587D01*
X110437168Y-107174774D01*
X110437163Y-107174762D01*
X110436966Y-107174286D01*
X110435120Y-107146076D01*
X110435650Y-107144096D01*
X110440047Y-107133484D01*
X110458349Y-107101785D01*
X110458352Y-107101779D01*
X110458353Y-107101778D01*
X110478880Y-107025167D01*
X110483267Y-107014575D01*
X110488868Y-107004874D01*
X110495851Y-106995773D01*
X110747052Y-106744573D01*
X110761325Y-106735037D01*
X110769570Y-106731622D01*
X110776270Y-106728848D01*
X110793105Y-106725500D01*
X112316012Y-106725500D01*
X112332848Y-106728849D01*
G37*
%TD.AperFunction*%
%TA.AperFunction,Conductor*%
G36*
X116361612Y-104211938D02*
G01*
X116361613Y-104211939D01*
X116374500Y-104243052D01*
X116374500Y-105451085D01*
X116371150Y-105467924D01*
X116367327Y-105477153D01*
X116348678Y-105498418D01*
X116346908Y-105499440D01*
X116336295Y-105503837D01*
X116328223Y-105505999D01*
X116328212Y-105506005D01*
X116258778Y-105546094D01*
X116256695Y-105547121D01*
X116197121Y-105606695D01*
X116196094Y-105608778D01*
X116156003Y-105678215D01*
X116156002Y-105678217D01*
X116155999Y-105678226D01*
X116155995Y-105678237D01*
X116146915Y-105712120D01*
X116139325Y-105727512D01*
X116135249Y-105732825D01*
X116106086Y-105749666D01*
X116106059Y-105749670D01*
X116105548Y-105749737D01*
X116077822Y-105744212D01*
X116076049Y-105743188D01*
X116066942Y-105736199D01*
X115844575Y-105513832D01*
X115835037Y-105499555D01*
X115828849Y-105484614D01*
X115825500Y-105467778D01*
X115825500Y-104733985D01*
X115828847Y-104717152D01*
X115835037Y-104702205D01*
X115844571Y-104687936D01*
X116236753Y-104295755D01*
X116236755Y-104295755D01*
X116274872Y-104257638D01*
X116286501Y-104229558D01*
X116296040Y-104215284D01*
X116299391Y-104211933D01*
X116330506Y-104199051D01*
X116361612Y-104211938D01*
G37*
%TD.AperFunction*%
%TA.AperFunction,Conductor*%
G36*
X110384432Y-101453847D02*
G01*
X110386586Y-101454739D01*
X110388808Y-101455659D01*
X110412624Y-101479469D01*
X110412654Y-101513081D01*
X110412600Y-101513212D01*
X110396368Y-101533027D01*
X110389246Y-101537785D01*
X110387707Y-101540664D01*
X110342241Y-101586129D01*
X110342240Y-101586133D01*
X109842949Y-102085424D01*
X109828675Y-102094961D01*
X109813734Y-102101150D01*
X109796895Y-102104500D01*
X104193105Y-102104500D01*
X104176267Y-102101151D01*
X104161325Y-102094962D01*
X104147050Y-102085424D01*
X103882250Y-101820624D01*
X103872712Y-101806349D01*
X103867946Y-101794843D01*
X103866098Y-101766619D01*
X103875500Y-101731536D01*
X103875500Y-101648464D01*
X103853999Y-101568222D01*
X103833075Y-101531981D01*
X103833075Y-101531980D01*
X103828514Y-101524081D01*
X103822994Y-101507819D01*
X103822120Y-101501176D01*
X103830824Y-101468668D01*
X103831137Y-101468259D01*
X103854677Y-101452526D01*
X103856659Y-101451996D01*
X103868036Y-101450500D01*
X110367599Y-101450500D01*
X110384432Y-101453847D01*
G37*
%TD.AperFunction*%
%TD*%
%TA.AperFunction,Conductor*%
%TO.N,/ESP32-C3/WIFI*%
G36*
X110853813Y-115802706D02*
G01*
X110854818Y-115803340D01*
X110857671Y-115805876D01*
X110957166Y-115928877D01*
X111051084Y-116044982D01*
X111053207Y-116049025D01*
X111054086Y-116052000D01*
X111053331Y-116060547D01*
X111004937Y-116157336D01*
X111002139Y-116160941D01*
X110999812Y-116162960D01*
X110991583Y-116165809D01*
X110675606Y-116150615D01*
X110671179Y-116149512D01*
X110669238Y-116148597D01*
X110663444Y-116142554D01*
X110662938Y-116141352D01*
X110662045Y-116137512D01*
X110657407Y-116059381D01*
X110649659Y-115928877D01*
X110650283Y-115924354D01*
X110651342Y-115921297D01*
X110656281Y-115915152D01*
X110839265Y-115802971D01*
X110843545Y-115801392D01*
X110845741Y-115801045D01*
X110853813Y-115802706D01*
G37*
%TD.AperFunction*%
%TD*%
%TA.AperFunction,Conductor*%
%TO.N,+5V*%
G36*
X101236083Y-111503348D02*
G01*
X101248780Y-111508607D01*
X101267143Y-111522858D01*
X101272564Y-111530086D01*
X101386916Y-111682554D01*
X101393458Y-111695040D01*
X101397742Y-111707892D01*
X101400000Y-111721806D01*
X101400000Y-111941016D01*
X101399597Y-111946959D01*
X101398798Y-111952820D01*
X101397596Y-111958653D01*
X101157574Y-112822729D01*
X101149840Y-112838057D01*
X101140515Y-112849982D01*
X101125532Y-112862232D01*
X101095904Y-112877047D01*
X101095903Y-112877048D01*
X101063870Y-112893064D01*
X101054305Y-112896531D01*
X101044596Y-112898823D01*
X101034490Y-112900000D01*
X100644048Y-112900000D01*
X100627209Y-112896650D01*
X100618470Y-112893030D01*
X100596741Y-112873557D01*
X100595365Y-112871051D01*
X100590973Y-112859382D01*
X100590831Y-112858742D01*
X100588884Y-112849982D01*
X100501570Y-112457066D01*
X100500785Y-112452320D01*
X100500263Y-112447563D01*
X100500000Y-112442764D01*
X100500000Y-111660687D01*
X100500568Y-111653639D01*
X100501690Y-111646725D01*
X100503380Y-111639859D01*
X100537203Y-111538389D01*
X100545705Y-111523475D01*
X100552729Y-111515376D01*
X100575877Y-111501377D01*
X100576749Y-111501171D01*
X100586835Y-111500000D01*
X101219247Y-111500000D01*
X101236083Y-111503348D01*
G37*
%TD.AperFunction*%
%TD*%
%TA.AperFunction,Conductor*%
%TO.N,Net-(J2-In)*%
G36*
X109980290Y-104572927D02*
G01*
X110425656Y-104932988D01*
X110429935Y-104940854D01*
X110430000Y-104942086D01*
X110430000Y-105057913D01*
X110426573Y-105066186D01*
X110425656Y-105067011D01*
X109980290Y-105427072D01*
X109971702Y-105429609D01*
X109964182Y-105425738D01*
X109863313Y-105312035D01*
X109593386Y-105007762D01*
X109590460Y-104999301D01*
X109593386Y-104992237D01*
X109964183Y-104574260D01*
X109972235Y-104570346D01*
X109980290Y-104572927D01*
G37*
%TD.AperFunction*%
%TD*%
%TA.AperFunction,Conductor*%
%TO.N,+3V3*%
G36*
X107987113Y-107462887D02*
G01*
X108000000Y-107494000D01*
X108000000Y-108165336D01*
X107995950Y-108183775D01*
X107850000Y-108500000D01*
X107850000Y-108806000D01*
X107837113Y-108837113D01*
X107806000Y-108850000D01*
X107084753Y-108850000D01*
X107053640Y-108837113D01*
X107041950Y-108816191D01*
X107039524Y-108806000D01*
X106956583Y-108457650D01*
X106961913Y-108424402D01*
X106977385Y-108409358D01*
X106983720Y-108405701D01*
X107042461Y-108346960D01*
X107083998Y-108275017D01*
X107105499Y-108194775D01*
X107105499Y-108111703D01*
X107083998Y-108031461D01*
X107042461Y-107959518D01*
X106983720Y-107900777D01*
X106983719Y-107900776D01*
X106911781Y-107859242D01*
X106911777Y-107859240D01*
X106832787Y-107838074D01*
X106806071Y-107817574D01*
X106801364Y-107805729D01*
X106801188Y-107804987D01*
X106800000Y-107794832D01*
X106800000Y-107494000D01*
X106812887Y-107462887D01*
X106844000Y-107450000D01*
X107956000Y-107450000D01*
X107987113Y-107462887D01*
G37*
%TD.AperFunction*%
%TD*%
%TA.AperFunction,Conductor*%
%TO.N,Net-(U1-LNA_IN)*%
G36*
X110657049Y-114555775D02*
G01*
X110843007Y-114734509D01*
X110846597Y-114742712D01*
X110844692Y-114749347D01*
X110716963Y-114944703D01*
X110709567Y-114949752D01*
X110707170Y-114950000D01*
X110593780Y-114950000D01*
X110585507Y-114946573D01*
X110583284Y-114943469D01*
X110558772Y-114893694D01*
X110461972Y-114697123D01*
X110461392Y-114688189D01*
X110465606Y-114682480D01*
X110642080Y-114554732D01*
X110650791Y-114552657D01*
X110657049Y-114555775D01*
G37*
%TD.AperFunction*%
%TD*%
%TA.AperFunction,Conductor*%
%TO.N,+3V3*%
G36*
X112464082Y-112103348D02*
G01*
X112470271Y-112105911D01*
X112494085Y-112129722D01*
X112494086Y-112129723D01*
X112496650Y-112135912D01*
X112500000Y-112152752D01*
X112500000Y-113147247D01*
X112496650Y-113164087D01*
X112494086Y-113170276D01*
X112470276Y-113194086D01*
X112464087Y-113196650D01*
X112447247Y-113200000D01*
X112309907Y-113200000D01*
X112303358Y-113199510D01*
X112296920Y-113198541D01*
X112290529Y-113197085D01*
X111650004Y-113000000D01*
X111650002Y-113000000D01*
X111650000Y-113000000D01*
X111566122Y-113000000D01*
X111560380Y-112999624D01*
X111554705Y-112998877D01*
X111549060Y-112997754D01*
X111544077Y-112996419D01*
X111509347Y-112987113D01*
X111502753Y-112985346D01*
X111502752Y-112985346D01*
X111419683Y-112985346D01*
X111419681Y-112985346D01*
X111378356Y-112996419D01*
X111378352Y-112996420D01*
X111373368Y-112997755D01*
X111367729Y-112998876D01*
X111362057Y-112999623D01*
X111356312Y-113000000D01*
X111252753Y-113000000D01*
X111235915Y-112996651D01*
X111229725Y-112994087D01*
X111205912Y-112970274D01*
X111205911Y-112970271D01*
X111203348Y-112964082D01*
X111200000Y-112947247D01*
X111200000Y-112252752D01*
X111203348Y-112235917D01*
X111205911Y-112229728D01*
X111229722Y-112205914D01*
X111229722Y-112205913D01*
X111234090Y-112204104D01*
X111235920Y-112203347D01*
X111252753Y-112200000D01*
X111599998Y-112200000D01*
X111600000Y-112200000D01*
X112295384Y-112100659D01*
X112298452Y-112100332D01*
X112301587Y-112100109D01*
X112304683Y-112100000D01*
X112447247Y-112100000D01*
X112464082Y-112103348D01*
G37*
%TD.AperFunction*%
%TD*%
%TA.AperFunction,Conductor*%
%TO.N,+3V3*%
G36*
X101637113Y-109012887D02*
G01*
X101650000Y-109044000D01*
X101650000Y-110738598D01*
X101644463Y-110759966D01*
X101549740Y-110930466D01*
X101542390Y-110940210D01*
X101330991Y-111151612D01*
X101299878Y-111164500D01*
X101094000Y-111164500D01*
X101062887Y-111151613D01*
X101050000Y-111120500D01*
X101050000Y-109044000D01*
X101062887Y-109012887D01*
X101094000Y-109000000D01*
X101606000Y-109000000D01*
X101637113Y-109012887D01*
G37*
%TD.AperFunction*%
%TD*%
%TA.AperFunction,Conductor*%
%TO.N,Net-(U1-LNA_IN)*%
G36*
X110708368Y-114850890D02*
G01*
X110709131Y-114851206D01*
X110711292Y-114852101D01*
X110717312Y-114857741D01*
X110837402Y-115101608D01*
X110838580Y-115106016D01*
X110838754Y-115108677D01*
X110836816Y-115115918D01*
X110836519Y-115116364D01*
X110834509Y-115118663D01*
X110659475Y-115272662D01*
X110655526Y-115274951D01*
X110653431Y-115275666D01*
X110645181Y-115275405D01*
X110644066Y-115274943D01*
X110640817Y-115272919D01*
X110466084Y-115119186D01*
X110463312Y-115115562D01*
X110462137Y-115113170D01*
X110461166Y-115105714D01*
X110461271Y-115105185D01*
X110462245Y-115102321D01*
X110582256Y-114858617D01*
X110585033Y-114854995D01*
X110587410Y-114852908D01*
X110595129Y-114850000D01*
X110703893Y-114850000D01*
X110708368Y-114850890D01*
G37*
%TD.AperFunction*%
%TD*%
%TA.AperFunction,Conductor*%
%TO.N,/ESP32-C3/WIFI*%
G36*
X111500886Y-116054782D02*
G01*
X111743769Y-116183205D01*
X111749481Y-116190101D01*
X111750000Y-116193548D01*
X111750000Y-116307062D01*
X111746573Y-116315335D01*
X111744562Y-116316945D01*
X111542769Y-116444791D01*
X111533946Y-116446324D01*
X111527930Y-116442865D01*
X111355488Y-116256993D01*
X111352373Y-116248598D01*
X111354542Y-116242239D01*
X111485896Y-116058324D01*
X111493493Y-116053584D01*
X111500886Y-116054782D01*
G37*
%TD.AperFunction*%
%TD*%
%TA.AperFunction,Conductor*%
%TO.N,/ESP32-C3/WIFI*%
G36*
X111324392Y-116039383D02*
G01*
X111328819Y-116040486D01*
X111330760Y-116041401D01*
X111336554Y-116047444D01*
X111337058Y-116048642D01*
X111337953Y-116052486D01*
X111350339Y-116261119D01*
X111349716Y-116265641D01*
X111348657Y-116268699D01*
X111343716Y-116274845D01*
X111160737Y-116387023D01*
X111156455Y-116388604D01*
X111154261Y-116388952D01*
X111146183Y-116387290D01*
X111145177Y-116386655D01*
X111142325Y-116384119D01*
X111051555Y-116271905D01*
X110948912Y-116145013D01*
X110946791Y-116140974D01*
X110945911Y-116137995D01*
X110946666Y-116129452D01*
X110995063Y-116032658D01*
X110997857Y-116029058D01*
X111000190Y-116027035D01*
X111008413Y-116024189D01*
X111324392Y-116039383D01*
G37*
%TD.AperFunction*%
%TD*%
%TA.AperFunction,Conductor*%
%TO.N,/ESP32-C3/WIFI*%
G36*
X115908264Y-113587280D02*
G01*
X116385808Y-114065780D01*
X116389227Y-114074056D01*
X116385792Y-114082325D01*
X116380628Y-114085325D01*
X115963501Y-114199999D01*
X115963500Y-114200000D01*
X115963500Y-114568300D01*
X115960073Y-114576573D01*
X115951800Y-114580000D01*
X115848200Y-114580000D01*
X115839927Y-114576573D01*
X115836500Y-114568300D01*
X115836500Y-114200000D01*
X115836498Y-114199999D01*
X115419371Y-114085325D01*
X115412302Y-114079828D01*
X115411191Y-114070943D01*
X115414188Y-114065782D01*
X115891719Y-113587296D01*
X115899988Y-113583862D01*
X115908264Y-113587280D01*
G37*
%TD.AperFunction*%
%TD*%
%TA.AperFunction,Conductor*%
%TO.N,Net-(U1-LNA_IN)*%
G36*
X110764725Y-114153427D02*
G01*
X110766795Y-114156231D01*
X110895217Y-114399112D01*
X110896055Y-114408028D01*
X110891674Y-114414102D01*
X110707763Y-114545455D01*
X110699039Y-114547475D01*
X110693006Y-114544511D01*
X110507134Y-114372068D01*
X110503399Y-114363929D01*
X110505208Y-114357229D01*
X110633055Y-114155438D01*
X110640377Y-114150284D01*
X110642938Y-114150000D01*
X110756452Y-114150000D01*
X110764725Y-114153427D01*
G37*
%TD.AperFunction*%
%TD*%
%TA.AperFunction,Conductor*%
%TO.N,Net-(J2-In)*%
G36*
X110267649Y-104814337D02*
G01*
X110424200Y-104992272D01*
X110427092Y-105000746D01*
X110424200Y-105007728D01*
X110267649Y-105185662D01*
X110259611Y-105189610D01*
X110253696Y-105188430D01*
X110006531Y-105066716D01*
X110000623Y-105059987D01*
X110000000Y-105056220D01*
X110000000Y-104943779D01*
X110003427Y-104935506D01*
X110006527Y-104933285D01*
X110253696Y-104811568D01*
X110262632Y-104810988D01*
X110267649Y-104814337D01*
G37*
%TD.AperFunction*%
%TD*%
M02*
